<?xml version="1.0" encoding="UTF-8" standalone="no"?>
<!-- Created with Inkscape (http://www.inkscape.org/) -->

<svg
        width="300.93399"
        height="300.80099"
        viewBox="0 0 300.93399 300.80099"
        version="1.1"
        id="svg5"
        xml:space="preserve"
        sodipodi:docname="logo_cropped.svg"
        inkscape:version="1.2.1 (9c6d41e4, 2022-07-14)"
        inkscape:export-filename="logo_cropped.png"
        inkscape:export-xdpi="1000"
        inkscape:export-ydpi="1000"
        xmlns:inkscape="http://www.inkscape.org/namespaces/inkscape"
        xmlns:sodipodi="http://sodipodi.sourceforge.net/DTD/sodipodi-0.dtd"
        xmlns="http://www.w3.org/2000/svg"
><sodipodi:namedview
     id="namedview42"
     pagecolor="#ffffff"
     bordercolor="#cccccc"
     borderopacity="1"
     inkscape:showpageshadow="0"
     inkscape:pageopacity="1"
     inkscape:pagecheckerboard="0"
     inkscape:deskcolor="#d1d1d1"
     showgrid="false"
     inkscape:zoom="1.0592396"
     inkscape:cx="50.035894"
     inkscape:cy="103.37604"
     inkscape:window-width="1440"
     inkscape:window-height="659"
     inkscape:window-x="0"
     inkscape:window-y="25"
     inkscape:window-maximized="0"
     inkscape:current-layer="svg5" />
    <defs
            id="defs2"><rect
       x="352.05164"
       y="63.931892"
       width="226.74512"
       height="69.898872"
       id="rect377-4" /></defs>
    <g
            id="layer1"
            style="display:inline"
            transform="translate(-527.56591,-80.599509)"><g
       style="display:inline;fill:none"
       id="g243"
       transform="translate(166.62083,54.864767)"><svg
         class="role-diagram-draw-area"
         version="1.1"
         id="svg182"
         width="100%"
         height="100%"><g
           id="g176" /><g
            id="g178"/><g
            id="g180"/></svg><g
            id="g6157"
            transform="matrix(2.648613,0,0,2.648613,-733.8016,-212.86353)"
            style="stroke-width:0.377556"><g
           class="shapes-region"
           style="display:inline;fill:none;stroke:#000000;stroke-width:0.410464"
           id="g174"
           transform="matrix(-0.91983126,0,0,-0.91983126,912.88317,283.67394)"><g
             class="shape"
             id="g134"
             style="stroke-width:0.410464"><path
               class="real"
               d="m 479.31,110.48 c 19.37,-9.49 42.13,-11.39 39.22,2.85 -2.9,14.24 0.97,16.14 14.53,35.12 13.56,18.99 -32.93,50.32 -52.3,21.84 -19.37,-28.48 -20.82,-50.32 -1.45,-59.81 z"
               style="fill:#d0021b;fill-opacity:0.4;stroke:none;stroke-width:0.410464;stroke-opacity:1"
               id="path132" /></g><g
            class="shape"
            id="g138"
            style="stroke-width:0.410464"><path
               class="real"
               d="m 444.92,115.23 c 19.37,-9.5 77.49,-14.24 58.12,4.74 -19.38,18.99 -2.91,26.59 13.07,48.42 15.98,21.84 -57.63,39.87 -77,11.39 -19.37,-28.48 -13.56,-55.06 5.81,-64.55 z"
               style="fill:#014798;fill-opacity:0.4;stroke:none;stroke-width:0.410464;stroke-opacity:1"
               id="path136" /></g><g
            class="shape"
            id="g142"
            style="stroke-width:0.410464"><path
               class="real"
               d="m 440.08,120.92 c 7.75,-3.79 15.5,-0.95 17.43,15.19 1.94,16.14 27.12,-0.95 29.3,15.19 2.18,16.14 -25.42,52.22 -44.79,23.74 -19.37,-28.48 -9.69,-50.32 -1.94,-54.12 z"
               style="fill:#00ffc8;fill-opacity:0.4;stroke:none;stroke-width:0.410464;stroke-opacity:1"
               id="path140" /></g><g
            class="composite-shape"
            id="g146"
            style="stroke-width:0.410464"><path
               class="real"
               d="m 440.56,129.7 c 0,-2.22 1.85,-4.03 4.12,-4.03 2.27,0 4.12,1.81 4.12,4.03 0,2.23 -1.85,4.04 -4.12,4.04 -2.27,0 -4.12,-1.81 -4.12,-4.04 z"
               style="fill:#ffffff;fill-opacity:1;stroke:none;stroke-width:0.410464;stroke-opacity:1"
               id="path144" /></g><g
            class="composite-shape"
            id="g150"
            style="stroke-width:0.410464"><path
               class="real"
               d="m 487.05,116.41 c 0,-2.23 1.85,-4.03 4.12,-4.03 2.27,0 4.12,1.8 4.12,4.03 0,2.23 -1.85,4.04 -4.12,4.04 -2.27,0 -4.12,-1.81 -4.12,-4.04 z"
               style="fill:#ffffff;fill-opacity:1;stroke:none;stroke-width:0.410464;stroke-opacity:1"
               id="path148" /></g><g
            class="composite-shape"
            id="g154"
            style="stroke-width:0.410464"><path
               class="real"
               d="m 473.49,149.64 c 0,-2.23 1.85,-4.03 4.12,-4.03 2.27,0 4.12,1.8 4.12,4.03 0,2.23 -1.85,4.04 -4.12,4.04 -2.27,0 -4.12,-1.81 -4.12,-4.04 z"
               style="fill:#ffffff;fill-opacity:1;stroke:none;stroke-width:0.410464;stroke-opacity:1"
               id="path152" /></g><g
            class="composite-shape"
            id="g158"
            style="stroke-width:0.410464"><path
               class="real"
               d="m 512.24,145.84 c 0,-2.23 1.84,-4.03 4.11,-4.03 2.28,0 4.12,1.8 4.12,4.03 0,2.23 -1.84,4.04 -4.12,4.04 -2.27,0 -4.11,-1.81 -4.11,-4.04 z"
               style="fill:#ffffff;fill-opacity:1;stroke:none;stroke-width:0.410464;stroke-opacity:1"
               id="path156" /></g><g
            class="composite-shape"
            id="g162"
            style="stroke-width:0.410464"><path
               class="real"
               d="m 452.19,177.17 c 0,-2.23 1.84,-4.03 4.11,-4.03 2.28,0 4.12,1.8 4.12,4.03 0,2.23 -1.84,4.04 -4.12,4.04 -2.27,0 -4.11,-1.81 -4.11,-4.04 z"
               style="fill:#ffffff;fill-opacity:1;stroke:none;stroke-width:0.410464;stroke-opacity:1"
               id="path160" /></g><g
            class="composite-shape"
            id="g166"
            style="stroke-width:0.410464"><path
               class="real"
               d="m 501.58,175.27 c 0,-2.23 1.85,-4.03 4.12,-4.03 2.27,0 4.11,1.8 4.11,4.03 0,2.23 -1.84,4.04 -4.11,4.04 -2.27,0 -4.12,-1.81 -4.12,-4.04 z"
               style="fill:#ffffff;fill-opacity:1;stroke:none;stroke-width:0.410464;stroke-opacity:1"
               id="path164" /></g><g
            class="arrow-line"
            id="g170"
            style="stroke-width:0.410464"><path
               class="connection real"
               stroke-dasharray="none"
               d="m 491.17,116.41 25.18,29.43"
               style="fill:none;fill-opacity:1;stroke:#ffffff;stroke-width:0.410464;stroke-opacity:1"
               id="path168" /></g><g
            id="g172"
            style="stroke-width:0.410464"/></g>
        <svg
                width="660"
                height="300"
                style="font-family:Asana-Math, Asana;display:inline;fill:none;stroke-width:0.377556"
                version="1.1"
                id="svg200"><g
             id="g198"
             transform="translate(14.491229,0.85242526)"
             style="stroke-width:0.377556"><g
               id="g196"
               style="stroke-width:0.377556"><text
                 xml:space="preserve"
                 transform="translate(-166.62083,-54.864767)"
                 id="text375"
                 style="font-style:normal;font-weight:normal;font-size:40px;line-height:1.25;font-family:sans-serif;white-space:pre;shape-inside:url(#rect377-4);display:inline;fill:#000000;fill-opacity:1;stroke:none;stroke-width:0.377556" /><text
                xml:space="preserve"
                style="font-style:normal;font-weight:normal;font-size:120px;line-height:1.25;font-family:sans-serif;fill:#000000;fill-opacity:0.394495;stroke:none;stroke-width:0.377556"
                x="201.62689"
                y="188.07643"
                id="text938"><tspan
                   id="tspan936"
                   x="201.62689"
                   y="188.07643"
                   style="font-style:normal;font-variant:normal;font-weight:normal;font-stretch:normal;font-size:120px;font-family:'Code Bold';-inkscape-font-specification:'Code Bold, Normal';font-variant-ligatures:normal;font-variant-caps:normal;font-variant-numeric:normal;font-variant-east-asian:normal;fill:#000000;fill-opacity:1;stroke-width:0.377556"><tspan
                     style="fill:#ff7514;fill-opacity:0.698039;stroke-width:0.377556"
                     id="tspan5196" /></tspan></text></g></g></svg></g></g></g></svg>
