<svg width="440" height="340" xmlns="http://www.w3.org/2000/svg">
<path stroke-width="1.0" stroke="black" d="M 243 274 20 243"/>
<path stroke-width="1.0" stroke="black" d="M 243 274 210 38"/>
<path stroke-width="1.0" stroke="black" d="M 243 274 420 20"/>
<path stroke-width="1.0" stroke="black" d="M 243 274 401 320"/>
<path stroke-width="1.0" stroke="black" d="M 20 243 243 274"/>
<path stroke-width="1.0" stroke="black" d="M 20 243 210 38"/>
<path stroke-width="1.0" stroke="black" d="M 210 38 243 274"/>
<path stroke-width="1.0" stroke="black" d="M 210 38 20 243"/>
<path stroke-width="1.0" stroke="black" d="M 210 38 420 20"/>
<path stroke-width="1.0" stroke="black" d="M 210 38 401 320"/>
<path stroke-width="1.0" stroke="black" d="M 420 20 243 274"/>
<path stroke-width="1.0" stroke="black" d="M 420 20 210 38"/>
<path stroke-width="1.0" stroke="black" d="M 420 20 401 320"/>
<path stroke-width="1.0" stroke="black" d="M 401 320 243 274"/>
<path stroke-width="1.0" stroke="black" d="M 401 320 210 38"/>
<path stroke-width="1.0" stroke="black" d="M 401 320 420 20"/>
<path d="M 253.22667837698705 274.0449135813499 A 10.0 10.0 0 0 1 241.8035299942542 283.9431280001592 L 243.22667837698705 274.0449135813499" style="fill:red;stroke:black;stroke-width:1.0" />
<path d="M 241.8035299942542 283.9431280001592 A 10.0 10.0 0 1 1 253.22667837698705 274.0449135813499 L 243.22667837698705 274.0449135813499" style="fill:black;stroke:black;stroke-width:1.0" />
<path d="M 30.0 243.2387767295771 A 10.0 10.0 0 0 1 11.909830056250527 249.11662925250184 L 20.0 243.2387767295771" style="fill:red;stroke:black;stroke-width:1.0" />
<path d="M 11.909830056250527 249.11662925250184 A 10.0 10.0 0 1 1 30.0 243.2387767295771 L 20.0 243.2387767295771" style="fill:black;stroke:black;stroke-width:1.0" />
<path d="M 220.24863087497033 38.14715912592179 A 10.0 10.0 0 0 1 208.82548249223748 48.04537354473111 L 210.24863087497033 38.14715912592179" style="fill:red;stroke:black;stroke-width:1.0" />
<path d="M 208.82548249223748 48.04537354473111 A 10.0 10.0 0 1 1 220.24863087497033 38.14715912592179 L 210.24863087497033 38.14715912592179" style="fill:black;stroke:black;stroke-width:1.0" />
<path d="M 430.0 20.0 A 10.0 10.0 0 0 1 411.90983005625054 25.877852522924734 L 420.0 20.0" style="fill:red;stroke:black;stroke-width:1.0" />
<path d="M 411.90983005625054 25.877852522924734 A 10.0 10.0 0 1 1 430.0 19.999999999999996 L 420.0 20.0" style="fill:black;stroke:black;stroke-width:1.0" />
<circle cx="401" cy="320" r="10.0" style="fill:black;stroke:black;stroke-width:1.0"/>
</svg>
