<?xml version="1.0" encoding="utf-8" standalone="no"?>
<!DOCTYPE svg PUBLIC "-//W3C//DTD SVG 1.1//EN"
  "http://www.w3.org/Graphics/SVG/1.1/DTD/svg11.dtd">
<svg xmlns:xlink="http://www.w3.org/1999/xlink" width="856.735312pt" height="425.015078pt" viewBox="0 0 856.735312 425.015078" xmlns="http://www.w3.org/2000/svg" version="1.1">
 <metadata>
  <rdf:RDF xmlns:dc="http://purl.org/dc/elements/1.1/" xmlns:cc="http://creativecommons.org/ns#" xmlns:rdf="http://www.w3.org/1999/02/22-rdf-syntax-ns#">
   <cc:Work>
    <dc:type rdf:resource="http://purl.org/dc/dcmitype/StillImage"/>
    <dc:date>2023-03-26T15:16:00.337939</dc:date>
    <dc:format>image/svg+xml</dc:format>
    <dc:creator>
     <cc:Agent>
      <dc:title>Matplotlib v3.7.1, https://matplotlib.org/</dc:title>
     </cc:Agent>
    </dc:creator>
   </cc:Work>
  </rdf:RDF>
 </metadata>
 <defs>
  <style type="text/css">*{stroke-linejoin: round; stroke-linecap: butt}</style>
 </defs>
 <g id="figure_1">
  <g id="patch_1">
   <path d="M 0 425.015078 
L 856.735312 425.015078 
L 856.735312 0 
L 0 0 
z
" style="fill: #ffffff"/>
  </g>
  <g id="axes_1">
   <g id="patch_2">
    <path d="M 61.695313 394.458828 
L 455.615313 394.458828 
L 455.615313 12.898828 
L 61.695313 12.898828 
z
" style="fill: #ffffff"/>
   </g>
   <g id="matplotlib.axis_1">
    <g id="text_1">
     <!-- Class I -->
     <g style="fill: #262626" transform="translate(224.452188 413.655703) scale(0.2 -0.2)">
      <defs>
       <path id="DejaVuSerif-43" d="M 4513 1234 
Q 4306 581 3820 245 
Q 3334 -91 2591 -91 
Q 2134 -91 1743 65 
Q 1353 222 1050 525 
Q 700 875 529 1320 
Q 359 1766 359 2328 
Q 359 3416 987 4083 
Q 1616 4750 2644 4750 
Q 3025 4750 3456 4650 
Q 3888 4550 4384 4347 
L 4384 3272 
L 4031 3272 
Q 3916 3859 3567 4137 
Q 3219 4416 2591 4416 
Q 1844 4416 1459 3886 
Q 1075 3356 1075 2328 
Q 1075 1303 1459 773 
Q 1844 244 2591 244 
Q 3113 244 3450 492 
Q 3788 741 3938 1234 
L 4513 1234 
z
" transform="scale(0.015625)"/>
       <path id="DejaVuSerif-6c" d="M 1313 331 
L 1856 331 
L 1856 0 
L 184 0 
L 184 331 
L 738 331 
L 738 4531 
L 184 4531 
L 184 4863 
L 1313 4863 
L 1313 331 
z
" transform="scale(0.015625)"/>
       <path id="DejaVuSerif-61" d="M 2547 1044 
L 2547 1747 
L 1806 1747 
Q 1378 1747 1168 1562 
Q 959 1378 959 997 
Q 959 650 1171 447 
Q 1384 244 1747 244 
Q 2106 244 2326 466 
Q 2547 688 2547 1044 
z
M 3122 2075 
L 3122 331 
L 3634 331 
L 3634 0 
L 2547 0 
L 2547 359 
Q 2356 128 2106 18 
Q 1856 -91 1522 -91 
Q 969 -91 644 203 
Q 319 497 319 997 
Q 319 1513 691 1797 
Q 1063 2081 1741 2081 
L 2547 2081 
L 2547 2309 
Q 2547 2688 2317 2895 
Q 2088 3103 1672 3103 
Q 1328 3103 1125 2947 
Q 922 2791 872 2484 
L 575 2484 
L 575 3156 
Q 875 3284 1158 3348 
Q 1441 3413 1709 3413 
Q 2400 3413 2761 3070 
Q 3122 2728 3122 2075 
z
" transform="scale(0.015625)"/>
       <path id="DejaVuSerif-73" d="M 359 184 
L 359 959 
L 691 959 
Q 703 588 923 403 
Q 1144 219 1575 219 
Q 1963 219 2166 364 
Q 2369 509 2369 788 
Q 2369 1006 2220 1140 
Q 2072 1275 1594 1428 
L 1178 1569 
Q 750 1706 558 1912 
Q 366 2119 366 2438 
Q 366 2894 700 3153 
Q 1034 3413 1625 3413 
Q 1888 3413 2178 3344 
Q 2469 3275 2778 3144 
L 2778 2419 
L 2447 2419 
Q 2434 2741 2221 2922 
Q 2009 3103 1644 3103 
Q 1281 3103 1095 2975 
Q 909 2847 909 2591 
Q 909 2381 1050 2254 
Q 1191 2128 1613 1997 
L 2069 1856 
Q 2541 1709 2748 1489 
Q 2956 1269 2956 922 
Q 2956 450 2595 179 
Q 2234 -91 1600 -91 
Q 1278 -91 972 -22 
Q 666 47 359 184 
z
" transform="scale(0.015625)"/>
       <path id="DejaVuSerif-20" transform="scale(0.015625)"/>
       <path id="DejaVuSerif-49" d="M 1581 331 
L 2175 331 
L 2175 0 
L 353 0 
L 353 331 
L 947 331 
L 947 4331 
L 353 4331 
L 353 4666 
L 2175 4666 
L 2175 4331 
L 1581 4331 
L 1581 331 
z
" transform="scale(0.015625)"/>
      </defs>
      <use xlink:href="#DejaVuSerif-43"/>
      <use xlink:href="#DejaVuSerif-6c" x="76.513672"/>
      <use xlink:href="#DejaVuSerif-61" x="108.496094"/>
      <use xlink:href="#DejaVuSerif-73" x="168.115234"/>
      <use xlink:href="#DejaVuSerif-73" x="219.433594"/>
      <use xlink:href="#DejaVuSerif-20" x="270.751953"/>
      <use xlink:href="#DejaVuSerif-49" x="302.539062"/>
     </g>
    </g>
   </g>
   <g id="matplotlib.axis_2">
    <g id="ytick_1">
     <g id="line2d_1">
      <path d="M 61.695313 394.458828 
L 455.615313 394.458828 
" clip-path="url(#p8101204fae)" style="fill: none; stroke: #e6e6e6; stroke-width: 0.8; stroke-linecap: round"/>
     </g>
     <g id="text_2">
      <!-- 0.0 -->
      <g style="fill: #262626" transform="translate(30.840625 400.157656) scale(0.15 -0.15)">
       <defs>
        <path id="DejaVuSerif-30" d="M 2034 219 
Q 2513 219 2750 744 
Q 2988 1269 2988 2328 
Q 2988 3391 2750 3916 
Q 2513 4441 2034 4441 
Q 1556 4441 1318 3916 
Q 1081 3391 1081 2328 
Q 1081 1269 1318 744 
Q 1556 219 2034 219 
z
M 2034 -91 
Q 1275 -91 848 546 
Q 422 1184 422 2328 
Q 422 3475 848 4112 
Q 1275 4750 2034 4750 
Q 2797 4750 3222 4112 
Q 3647 3475 3647 2328 
Q 3647 1184 3222 546 
Q 2797 -91 2034 -91 
z
" transform="scale(0.015625)"/>
        <path id="DejaVuSerif-2e" d="M 603 325 
Q 603 500 722 622 
Q 841 744 1019 744 
Q 1191 744 1312 622 
Q 1434 500 1434 325 
Q 1434 153 1312 31 
Q 1191 -91 1019 -91 
Q 841 -91 722 29 
Q 603 150 603 325 
z
" transform="scale(0.015625)"/>
       </defs>
       <use xlink:href="#DejaVuSerif-30"/>
       <use xlink:href="#DejaVuSerif-2e" x="63.623047"/>
       <use xlink:href="#DejaVuSerif-30" x="95.410156"/>
      </g>
     </g>
    </g>
    <g id="ytick_2">
     <g id="line2d_2">
      <path d="M 61.695313 356.302828 
L 455.615313 356.302828 
" clip-path="url(#p8101204fae)" style="fill: none; stroke: #e6e6e6; stroke-width: 0.8; stroke-linecap: round"/>
     </g>
     <g id="text_3">
      <!-- 0.1 -->
      <g style="fill: #262626" transform="translate(30.840625 362.001656) scale(0.15 -0.15)">
       <defs>
        <path id="DejaVuSerif-31" d="M 909 0 
L 909 331 
L 1722 331 
L 1722 4213 
L 781 3603 
L 781 4013 
L 1919 4750 
L 2350 4750 
L 2350 331 
L 3163 331 
L 3163 0 
L 909 0 
z
" transform="scale(0.015625)"/>
       </defs>
       <use xlink:href="#DejaVuSerif-30"/>
       <use xlink:href="#DejaVuSerif-2e" x="63.623047"/>
       <use xlink:href="#DejaVuSerif-31" x="95.410156"/>
      </g>
     </g>
    </g>
    <g id="ytick_3">
     <g id="line2d_3">
      <path d="M 61.695313 318.146828 
L 455.615313 318.146828 
" clip-path="url(#p8101204fae)" style="fill: none; stroke: #e6e6e6; stroke-width: 0.8; stroke-linecap: round"/>
     </g>
     <g id="text_4">
      <!-- 0.2 -->
      <g style="fill: #262626" transform="translate(30.840625 323.845656) scale(0.15 -0.15)">
       <defs>
        <path id="DejaVuSerif-32" d="M 819 3553 
L 469 3553 
L 469 4384 
Q 803 4563 1142 4656 
Q 1481 4750 1806 4750 
Q 2534 4750 2956 4397 
Q 3378 4044 3378 3438 
Q 3378 2753 2422 1800 
Q 2347 1728 2309 1691 
L 1131 513 
L 3078 513 
L 3078 1088 
L 3444 1088 
L 3444 0 
L 434 0 
L 434 341 
L 1850 1753 
Q 2319 2222 2519 2614 
Q 2719 3006 2719 3438 
Q 2719 3909 2473 4175 
Q 2228 4441 1797 4441 
Q 1350 4441 1106 4219 
Q 863 3997 819 3553 
z
" transform="scale(0.015625)"/>
       </defs>
       <use xlink:href="#DejaVuSerif-30"/>
       <use xlink:href="#DejaVuSerif-2e" x="63.623047"/>
       <use xlink:href="#DejaVuSerif-32" x="95.410156"/>
      </g>
     </g>
    </g>
    <g id="ytick_4">
     <g id="line2d_4">
      <path d="M 61.695313 279.990828 
L 455.615313 279.990828 
" clip-path="url(#p8101204fae)" style="fill: none; stroke: #e6e6e6; stroke-width: 0.8; stroke-linecap: round"/>
     </g>
     <g id="text_5">
      <!-- 0.3 -->
      <g style="fill: #262626" transform="translate(30.840625 285.689656) scale(0.15 -0.15)">
       <defs>
        <path id="DejaVuSerif-33" d="M 622 4469 
Q 988 4606 1323 4678 
Q 1659 4750 1953 4750 
Q 2638 4750 3022 4454 
Q 3406 4159 3406 3634 
Q 3406 3213 3140 2930 
Q 2875 2647 2388 2547 
Q 2963 2466 3280 2130 
Q 3597 1794 3597 1259 
Q 3597 606 3158 257 
Q 2719 -91 1894 -91 
Q 1528 -91 1179 -12 
Q 831 66 488 225 
L 488 1131 
L 838 1131 
Q 869 681 1141 450 
Q 1413 219 1906 219 
Q 2384 219 2661 495 
Q 2938 772 2938 1253 
Q 2938 1803 2653 2086 
Q 2369 2369 1819 2369 
L 1522 2369 
L 1522 2688 
L 1678 2688 
Q 2225 2688 2498 2914 
Q 2772 3141 2772 3597 
Q 2772 4006 2547 4223 
Q 2322 4441 1900 4441 
Q 1478 4441 1245 4241 
Q 1013 4041 972 3647 
L 622 3647 
L 622 4469 
z
" transform="scale(0.015625)"/>
       </defs>
       <use xlink:href="#DejaVuSerif-30"/>
       <use xlink:href="#DejaVuSerif-2e" x="63.623047"/>
       <use xlink:href="#DejaVuSerif-33" x="95.410156"/>
      </g>
     </g>
    </g>
    <g id="ytick_5">
     <g id="line2d_5">
      <path d="M 61.695313 241.834828 
L 455.615313 241.834828 
" clip-path="url(#p8101204fae)" style="fill: none; stroke: #e6e6e6; stroke-width: 0.8; stroke-linecap: round"/>
     </g>
     <g id="text_6">
      <!-- 0.4 -->
      <g style="fill: #262626" transform="translate(30.840625 247.533656) scale(0.15 -0.15)">
       <defs>
        <path id="DejaVuSerif-34" d="M 2234 1581 
L 2234 4063 
L 641 1581 
L 2234 1581 
z
M 3609 0 
L 1484 0 
L 1484 331 
L 2234 331 
L 2234 1247 
L 197 1247 
L 197 1588 
L 2241 4750 
L 2859 4750 
L 2859 1581 
L 3750 1581 
L 3750 1247 
L 2859 1247 
L 2859 331 
L 3609 331 
L 3609 0 
z
" transform="scale(0.015625)"/>
       </defs>
       <use xlink:href="#DejaVuSerif-30"/>
       <use xlink:href="#DejaVuSerif-2e" x="63.623047"/>
       <use xlink:href="#DejaVuSerif-34" x="95.410156"/>
      </g>
     </g>
    </g>
    <g id="ytick_6">
     <g id="line2d_6">
      <path d="M 61.695313 203.678828 
L 455.615313 203.678828 
" clip-path="url(#p8101204fae)" style="fill: none; stroke: #e6e6e6; stroke-width: 0.8; stroke-linecap: round"/>
     </g>
     <g id="text_7">
      <!-- 0.5 -->
      <g style="fill: #262626" transform="translate(30.840625 209.377656) scale(0.15 -0.15)">
       <defs>
        <path id="DejaVuSerif-35" d="M 3219 4666 
L 3219 4153 
L 1081 4153 
L 1081 2816 
Q 1244 2928 1461 2984 
Q 1678 3041 1947 3041 
Q 2703 3041 3140 2622 
Q 3578 2203 3578 1478 
Q 3578 738 3136 323 
Q 2694 -91 1894 -91 
Q 1572 -91 1234 -12 
Q 897 66 544 225 
L 544 1131 
L 897 1131 
Q 925 688 1179 453 
Q 1434 219 1894 219 
Q 2388 219 2653 544 
Q 2919 869 2919 1478 
Q 2919 2084 2655 2407 
Q 2391 2731 1894 2731 
Q 1613 2731 1398 2631 
Q 1184 2531 1019 2322 
L 750 2322 
L 750 4666 
L 3219 4666 
z
" transform="scale(0.015625)"/>
       </defs>
       <use xlink:href="#DejaVuSerif-30"/>
       <use xlink:href="#DejaVuSerif-2e" x="63.623047"/>
       <use xlink:href="#DejaVuSerif-35" x="95.410156"/>
      </g>
     </g>
    </g>
    <g id="ytick_7">
     <g id="line2d_7">
      <path d="M 61.695313 165.522828 
L 455.615313 165.522828 
" clip-path="url(#p8101204fae)" style="fill: none; stroke: #e6e6e6; stroke-width: 0.8; stroke-linecap: round"/>
     </g>
     <g id="text_8">
      <!-- 0.6 -->
      <g style="fill: #262626" transform="translate(30.840625 171.221656) scale(0.15 -0.15)">
       <defs>
        <path id="DejaVuSerif-36" d="M 2094 219 
Q 2534 219 2771 542 
Q 3009 866 3009 1472 
Q 3009 2078 2771 2401 
Q 2534 2725 2094 2725 
Q 1647 2725 1412 2412 
Q 1178 2100 1178 1509 
Q 1178 888 1415 553 
Q 1653 219 2094 219 
z
M 1075 2569 
Q 1288 2803 1556 2918 
Q 1825 3034 2163 3034 
Q 2859 3034 3264 2615 
Q 3669 2197 3669 1472 
Q 3669 763 3233 336 
Q 2797 -91 2069 -91 
Q 1278 -91 853 498 
Q 428 1088 428 2181 
Q 428 3406 931 4078 
Q 1434 4750 2350 4750 
Q 2597 4750 2869 4703 
Q 3141 4656 3425 4563 
L 3425 3794 
L 3072 3794 
Q 3034 4109 2831 4275 
Q 2628 4441 2284 4441 
Q 1678 4441 1381 3981 
Q 1084 3522 1075 2569 
z
" transform="scale(0.015625)"/>
       </defs>
       <use xlink:href="#DejaVuSerif-30"/>
       <use xlink:href="#DejaVuSerif-2e" x="63.623047"/>
       <use xlink:href="#DejaVuSerif-36" x="95.410156"/>
      </g>
     </g>
    </g>
    <g id="ytick_8">
     <g id="line2d_8">
      <path d="M 61.695313 127.366828 
L 455.615313 127.366828 
" clip-path="url(#p8101204fae)" style="fill: none; stroke: #e6e6e6; stroke-width: 0.8; stroke-linecap: round"/>
     </g>
     <g id="text_9">
      <!-- 0.7 -->
      <g style="fill: #262626" transform="translate(30.840625 133.065656) scale(0.15 -0.15)">
       <defs>
        <path id="DejaVuSerif-37" d="M 3609 4347 
L 1784 0 
L 1319 0 
L 3059 4153 
L 903 4153 
L 903 3578 
L 538 3578 
L 538 4666 
L 3609 4666 
L 3609 4347 
z
" transform="scale(0.015625)"/>
       </defs>
       <use xlink:href="#DejaVuSerif-30"/>
       <use xlink:href="#DejaVuSerif-2e" x="63.623047"/>
       <use xlink:href="#DejaVuSerif-37" x="95.410156"/>
      </g>
     </g>
    </g>
    <g id="ytick_9">
     <g id="line2d_9">
      <path d="M 61.695313 89.210828 
L 455.615313 89.210828 
" clip-path="url(#p8101204fae)" style="fill: none; stroke: #e6e6e6; stroke-width: 0.8; stroke-linecap: round"/>
     </g>
     <g id="text_10">
      <!-- 0.8 -->
      <g style="fill: #262626" transform="translate(30.840625 94.909656) scale(0.15 -0.15)">
       <defs>
        <path id="DejaVuSerif-38" d="M 2981 1275 
Q 2981 1775 2732 2051 
Q 2484 2328 2034 2328 
Q 1584 2328 1336 2051 
Q 1088 1775 1088 1275 
Q 1088 772 1336 495 
Q 1584 219 2034 219 
Q 2484 219 2732 495 
Q 2981 772 2981 1275 
z
M 2853 3541 
Q 2853 3966 2637 4203 
Q 2422 4441 2034 4441 
Q 1650 4441 1433 4203 
Q 1216 3966 1216 3541 
Q 1216 3113 1433 2875 
Q 1650 2638 2034 2638 
Q 2422 2638 2637 2875 
Q 2853 3113 2853 3541 
z
M 2516 2484 
Q 3047 2413 3344 2092 
Q 3641 1772 3641 1275 
Q 3641 619 3225 264 
Q 2809 -91 2034 -91 
Q 1263 -91 845 264 
Q 428 619 428 1275 
Q 428 1772 725 2092 
Q 1022 2413 1556 2484 
Q 1084 2569 832 2842 
Q 581 3116 581 3541 
Q 581 4103 968 4426 
Q 1356 4750 2034 4750 
Q 2713 4750 3100 4426 
Q 3488 4103 3488 3541 
Q 3488 3116 3236 2842 
Q 2984 2569 2516 2484 
z
" transform="scale(0.015625)"/>
       </defs>
       <use xlink:href="#DejaVuSerif-30"/>
       <use xlink:href="#DejaVuSerif-2e" x="63.623047"/>
       <use xlink:href="#DejaVuSerif-38" x="95.410156"/>
      </g>
     </g>
    </g>
    <g id="ytick_10">
     <g id="line2d_10">
      <path d="M 61.695313 51.054828 
L 455.615313 51.054828 
" clip-path="url(#p8101204fae)" style="fill: none; stroke: #e6e6e6; stroke-width: 0.8; stroke-linecap: round"/>
     </g>
     <g id="text_11">
      <!-- 0.9 -->
      <g style="fill: #262626" transform="translate(30.840625 56.753656) scale(0.15 -0.15)">
       <defs>
        <path id="DejaVuSerif-39" d="M 2994 2091 
Q 2784 1856 2512 1740 
Q 2241 1625 1900 1625 
Q 1206 1625 804 2044 
Q 403 2463 403 3188 
Q 403 3897 839 4323 
Q 1275 4750 2003 4750 
Q 2794 4750 3217 4161 
Q 3641 3572 3641 2478 
Q 3641 1253 3137 581 
Q 2634 -91 1722 -91 
Q 1475 -91 1203 -44 
Q 931 3 647 97 
L 647 872 
L 997 872 
Q 1038 556 1241 387 
Q 1444 219 1784 219 
Q 2391 219 2687 676 
Q 2984 1134 2994 2091 
z
M 1978 4441 
Q 1534 4441 1298 4117 
Q 1063 3794 1063 3188 
Q 1063 2581 1298 2256 
Q 1534 1931 1978 1931 
Q 2422 1931 2658 2245 
Q 2894 2559 2894 3150 
Q 2894 3772 2656 4106 
Q 2419 4441 1978 4441 
z
" transform="scale(0.015625)"/>
       </defs>
       <use xlink:href="#DejaVuSerif-30"/>
       <use xlink:href="#DejaVuSerif-2e" x="63.623047"/>
       <use xlink:href="#DejaVuSerif-39" x="95.410156"/>
      </g>
     </g>
    </g>
    <g id="ytick_11">
     <g id="line2d_11">
      <path d="M 61.695313 12.898828 
L 455.615313 12.898828 
" clip-path="url(#p8101204fae)" style="fill: none; stroke: #e6e6e6; stroke-width: 0.8; stroke-linecap: round"/>
     </g>
     <g id="text_12">
      <!-- 1.0 -->
      <g style="fill: #262626" transform="translate(30.840625 18.597656) scale(0.15 -0.15)">
       <use xlink:href="#DejaVuSerif-31"/>
       <use xlink:href="#DejaVuSerif-2e" x="63.623047"/>
       <use xlink:href="#DejaVuSerif-30" x="95.410156"/>
      </g>
     </g>
    </g>
    <g id="text_13">
     <!-- Community membership -->
     <g style="fill: #262626" transform="translate(22.396875 328.399141) rotate(-90) scale(0.2 -0.2)">
      <defs>
       <path id="DejaVuSerif-6f" d="M 1925 219 
Q 2388 219 2623 584 
Q 2859 950 2859 1663 
Q 2859 2375 2623 2739 
Q 2388 3103 1925 3103 
Q 1463 3103 1227 2739 
Q 991 2375 991 1663 
Q 991 950 1228 584 
Q 1466 219 1925 219 
z
M 1925 -91 
Q 1200 -91 759 389 
Q 319 869 319 1663 
Q 319 2456 758 2934 
Q 1197 3413 1925 3413 
Q 2653 3413 3092 2934 
Q 3531 2456 3531 1663 
Q 3531 869 3092 389 
Q 2653 -91 1925 -91 
z
" transform="scale(0.015625)"/>
       <path id="DejaVuSerif-6d" d="M 3316 2675 
Q 3481 3041 3739 3227 
Q 3997 3413 4341 3413 
Q 4863 3413 5119 3089 
Q 5375 2766 5375 2113 
L 5375 331 
L 5894 331 
L 5894 0 
L 4300 0 
L 4300 331 
L 4800 331 
L 4800 2047 
Q 4800 2556 4650 2772 
Q 4500 2988 4153 2988 
Q 3769 2988 3567 2697 
Q 3366 2406 3366 1850 
L 3366 331 
L 3866 331 
L 3866 0 
L 2291 0 
L 2291 331 
L 2791 331 
L 2791 2069 
Q 2791 2566 2641 2777 
Q 2491 2988 2144 2988 
Q 1759 2988 1557 2697 
Q 1356 2406 1356 1850 
L 1356 331 
L 1856 331 
L 1856 0 
L 263 0 
L 263 331 
L 781 331 
L 781 2994 
L 231 2994 
L 231 3322 
L 1356 3322 
L 1356 2731 
Q 1516 3063 1762 3238 
Q 2009 3413 2322 3413 
Q 2709 3413 2968 3220 
Q 3228 3028 3316 2675 
z
" transform="scale(0.015625)"/>
       <path id="DejaVuSerif-75" d="M 2266 3322 
L 3341 3322 
L 3341 331 
L 3884 331 
L 3884 0 
L 2766 0 
L 2766 588 
Q 2606 256 2353 82 
Q 2100 -91 1766 -91 
Q 1213 -91 952 223 
Q 691 538 691 1209 
L 691 2988 
L 172 2988 
L 172 3322 
L 1269 3322 
L 1269 1388 
Q 1269 781 1417 556 
Q 1566 331 1947 331 
Q 2347 331 2556 625 
Q 2766 919 2766 1478 
L 2766 2988 
L 2266 2988 
L 2266 3322 
z
" transform="scale(0.015625)"/>
       <path id="DejaVuSerif-6e" d="M 263 0 
L 263 331 
L 781 331 
L 781 2988 
L 231 2988 
L 231 3322 
L 1356 3322 
L 1356 2731 
Q 1516 3069 1770 3241 
Q 2025 3413 2363 3413 
Q 2913 3413 3172 3097 
Q 3431 2781 3431 2113 
L 3431 331 
L 3944 331 
L 3944 0 
L 2356 0 
L 2356 331 
L 2853 331 
L 2853 1931 
Q 2853 2541 2703 2767 
Q 2553 2994 2175 2994 
Q 1775 2994 1565 2701 
Q 1356 2409 1356 1850 
L 1356 331 
L 1856 331 
L 1856 0 
L 263 0 
z
" transform="scale(0.015625)"/>
       <path id="DejaVuSerif-69" d="M 622 4353 
Q 622 4497 726 4603 
Q 831 4709 978 4709 
Q 1122 4709 1226 4603 
Q 1331 4497 1331 4353 
Q 1331 4206 1228 4103 
Q 1125 4000 978 4000 
Q 831 4000 726 4103 
Q 622 4206 622 4353 
z
M 1356 331 
L 1900 331 
L 1900 0 
L 231 0 
L 231 331 
L 781 331 
L 781 2988 
L 231 2988 
L 231 3322 
L 1356 3322 
L 1356 331 
z
" transform="scale(0.015625)"/>
       <path id="DejaVuSerif-74" d="M 691 2988 
L 184 2988 
L 184 3322 
L 691 3322 
L 691 4353 
L 1269 4353 
L 1269 3322 
L 2350 3322 
L 2350 2988 
L 1269 2988 
L 1269 878 
Q 1269 456 1350 337 
Q 1431 219 1650 219 
Q 1875 219 1978 351 
Q 2081 484 2088 781 
L 2522 781 
Q 2497 328 2275 118 
Q 2053 -91 1600 -91 
Q 1103 -91 897 129 
Q 691 350 691 878 
L 691 2988 
z
" transform="scale(0.015625)"/>
       <path id="DejaVuSerif-79" d="M 1381 -609 
L 1600 -56 
L 359 2988 
L -19 2988 
L -19 3322 
L 1509 3322 
L 1509 2988 
L 978 2988 
L 1913 703 
L 2847 2988 
L 2350 2988 
L 2350 3322 
L 3597 3322 
L 3597 2988 
L 3225 2988 
L 1703 -750 
Q 1547 -1138 1356 -1280 
Q 1166 -1422 819 -1422 
Q 672 -1422 517 -1397 
Q 363 -1372 206 -1325 
L 206 -691 
L 500 -691 
Q 519 -903 608 -995 
Q 697 -1088 884 -1088 
Q 1056 -1088 1161 -992 
Q 1266 -897 1381 -609 
z
" transform="scale(0.015625)"/>
       <path id="DejaVuSerif-65" d="M 3469 1600 
L 991 1600 
L 991 1575 
Q 991 903 1244 561 
Q 1497 219 1991 219 
Q 2369 219 2611 417 
Q 2853 616 2950 1006 
L 3413 1006 
Q 3275 459 2904 184 
Q 2534 -91 1931 -91 
Q 1203 -91 761 389 
Q 319 869 319 1663 
Q 319 2450 753 2931 
Q 1188 3413 1894 3413 
Q 2647 3413 3050 2948 
Q 3453 2484 3469 1600 
z
M 2791 1931 
Q 2772 2513 2545 2808 
Q 2319 3103 1894 3103 
Q 1497 3103 1269 2806 
Q 1041 2509 991 1931 
L 2791 1931 
z
" transform="scale(0.015625)"/>
       <path id="DejaVuSerif-62" d="M 738 331 
L 738 4531 
L 184 4531 
L 184 4863 
L 1313 4863 
L 1313 2803 
Q 1481 3116 1742 3264 
Q 2003 3413 2388 3413 
Q 3000 3413 3387 2928 
Q 3775 2444 3775 1663 
Q 3775 881 3387 395 
Q 3000 -91 2388 -91 
Q 2003 -91 1742 57 
Q 1481 206 1313 519 
L 1313 0 
L 184 0 
L 184 331 
L 738 331 
z
M 1313 1497 
Q 1313 897 1542 583 
Q 1772 269 2209 269 
Q 2650 269 2876 622 
Q 3103 975 3103 1663 
Q 3103 2353 2876 2703 
Q 2650 3053 2209 3053 
Q 1772 3053 1542 2737 
Q 1313 2422 1313 1825 
L 1313 1497 
z
" transform="scale(0.015625)"/>
       <path id="DejaVuSerif-72" d="M 3059 3328 
L 3059 2497 
L 2728 2497 
Q 2713 2744 2591 2866 
Q 2469 2988 2234 2988 
Q 1809 2988 1582 2694 
Q 1356 2400 1356 1850 
L 1356 331 
L 2022 331 
L 2022 0 
L 263 0 
L 263 331 
L 781 331 
L 781 2994 
L 231 2994 
L 231 3322 
L 1356 3322 
L 1356 2731 
Q 1525 3078 1790 3245 
Q 2056 3413 2438 3413 
Q 2578 3413 2733 3391 
Q 2888 3369 3059 3328 
z
" transform="scale(0.015625)"/>
       <path id="DejaVuSerif-68" d="M 263 0 
L 263 331 
L 781 331 
L 781 4531 
L 231 4531 
L 231 4863 
L 1356 4863 
L 1356 2731 
Q 1516 3069 1770 3241 
Q 2025 3413 2363 3413 
Q 2913 3413 3172 3097 
Q 3431 2781 3431 2113 
L 3431 331 
L 3944 331 
L 3944 0 
L 2356 0 
L 2356 331 
L 2853 331 
L 2853 1931 
Q 2853 2541 2704 2764 
Q 2556 2988 2175 2988 
Q 1775 2988 1565 2697 
Q 1356 2406 1356 1850 
L 1356 331 
L 1856 331 
L 1856 0 
L 263 0 
z
" transform="scale(0.015625)"/>
       <path id="DejaVuSerif-70" d="M 1313 1825 
L 1313 1497 
Q 1313 897 1542 583 
Q 1772 269 2209 269 
Q 2650 269 2876 622 
Q 3103 975 3103 1663 
Q 3103 2353 2876 2703 
Q 2650 3053 2209 3053 
Q 1772 3053 1542 2737 
Q 1313 2422 1313 1825 
z
M 738 2988 
L 184 2988 
L 184 3322 
L 1313 3322 
L 1313 2803 
Q 1481 3116 1742 3264 
Q 2003 3413 2388 3413 
Q 3000 3413 3387 2928 
Q 3775 2444 3775 1663 
Q 3775 881 3387 395 
Q 3000 -91 2388 -91 
Q 2003 -91 1742 57 
Q 1481 206 1313 519 
L 1313 -997 
L 1856 -997 
L 1856 -1331 
L 184 -1331 
L 184 -997 
L 738 -997 
L 738 2988 
z
" transform="scale(0.015625)"/>
      </defs>
      <use xlink:href="#DejaVuSerif-43"/>
      <use xlink:href="#DejaVuSerif-6f" x="76.513672"/>
      <use xlink:href="#DejaVuSerif-6d" x="136.71875"/>
      <use xlink:href="#DejaVuSerif-6d" x="231.542969"/>
      <use xlink:href="#DejaVuSerif-75" x="326.367188"/>
      <use xlink:href="#DejaVuSerif-6e" x="390.771484"/>
      <use xlink:href="#DejaVuSerif-69" x="455.175781"/>
      <use xlink:href="#DejaVuSerif-74" x="487.158203"/>
      <use xlink:href="#DejaVuSerif-79" x="527.34375"/>
      <use xlink:href="#DejaVuSerif-20" x="583.837891"/>
      <use xlink:href="#DejaVuSerif-6d" x="615.625"/>
      <use xlink:href="#DejaVuSerif-65" x="710.449219"/>
      <use xlink:href="#DejaVuSerif-6d" x="769.628906"/>
      <use xlink:href="#DejaVuSerif-62" x="864.453125"/>
      <use xlink:href="#DejaVuSerif-65" x="928.466797"/>
      <use xlink:href="#DejaVuSerif-72" x="987.646484"/>
      <use xlink:href="#DejaVuSerif-73" x="1035.449219"/>
      <use xlink:href="#DejaVuSerif-68" x="1086.767578"/>
      <use xlink:href="#DejaVuSerif-69" x="1151.171875"/>
      <use xlink:href="#DejaVuSerif-70" x="1183.154297"/>
     </g>
    </g>
   </g>
   <g id="patch_3">
    <path d="M 79.600767 394.458828 
L 83.716963 394.458828 
L 83.716963 12.898828 
L 79.600767 12.898828 
z
" clip-path="url(#p8101204fae)" style="fill: #afcfd0; stroke: #ffffff; stroke-linejoin: miter"/>
   </g>
   <g id="patch_4">
    <path d="M 79.600767 12.898828 
L 83.716963 12.898828 
L 83.716963 12.898828 
L 79.600767 12.898828 
z
" clip-path="url(#p8101204fae)" style="fill: #b5cf6b; stroke: #ffffff; stroke-linejoin: miter"/>
   </g>
   <g id="patch_5">
    <path d="M 87.83316 394.458828 
L 91.949356 394.458828 
L 91.949356 12.898828 
L 87.83316 12.898828 
z
" clip-path="url(#p8101204fae)" style="fill: #afcfd0; stroke: #ffffff; stroke-linejoin: miter"/>
   </g>
   <g id="patch_6">
    <path d="M 87.83316 12.898828 
L 91.949356 12.898828 
L 91.949356 12.898828 
L 87.83316 12.898828 
z
" clip-path="url(#p8101204fae)" style="fill: #b5cf6b; stroke: #ffffff; stroke-linejoin: miter"/>
   </g>
   <g id="patch_7">
    <path d="M 96.065553 394.458828 
L 100.181749 394.458828 
L 100.181749 12.898828 
L 96.065553 12.898828 
z
" clip-path="url(#p8101204fae)" style="fill: #afcfd0; stroke: #ffffff; stroke-linejoin: miter"/>
   </g>
   <g id="patch_8">
    <path d="M 96.065553 12.898828 
L 100.181749 12.898828 
L 100.181749 12.898828 
L 96.065553 12.898828 
z
" clip-path="url(#p8101204fae)" style="fill: #b5cf6b; stroke: #ffffff; stroke-linejoin: miter"/>
   </g>
   <g id="patch_9">
    <path d="M 104.297946 394.458828 
L 108.414142 394.458828 
L 108.414142 12.898828 
L 104.297946 12.898828 
z
" clip-path="url(#p8101204fae)" style="fill: #afcfd0; stroke: #ffffff; stroke-linejoin: miter"/>
   </g>
   <g id="patch_10">
    <path d="M 104.297946 12.898828 
L 108.414142 12.898828 
L 108.414142 12.898828 
L 104.297946 12.898828 
z
" clip-path="url(#p8101204fae)" style="fill: #b5cf6b; stroke: #ffffff; stroke-linejoin: miter"/>
   </g>
   <g id="patch_11">
    <path d="M 112.530339 394.458828 
L 116.646535 394.458828 
L 116.646535 12.898828 
L 112.530339 12.898828 
z
" clip-path="url(#p8101204fae)" style="fill: #afcfd0; stroke: #ffffff; stroke-linejoin: miter"/>
   </g>
   <g id="patch_12">
    <path d="M 112.530339 12.898828 
L 116.646535 12.898828 
L 116.646535 12.898828 
L 112.530339 12.898828 
z
" clip-path="url(#p8101204fae)" style="fill: #b5cf6b; stroke: #ffffff; stroke-linejoin: miter"/>
   </g>
   <g id="patch_13">
    <path d="M 120.762732 394.458828 
L 124.878928 394.458828 
L 124.878928 12.898828 
L 120.762732 12.898828 
z
" clip-path="url(#p8101204fae)" style="fill: #afcfd0; stroke: #ffffff; stroke-linejoin: miter"/>
   </g>
   <g id="patch_14">
    <path d="M 120.762732 12.898828 
L 124.878928 12.898828 
L 124.878928 12.898828 
L 120.762732 12.898828 
z
" clip-path="url(#p8101204fae)" style="fill: #b5cf6b; stroke: #ffffff; stroke-linejoin: miter"/>
   </g>
   <g id="patch_15">
    <path d="M 128.995124 394.458828 
L 133.111321 394.458828 
L 133.111321 12.898828 
L 128.995124 12.898828 
z
" clip-path="url(#p8101204fae)" style="fill: #afcfd0; stroke: #ffffff; stroke-linejoin: miter"/>
   </g>
   <g id="patch_16">
    <path d="M 128.995124 12.898828 
L 133.111321 12.898828 
L 133.111321 12.898828 
L 128.995124 12.898828 
z
" clip-path="url(#p8101204fae)" style="fill: #b5cf6b; stroke: #ffffff; stroke-linejoin: miter"/>
   </g>
   <g id="patch_17">
    <path d="M 137.227517 394.458828 
L 141.343714 394.458828 
L 141.343714 12.898828 
L 137.227517 12.898828 
z
" clip-path="url(#p8101204fae)" style="fill: #afcfd0; stroke: #ffffff; stroke-linejoin: miter"/>
   </g>
   <g id="patch_18">
    <path d="M 137.227517 12.898828 
L 141.343714 12.898828 
L 141.343714 12.898828 
L 137.227517 12.898828 
z
" clip-path="url(#p8101204fae)" style="fill: #b5cf6b; stroke: #ffffff; stroke-linejoin: miter"/>
   </g>
   <g id="patch_19">
    <path d="M 145.45991 394.458828 
L 149.576107 394.458828 
L 149.576107 12.898828 
L 145.45991 12.898828 
z
" clip-path="url(#p8101204fae)" style="fill: #afcfd0; stroke: #ffffff; stroke-linejoin: miter"/>
   </g>
   <g id="patch_20">
    <path d="M 145.45991 12.898828 
L 149.576107 12.898828 
L 149.576107 12.898828 
L 145.45991 12.898828 
z
" clip-path="url(#p8101204fae)" style="fill: #b5cf6b; stroke: #ffffff; stroke-linejoin: miter"/>
   </g>
   <g id="patch_21">
    <path d="M 153.692303 394.458828 
L 157.8085 394.458828 
L 157.8085 12.898828 
L 153.692303 12.898828 
z
" clip-path="url(#p8101204fae)" style="fill: #afcfd0; stroke: #ffffff; stroke-linejoin: miter"/>
   </g>
   <g id="patch_22">
    <path d="M 153.692303 12.898828 
L 157.8085 12.898828 
L 157.8085 12.898828 
L 153.692303 12.898828 
z
" clip-path="url(#p8101204fae)" style="fill: #b5cf6b; stroke: #ffffff; stroke-linejoin: miter"/>
   </g>
   <g id="patch_23">
    <path d="M 161.924696 394.458828 
L 166.040892 394.458828 
L 166.040892 12.898828 
L 161.924696 12.898828 
z
" clip-path="url(#p8101204fae)" style="fill: #afcfd0; stroke: #ffffff; stroke-linejoin: miter"/>
   </g>
   <g id="patch_24">
    <path d="M 161.924696 12.898828 
L 166.040892 12.898828 
L 166.040892 12.898828 
L 161.924696 12.898828 
z
" clip-path="url(#p8101204fae)" style="fill: #b5cf6b; stroke: #ffffff; stroke-linejoin: miter"/>
   </g>
   <g id="patch_25">
    <path d="M 170.157089 394.458828 
L 174.273285 394.458828 
L 174.273285 12.898828 
L 170.157089 12.898828 
z
" clip-path="url(#p8101204fae)" style="fill: #afcfd0; stroke: #ffffff; stroke-linejoin: miter"/>
   </g>
   <g id="patch_26">
    <path d="M 170.157089 12.898828 
L 174.273285 12.898828 
L 174.273285 12.898828 
L 170.157089 12.898828 
z
" clip-path="url(#p8101204fae)" style="fill: #b5cf6b; stroke: #ffffff; stroke-linejoin: miter"/>
   </g>
   <g id="patch_27">
    <path d="M 178.389482 394.458828 
L 182.505678 394.458828 
L 182.505678 12.898828 
L 178.389482 12.898828 
z
" clip-path="url(#p8101204fae)" style="fill: #afcfd0; stroke: #ffffff; stroke-linejoin: miter"/>
   </g>
   <g id="patch_28">
    <path d="M 178.389482 12.898828 
L 182.505678 12.898828 
L 182.505678 12.898828 
L 178.389482 12.898828 
z
" clip-path="url(#p8101204fae)" style="fill: #b5cf6b; stroke: #ffffff; stroke-linejoin: miter"/>
   </g>
   <g id="patch_29">
    <path d="M 186.621875 394.458828 
L 190.738071 394.458828 
L 190.738071 12.898828 
L 186.621875 12.898828 
z
" clip-path="url(#p8101204fae)" style="fill: #afcfd0; stroke: #ffffff; stroke-linejoin: miter"/>
   </g>
   <g id="patch_30">
    <path d="M 186.621875 12.898828 
L 190.738071 12.898828 
L 190.738071 12.898828 
L 186.621875 12.898828 
z
" clip-path="url(#p8101204fae)" style="fill: #b5cf6b; stroke: #ffffff; stroke-linejoin: miter"/>
   </g>
   <g id="patch_31">
    <path d="M 194.854268 394.458828 
L 198.970464 394.458828 
L 198.970464 12.898828 
L 194.854268 12.898828 
z
" clip-path="url(#p8101204fae)" style="fill: #afcfd0; stroke: #ffffff; stroke-linejoin: miter"/>
   </g>
   <g id="patch_32">
    <path d="M 194.854268 12.898828 
L 198.970464 12.898828 
L 198.970464 12.898828 
L 194.854268 12.898828 
z
" clip-path="url(#p8101204fae)" style="fill: #b5cf6b; stroke: #ffffff; stroke-linejoin: miter"/>
   </g>
   <g id="patch_33">
    <path d="M 203.08666 394.458828 
L 207.202857 394.458828 
L 207.202857 12.898828 
L 203.08666 12.898828 
z
" clip-path="url(#p8101204fae)" style="fill: #afcfd0; stroke: #ffffff; stroke-linejoin: miter"/>
   </g>
   <g id="patch_34">
    <path d="M 203.08666 12.898828 
L 207.202857 12.898828 
L 207.202857 12.898828 
L 203.08666 12.898828 
z
" clip-path="url(#p8101204fae)" style="fill: #b5cf6b; stroke: #ffffff; stroke-linejoin: miter"/>
   </g>
   <g id="patch_35">
    <path d="M 211.319053 394.458828 
L 215.43525 394.458828 
L 215.43525 12.898828 
L 211.319053 12.898828 
z
" clip-path="url(#p8101204fae)" style="fill: #afcfd0; stroke: #ffffff; stroke-linejoin: miter"/>
   </g>
   <g id="patch_36">
    <path d="M 211.319053 12.898828 
L 215.43525 12.898828 
L 215.43525 12.898828 
L 211.319053 12.898828 
z
" clip-path="url(#p8101204fae)" style="fill: #b5cf6b; stroke: #ffffff; stroke-linejoin: miter"/>
   </g>
   <g id="patch_37">
    <path d="M 219.551446 394.458828 
L 223.667643 394.458828 
L 223.667643 12.898828 
L 219.551446 12.898828 
z
" clip-path="url(#p8101204fae)" style="fill: #afcfd0; stroke: #ffffff; stroke-linejoin: miter"/>
   </g>
   <g id="patch_38">
    <path d="M 219.551446 12.898828 
L 223.667643 12.898828 
L 223.667643 12.898828 
L 219.551446 12.898828 
z
" clip-path="url(#p8101204fae)" style="fill: #b5cf6b; stroke: #ffffff; stroke-linejoin: miter"/>
   </g>
   <g id="patch_39">
    <path d="M 227.783839 394.458828 
L 231.900036 394.458828 
L 231.900036 12.898828 
L 227.783839 12.898828 
z
" clip-path="url(#p8101204fae)" style="fill: #afcfd0; stroke: #ffffff; stroke-linejoin: miter"/>
   </g>
   <g id="patch_40">
    <path d="M 227.783839 12.898828 
L 231.900036 12.898828 
L 231.900036 12.898828 
L 227.783839 12.898828 
z
" clip-path="url(#p8101204fae)" style="fill: #b5cf6b; stroke: #ffffff; stroke-linejoin: miter"/>
   </g>
   <g id="patch_41">
    <path d="M 236.016232 394.458828 
L 240.132428 394.458828 
L 240.132428 12.898828 
L 236.016232 12.898828 
z
" clip-path="url(#p8101204fae)" style="fill: #afcfd0; stroke: #ffffff; stroke-linejoin: miter"/>
   </g>
   <g id="patch_42">
    <path d="M 236.016232 12.898828 
L 240.132428 12.898828 
L 240.132428 12.898828 
L 236.016232 12.898828 
z
" clip-path="url(#p8101204fae)" style="fill: #b5cf6b; stroke: #ffffff; stroke-linejoin: miter"/>
   </g>
   <g id="patch_43">
    <path d="M 244.248625 394.458828 
L 248.364821 394.458828 
L 248.364821 12.898828 
L 244.248625 12.898828 
z
" clip-path="url(#p8101204fae)" style="fill: #afcfd0; stroke: #ffffff; stroke-linejoin: miter"/>
   </g>
   <g id="patch_44">
    <path d="M 244.248625 12.898828 
L 248.364821 12.898828 
L 248.364821 12.898828 
L 244.248625 12.898828 
z
" clip-path="url(#p8101204fae)" style="fill: #b5cf6b; stroke: #ffffff; stroke-linejoin: miter"/>
   </g>
   <g id="patch_45">
    <path d="M 252.481018 394.458828 
L 256.597214 394.458828 
L 256.597214 12.898828 
L 252.481018 12.898828 
z
" clip-path="url(#p8101204fae)" style="fill: #afcfd0; stroke: #ffffff; stroke-linejoin: miter"/>
   </g>
   <g id="patch_46">
    <path d="M 252.481018 12.898828 
L 256.597214 12.898828 
L 256.597214 12.898828 
L 252.481018 12.898828 
z
" clip-path="url(#p8101204fae)" style="fill: #b5cf6b; stroke: #ffffff; stroke-linejoin: miter"/>
   </g>
   <g id="patch_47">
    <path d="M 260.713411 394.458828 
L 264.829607 394.458828 
L 264.829607 12.898828 
L 260.713411 12.898828 
z
" clip-path="url(#p8101204fae)" style="fill: #afcfd0; stroke: #ffffff; stroke-linejoin: miter"/>
   </g>
   <g id="patch_48">
    <path d="M 260.713411 12.898828 
L 264.829607 12.898828 
L 264.829607 12.898828 
L 260.713411 12.898828 
z
" clip-path="url(#p8101204fae)" style="fill: #b5cf6b; stroke: #ffffff; stroke-linejoin: miter"/>
   </g>
   <g id="patch_49">
    <path d="M 268.945804 394.458828 
L 273.062 394.458828 
L 273.062 12.898828 
L 268.945804 12.898828 
z
" clip-path="url(#p8101204fae)" style="fill: #afcfd0; stroke: #ffffff; stroke-linejoin: miter"/>
   </g>
   <g id="patch_50">
    <path d="M 268.945804 12.898828 
L 273.062 12.898828 
L 273.062 12.898828 
L 268.945804 12.898828 
z
" clip-path="url(#p8101204fae)" style="fill: #b5cf6b; stroke: #ffffff; stroke-linejoin: miter"/>
   </g>
   <g id="patch_51">
    <path d="M 277.178197 394.458828 
L 281.294393 394.458828 
L 281.294393 12.898828 
L 277.178197 12.898828 
z
" clip-path="url(#p8101204fae)" style="fill: #afcfd0; stroke: #ffffff; stroke-linejoin: miter"/>
   </g>
   <g id="patch_52">
    <path d="M 277.178197 12.898828 
L 281.294393 12.898828 
L 281.294393 12.898828 
L 277.178197 12.898828 
z
" clip-path="url(#p8101204fae)" style="fill: #b5cf6b; stroke: #ffffff; stroke-linejoin: miter"/>
   </g>
   <g id="patch_53">
    <path d="M 285.410589 394.458828 
L 289.526786 394.458828 
L 289.526786 12.898828 
L 285.410589 12.898828 
z
" clip-path="url(#p8101204fae)" style="fill: #afcfd0; stroke: #ffffff; stroke-linejoin: miter"/>
   </g>
   <g id="patch_54">
    <path d="M 285.410589 12.898828 
L 289.526786 12.898828 
L 289.526786 12.898828 
L 285.410589 12.898828 
z
" clip-path="url(#p8101204fae)" style="fill: #b5cf6b; stroke: #ffffff; stroke-linejoin: miter"/>
   </g>
   <g id="patch_55">
    <path d="M 293.642982 394.458828 
L 297.759179 394.458828 
L 297.759179 12.898828 
L 293.642982 12.898828 
z
" clip-path="url(#p8101204fae)" style="fill: #afcfd0; stroke: #ffffff; stroke-linejoin: miter"/>
   </g>
   <g id="patch_56">
    <path d="M 293.642982 12.898828 
L 297.759179 12.898828 
L 297.759179 12.898828 
L 293.642982 12.898828 
z
" clip-path="url(#p8101204fae)" style="fill: #b5cf6b; stroke: #ffffff; stroke-linejoin: miter"/>
   </g>
   <g id="patch_57">
    <path d="M 301.875375 394.458828 
L 305.991572 394.458828 
L 305.991572 13.075577 
L 301.875375 13.075577 
z
" clip-path="url(#p8101204fae)" style="fill: #afcfd0; stroke: #ffffff; stroke-linejoin: miter"/>
   </g>
   <g id="patch_58">
    <path d="M 301.875375 13.075577 
L 305.991572 13.075577 
L 305.991572 12.898828 
L 301.875375 12.898828 
z
" clip-path="url(#p8101204fae)" style="fill: #b5cf6b; stroke: #ffffff; stroke-linejoin: miter"/>
   </g>
   <g id="patch_59">
    <path d="M 310.107768 394.458828 
L 314.223965 394.458828 
L 314.223965 13.601907 
L 310.107768 13.601907 
z
" clip-path="url(#p8101204fae)" style="fill: #afcfd0; stroke: #ffffff; stroke-linejoin: miter"/>
   </g>
   <g id="patch_60">
    <path d="M 310.107768 13.601907 
L 314.223965 13.601907 
L 314.223965 12.898828 
L 310.107768 12.898828 
z
" clip-path="url(#p8101204fae)" style="fill: #b5cf6b; stroke: #ffffff; stroke-linejoin: miter"/>
   </g>
   <g id="patch_61">
    <path d="M 318.340161 394.458828 
L 322.456357 394.458828 
L 322.456357 14.398839 
L 318.340161 14.398839 
z
" clip-path="url(#p8101204fae)" style="fill: #afcfd0; stroke: #ffffff; stroke-linejoin: miter"/>
   </g>
   <g id="patch_62">
    <path d="M 318.340161 14.398839 
L 322.456357 14.398839 
L 322.456357 12.898828 
L 318.340161 12.898828 
z
" clip-path="url(#p8101204fae)" style="fill: #b5cf6b; stroke: #ffffff; stroke-linejoin: miter"/>
   </g>
   <g id="patch_63">
    <path d="M 326.572554 394.458828 
L 330.68875 394.458828 
L 330.68875 17.295509 
L 326.572554 17.295509 
z
" clip-path="url(#p8101204fae)" style="fill: #afcfd0; stroke: #ffffff; stroke-linejoin: miter"/>
   </g>
   <g id="patch_64">
    <path d="M 326.572554 17.295509 
L 330.68875 17.295509 
L 330.68875 12.898828 
L 326.572554 12.898828 
z
" clip-path="url(#p8101204fae)" style="fill: #b5cf6b; stroke: #ffffff; stroke-linejoin: miter"/>
   </g>
   <g id="patch_65">
    <path d="M 334.804947 394.458828 
L 338.921143 394.458828 
L 338.921143 18.083663 
L 334.804947 18.083663 
z
" clip-path="url(#p8101204fae)" style="fill: #afcfd0; stroke: #ffffff; stroke-linejoin: miter"/>
   </g>
   <g id="patch_66">
    <path d="M 334.804947 18.083663 
L 338.921143 18.083663 
L 338.921143 12.898828 
L 334.804947 12.898828 
z
" clip-path="url(#p8101204fae)" style="fill: #b5cf6b; stroke: #ffffff; stroke-linejoin: miter"/>
   </g>
   <g id="patch_67">
    <path d="M 343.03734 394.458828 
L 347.153536 394.458828 
L 347.153536 19.915795 
L 343.03734 19.915795 
z
" clip-path="url(#p8101204fae)" style="fill: #afcfd0; stroke: #ffffff; stroke-linejoin: miter"/>
   </g>
   <g id="patch_68">
    <path d="M 343.03734 19.915795 
L 347.153536 19.915795 
L 347.153536 12.898828 
L 343.03734 12.898828 
z
" clip-path="url(#p8101204fae)" style="fill: #b5cf6b; stroke: #ffffff; stroke-linejoin: miter"/>
   </g>
   <g id="patch_69">
    <path d="M 351.269733 394.458828 
L 355.385929 394.458828 
L 355.385929 20.578991 
L 351.269733 20.578991 
z
" clip-path="url(#p8101204fae)" style="fill: #afcfd0; stroke: #ffffff; stroke-linejoin: miter"/>
   </g>
   <g id="patch_70">
    <path d="M 351.269733 20.578991 
L 355.385929 20.578991 
L 355.385929 12.898828 
L 351.269733 12.898828 
z
" clip-path="url(#p8101204fae)" style="fill: #b5cf6b; stroke: #ffffff; stroke-linejoin: miter"/>
   </g>
   <g id="patch_71">
    <path d="M 359.502125 394.458828 
L 363.618322 394.458828 
L 363.618322 23.299375 
L 359.502125 23.299375 
z
" clip-path="url(#p8101204fae)" style="fill: #afcfd0; stroke: #ffffff; stroke-linejoin: miter"/>
   </g>
   <g id="patch_72">
    <path d="M 359.502125 23.299375 
L 363.618322 23.299375 
L 363.618322 12.898828 
L 359.502125 12.898828 
z
" clip-path="url(#p8101204fae)" style="fill: #b5cf6b; stroke: #ffffff; stroke-linejoin: miter"/>
   </g>
   <g id="patch_73">
    <path d="M 367.734518 394.458828 
L 371.850715 394.458828 
L 371.850715 23.924117 
L 367.734518 23.924117 
z
" clip-path="url(#p8101204fae)" style="fill: #afcfd0; stroke: #ffffff; stroke-linejoin: miter"/>
   </g>
   <g id="patch_74">
    <path d="M 367.734518 23.924117 
L 371.850715 23.924117 
L 371.850715 12.898828 
L 367.734518 12.898828 
z
" clip-path="url(#p8101204fae)" style="fill: #b5cf6b; stroke: #ffffff; stroke-linejoin: miter"/>
   </g>
   <g id="patch_75">
    <path d="M 375.966911 394.458828 
L 380.083108 394.458828 
L 380.083108 27.940321 
L 375.966911 27.940321 
z
" clip-path="url(#p8101204fae)" style="fill: #afcfd0; stroke: #ffffff; stroke-linejoin: miter"/>
   </g>
   <g id="patch_76">
    <path d="M 375.966911 27.940321 
L 380.083108 27.940321 
L 380.083108 12.898828 
L 375.966911 12.898828 
z
" clip-path="url(#p8101204fae)" style="fill: #b5cf6b; stroke: #ffffff; stroke-linejoin: miter"/>
   </g>
   <g id="patch_77">
    <path d="M 384.199304 394.458828 
L 388.315501 394.458828 
L 388.315501 29.688747 
L 384.199304 29.688747 
z
" clip-path="url(#p8101204fae)" style="fill: #afcfd0; stroke: #ffffff; stroke-linejoin: miter"/>
   </g>
   <g id="patch_78">
    <path d="M 384.199304 29.688747 
L 388.315501 29.688747 
L 388.315501 12.898828 
L 384.199304 12.898828 
z
" clip-path="url(#p8101204fae)" style="fill: #b5cf6b; stroke: #ffffff; stroke-linejoin: miter"/>
   </g>
   <g id="patch_79">
    <path d="M 392.431697 394.458828 
L 396.547893 394.458828 
L 396.547893 30.45558 
L 392.431697 30.45558 
z
" clip-path="url(#p8101204fae)" style="fill: #afcfd0; stroke: #ffffff; stroke-linejoin: miter"/>
   </g>
   <g id="patch_80">
    <path d="M 392.431697 30.45558 
L 396.547893 30.45558 
L 396.547893 12.898828 
L 392.431697 12.898828 
z
" clip-path="url(#p8101204fae)" style="fill: #b5cf6b; stroke: #ffffff; stroke-linejoin: miter"/>
   </g>
   <g id="patch_81">
    <path d="M 400.66409 394.458828 
L 404.780286 394.458828 
L 404.780286 37.872423 
L 400.66409 37.872423 
z
" clip-path="url(#p8101204fae)" style="fill: #afcfd0; stroke: #ffffff; stroke-linejoin: miter"/>
   </g>
   <g id="patch_82">
    <path d="M 400.66409 37.872423 
L 404.780286 37.872423 
L 404.780286 12.898828 
L 400.66409 12.898828 
z
" clip-path="url(#p8101204fae)" style="fill: #b5cf6b; stroke: #ffffff; stroke-linejoin: miter"/>
   </g>
   <g id="patch_83">
    <path d="M 408.896483 394.458828 
L 413.012679 394.458828 
L 413.012679 89.500292 
L 408.896483 89.500292 
z
" clip-path="url(#p8101204fae)" style="fill: #afcfd0; stroke: #ffffff; stroke-linejoin: miter"/>
   </g>
   <g id="patch_84">
    <path d="M 408.896483 89.500292 
L 413.012679 89.500292 
L 413.012679 12.898828 
L 408.896483 12.898828 
z
" clip-path="url(#p8101204fae)" style="fill: #b5cf6b; stroke: #ffffff; stroke-linejoin: miter"/>
   </g>
   <g id="patch_85">
    <path d="M 417.128876 394.458828 
L 421.245072 394.458828 
L 421.245072 107.628034 
L 417.128876 107.628034 
z
" clip-path="url(#p8101204fae)" style="fill: #afcfd0; stroke: #ffffff; stroke-linejoin: miter"/>
   </g>
   <g id="patch_86">
    <path d="M 417.128876 107.628034 
L 421.245072 107.628034 
L 421.245072 12.898828 
L 417.128876 12.898828 
z
" clip-path="url(#p8101204fae)" style="fill: #b5cf6b; stroke: #ffffff; stroke-linejoin: miter"/>
   </g>
   <g id="patch_87">
    <path d="M 425.361269 394.458828 
L 429.477465 394.458828 
L 429.477465 122.680619 
L 425.361269 122.680619 
z
" clip-path="url(#p8101204fae)" style="fill: #afcfd0; stroke: #ffffff; stroke-linejoin: miter"/>
   </g>
   <g id="patch_88">
    <path d="M 425.361269 122.680619 
L 429.477465 122.680619 
L 429.477465 12.898828 
L 425.361269 12.898828 
z
" clip-path="url(#p8101204fae)" style="fill: #b5cf6b; stroke: #ffffff; stroke-linejoin: miter"/>
   </g>
   <g id="patch_89">
    <path d="M 433.593662 394.458828 
L 437.709858 394.458828 
L 437.709858 238.524959 
L 433.593662 238.524959 
z
" clip-path="url(#p8101204fae)" style="fill: #afcfd0; stroke: #ffffff; stroke-linejoin: miter"/>
   </g>
   <g id="patch_90">
    <path d="M 433.593662 238.524959 
L 437.709858 238.524959 
L 437.709858 12.898828 
L 433.593662 12.898828 
z
" clip-path="url(#p8101204fae)" style="fill: #b5cf6b; stroke: #ffffff; stroke-linejoin: miter"/>
   </g>
   <g id="patch_91">
    <path d="M 61.695313 394.458828 
L 61.695313 12.898828 
" style="fill: none; stroke: #cccccc; stroke-width: 0.8; stroke-linejoin: miter; stroke-linecap: square"/>
   </g>
   <g id="patch_92">
    <path d="M 61.695312 394.458828 
L 455.615313 394.458828 
" style="fill: none; stroke: #cccccc; stroke-width: 0.8; stroke-linejoin: miter; stroke-linecap: square"/>
   </g>
  </g>
  <g id="axes_2">
   <g id="patch_93">
    <path d="M 455.615313 394.458828 
L 849.535312 394.458828 
L 849.535312 12.898828 
L 455.615313 12.898828 
z
" style="fill: #ffffff"/>
   </g>
   <g id="matplotlib.axis_3">
    <g id="text_14">
     <!-- Class II -->
     <g style="fill: #262626" transform="translate(614.422187 413.655703) scale(0.2 -0.2)">
      <use xlink:href="#DejaVuSerif-43"/>
      <use xlink:href="#DejaVuSerif-6c" x="76.513672"/>
      <use xlink:href="#DejaVuSerif-61" x="108.496094"/>
      <use xlink:href="#DejaVuSerif-73" x="168.115234"/>
      <use xlink:href="#DejaVuSerif-73" x="219.433594"/>
      <use xlink:href="#DejaVuSerif-20" x="270.751953"/>
      <use xlink:href="#DejaVuSerif-49" x="302.539062"/>
      <use xlink:href="#DejaVuSerif-49" x="342.041016"/>
     </g>
    </g>
   </g>
   <g id="matplotlib.axis_4">
    <g id="ytick_12">
     <g id="line2d_12">
      <path d="M 455.615313 394.458828 
L 849.535312 394.458828 
" clip-path="url(#p0b8d265fd0)" style="fill: none; stroke: #e6e6e6; stroke-width: 0.8; stroke-linecap: round"/>
     </g>
    </g>
    <g id="ytick_13">
     <g id="line2d_13">
      <path d="M 455.615313 356.302828 
L 849.535312 356.302828 
" clip-path="url(#p0b8d265fd0)" style="fill: none; stroke: #e6e6e6; stroke-width: 0.8; stroke-linecap: round"/>
     </g>
    </g>
    <g id="ytick_14">
     <g id="line2d_14">
      <path d="M 455.615313 318.146828 
L 849.535312 318.146828 
" clip-path="url(#p0b8d265fd0)" style="fill: none; stroke: #e6e6e6; stroke-width: 0.8; stroke-linecap: round"/>
     </g>
    </g>
    <g id="ytick_15">
     <g id="line2d_15">
      <path d="M 455.615313 279.990828 
L 849.535312 279.990828 
" clip-path="url(#p0b8d265fd0)" style="fill: none; stroke: #e6e6e6; stroke-width: 0.8; stroke-linecap: round"/>
     </g>
    </g>
    <g id="ytick_16">
     <g id="line2d_16">
      <path d="M 455.615313 241.834828 
L 849.535312 241.834828 
" clip-path="url(#p0b8d265fd0)" style="fill: none; stroke: #e6e6e6; stroke-width: 0.8; stroke-linecap: round"/>
     </g>
    </g>
    <g id="ytick_17">
     <g id="line2d_17">
      <path d="M 455.615313 203.678828 
L 849.535312 203.678828 
" clip-path="url(#p0b8d265fd0)" style="fill: none; stroke: #e6e6e6; stroke-width: 0.8; stroke-linecap: round"/>
     </g>
    </g>
    <g id="ytick_18">
     <g id="line2d_18">
      <path d="M 455.615313 165.522828 
L 849.535312 165.522828 
" clip-path="url(#p0b8d265fd0)" style="fill: none; stroke: #e6e6e6; stroke-width: 0.8; stroke-linecap: round"/>
     </g>
    </g>
    <g id="ytick_19">
     <g id="line2d_19">
      <path d="M 455.615313 127.366828 
L 849.535312 127.366828 
" clip-path="url(#p0b8d265fd0)" style="fill: none; stroke: #e6e6e6; stroke-width: 0.8; stroke-linecap: round"/>
     </g>
    </g>
    <g id="ytick_20">
     <g id="line2d_20">
      <path d="M 455.615313 89.210828 
L 849.535312 89.210828 
" clip-path="url(#p0b8d265fd0)" style="fill: none; stroke: #e6e6e6; stroke-width: 0.8; stroke-linecap: round"/>
     </g>
    </g>
    <g id="ytick_21">
     <g id="line2d_21">
      <path d="M 455.615313 51.054828 
L 849.535312 51.054828 
" clip-path="url(#p0b8d265fd0)" style="fill: none; stroke: #e6e6e6; stroke-width: 0.8; stroke-linecap: round"/>
     </g>
    </g>
    <g id="ytick_22">
     <g id="line2d_22">
      <path d="M 455.615313 12.898828 
L 849.535312 12.898828 
" clip-path="url(#p0b8d265fd0)" style="fill: none; stroke: #e6e6e6; stroke-width: 0.8; stroke-linecap: round"/>
     </g>
    </g>
   </g>
   <g id="patch_94">
    <path d="M 473.520767 394.458828 
L 478.171534 394.458828 
L 478.171534 12.898828 
L 473.520767 12.898828 
z
" clip-path="url(#p0b8d265fd0)" style="fill: #b5cf6b; stroke: #ffffff; stroke-linejoin: miter"/>
   </g>
   <g id="patch_95">
    <path d="M 473.520767 12.898828 
L 478.171534 12.898828 
L 478.171534 12.898828 
L 473.520767 12.898828 
z
" clip-path="url(#p0b8d265fd0)" style="fill: #afcfd0; stroke: #ffffff; stroke-linejoin: miter"/>
   </g>
   <g id="patch_96">
    <path d="M 482.822302 394.458828 
L 487.473069 394.458828 
L 487.473069 12.898828 
L 482.822302 12.898828 
z
" clip-path="url(#p0b8d265fd0)" style="fill: #b5cf6b; stroke: #ffffff; stroke-linejoin: miter"/>
   </g>
   <g id="patch_97">
    <path d="M 482.822302 12.898828 
L 487.473069 12.898828 
L 487.473069 12.898828 
L 482.822302 12.898828 
z
" clip-path="url(#p0b8d265fd0)" style="fill: #afcfd0; stroke: #ffffff; stroke-linejoin: miter"/>
   </g>
   <g id="patch_98">
    <path d="M 492.123837 394.458828 
L 496.774604 394.458828 
L 496.774604 12.898828 
L 492.123837 12.898828 
z
" clip-path="url(#p0b8d265fd0)" style="fill: #b5cf6b; stroke: #ffffff; stroke-linejoin: miter"/>
   </g>
   <g id="patch_99">
    <path d="M 492.123837 12.898828 
L 496.774604 12.898828 
L 496.774604 12.898828 
L 492.123837 12.898828 
z
" clip-path="url(#p0b8d265fd0)" style="fill: #afcfd0; stroke: #ffffff; stroke-linejoin: miter"/>
   </g>
   <g id="patch_100">
    <path d="M 501.425372 394.458828 
L 506.076139 394.458828 
L 506.076139 12.898828 
L 501.425372 12.898828 
z
" clip-path="url(#p0b8d265fd0)" style="fill: #b5cf6b; stroke: #ffffff; stroke-linejoin: miter"/>
   </g>
   <g id="patch_101">
    <path d="M 501.425372 12.898828 
L 506.076139 12.898828 
L 506.076139 12.898828 
L 501.425372 12.898828 
z
" clip-path="url(#p0b8d265fd0)" style="fill: #afcfd0; stroke: #ffffff; stroke-linejoin: miter"/>
   </g>
   <g id="patch_102">
    <path d="M 510.726906 394.458828 
L 515.377674 394.458828 
L 515.377674 12.898828 
L 510.726906 12.898828 
z
" clip-path="url(#p0b8d265fd0)" style="fill: #b5cf6b; stroke: #ffffff; stroke-linejoin: miter"/>
   </g>
   <g id="patch_103">
    <path d="M 510.726906 12.898828 
L 515.377674 12.898828 
L 515.377674 12.898828 
L 510.726906 12.898828 
z
" clip-path="url(#p0b8d265fd0)" style="fill: #afcfd0; stroke: #ffffff; stroke-linejoin: miter"/>
   </g>
   <g id="patch_104">
    <path d="M 520.028441 394.458828 
L 524.679209 394.458828 
L 524.679209 12.898828 
L 520.028441 12.898828 
z
" clip-path="url(#p0b8d265fd0)" style="fill: #b5cf6b; stroke: #ffffff; stroke-linejoin: miter"/>
   </g>
   <g id="patch_105">
    <path d="M 520.028441 12.898828 
L 524.679209 12.898828 
L 524.679209 12.898828 
L 520.028441 12.898828 
z
" clip-path="url(#p0b8d265fd0)" style="fill: #afcfd0; stroke: #ffffff; stroke-linejoin: miter"/>
   </g>
   <g id="patch_106">
    <path d="M 529.329976 394.458828 
L 533.980743 394.458828 
L 533.980743 12.898828 
L 529.329976 12.898828 
z
" clip-path="url(#p0b8d265fd0)" style="fill: #b5cf6b; stroke: #ffffff; stroke-linejoin: miter"/>
   </g>
   <g id="patch_107">
    <path d="M 529.329976 12.898828 
L 533.980743 12.898828 
L 533.980743 12.898828 
L 529.329976 12.898828 
z
" clip-path="url(#p0b8d265fd0)" style="fill: #afcfd0; stroke: #ffffff; stroke-linejoin: miter"/>
   </g>
   <g id="patch_108">
    <path d="M 538.631511 394.458828 
L 543.282278 394.458828 
L 543.282278 12.898828 
L 538.631511 12.898828 
z
" clip-path="url(#p0b8d265fd0)" style="fill: #b5cf6b; stroke: #ffffff; stroke-linejoin: miter"/>
   </g>
   <g id="patch_109">
    <path d="M 538.631511 12.898828 
L 543.282278 12.898828 
L 543.282278 12.898828 
L 538.631511 12.898828 
z
" clip-path="url(#p0b8d265fd0)" style="fill: #afcfd0; stroke: #ffffff; stroke-linejoin: miter"/>
   </g>
   <g id="patch_110">
    <path d="M 547.933046 394.458828 
L 552.583813 394.458828 
L 552.583813 12.898828 
L 547.933046 12.898828 
z
" clip-path="url(#p0b8d265fd0)" style="fill: #b5cf6b; stroke: #ffffff; stroke-linejoin: miter"/>
   </g>
   <g id="patch_111">
    <path d="M 547.933046 12.898828 
L 552.583813 12.898828 
L 552.583813 12.898828 
L 547.933046 12.898828 
z
" clip-path="url(#p0b8d265fd0)" style="fill: #afcfd0; stroke: #ffffff; stroke-linejoin: miter"/>
   </g>
   <g id="patch_112">
    <path d="M 557.234581 394.458828 
L 561.885348 394.458828 
L 561.885348 12.898828 
L 557.234581 12.898828 
z
" clip-path="url(#p0b8d265fd0)" style="fill: #b5cf6b; stroke: #ffffff; stroke-linejoin: miter"/>
   </g>
   <g id="patch_113">
    <path d="M 557.234581 12.898828 
L 561.885348 12.898828 
L 561.885348 12.898828 
L 557.234581 12.898828 
z
" clip-path="url(#p0b8d265fd0)" style="fill: #afcfd0; stroke: #ffffff; stroke-linejoin: miter"/>
   </g>
   <g id="patch_114">
    <path d="M 566.536115 394.458828 
L 571.186883 394.458828 
L 571.186883 12.898828 
L 566.536115 12.898828 
z
" clip-path="url(#p0b8d265fd0)" style="fill: #b5cf6b; stroke: #ffffff; stroke-linejoin: miter"/>
   </g>
   <g id="patch_115">
    <path d="M 566.536115 12.898828 
L 571.186883 12.898828 
L 571.186883 12.898828 
L 566.536115 12.898828 
z
" clip-path="url(#p0b8d265fd0)" style="fill: #afcfd0; stroke: #ffffff; stroke-linejoin: miter"/>
   </g>
   <g id="patch_116">
    <path d="M 575.83765 394.458828 
L 580.488418 394.458828 
L 580.488418 12.898828 
L 575.83765 12.898828 
z
" clip-path="url(#p0b8d265fd0)" style="fill: #b5cf6b; stroke: #ffffff; stroke-linejoin: miter"/>
   </g>
   <g id="patch_117">
    <path d="M 575.83765 12.898828 
L 580.488418 12.898828 
L 580.488418 12.898828 
L 575.83765 12.898828 
z
" clip-path="url(#p0b8d265fd0)" style="fill: #afcfd0; stroke: #ffffff; stroke-linejoin: miter"/>
   </g>
   <g id="patch_118">
    <path d="M 585.139185 394.458828 
L 589.789952 394.458828 
L 589.789952 12.898828 
L 585.139185 12.898828 
z
" clip-path="url(#p0b8d265fd0)" style="fill: #b5cf6b; stroke: #ffffff; stroke-linejoin: miter"/>
   </g>
   <g id="patch_119">
    <path d="M 585.139185 12.898828 
L 589.789952 12.898828 
L 589.789952 12.898828 
L 585.139185 12.898828 
z
" clip-path="url(#p0b8d265fd0)" style="fill: #afcfd0; stroke: #ffffff; stroke-linejoin: miter"/>
   </g>
   <g id="patch_120">
    <path d="M 594.44072 394.458828 
L 599.091487 394.458828 
L 599.091487 12.898828 
L 594.44072 12.898828 
z
" clip-path="url(#p0b8d265fd0)" style="fill: #b5cf6b; stroke: #ffffff; stroke-linejoin: miter"/>
   </g>
   <g id="patch_121">
    <path d="M 594.44072 12.898828 
L 599.091487 12.898828 
L 599.091487 12.898828 
L 594.44072 12.898828 
z
" clip-path="url(#p0b8d265fd0)" style="fill: #afcfd0; stroke: #ffffff; stroke-linejoin: miter"/>
   </g>
   <g id="patch_122">
    <path d="M 603.742255 394.458828 
L 608.393022 394.458828 
L 608.393022 12.898828 
L 603.742255 12.898828 
z
" clip-path="url(#p0b8d265fd0)" style="fill: #b5cf6b; stroke: #ffffff; stroke-linejoin: miter"/>
   </g>
   <g id="patch_123">
    <path d="M 603.742255 12.898828 
L 608.393022 12.898828 
L 608.393022 12.898828 
L 603.742255 12.898828 
z
" clip-path="url(#p0b8d265fd0)" style="fill: #afcfd0; stroke: #ffffff; stroke-linejoin: miter"/>
   </g>
   <g id="patch_124">
    <path d="M 613.043789 394.458828 
L 617.694557 394.458828 
L 617.694557 12.898828 
L 613.043789 12.898828 
z
" clip-path="url(#p0b8d265fd0)" style="fill: #b5cf6b; stroke: #ffffff; stroke-linejoin: miter"/>
   </g>
   <g id="patch_125">
    <path d="M 613.043789 12.898828 
L 617.694557 12.898828 
L 617.694557 12.898828 
L 613.043789 12.898828 
z
" clip-path="url(#p0b8d265fd0)" style="fill: #afcfd0; stroke: #ffffff; stroke-linejoin: miter"/>
   </g>
   <g id="patch_126">
    <path d="M 622.345324 394.458828 
L 626.996092 394.458828 
L 626.996092 12.898828 
L 622.345324 12.898828 
z
" clip-path="url(#p0b8d265fd0)" style="fill: #b5cf6b; stroke: #ffffff; stroke-linejoin: miter"/>
   </g>
   <g id="patch_127">
    <path d="M 622.345324 12.898828 
L 626.996092 12.898828 
L 626.996092 12.898828 
L 622.345324 12.898828 
z
" clip-path="url(#p0b8d265fd0)" style="fill: #afcfd0; stroke: #ffffff; stroke-linejoin: miter"/>
   </g>
   <g id="patch_128">
    <path d="M 631.646859 394.458828 
L 636.297627 394.458828 
L 636.297627 12.898828 
L 631.646859 12.898828 
z
" clip-path="url(#p0b8d265fd0)" style="fill: #b5cf6b; stroke: #ffffff; stroke-linejoin: miter"/>
   </g>
   <g id="patch_129">
    <path d="M 631.646859 12.898828 
L 636.297627 12.898828 
L 636.297627 12.898828 
L 631.646859 12.898828 
z
" clip-path="url(#p0b8d265fd0)" style="fill: #afcfd0; stroke: #ffffff; stroke-linejoin: miter"/>
   </g>
   <g id="patch_130">
    <path d="M 640.948394 394.458828 
L 645.599161 394.458828 
L 645.599161 12.898828 
L 640.948394 12.898828 
z
" clip-path="url(#p0b8d265fd0)" style="fill: #b5cf6b; stroke: #ffffff; stroke-linejoin: miter"/>
   </g>
   <g id="patch_131">
    <path d="M 640.948394 12.898828 
L 645.599161 12.898828 
L 645.599161 12.898828 
L 640.948394 12.898828 
z
" clip-path="url(#p0b8d265fd0)" style="fill: #afcfd0; stroke: #ffffff; stroke-linejoin: miter"/>
   </g>
   <g id="patch_132">
    <path d="M 650.249929 394.458828 
L 654.900696 394.458828 
L 654.900696 12.898828 
L 650.249929 12.898828 
z
" clip-path="url(#p0b8d265fd0)" style="fill: #b5cf6b; stroke: #ffffff; stroke-linejoin: miter"/>
   </g>
   <g id="patch_133">
    <path d="M 650.249929 12.898828 
L 654.900696 12.898828 
L 654.900696 12.898828 
L 650.249929 12.898828 
z
" clip-path="url(#p0b8d265fd0)" style="fill: #afcfd0; stroke: #ffffff; stroke-linejoin: miter"/>
   </g>
   <g id="patch_134">
    <path d="M 659.551464 394.458828 
L 664.202231 394.458828 
L 664.202231 12.898828 
L 659.551464 12.898828 
z
" clip-path="url(#p0b8d265fd0)" style="fill: #b5cf6b; stroke: #ffffff; stroke-linejoin: miter"/>
   </g>
   <g id="patch_135">
    <path d="M 659.551464 12.898828 
L 664.202231 12.898828 
L 664.202231 12.898828 
L 659.551464 12.898828 
z
" clip-path="url(#p0b8d265fd0)" style="fill: #afcfd0; stroke: #ffffff; stroke-linejoin: miter"/>
   </g>
   <g id="patch_136">
    <path d="M 668.852998 394.458828 
L 673.503766 394.458828 
L 673.503766 12.898828 
L 668.852998 12.898828 
z
" clip-path="url(#p0b8d265fd0)" style="fill: #b5cf6b; stroke: #ffffff; stroke-linejoin: miter"/>
   </g>
   <g id="patch_137">
    <path d="M 668.852998 12.898828 
L 673.503766 12.898828 
L 673.503766 12.898828 
L 668.852998 12.898828 
z
" clip-path="url(#p0b8d265fd0)" style="fill: #afcfd0; stroke: #ffffff; stroke-linejoin: miter"/>
   </g>
   <g id="patch_138">
    <path d="M 678.154533 394.458828 
L 682.805301 394.458828 
L 682.805301 13.05828 
L 678.154533 13.05828 
z
" clip-path="url(#p0b8d265fd0)" style="fill: #b5cf6b; stroke: #ffffff; stroke-linejoin: miter"/>
   </g>
   <g id="patch_139">
    <path d="M 678.154533 13.05828 
L 682.805301 13.05828 
L 682.805301 12.898828 
L 678.154533 12.898828 
z
" clip-path="url(#p0b8d265fd0)" style="fill: #afcfd0; stroke: #ffffff; stroke-linejoin: miter"/>
   </g>
   <g id="patch_140">
    <path d="M 687.456068 394.458828 
L 692.106836 394.458828 
L 692.106836 13.095381 
L 687.456068 13.095381 
z
" clip-path="url(#p0b8d265fd0)" style="fill: #b5cf6b; stroke: #ffffff; stroke-linejoin: miter"/>
   </g>
   <g id="patch_141">
    <path d="M 687.456068 13.095381 
L 692.106836 13.095381 
L 692.106836 12.898828 
L 687.456068 12.898828 
z
" clip-path="url(#p0b8d265fd0)" style="fill: #afcfd0; stroke: #ffffff; stroke-linejoin: miter"/>
   </g>
   <g id="patch_142">
    <path d="M 696.757603 394.458828 
L 701.40837 394.458828 
L 701.40837 13.180899 
L 696.757603 13.180899 
z
" clip-path="url(#p0b8d265fd0)" style="fill: #b5cf6b; stroke: #ffffff; stroke-linejoin: miter"/>
   </g>
   <g id="patch_143">
    <path d="M 696.757603 13.180899 
L 701.40837 13.180899 
L 701.40837 12.898828 
L 696.757603 12.898828 
z
" clip-path="url(#p0b8d265fd0)" style="fill: #afcfd0; stroke: #ffffff; stroke-linejoin: miter"/>
   </g>
   <g id="patch_144">
    <path d="M 706.059138 394.458828 
L 710.709905 394.458828 
L 710.709905 13.631975 
L 706.059138 13.631975 
z
" clip-path="url(#p0b8d265fd0)" style="fill: #b5cf6b; stroke: #ffffff; stroke-linejoin: miter"/>
   </g>
   <g id="patch_145">
    <path d="M 706.059138 13.631975 
L 710.709905 13.631975 
L 710.709905 12.898828 
L 706.059138 12.898828 
z
" clip-path="url(#p0b8d265fd0)" style="fill: #afcfd0; stroke: #ffffff; stroke-linejoin: miter"/>
   </g>
   <g id="patch_146">
    <path d="M 715.360673 394.458828 
L 720.01144 394.458828 
L 720.01144 13.669575 
L 715.360673 13.669575 
z
" clip-path="url(#p0b8d265fd0)" style="fill: #b5cf6b; stroke: #ffffff; stroke-linejoin: miter"/>
   </g>
   <g id="patch_147">
    <path d="M 715.360673 13.669575 
L 720.01144 13.669575 
L 720.01144 12.898828 
L 715.360673 12.898828 
z
" clip-path="url(#p0b8d265fd0)" style="fill: #afcfd0; stroke: #ffffff; stroke-linejoin: miter"/>
   </g>
   <g id="patch_148">
    <path d="M 724.662207 394.458828 
L 729.312975 394.458828 
L 729.312975 13.852855 
L 724.662207 13.852855 
z
" clip-path="url(#p0b8d265fd0)" style="fill: #b5cf6b; stroke: #ffffff; stroke-linejoin: miter"/>
   </g>
   <g id="patch_149">
    <path d="M 724.662207 13.852855 
L 729.312975 13.852855 
L 729.312975 12.898828 
L 724.662207 12.898828 
z
" clip-path="url(#p0b8d265fd0)" style="fill: #afcfd0; stroke: #ffffff; stroke-linejoin: miter"/>
   </g>
   <g id="patch_150">
    <path d="M 733.963742 394.458828 
L 738.61451 394.458828 
L 738.61451 13.893118 
L 733.963742 13.893118 
z
" clip-path="url(#p0b8d265fd0)" style="fill: #b5cf6b; stroke: #ffffff; stroke-linejoin: miter"/>
   </g>
   <g id="patch_151">
    <path d="M 733.963742 13.893118 
L 738.61451 13.893118 
L 738.61451 12.898828 
L 733.963742 12.898828 
z
" clip-path="url(#p0b8d265fd0)" style="fill: #afcfd0; stroke: #ffffff; stroke-linejoin: miter"/>
   </g>
   <g id="patch_152">
    <path d="M 743.265277 394.458828 
L 747.916044 394.458828 
L 747.916044 13.935296 
L 743.265277 13.935296 
z
" clip-path="url(#p0b8d265fd0)" style="fill: #b5cf6b; stroke: #ffffff; stroke-linejoin: miter"/>
   </g>
   <g id="patch_153">
    <path d="M 743.265277 13.935296 
L 747.916044 13.935296 
L 747.916044 12.898828 
L 743.265277 12.898828 
z
" clip-path="url(#p0b8d265fd0)" style="fill: #afcfd0; stroke: #ffffff; stroke-linejoin: miter"/>
   </g>
   <g id="patch_154">
    <path d="M 752.566812 394.458828 
L 757.217579 394.458828 
L 757.217579 14.194605 
L 752.566812 14.194605 
z
" clip-path="url(#p0b8d265fd0)" style="fill: #b5cf6b; stroke: #ffffff; stroke-linejoin: miter"/>
   </g>
   <g id="patch_155">
    <path d="M 752.566812 14.194605 
L 757.217579 14.194605 
L 757.217579 12.898828 
L 752.566812 12.898828 
z
" clip-path="url(#p0b8d265fd0)" style="fill: #afcfd0; stroke: #ffffff; stroke-linejoin: miter"/>
   </g>
   <g id="patch_156">
    <path d="M 761.868347 394.458828 
L 766.519114 394.458828 
L 766.519114 15.431868 
L 761.868347 15.431868 
z
" clip-path="url(#p0b8d265fd0)" style="fill: #b5cf6b; stroke: #ffffff; stroke-linejoin: miter"/>
   </g>
   <g id="patch_157">
    <path d="M 761.868347 15.431868 
L 766.519114 15.431868 
L 766.519114 12.898828 
L 761.868347 12.898828 
z
" clip-path="url(#p0b8d265fd0)" style="fill: #afcfd0; stroke: #ffffff; stroke-linejoin: miter"/>
   </g>
   <g id="patch_158">
    <path d="M 771.169882 394.458828 
L 775.820649 394.458828 
L 775.820649 16.077563 
L 771.169882 16.077563 
z
" clip-path="url(#p0b8d265fd0)" style="fill: #b5cf6b; stroke: #ffffff; stroke-linejoin: miter"/>
   </g>
   <g id="patch_159">
    <path d="M 771.169882 16.077563 
L 775.820649 16.077563 
L 775.820649 12.898828 
L 771.169882 12.898828 
z
" clip-path="url(#p0b8d265fd0)" style="fill: #afcfd0; stroke: #ffffff; stroke-linejoin: miter"/>
   </g>
   <g id="patch_160">
    <path d="M 780.471416 394.458828 
L 785.122184 394.458828 
L 785.122184 16.382475 
L 780.471416 16.382475 
z
" clip-path="url(#p0b8d265fd0)" style="fill: #b5cf6b; stroke: #ffffff; stroke-linejoin: miter"/>
   </g>
   <g id="patch_161">
    <path d="M 780.471416 16.382475 
L 785.122184 16.382475 
L 785.122184 12.898828 
L 780.471416 12.898828 
z
" clip-path="url(#p0b8d265fd0)" style="fill: #afcfd0; stroke: #ffffff; stroke-linejoin: miter"/>
   </g>
   <g id="patch_162">
    <path d="M 789.772951 394.458828 
L 794.423719 394.458828 
L 794.423719 18.473472 
L 789.772951 18.473472 
z
" clip-path="url(#p0b8d265fd0)" style="fill: #b5cf6b; stroke: #ffffff; stroke-linejoin: miter"/>
   </g>
   <g id="patch_163">
    <path d="M 789.772951 18.473472 
L 794.423719 18.473472 
L 794.423719 12.898828 
L 789.772951 12.898828 
z
" clip-path="url(#p0b8d265fd0)" style="fill: #afcfd0; stroke: #ffffff; stroke-linejoin: miter"/>
   </g>
   <g id="patch_164">
    <path d="M 799.074486 394.458828 
L 803.725253 394.458828 
L 803.725253 24.349492 
L 799.074486 24.349492 
z
" clip-path="url(#p0b8d265fd0)" style="fill: #b5cf6b; stroke: #ffffff; stroke-linejoin: miter"/>
   </g>
   <g id="patch_165">
    <path d="M 799.074486 24.349492 
L 803.725253 24.349492 
L 803.725253 12.898828 
L 799.074486 12.898828 
z
" clip-path="url(#p0b8d265fd0)" style="fill: #afcfd0; stroke: #ffffff; stroke-linejoin: miter"/>
   </g>
   <g id="patch_166">
    <path d="M 808.376021 394.458828 
L 813.026788 394.458828 
L 813.026788 27.722983 
L 808.376021 27.722983 
z
" clip-path="url(#p0b8d265fd0)" style="fill: #b5cf6b; stroke: #ffffff; stroke-linejoin: miter"/>
   </g>
   <g id="patch_167">
    <path d="M 808.376021 27.722983 
L 813.026788 27.722983 
L 813.026788 12.898828 
L 808.376021 12.898828 
z
" clip-path="url(#p0b8d265fd0)" style="fill: #afcfd0; stroke: #ffffff; stroke-linejoin: miter"/>
   </g>
   <g id="patch_168">
    <path d="M 817.677556 394.458828 
L 822.328323 394.458828 
L 822.328323 28.967241 
L 817.677556 28.967241 
z
" clip-path="url(#p0b8d265fd0)" style="fill: #b5cf6b; stroke: #ffffff; stroke-linejoin: miter"/>
   </g>
   <g id="patch_169">
    <path d="M 817.677556 28.967241 
L 822.328323 28.967241 
L 822.328323 12.898828 
L 817.677556 12.898828 
z
" clip-path="url(#p0b8d265fd0)" style="fill: #afcfd0; stroke: #ffffff; stroke-linejoin: miter"/>
   </g>
   <g id="patch_170">
    <path d="M 826.979091 394.458828 
L 831.629858 394.458828 
L 831.629858 39.258465 
L 826.979091 39.258465 
z
" clip-path="url(#p0b8d265fd0)" style="fill: #b5cf6b; stroke: #ffffff; stroke-linejoin: miter"/>
   </g>
   <g id="patch_171">
    <path d="M 826.979091 39.258465 
L 831.629858 39.258465 
L 831.629858 12.898828 
L 826.979091 12.898828 
z
" clip-path="url(#p0b8d265fd0)" style="fill: #afcfd0; stroke: #ffffff; stroke-linejoin: miter"/>
   </g>
   <g id="patch_172">
    <path d="M 455.615313 394.458828 
L 455.615313 12.898828 
" style="fill: none; stroke: #cccccc; stroke-width: 0.8; stroke-linejoin: miter; stroke-linecap: square"/>
   </g>
   <g id="patch_173">
    <path d="M 455.615313 394.458828 
L 849.535312 394.458828 
" style="fill: none; stroke: #cccccc; stroke-width: 0.8; stroke-linejoin: miter; stroke-linecap: square"/>
   </g>
  </g>
 </g>
 <defs>
  <clipPath id="p8101204fae">
   <rect x="61.695313" y="12.898828" width="393.92" height="381.56"/>
  </clipPath>
  <clipPath id="p0b8d265fd0">
   <rect x="455.615313" y="12.898828" width="393.92" height="381.56"/>
  </clipPath>
 </defs>
</svg>
