<?xml version="1.0" encoding="utf-8" standalone="no"?>
<!DOCTYPE svg PUBLIC "-//W3C//DTD SVG 1.1//EN"
  "http://www.w3.org/Graphics/SVG/1.1/DTD/svg11.dtd">
<svg xmlns:xlink="http://www.w3.org/1999/xlink" width="856.8pt" height="424.8pt" viewBox="0 0 856.8 424.8" xmlns="http://www.w3.org/2000/svg" version="1.1">
 <metadata>
  <rdf:RDF xmlns:dc="http://purl.org/dc/elements/1.1/" xmlns:cc="http://creativecommons.org/ns#" xmlns:rdf="http://www.w3.org/1999/02/22-rdf-syntax-ns#">
   <cc:Work>
    <dc:type rdf:resource="http://purl.org/dc/dcmitype/StillImage"/>
    <dc:date>2023-03-25T18:07:15.896047</dc:date>
    <dc:format>image/svg+xml</dc:format>
    <dc:creator>
     <cc:Agent>
      <dc:title>Matplotlib v3.5.0, https://matplotlib.org/</dc:title>
     </cc:Agent>
    </dc:creator>
   </cc:Work>
  </rdf:RDF>
 </metadata>
 <defs>
  <style type="text/css">*{stroke-linejoin: round; stroke-linecap: butt}</style>
 </defs>
 <g id="figure_1">
  <g id="patch_1">
   <path d="M 0 424.8 
L 856.8 424.8 
L 856.8 0 
L 0 0 
z
" style="fill: #ffffff"/>
  </g>
  <g id="axes_1">
   <g id="patch_2">
    <path d="M 54.609683 395.88737 
L 452.104841 395.88737 
L 452.104841 12.388862 
L 54.609683 12.388862 
z
" style="fill: #ffffff"/>
   </g>
   <g id="matplotlib.axis_1">
    <g id="text_1">
     <!-- Class I -->
     <g style="fill: #262626" transform="translate(226.218424 413.724366)scale(0.2 -0.2)">
      <defs>
       <path id="CMR17-43" d="M 3974 4289 
C 3974 4403 3968 4410 3930 4410 
C 3904 4410 3898 4403 3853 4327 
L 3571 3792 
C 3258 4187 2874 4416 2381 4416 
C 1286 4416 294 3456 294 2148 
C 294 826 1286 -128 2387 -128 
C 3366 -128 3974 730 3974 1461 
C 3974 1524 3974 1550 3917 1550 
C 3866 1550 3866 1531 3859 1474 
C 3808 585 3168 38 2477 38 
C 1824 38 781 495 781 2147 
C 781 3805 1843 4250 2464 4250 
C 3187 4250 3712 3628 3834 2745 
C 3846 2668 3846 2655 3904 2655 
C 3974 2655 3974 2668 3974 2783 
L 3974 4289 
z
" transform="scale(0.015625)"/>
       <path id="CMR17-6c" d="M 979 4396 
L 218 4326 
L 218 4160 
C 595 4160 653 4122 653 3817 
L 653 426 
C 653 184 627 153 218 153 
L 218 -13 
C 371 0 653 0 813 0 
C 979 0 1261 0 1414 -13 
L 1414 153 
C 1005 153 979 178 979 426 
L 979 4396 
z
" transform="scale(0.015625)"/>
       <path id="CMR17-61" d="M 2304 1653 
C 2304 2072 2304 2294 2035 2543 
C 1798 2752 1523 2816 1306 2816 
C 800 2816 435 2407 435 1971 
C 435 1728 627 1728 666 1728 
C 749 1728 896 1778 896 1954 
C 896 2112 774 2181 666 2181 
C 640 2181 608 2174 589 2168 
C 723 2592 1069 2714 1293 2714 
C 1613 2714 1965 2429 1965 1885 
L 1965 1600 
C 1587 1600 1133 1549 774 1357 
C 371 1133 256 813 256 570 
C 256 77 832 -64 1171 -64 
C 1523 -64 1850 139 1990 511 
C 2003 233 2182 -18 2464 -18 
C 2598 -18 2938 70 2938 567 
L 2938 920 
L 2822 920 
L 2822 562 
C 2822 178 2650 128 2566 128 
C 2304 128 2304 458 2304 738 
L 2304 1653 
z
M 1965 870 
C 1965 317 1568 38 1216 38 
C 896 38 646 275 646 570 
C 646 761 730 1100 1101 1305 
C 1408 1478 1760 1504 1965 1504 
L 1965 870 
z
" transform="scale(0.015625)"/>
       <path id="CMR17-73" d="M 1978 2697 
C 1978 2813 1971 2819 1933 2819 
C 1907 2819 1901 2813 1824 2717 
C 1805 2691 1747 2626 1728 2601 
C 1523 2819 1235 2819 1126 2819 
C 416 2819 160 2447 160 2076 
C 160 1498 813 1365 998 1325 
C 1402 1243 1542 1217 1677 1101 
C 1760 1025 1901 884 1901 654 
C 1901 384 1747 38 1158 38 
C 602 38 403 460 288 1021 
C 269 1110 269 1117 218 1117 
C 166 1117 160 1110 160 983 
L 160 63 
C 160 -51 166 -58 205 -58 
C 237 -58 243 -51 275 0 
C 314 57 410 211 448 276 
C 576 103 800 -64 1158 -64 
C 1792 -64 2131 283 2131 784 
C 2131 1112 1958 1285 1875 1362 
C 1683 1561 1459 1606 1190 1657 
C 838 1735 390 1825 390 2217 
C 390 2383 480 2737 1126 2737 
C 1811 2737 1850 2094 1862 1888 
C 1869 1856 1901 1849 1920 1849 
C 1978 1849 1978 1869 1978 1978 
L 1978 2697 
z
" transform="scale(0.015625)"/>
       <path id="CMR17-49" d="M 1261 3905 
C 1261 4192 1338 4192 1798 4192 
L 1798 4352 
C 1594 4352 1267 4352 1050 4352 
C 832 4352 506 4352 301 4352 
L 301 4192 
C 762 4192 838 4192 838 3905 
L 838 447 
C 838 160 762 160 301 160 
L 301 0 
C 506 0 832 0 1050 0 
C 1267 0 1594 0 1798 0 
L 1798 160 
C 1338 160 1261 160 1261 447 
L 1261 3905 
z
" transform="scale(0.015625)"/>
      </defs>
      <use xlink:href="#CMR17-43" transform="scale(0.996264)"/>
      <use xlink:href="#CMR17-6c" transform="translate(66.509881 0)scale(0.996264)"/>
      <use xlink:href="#CMR17-61" transform="translate(91.380939 0)scale(0.996264)"/>
      <use xlink:href="#CMR17-73" transform="translate(137.071416 0)scale(0.996264)"/>
      <use xlink:href="#CMR17-73" transform="translate(172.872754 0)scale(0.996264)"/>
      <use xlink:href="#CMR17-49" transform="translate(238.750058 0)scale(0.996264)"/>
     </g>
    </g>
   </g>
   <g id="matplotlib.axis_2">
    <g id="ytick_1">
     <g id="line2d_1">
      <path d="M 54.609683 395.88737 
L 452.104841 395.88737 
" clip-path="url(#p37ae2885e1)" style="fill: none; stroke: #e6e6e6; stroke-width: 0.8; stroke-linecap: round"/>
     </g>
     <g id="text_2">
      <!-- 0.0 -->
      <g style="fill: #262626" transform="translate(28.91263 401.076232)scale(0.15 -0.15)">
       <defs>
        <path id="CMR17-30" d="M 2688 2025 
C 2688 2416 2682 3080 2413 3591 
C 2176 4039 1798 4198 1466 4198 
C 1158 4198 768 4058 525 3597 
C 269 3118 243 2524 243 2025 
C 243 1661 250 1106 448 619 
C 723 -39 1216 -128 1466 -128 
C 1760 -128 2208 -7 2470 600 
C 2662 1042 2688 1559 2688 2025 
z
M 1466 -26 
C 1056 -26 813 325 723 812 
C 653 1188 653 1738 653 2096 
C 653 2588 653 2997 736 3387 
C 858 3929 1216 4096 1466 4096 
C 1728 4096 2067 3923 2189 3400 
C 2272 3036 2278 2607 2278 2096 
C 2278 1680 2278 1169 2202 792 
C 2067 95 1690 -26 1466 -26 
z
" transform="scale(0.015625)"/>
        <path id="CMR17-2e" d="M 1062 261 
C 1062 420 934 522 800 522 
C 672 522 538 420 538 261 
C 538 102 666 0 800 0 
C 928 0 1062 102 1062 261 
z
" transform="scale(0.015625)"/>
       </defs>
       <use xlink:href="#CMR17-30" transform="scale(0.996264)"/>
       <use xlink:href="#CMR17-2e" transform="translate(45.690477 0)scale(0.996264)"/>
       <use xlink:href="#CMR17-30" transform="translate(70.561536 0)scale(0.996264)"/>
      </g>
     </g>
    </g>
    <g id="ytick_2">
     <g id="line2d_2">
      <path d="M 54.609683 357.537519 
L 452.104841 357.537519 
" clip-path="url(#p37ae2885e1)" style="fill: none; stroke: #e6e6e6; stroke-width: 0.8; stroke-linecap: round"/>
     </g>
     <g id="text_3">
      <!-- 0.1 -->
      <g style="fill: #262626" transform="translate(28.91263 362.726381)scale(0.15 -0.15)">
       <defs>
        <path id="CMR17-31" d="M 1702 4058 
C 1702 4192 1696 4192 1606 4192 
C 1357 3916 979 3827 621 3827 
C 602 3827 570 3827 563 3808 
C 557 3795 557 3782 557 3648 
C 755 3648 1088 3686 1344 3839 
L 1344 461 
C 1344 236 1331 160 781 160 
L 589 160 
L 589 0 
C 896 0 1216 0 1523 0 
C 1830 0 2150 0 2458 0 
L 2458 160 
L 2266 160 
C 1715 160 1702 230 1702 458 
L 1702 4058 
z
" transform="scale(0.015625)"/>
       </defs>
       <use xlink:href="#CMR17-30" transform="scale(0.996264)"/>
       <use xlink:href="#CMR17-2e" transform="translate(45.690477 0)scale(0.996264)"/>
       <use xlink:href="#CMR17-31" transform="translate(70.561536 0)scale(0.996264)"/>
      </g>
     </g>
    </g>
    <g id="ytick_3">
     <g id="line2d_3">
      <path d="M 54.609683 319.187668 
L 452.104841 319.187668 
" clip-path="url(#p37ae2885e1)" style="fill: none; stroke: #e6e6e6; stroke-width: 0.8; stroke-linecap: round"/>
     </g>
     <g id="text_4">
      <!-- 0.2 -->
      <g style="fill: #262626" transform="translate(28.91263 324.376531)scale(0.15 -0.15)">
       <defs>
        <path id="CMR17-32" d="M 2669 989 
L 2554 989 
C 2490 536 2438 459 2413 420 
C 2381 369 1920 369 1830 369 
L 602 369 
C 832 619 1280 1072 1824 1597 
C 2214 1967 2669 2402 2669 3035 
C 2669 3790 2067 4224 1395 4224 
C 691 4224 262 3604 262 3030 
C 262 2780 448 2748 525 2748 
C 589 2748 781 2787 781 3010 
C 781 3207 614 3264 525 3264 
C 486 3264 448 3258 422 3245 
C 544 3790 915 4058 1306 4058 
C 1862 4058 2227 3617 2227 3035 
C 2227 2479 1901 2000 1536 1584 
L 262 146 
L 262 0 
L 2515 0 
L 2669 989 
z
" transform="scale(0.015625)"/>
       </defs>
       <use xlink:href="#CMR17-30" transform="scale(0.996264)"/>
       <use xlink:href="#CMR17-2e" transform="translate(45.690477 0)scale(0.996264)"/>
       <use xlink:href="#CMR17-32" transform="translate(70.561536 0)scale(0.996264)"/>
      </g>
     </g>
    </g>
    <g id="ytick_4">
     <g id="line2d_4">
      <path d="M 54.609683 280.837817 
L 452.104841 280.837817 
" clip-path="url(#p37ae2885e1)" style="fill: none; stroke: #e6e6e6; stroke-width: 0.8; stroke-linecap: round"/>
     </g>
     <g id="text_5">
      <!-- 0.3 -->
      <g style="fill: #262626" transform="translate(28.91263 286.02668)scale(0.15 -0.15)">
       <defs>
        <path id="CMR17-33" d="M 1414 2157 
C 1984 2157 2234 1662 2234 1090 
C 2234 320 1824 25 1453 25 
C 1114 25 563 194 390 693 
C 422 680 454 680 486 680 
C 640 680 755 782 755 948 
C 755 1133 614 1216 486 1216 
C 378 1216 211 1165 211 926 
C 211 335 787 -128 1466 -128 
C 2176 -128 2720 430 2720 1085 
C 2720 1707 2208 2157 1600 2227 
C 2086 2328 2554 2756 2554 3329 
C 2554 3820 2048 4179 1472 4179 
C 890 4179 378 3829 378 3329 
C 378 3110 544 3072 627 3072 
C 762 3072 877 3155 877 3321 
C 877 3486 762 3569 627 3569 
C 602 3569 570 3569 544 3557 
C 730 3959 1235 4032 1459 4032 
C 1683 4032 2106 3925 2106 3320 
C 2106 3143 2080 2828 1862 2550 
C 1670 2304 1453 2304 1242 2284 
C 1210 2284 1062 2269 1037 2269 
C 992 2263 966 2257 966 2208 
C 966 2163 973 2157 1101 2157 
L 1414 2157 
z
" transform="scale(0.015625)"/>
       </defs>
       <use xlink:href="#CMR17-30" transform="scale(0.996264)"/>
       <use xlink:href="#CMR17-2e" transform="translate(45.690477 0)scale(0.996264)"/>
       <use xlink:href="#CMR17-33" transform="translate(70.561536 0)scale(0.996264)"/>
      </g>
     </g>
    </g>
    <g id="ytick_5">
     <g id="line2d_5">
      <path d="M 54.609683 242.487967 
L 452.104841 242.487967 
" clip-path="url(#p37ae2885e1)" style="fill: none; stroke: #e6e6e6; stroke-width: 0.8; stroke-linecap: round"/>
     </g>
     <g id="text_6">
      <!-- 0.4 -->
      <g style="fill: #262626" transform="translate(28.91263 247.676829)scale(0.15 -0.15)">
       <defs>
        <path id="CMR17-34" d="M 2150 4122 
C 2150 4256 2144 4256 2029 4256 
L 128 1254 
L 128 1088 
L 1779 1088 
L 1779 457 
C 1779 224 1766 160 1318 160 
L 1197 160 
L 1197 0 
C 1402 0 1747 0 1965 0 
C 2182 0 2528 0 2733 0 
L 2733 160 
L 2611 160 
C 2163 160 2150 224 2150 457 
L 2150 1088 
L 2803 1088 
L 2803 1254 
L 2150 1254 
L 2150 4122 
z
M 1798 3703 
L 1798 1254 
L 256 1254 
L 1798 3703 
z
" transform="scale(0.015625)"/>
       </defs>
       <use xlink:href="#CMR17-30" transform="scale(0.996264)"/>
       <use xlink:href="#CMR17-2e" transform="translate(45.690477 0)scale(0.996264)"/>
       <use xlink:href="#CMR17-34" transform="translate(70.561536 0)scale(0.996264)"/>
      </g>
     </g>
    </g>
    <g id="ytick_6">
     <g id="line2d_6">
      <path d="M 54.609683 204.138116 
L 452.104841 204.138116 
" clip-path="url(#p37ae2885e1)" style="fill: none; stroke: #e6e6e6; stroke-width: 0.8; stroke-linecap: round"/>
     </g>
     <g id="text_7">
      <!-- 0.5 -->
      <g style="fill: #262626" transform="translate(28.91263 209.326978)scale(0.15 -0.15)">
       <defs>
        <path id="CMR17-35" d="M 730 3692 
C 794 3666 1056 3584 1325 3584 
C 1920 3584 2246 3911 2432 4100 
C 2432 4157 2432 4192 2394 4192 
C 2387 4192 2374 4192 2323 4163 
C 2099 4058 1837 3973 1517 3973 
C 1325 3973 1037 3999 723 4139 
C 653 4171 640 4171 634 4171 
C 602 4171 595 4164 595 4037 
L 595 2203 
C 595 2089 595 2057 659 2057 
C 691 2057 704 2070 736 2114 
C 941 2401 1222 2522 1542 2522 
C 1766 2522 2246 2382 2246 1289 
C 2246 1085 2246 715 2054 421 
C 1894 159 1645 25 1370 25 
C 947 25 518 320 403 814 
C 429 807 480 795 506 795 
C 589 795 749 840 749 1038 
C 749 1210 627 1280 506 1280 
C 358 1280 262 1190 262 1011 
C 262 454 704 -128 1382 -128 
C 2042 -128 2669 440 2669 1264 
C 2669 2030 2170 2624 1549 2624 
C 1222 2624 947 2503 730 2274 
L 730 3692 
z
" transform="scale(0.015625)"/>
       </defs>
       <use xlink:href="#CMR17-30" transform="scale(0.996264)"/>
       <use xlink:href="#CMR17-2e" transform="translate(45.690477 0)scale(0.996264)"/>
       <use xlink:href="#CMR17-35" transform="translate(70.561536 0)scale(0.996264)"/>
      </g>
     </g>
    </g>
    <g id="ytick_7">
     <g id="line2d_7">
      <path d="M 54.609683 165.788265 
L 452.104841 165.788265 
" clip-path="url(#p37ae2885e1)" style="fill: none; stroke: #e6e6e6; stroke-width: 0.8; stroke-linecap: round"/>
     </g>
     <g id="text_8">
      <!-- 0.6 -->
      <g style="fill: #262626" transform="translate(28.91263 170.977128)scale(0.15 -0.15)">
       <defs>
        <path id="CMR17-36" d="M 678 2176 
C 678 3690 1395 4032 1811 4032 
C 1946 4032 2272 4009 2400 3776 
C 2298 3776 2106 3776 2106 3553 
C 2106 3381 2246 3323 2336 3323 
C 2394 3323 2566 3348 2566 3560 
C 2566 3954 2246 4179 1805 4179 
C 1043 4179 243 3390 243 1984 
C 243 253 966 -128 1478 -128 
C 2099 -128 2688 427 2688 1283 
C 2688 2081 2170 2662 1517 2662 
C 1126 2662 838 2407 678 1960 
L 678 2176 
z
M 1478 25 
C 691 25 691 1200 691 1436 
C 691 1896 909 2560 1504 2560 
C 1613 2560 1926 2560 2138 2120 
C 2253 1870 2253 1609 2253 1289 
C 2253 944 2253 690 2118 434 
C 1978 171 1773 25 1478 25 
z
" transform="scale(0.015625)"/>
       </defs>
       <use xlink:href="#CMR17-30" transform="scale(0.996264)"/>
       <use xlink:href="#CMR17-2e" transform="translate(45.690477 0)scale(0.996264)"/>
       <use xlink:href="#CMR17-36" transform="translate(70.561536 0)scale(0.996264)"/>
      </g>
     </g>
    </g>
    <g id="ytick_8">
     <g id="line2d_8">
      <path d="M 54.609683 127.438415 
L 452.104841 127.438415 
" clip-path="url(#p37ae2885e1)" style="fill: none; stroke: #e6e6e6; stroke-width: 0.8; stroke-linecap: round"/>
     </g>
     <g id="text_9">
      <!-- 0.7 -->
      <g style="fill: #262626" transform="translate(28.91263 132.627277)scale(0.15 -0.15)">
       <defs>
        <path id="CMR17-37" d="M 2886 3941 
L 2886 4081 
L 1382 4081 
C 634 4081 621 4165 595 4288 
L 480 4288 
L 294 3094 
L 410 3094 
C 429 3215 474 3540 550 3661 
C 589 3712 1062 3712 1171 3712 
L 2579 3712 
L 1869 2661 
C 1395 1954 1069 999 1069 165 
C 1069 89 1069 -128 1299 -128 
C 1530 -128 1530 89 1530 171 
L 1530 465 
C 1530 1508 1709 2196 2003 2636 
L 2886 3941 
z
" transform="scale(0.015625)"/>
       </defs>
       <use xlink:href="#CMR17-30" transform="scale(0.996264)"/>
       <use xlink:href="#CMR17-2e" transform="translate(45.690477 0)scale(0.996264)"/>
       <use xlink:href="#CMR17-37" transform="translate(70.561536 0)scale(0.996264)"/>
      </g>
     </g>
    </g>
    <g id="ytick_9">
     <g id="line2d_9">
      <path d="M 54.609683 89.088564 
L 452.104841 89.088564 
" clip-path="url(#p37ae2885e1)" style="fill: none; stroke: #e6e6e6; stroke-width: 0.8; stroke-linecap: round"/>
     </g>
     <g id="text_10">
      <!-- 0.8 -->
      <g style="fill: #262626" transform="translate(28.91263 94.277426)scale(0.15 -0.15)">
       <defs>
        <path id="CMR17-38" d="M 1741 2264 
C 2144 2467 2554 2773 2554 3263 
C 2554 3841 1990 4179 1472 4179 
C 890 4179 378 3759 378 3180 
C 378 3021 416 2747 666 2505 
C 730 2442 998 2251 1171 2130 
C 883 1983 211 1634 211 934 
C 211 279 838 -128 1459 -128 
C 2144 -128 2720 362 2720 1010 
C 2720 1590 2330 1857 2074 2029 
L 1741 2264 
z
M 902 2822 
C 851 2854 595 3051 595 3351 
C 595 3739 998 4032 1459 4032 
C 1965 4032 2336 3676 2336 3262 
C 2336 2669 1670 2331 1638 2331 
C 1632 2331 1626 2331 1574 2370 
L 902 2822 
z
M 2080 1519 
C 2176 1449 2483 1240 2483 851 
C 2483 381 2010 25 1472 25 
C 890 25 448 438 448 940 
C 448 1443 838 1862 1280 2060 
L 2080 1519 
z
" transform="scale(0.015625)"/>
       </defs>
       <use xlink:href="#CMR17-30" transform="scale(0.996264)"/>
       <use xlink:href="#CMR17-2e" transform="translate(45.690477 0)scale(0.996264)"/>
       <use xlink:href="#CMR17-38" transform="translate(70.561536 0)scale(0.996264)"/>
      </g>
     </g>
    </g>
    <g id="ytick_10">
     <g id="line2d_10">
      <path d="M 54.609683 50.738713 
L 452.104841 50.738713 
" clip-path="url(#p37ae2885e1)" style="fill: none; stroke: #e6e6e6; stroke-width: 0.8; stroke-linecap: round"/>
     </g>
     <g id="text_11">
      <!-- 0.9 -->
      <g style="fill: #262626" transform="translate(28.91263 55.927575)scale(0.15 -0.15)">
       <defs>
        <path id="CMR17-39" d="M 2253 1864 
C 2253 464 1670 31 1190 31 
C 1043 31 685 31 538 294 
C 704 268 826 357 826 518 
C 826 692 685 749 595 749 
C 538 749 365 723 365 506 
C 365 71 742 -128 1203 -128 
C 1939 -128 2688 674 2688 2073 
C 2688 3817 1971 4179 1485 4179 
C 851 4179 243 3628 243 2778 
C 243 1991 762 1408 1414 1408 
C 1952 1408 2189 1903 2253 2112 
L 2253 1864 
z
M 1427 1510 
C 1254 1510 1011 1542 813 1922 
C 678 2169 678 2461 678 2771 
C 678 3146 678 3405 858 3684 
C 947 3817 1114 4032 1485 4032 
C 2240 4032 2240 2885 2240 2632 
C 2240 2182 2035 1510 1427 1510 
z
" transform="scale(0.015625)"/>
       </defs>
       <use xlink:href="#CMR17-30" transform="scale(0.996264)"/>
       <use xlink:href="#CMR17-2e" transform="translate(45.690477 0)scale(0.996264)"/>
       <use xlink:href="#CMR17-39" transform="translate(70.561536 0)scale(0.996264)"/>
      </g>
     </g>
    </g>
    <g id="ytick_11">
     <g id="line2d_11">
      <path d="M 54.609683 12.388862 
L 452.104841 12.388862 
" clip-path="url(#p37ae2885e1)" style="fill: none; stroke: #e6e6e6; stroke-width: 0.8; stroke-linecap: round"/>
     </g>
     <g id="text_12">
      <!-- 1.0 -->
      <g style="fill: #262626" transform="translate(28.91263 17.577725)scale(0.15 -0.15)">
       <use xlink:href="#CMR17-31" transform="scale(0.996264)"/>
       <use xlink:href="#CMR17-2e" transform="translate(45.690477 0)scale(0.996264)"/>
       <use xlink:href="#CMR17-30" transform="translate(70.561536 0)scale(0.996264)"/>
      </g>
     </g>
    </g>
    <g id="text_13">
     <!-- Community membership -->
     <g style="fill: #262626" transform="translate(21.036997 302.597643)rotate(-90)scale(0.2 -0.2)">
      <defs>
       <path id="CMR17-6f" d="M 2758 1356 
C 2758 2176 2163 2816 1466 2816 
C 768 2816 173 2176 173 1356 
C 173 551 768 -64 1466 -64 
C 2163 -64 2758 551 2758 1356 
z
M 1466 51 
C 1165 51 909 230 762 480 
C 602 767 582 1126 582 1408 
C 582 1677 595 2010 762 2298 
C 890 2509 1139 2714 1466 2714 
C 1754 2714 1997 2554 2150 2330 
C 2349 2029 2349 1607 2349 1408 
C 2349 1158 2336 775 2163 467 
C 1984 173 1709 51 1466 51 
z
" transform="scale(0.015625)"/>
       <path id="CMR17-6d" d="M 4326 1933 
C 4326 2252 4269 2790 3507 2790 
C 3072 2790 2771 2496 2656 2151 
L 2650 2151 
C 2573 2676 2195 2790 1837 2790 
C 1331 2790 1069 2400 973 2144 
L 966 2144 
L 966 2790 
L 211 2720 
L 211 2554 
C 589 2554 646 2515 646 2208 
L 646 428 
C 646 184 621 153 211 153 
L 211 -13 
C 365 0 646 0 813 0 
C 979 0 1267 0 1421 -13 
L 1421 153 
C 1011 153 986 178 986 428 
L 986 1658 
C 986 2247 1344 2688 1792 2688 
C 2266 2688 2317 2266 2317 1958 
L 2317 428 
C 2317 184 2291 153 1882 153 
L 1882 -13 
C 2035 0 2317 0 2483 0 
C 2650 0 2938 0 3091 -13 
L 3091 153 
C 2682 153 2656 178 2656 428 
L 2656 1658 
C 2656 2247 3014 2688 3462 2688 
C 3936 2688 3987 2266 3987 1958 
L 3987 428 
C 3987 184 3962 153 3552 153 
L 3552 -13 
C 3706 0 3987 0 4154 0 
C 4320 0 4608 0 4762 -13 
L 4762 153 
C 4352 153 4326 178 4326 428 
L 4326 1933 
z
" transform="scale(0.015625)"/>
       <path id="CMR17-75" d="M 1882 2693 
L 1882 2528 
C 2259 2528 2317 2489 2317 2186 
L 2317 1032 
C 2317 500 2029 38 1555 38 
C 1030 38 986 348 986 678 
L 986 2763 
L 211 2693 
L 211 2528 
C 467 2528 640 2528 646 2274 
L 646 1058 
C 646 633 646 361 813 183 
C 896 101 1056 -64 1517 -64 
C 2061 -64 2272 377 2323 506 
L 2330 506 
L 2330 -63 
L 3091 -63 
L 3091 128 
C 2714 128 2656 166 2656 473 
L 2656 2763 
L 1882 2693 
z
" transform="scale(0.015625)"/>
       <path id="CMR17-6e" d="M 2656 1933 
C 2656 2259 2592 2790 1837 2790 
C 1331 2790 1069 2400 973 2144 
L 966 2144 
L 966 2790 
L 211 2720 
L 211 2554 
C 589 2554 646 2515 646 2208 
L 646 428 
C 646 184 621 153 211 153 
L 211 -13 
C 365 0 646 0 813 0 
C 979 0 1267 0 1421 -13 
L 1421 153 
C 1011 153 986 178 986 428 
L 986 1658 
C 986 2247 1344 2688 1792 2688 
C 2266 2688 2317 2266 2317 1958 
L 2317 428 
C 2317 184 2291 153 1882 153 
L 1882 -13 
C 2035 0 2317 0 2483 0 
C 2650 0 2938 0 3091 -13 
L 3091 153 
C 2682 153 2656 178 2656 428 
L 2656 1933 
z
" transform="scale(0.015625)"/>
       <path id="CMR17-69" d="M 992 3909 
C 992 4049 877 4170 730 4170 
C 589 4170 467 4056 467 3909 
C 467 3769 582 3648 730 3648 
C 870 3648 992 3763 992 3909 
z
M 243 2706 
L 243 2541 
C 602 2541 653 2502 653 2197 
L 653 427 
C 653 184 627 153 218 153 
L 218 -13 
C 371 0 646 0 806 0 
C 960 0 1222 0 1370 -13 
L 1370 153 
C 992 153 979 191 979 420 
L 979 2776 
L 243 2706 
z
" transform="scale(0.015625)"/>
       <path id="CMR17-74" d="M 966 2560 
L 1862 2560 
L 1862 2725 
L 966 2725 
L 966 3904 
L 851 3904 
C 838 3245 614 2668 70 2668 
L 70 2560 
L 627 2560 
L 627 771 
C 627 650 627 -64 1370 -64 
C 1747 -64 1965 306 1965 777 
L 1965 1140 
L 1850 1140 
L 1850 783 
C 1850 344 1677 51 1408 51 
C 1222 51 966 178 966 758 
L 966 2560 
z
" transform="scale(0.015625)"/>
       <path id="CMR17-79" d="M 2496 2197 
C 2656 2586 2944 2586 3034 2586 
L 3034 2752 
C 2912 2752 2752 2752 2630 2752 
C 2496 2752 2285 2752 2157 2758 
L 2157 2592 
C 2400 2573 2406 2394 2406 2343 
C 2406 2280 2394 2248 2362 2171 
L 1664 449 
L 902 2306 
C 870 2382 870 2426 870 2433 
C 870 2573 1018 2586 1171 2586 
L 1171 2758 
C 1018 2752 742 2752 582 2752 
C 410 2752 205 2752 64 2758 
L 64 2586 
C 410 2586 448 2554 531 2350 
L 1485 15 
C 1197 -738 1030 -1178 627 -1178 
C 557 -1178 397 -1159 282 -1044 
C 429 -1031 493 -942 493 -833 
C 493 -725 416 -629 288 -629 
C 147 -629 77 -725 77 -840 
C 77 -1095 339 -1280 627 -1280 
C 998 -1280 1229 -922 1357 -604 
L 2496 2197 
z
" transform="scale(0.015625)"/>
       <path id="CMR17-65" d="M 2438 1472 
C 2464 1498 2464 1511 2464 1576 
C 2464 2238 2118 2816 1389 2816 
C 710 2816 173 2169 173 1383 
C 173 551 781 -64 1459 -64 
C 2176 -64 2458 607 2458 740 
C 2458 784 2419 784 2406 784 
C 2362 784 2355 771 2330 696 
C 2189 265 1837 51 1504 51 
C 1229 51 954 203 781 480 
C 582 803 582 1176 582 1472 
L 2438 1472 
z
M 589 1568 
C 634 2505 1126 2714 1382 2714 
C 1818 2714 2112 2297 2118 1568 
L 589 1568 
z
" transform="scale(0.015625)"/>
       <path id="CMR17-62" d="M 960 4396 
L 198 4326 
L 198 4160 
C 576 4160 634 4122 634 3817 
L 634 -13 
L 749 -13 
L 934 441 
C 1120 141 1395 -64 1766 -64 
C 2406 -64 3053 500 3053 1370 
C 3053 2188 2477 2790 1830 2790 
C 1434 2790 1152 2579 960 2330 
L 960 4396 
z
M 973 2004 
C 973 2118 973 2138 1062 2272 
C 1312 2657 1670 2688 1792 2688 
C 1984 2688 2643 2585 2643 1376 
C 2643 108 1888 38 1734 38 
C 1536 38 1248 114 1043 486 
C 973 608 973 621 973 735 
L 973 2004 
z
" transform="scale(0.015625)"/>
       <path id="CMR17-72" d="M 960 1497 
C 960 2112 1222 2688 1702 2688 
C 1747 2688 1792 2682 1837 2662 
C 1837 2662 1696 2617 1696 2452 
C 1696 2298 1818 2234 1914 2234 
C 1990 2234 2131 2279 2131 2458 
C 2131 2663 1926 2790 1709 2790 
C 1222 2790 1011 2317 947 2093 
L 941 2093 
L 941 2790 
L 198 2720 
L 198 2554 
C 576 2554 634 2515 634 2208 
L 634 428 
C 634 184 608 153 198 153 
L 198 -13 
C 352 0 646 0 813 0 
C 998 0 1325 0 1498 -13 
L 1498 153 
C 1037 153 960 153 960 440 
L 960 1497 
z
" transform="scale(0.015625)"/>
       <path id="CMR17-68" d="M 2656 1933 
C 2656 2259 2592 2790 1837 2790 
C 1312 2790 1056 2368 979 2157 
L 973 2157 
L 973 4396 
L 211 4326 
L 211 4160 
C 589 4160 646 4122 646 3817 
L 646 426 
C 646 184 621 153 211 153 
L 211 -13 
C 365 0 646 0 813 0 
C 979 0 1267 0 1421 -13 
L 1421 153 
C 1011 153 986 178 986 428 
L 986 1658 
C 986 2247 1344 2688 1792 2688 
C 2266 2688 2317 2266 2317 1958 
L 2317 428 
C 2317 184 2291 153 1882 153 
L 1882 -13 
C 2035 0 2317 0 2483 0 
C 2650 0 2938 0 3091 -13 
L 3091 153 
C 2682 153 2656 178 2656 428 
L 2656 1933 
z
" transform="scale(0.015625)"/>
       <path id="CMR17-70" d="M 1408 -1063 
C 998 -1063 973 -1037 973 -789 
L 973 402 
C 1158 134 1427 -38 1766 -38 
C 2406 -38 3053 523 3053 1388 
C 3053 2191 2496 2802 1837 2802 
C 1453 2802 1139 2592 960 2338 
L 960 2802 
L 198 2732 
L 198 2567 
C 576 2567 634 2528 634 2223 
L 634 -789 
C 634 -1031 608 -1063 198 -1063 
L 198 -1228 
C 352 -1216 634 -1216 800 -1216 
C 966 -1216 1254 -1216 1408 -1228 
L 1408 -1063 
z
M 973 2012 
C 973 2102 973 2235 1222 2471 
C 1254 2497 1472 2688 1792 2688 
C 2259 2688 2643 2108 2643 1382 
C 2643 656 2234 64 1728 64 
C 1498 64 1248 172 1056 472 
C 973 612 973 650 973 752 
L 973 2012 
z
" transform="scale(0.015625)"/>
      </defs>
      <use xlink:href="#CMR17-43" transform="scale(0.996264)"/>
      <use xlink:href="#CMR17-6f" transform="translate(66.509881 0)scale(0.996264)"/>
      <use xlink:href="#CMR17-6d" transform="translate(112.200358 0)scale(0.996264)"/>
      <use xlink:href="#CMR17-6d" transform="translate(189.119948 0)scale(0.996264)"/>
      <use xlink:href="#CMR17-75" transform="translate(263.437083 0)scale(0.996264)"/>
      <use xlink:href="#CMR17-6e" transform="translate(314.332453 0)scale(0.996264)"/>
      <use xlink:href="#CMR17-69" transform="translate(365.227823 0)scale(0.996264)"/>
      <use xlink:href="#CMR17-74" transform="translate(390.098882 0)scale(0.996264)"/>
      <use xlink:href="#CMR17-79" transform="translate(422.777195 0)scale(0.996264)"/>
      <use xlink:href="#CMR17-6d" transform="translate(501.146078 0)scale(0.996264)"/>
      <use xlink:href="#CMR17-65" transform="translate(578.065667 0)scale(0.996264)"/>
      <use xlink:href="#CMR17-6d" transform="translate(618.551328 0)scale(0.996264)"/>
      <use xlink:href="#CMR17-62" transform="translate(692.868464 0)scale(0.996264)"/>
      <use xlink:href="#CMR17-65" transform="translate(746.366272 0)scale(0.996264)"/>
      <use xlink:href="#CMR17-72" transform="translate(786.851933 0)scale(0.996264)"/>
      <use xlink:href="#CMR17-73" transform="translate(822.132701 0)scale(0.996264)"/>
      <use xlink:href="#CMR17-68" transform="translate(857.934038 0)scale(0.996264)"/>
      <use xlink:href="#CMR17-69" transform="translate(908.829408 0)scale(0.996264)"/>
      <use xlink:href="#CMR17-70" transform="translate(933.700467 0)scale(0.996264)"/>
     </g>
    </g>
   </g>
   <g id="patch_3">
    <path d="M 72.677644 395.88737 
L 76.831199 395.88737 
L 76.831199 12.388862 
L 72.677644 12.388862 
z
" clip-path="url(#p37ae2885e1)" style="fill: #afcfd0; stroke: #ffffff; stroke-linejoin: miter"/>
   </g>
   <g id="patch_4">
    <path d="M 72.677644 12.388862 
L 76.831199 12.388862 
L 76.831199 12.388862 
L 72.677644 12.388862 
z
" clip-path="url(#p37ae2885e1)" style="fill: #b5cf6b; stroke: #ffffff; stroke-linejoin: miter"/>
   </g>
   <g id="patch_5">
    <path d="M 80.984753 395.88737 
L 85.138308 395.88737 
L 85.138308 12.388862 
L 80.984753 12.388862 
z
" clip-path="url(#p37ae2885e1)" style="fill: #afcfd0; stroke: #ffffff; stroke-linejoin: miter"/>
   </g>
   <g id="patch_6">
    <path d="M 80.984753 12.388862 
L 85.138308 12.388862 
L 85.138308 12.388862 
L 80.984753 12.388862 
z
" clip-path="url(#p37ae2885e1)" style="fill: #b5cf6b; stroke: #ffffff; stroke-linejoin: miter"/>
   </g>
   <g id="patch_7">
    <path d="M 89.291862 395.88737 
L 93.445416 395.88737 
L 93.445416 12.388862 
L 89.291862 12.388862 
z
" clip-path="url(#p37ae2885e1)" style="fill: #afcfd0; stroke: #ffffff; stroke-linejoin: miter"/>
   </g>
   <g id="patch_8">
    <path d="M 89.291862 12.388862 
L 93.445416 12.388862 
L 93.445416 12.388862 
L 89.291862 12.388862 
z
" clip-path="url(#p37ae2885e1)" style="fill: #b5cf6b; stroke: #ffffff; stroke-linejoin: miter"/>
   </g>
   <g id="patch_9">
    <path d="M 97.598971 395.88737 
L 101.752525 395.88737 
L 101.752525 12.388862 
L 97.598971 12.388862 
z
" clip-path="url(#p37ae2885e1)" style="fill: #afcfd0; stroke: #ffffff; stroke-linejoin: miter"/>
   </g>
   <g id="patch_10">
    <path d="M 97.598971 12.388862 
L 101.752525 12.388862 
L 101.752525 12.388862 
L 97.598971 12.388862 
z
" clip-path="url(#p37ae2885e1)" style="fill: #b5cf6b; stroke: #ffffff; stroke-linejoin: miter"/>
   </g>
   <g id="patch_11">
    <path d="M 105.90608 395.88737 
L 110.059634 395.88737 
L 110.059634 12.388862 
L 105.90608 12.388862 
z
" clip-path="url(#p37ae2885e1)" style="fill: #afcfd0; stroke: #ffffff; stroke-linejoin: miter"/>
   </g>
   <g id="patch_12">
    <path d="M 105.90608 12.388862 
L 110.059634 12.388862 
L 110.059634 12.388862 
L 105.90608 12.388862 
z
" clip-path="url(#p37ae2885e1)" style="fill: #b5cf6b; stroke: #ffffff; stroke-linejoin: miter"/>
   </g>
   <g id="patch_13">
    <path d="M 114.213189 395.88737 
L 118.366743 395.88737 
L 118.366743 12.388862 
L 114.213189 12.388862 
z
" clip-path="url(#p37ae2885e1)" style="fill: #afcfd0; stroke: #ffffff; stroke-linejoin: miter"/>
   </g>
   <g id="patch_14">
    <path d="M 114.213189 12.388862 
L 118.366743 12.388862 
L 118.366743 12.388862 
L 114.213189 12.388862 
z
" clip-path="url(#p37ae2885e1)" style="fill: #b5cf6b; stroke: #ffffff; stroke-linejoin: miter"/>
   </g>
   <g id="patch_15">
    <path d="M 122.520297 395.88737 
L 126.673852 395.88737 
L 126.673852 12.388862 
L 122.520297 12.388862 
z
" clip-path="url(#p37ae2885e1)" style="fill: #afcfd0; stroke: #ffffff; stroke-linejoin: miter"/>
   </g>
   <g id="patch_16">
    <path d="M 122.520297 12.388862 
L 126.673852 12.388862 
L 126.673852 12.388862 
L 122.520297 12.388862 
z
" clip-path="url(#p37ae2885e1)" style="fill: #b5cf6b; stroke: #ffffff; stroke-linejoin: miter"/>
   </g>
   <g id="patch_17">
    <path d="M 130.827406 395.88737 
L 134.980961 395.88737 
L 134.980961 12.388862 
L 130.827406 12.388862 
z
" clip-path="url(#p37ae2885e1)" style="fill: #afcfd0; stroke: #ffffff; stroke-linejoin: miter"/>
   </g>
   <g id="patch_18">
    <path d="M 130.827406 12.388862 
L 134.980961 12.388862 
L 134.980961 12.388862 
L 130.827406 12.388862 
z
" clip-path="url(#p37ae2885e1)" style="fill: #b5cf6b; stroke: #ffffff; stroke-linejoin: miter"/>
   </g>
   <g id="patch_19">
    <path d="M 139.134515 395.88737 
L 143.28807 395.88737 
L 143.28807 12.388862 
L 139.134515 12.388862 
z
" clip-path="url(#p37ae2885e1)" style="fill: #afcfd0; stroke: #ffffff; stroke-linejoin: miter"/>
   </g>
   <g id="patch_20">
    <path d="M 139.134515 12.388862 
L 143.28807 12.388862 
L 143.28807 12.388862 
L 139.134515 12.388862 
z
" clip-path="url(#p37ae2885e1)" style="fill: #b5cf6b; stroke: #ffffff; stroke-linejoin: miter"/>
   </g>
   <g id="patch_21">
    <path d="M 147.441624 395.88737 
L 151.595178 395.88737 
L 151.595178 12.388862 
L 147.441624 12.388862 
z
" clip-path="url(#p37ae2885e1)" style="fill: #afcfd0; stroke: #ffffff; stroke-linejoin: miter"/>
   </g>
   <g id="patch_22">
    <path d="M 147.441624 12.388862 
L 151.595178 12.388862 
L 151.595178 12.388862 
L 147.441624 12.388862 
z
" clip-path="url(#p37ae2885e1)" style="fill: #b5cf6b; stroke: #ffffff; stroke-linejoin: miter"/>
   </g>
   <g id="patch_23">
    <path d="M 155.748733 395.88737 
L 159.902287 395.88737 
L 159.902287 12.388862 
L 155.748733 12.388862 
z
" clip-path="url(#p37ae2885e1)" style="fill: #afcfd0; stroke: #ffffff; stroke-linejoin: miter"/>
   </g>
   <g id="patch_24">
    <path d="M 155.748733 12.388862 
L 159.902287 12.388862 
L 159.902287 12.388862 
L 155.748733 12.388862 
z
" clip-path="url(#p37ae2885e1)" style="fill: #b5cf6b; stroke: #ffffff; stroke-linejoin: miter"/>
   </g>
   <g id="patch_25">
    <path d="M 164.055842 395.88737 
L 168.209396 395.88737 
L 168.209396 12.388862 
L 164.055842 12.388862 
z
" clip-path="url(#p37ae2885e1)" style="fill: #afcfd0; stroke: #ffffff; stroke-linejoin: miter"/>
   </g>
   <g id="patch_26">
    <path d="M 164.055842 12.388862 
L 168.209396 12.388862 
L 168.209396 12.388862 
L 164.055842 12.388862 
z
" clip-path="url(#p37ae2885e1)" style="fill: #b5cf6b; stroke: #ffffff; stroke-linejoin: miter"/>
   </g>
   <g id="patch_27">
    <path d="M 172.362951 395.88737 
L 176.516505 395.88737 
L 176.516505 12.388862 
L 172.362951 12.388862 
z
" clip-path="url(#p37ae2885e1)" style="fill: #afcfd0; stroke: #ffffff; stroke-linejoin: miter"/>
   </g>
   <g id="patch_28">
    <path d="M 172.362951 12.388862 
L 176.516505 12.388862 
L 176.516505 12.388862 
L 172.362951 12.388862 
z
" clip-path="url(#p37ae2885e1)" style="fill: #b5cf6b; stroke: #ffffff; stroke-linejoin: miter"/>
   </g>
   <g id="patch_29">
    <path d="M 180.670059 395.88737 
L 184.823614 395.88737 
L 184.823614 12.388862 
L 180.670059 12.388862 
z
" clip-path="url(#p37ae2885e1)" style="fill: #afcfd0; stroke: #ffffff; stroke-linejoin: miter"/>
   </g>
   <g id="patch_30">
    <path d="M 180.670059 12.388862 
L 184.823614 12.388862 
L 184.823614 12.388862 
L 180.670059 12.388862 
z
" clip-path="url(#p37ae2885e1)" style="fill: #b5cf6b; stroke: #ffffff; stroke-linejoin: miter"/>
   </g>
   <g id="patch_31">
    <path d="M 188.977168 395.88737 
L 193.130723 395.88737 
L 193.130723 12.388862 
L 188.977168 12.388862 
z
" clip-path="url(#p37ae2885e1)" style="fill: #afcfd0; stroke: #ffffff; stroke-linejoin: miter"/>
   </g>
   <g id="patch_32">
    <path d="M 188.977168 12.388862 
L 193.130723 12.388862 
L 193.130723 12.388862 
L 188.977168 12.388862 
z
" clip-path="url(#p37ae2885e1)" style="fill: #b5cf6b; stroke: #ffffff; stroke-linejoin: miter"/>
   </g>
   <g id="patch_33">
    <path d="M 197.284277 395.88737 
L 201.437832 395.88737 
L 201.437832 12.388862 
L 197.284277 12.388862 
z
" clip-path="url(#p37ae2885e1)" style="fill: #afcfd0; stroke: #ffffff; stroke-linejoin: miter"/>
   </g>
   <g id="patch_34">
    <path d="M 197.284277 12.388862 
L 201.437832 12.388862 
L 201.437832 12.388862 
L 197.284277 12.388862 
z
" clip-path="url(#p37ae2885e1)" style="fill: #b5cf6b; stroke: #ffffff; stroke-linejoin: miter"/>
   </g>
   <g id="patch_35">
    <path d="M 205.591386 395.88737 
L 209.74494 395.88737 
L 209.74494 12.388862 
L 205.591386 12.388862 
z
" clip-path="url(#p37ae2885e1)" style="fill: #afcfd0; stroke: #ffffff; stroke-linejoin: miter"/>
   </g>
   <g id="patch_36">
    <path d="M 205.591386 12.388862 
L 209.74494 12.388862 
L 209.74494 12.388862 
L 205.591386 12.388862 
z
" clip-path="url(#p37ae2885e1)" style="fill: #b5cf6b; stroke: #ffffff; stroke-linejoin: miter"/>
   </g>
   <g id="patch_37">
    <path d="M 213.898495 395.88737 
L 218.052049 395.88737 
L 218.052049 12.388862 
L 213.898495 12.388862 
z
" clip-path="url(#p37ae2885e1)" style="fill: #afcfd0; stroke: #ffffff; stroke-linejoin: miter"/>
   </g>
   <g id="patch_38">
    <path d="M 213.898495 12.388862 
L 218.052049 12.388862 
L 218.052049 12.388862 
L 213.898495 12.388862 
z
" clip-path="url(#p37ae2885e1)" style="fill: #b5cf6b; stroke: #ffffff; stroke-linejoin: miter"/>
   </g>
   <g id="patch_39">
    <path d="M 222.205604 395.88737 
L 226.359158 395.88737 
L 226.359158 12.388862 
L 222.205604 12.388862 
z
" clip-path="url(#p37ae2885e1)" style="fill: #afcfd0; stroke: #ffffff; stroke-linejoin: miter"/>
   </g>
   <g id="patch_40">
    <path d="M 222.205604 12.388862 
L 226.359158 12.388862 
L 226.359158 12.388862 
L 222.205604 12.388862 
z
" clip-path="url(#p37ae2885e1)" style="fill: #b5cf6b; stroke: #ffffff; stroke-linejoin: miter"/>
   </g>
   <g id="patch_41">
    <path d="M 230.512713 395.88737 
L 234.666267 395.88737 
L 234.666267 12.388862 
L 230.512713 12.388862 
z
" clip-path="url(#p37ae2885e1)" style="fill: #afcfd0; stroke: #ffffff; stroke-linejoin: miter"/>
   </g>
   <g id="patch_42">
    <path d="M 230.512713 12.388862 
L 234.666267 12.388862 
L 234.666267 12.388862 
L 230.512713 12.388862 
z
" clip-path="url(#p37ae2885e1)" style="fill: #b5cf6b; stroke: #ffffff; stroke-linejoin: miter"/>
   </g>
   <g id="patch_43">
    <path d="M 238.819821 395.88737 
L 242.973376 395.88737 
L 242.973376 12.388862 
L 238.819821 12.388862 
z
" clip-path="url(#p37ae2885e1)" style="fill: #afcfd0; stroke: #ffffff; stroke-linejoin: miter"/>
   </g>
   <g id="patch_44">
    <path d="M 238.819821 12.388862 
L 242.973376 12.388862 
L 242.973376 12.388862 
L 238.819821 12.388862 
z
" clip-path="url(#p37ae2885e1)" style="fill: #b5cf6b; stroke: #ffffff; stroke-linejoin: miter"/>
   </g>
   <g id="patch_45">
    <path d="M 247.12693 395.88737 
L 251.280485 395.88737 
L 251.280485 12.388862 
L 247.12693 12.388862 
z
" clip-path="url(#p37ae2885e1)" style="fill: #afcfd0; stroke: #ffffff; stroke-linejoin: miter"/>
   </g>
   <g id="patch_46">
    <path d="M 247.12693 12.388862 
L 251.280485 12.388862 
L 251.280485 12.388862 
L 247.12693 12.388862 
z
" clip-path="url(#p37ae2885e1)" style="fill: #b5cf6b; stroke: #ffffff; stroke-linejoin: miter"/>
   </g>
   <g id="patch_47">
    <path d="M 255.434039 395.88737 
L 259.587594 395.88737 
L 259.587594 12.388862 
L 255.434039 12.388862 
z
" clip-path="url(#p37ae2885e1)" style="fill: #afcfd0; stroke: #ffffff; stroke-linejoin: miter"/>
   </g>
   <g id="patch_48">
    <path d="M 255.434039 12.388862 
L 259.587594 12.388862 
L 259.587594 12.388862 
L 255.434039 12.388862 
z
" clip-path="url(#p37ae2885e1)" style="fill: #b5cf6b; stroke: #ffffff; stroke-linejoin: miter"/>
   </g>
   <g id="patch_49">
    <path d="M 263.741148 395.88737 
L 267.894702 395.88737 
L 267.894702 12.388862 
L 263.741148 12.388862 
z
" clip-path="url(#p37ae2885e1)" style="fill: #afcfd0; stroke: #ffffff; stroke-linejoin: miter"/>
   </g>
   <g id="patch_50">
    <path d="M 263.741148 12.388862 
L 267.894702 12.388862 
L 267.894702 12.388862 
L 263.741148 12.388862 
z
" clip-path="url(#p37ae2885e1)" style="fill: #b5cf6b; stroke: #ffffff; stroke-linejoin: miter"/>
   </g>
   <g id="patch_51">
    <path d="M 272.048257 395.88737 
L 276.201811 395.88737 
L 276.201811 12.388862 
L 272.048257 12.388862 
z
" clip-path="url(#p37ae2885e1)" style="fill: #afcfd0; stroke: #ffffff; stroke-linejoin: miter"/>
   </g>
   <g id="patch_52">
    <path d="M 272.048257 12.388862 
L 276.201811 12.388862 
L 276.201811 12.388862 
L 272.048257 12.388862 
z
" clip-path="url(#p37ae2885e1)" style="fill: #b5cf6b; stroke: #ffffff; stroke-linejoin: miter"/>
   </g>
   <g id="patch_53">
    <path d="M 280.355366 395.88737 
L 284.50892 395.88737 
L 284.50892 12.388862 
L 280.355366 12.388862 
z
" clip-path="url(#p37ae2885e1)" style="fill: #afcfd0; stroke: #ffffff; stroke-linejoin: miter"/>
   </g>
   <g id="patch_54">
    <path d="M 280.355366 12.388862 
L 284.50892 12.388862 
L 284.50892 12.388862 
L 280.355366 12.388862 
z
" clip-path="url(#p37ae2885e1)" style="fill: #b5cf6b; stroke: #ffffff; stroke-linejoin: miter"/>
   </g>
   <g id="patch_55">
    <path d="M 288.662475 395.88737 
L 292.816029 395.88737 
L 292.816029 12.388862 
L 288.662475 12.388862 
z
" clip-path="url(#p37ae2885e1)" style="fill: #afcfd0; stroke: #ffffff; stroke-linejoin: miter"/>
   </g>
   <g id="patch_56">
    <path d="M 288.662475 12.388862 
L 292.816029 12.388862 
L 292.816029 12.388862 
L 288.662475 12.388862 
z
" clip-path="url(#p37ae2885e1)" style="fill: #b5cf6b; stroke: #ffffff; stroke-linejoin: miter"/>
   </g>
   <g id="patch_57">
    <path d="M 296.969583 395.88737 
L 301.123138 395.88737 
L 301.123138 12.566509 
L 296.969583 12.566509 
z
" clip-path="url(#p37ae2885e1)" style="fill: #afcfd0; stroke: #ffffff; stroke-linejoin: miter"/>
   </g>
   <g id="patch_58">
    <path d="M 296.969583 12.566509 
L 301.123138 12.566509 
L 301.123138 12.388862 
L 296.969583 12.388862 
z
" clip-path="url(#p37ae2885e1)" style="fill: #b5cf6b; stroke: #ffffff; stroke-linejoin: miter"/>
   </g>
   <g id="patch_59">
    <path d="M 305.276692 395.88737 
L 309.430247 395.88737 
L 309.430247 13.095514 
L 305.276692 13.095514 
z
" clip-path="url(#p37ae2885e1)" style="fill: #afcfd0; stroke: #ffffff; stroke-linejoin: miter"/>
   </g>
   <g id="patch_60">
    <path d="M 305.276692 13.095514 
L 309.430247 13.095514 
L 309.430247 12.388862 
L 305.276692 12.388862 
z
" clip-path="url(#p37ae2885e1)" style="fill: #b5cf6b; stroke: #ffffff; stroke-linejoin: miter"/>
   </g>
   <g id="patch_61">
    <path d="M 313.583801 395.88737 
L 317.737356 395.88737 
L 317.737356 13.896494 
L 313.583801 13.896494 
z
" clip-path="url(#p37ae2885e1)" style="fill: #afcfd0; stroke: #ffffff; stroke-linejoin: miter"/>
   </g>
   <g id="patch_62">
    <path d="M 313.583801 13.896494 
L 317.737356 13.896494 
L 317.737356 12.388862 
L 313.583801 12.388862 
z
" clip-path="url(#p37ae2885e1)" style="fill: #b5cf6b; stroke: #ffffff; stroke-linejoin: miter"/>
   </g>
   <g id="patch_63">
    <path d="M 321.89091 395.88737 
L 326.044464 395.88737 
L 326.044464 16.80788 
L 321.89091 16.80788 
z
" clip-path="url(#p37ae2885e1)" style="fill: #afcfd0; stroke: #ffffff; stroke-linejoin: miter"/>
   </g>
   <g id="patch_64">
    <path d="M 321.89091 16.80788 
L 326.044464 16.80788 
L 326.044464 12.388862 
L 321.89091 12.388862 
z
" clip-path="url(#p37ae2885e1)" style="fill: #b5cf6b; stroke: #ffffff; stroke-linejoin: miter"/>
   </g>
   <g id="patch_65">
    <path d="M 330.198019 395.88737 
L 334.351573 395.88737 
L 334.351573 17.600039 
L 330.198019 17.600039 
z
" clip-path="url(#p37ae2885e1)" style="fill: #afcfd0; stroke: #ffffff; stroke-linejoin: miter"/>
   </g>
   <g id="patch_66">
    <path d="M 330.198019 17.600039 
L 334.351573 17.600039 
L 334.351573 12.388862 
L 330.198019 12.388862 
z
" clip-path="url(#p37ae2885e1)" style="fill: #b5cf6b; stroke: #ffffff; stroke-linejoin: miter"/>
   </g>
   <g id="patch_67">
    <path d="M 338.505128 395.88737 
L 342.658682 395.88737 
L 342.658682 19.441479 
L 338.505128 19.441479 
z
" clip-path="url(#p37ae2885e1)" style="fill: #afcfd0; stroke: #ffffff; stroke-linejoin: miter"/>
   </g>
   <g id="patch_68">
    <path d="M 338.505128 19.441479 
L 342.658682 19.441479 
L 342.658682 12.388862 
L 338.505128 12.388862 
z
" clip-path="url(#p37ae2885e1)" style="fill: #b5cf6b; stroke: #ffffff; stroke-linejoin: miter"/>
   </g>
   <g id="patch_69">
    <path d="M 346.812237 395.88737 
L 350.965791 395.88737 
L 350.965791 20.108044 
L 346.812237 20.108044 
z
" clip-path="url(#p37ae2885e1)" style="fill: #afcfd0; stroke: #ffffff; stroke-linejoin: miter"/>
   </g>
   <g id="patch_70">
    <path d="M 346.812237 20.108044 
L 350.965791 20.108044 
L 350.965791 12.388862 
L 346.812237 12.388862 
z
" clip-path="url(#p37ae2885e1)" style="fill: #b5cf6b; stroke: #ffffff; stroke-linejoin: miter"/>
   </g>
   <g id="patch_71">
    <path d="M 355.119345 395.88737 
L 359.2729 395.88737 
L 359.2729 22.842249 
L 355.119345 22.842249 
z
" clip-path="url(#p37ae2885e1)" style="fill: #afcfd0; stroke: #ffffff; stroke-linejoin: miter"/>
   </g>
   <g id="patch_72">
    <path d="M 355.119345 22.842249 
L 359.2729 22.842249 
L 359.2729 12.388862 
L 355.119345 12.388862 
z
" clip-path="url(#p37ae2885e1)" style="fill: #b5cf6b; stroke: #ffffff; stroke-linejoin: miter"/>
   </g>
   <g id="patch_73">
    <path d="M 363.426454 395.88737 
L 367.580009 395.88737 
L 367.580009 23.470165 
L 363.426454 23.470165 
z
" clip-path="url(#p37ae2885e1)" style="fill: #afcfd0; stroke: #ffffff; stroke-linejoin: miter"/>
   </g>
   <g id="patch_74">
    <path d="M 363.426454 23.470165 
L 367.580009 23.470165 
L 367.580009 12.388862 
L 363.426454 12.388862 
z
" clip-path="url(#p37ae2885e1)" style="fill: #b5cf6b; stroke: #ffffff; stroke-linejoin: miter"/>
   </g>
   <g id="patch_75">
    <path d="M 371.733563 395.88737 
L 375.887118 395.88737 
L 375.887118 27.506773 
L 371.733563 27.506773 
z
" clip-path="url(#p37ae2885e1)" style="fill: #afcfd0; stroke: #ffffff; stroke-linejoin: miter"/>
   </g>
   <g id="patch_76">
    <path d="M 371.733563 27.506773 
L 375.887118 27.506773 
L 375.887118 12.388862 
L 371.733563 12.388862 
z
" clip-path="url(#p37ae2885e1)" style="fill: #b5cf6b; stroke: #ffffff; stroke-linejoin: miter"/>
   </g>
   <g id="patch_77">
    <path d="M 380.040672 395.88737 
L 384.194226 395.88737 
L 384.194226 29.264082 
L 380.040672 29.264082 
z
" clip-path="url(#p37ae2885e1)" style="fill: #afcfd0; stroke: #ffffff; stroke-linejoin: miter"/>
   </g>
   <g id="patch_78">
    <path d="M 380.040672 29.264082 
L 384.194226 29.264082 
L 384.194226 12.388862 
L 380.040672 12.388862 
z
" clip-path="url(#p37ae2885e1)" style="fill: #b5cf6b; stroke: #ffffff; stroke-linejoin: miter"/>
   </g>
   <g id="patch_79">
    <path d="M 388.347781 395.88737 
L 392.501335 395.88737 
L 392.501335 30.034811 
L 388.347781 30.034811 
z
" clip-path="url(#p37ae2885e1)" style="fill: #afcfd0; stroke: #ffffff; stroke-linejoin: miter"/>
   </g>
   <g id="patch_80">
    <path d="M 388.347781 30.034811 
L 392.501335 30.034811 
L 392.501335 12.388862 
L 388.347781 12.388862 
z
" clip-path="url(#p37ae2885e1)" style="fill: #b5cf6b; stroke: #ffffff; stroke-linejoin: miter"/>
   </g>
   <g id="patch_81">
    <path d="M 396.65489 395.88737 
L 400.808444 395.88737 
L 400.808444 37.489335 
L 396.65489 37.489335 
z
" clip-path="url(#p37ae2885e1)" style="fill: #afcfd0; stroke: #ffffff; stroke-linejoin: miter"/>
   </g>
   <g id="patch_82">
    <path d="M 396.65489 37.489335 
L 400.808444 37.489335 
L 400.808444 12.388862 
L 396.65489 12.388862 
z
" clip-path="url(#p37ae2885e1)" style="fill: #b5cf6b; stroke: #ffffff; stroke-linejoin: miter"/>
   </g>
   <g id="patch_83">
    <path d="M 404.961999 395.88737 
L 409.115553 395.88737 
L 409.115553 89.379498 
L 404.961999 89.379498 
z
" clip-path="url(#p37ae2885e1)" style="fill: #afcfd0; stroke: #ffffff; stroke-linejoin: miter"/>
   </g>
   <g id="patch_84">
    <path d="M 404.961999 89.379498 
L 409.115553 89.379498 
L 409.115553 12.388862 
L 404.961999 12.388862 
z
" clip-path="url(#p37ae2885e1)" style="fill: #b5cf6b; stroke: #ffffff; stroke-linejoin: miter"/>
   </g>
   <g id="patch_85">
    <path d="M 413.269107 395.88737 
L 417.422662 395.88737 
L 417.422662 107.599338 
L 413.269107 107.599338 
z
" clip-path="url(#p37ae2885e1)" style="fill: #afcfd0; stroke: #ffffff; stroke-linejoin: miter"/>
   </g>
   <g id="patch_86">
    <path d="M 413.269107 107.599338 
L 417.422662 107.599338 
L 417.422662 12.388862 
L 413.269107 12.388862 
z
" clip-path="url(#p37ae2885e1)" style="fill: #b5cf6b; stroke: #ffffff; stroke-linejoin: miter"/>
   </g>
   <g id="patch_87">
    <path d="M 421.576216 395.88737 
L 425.729771 395.88737 
L 425.729771 122.728398 
L 421.576216 122.728398 
z
" clip-path="url(#p37ae2885e1)" style="fill: #afcfd0; stroke: #ffffff; stroke-linejoin: miter"/>
   </g>
   <g id="patch_88">
    <path d="M 421.576216 122.728398 
L 425.729771 122.728398 
L 425.729771 12.388862 
L 421.576216 12.388862 
z
" clip-path="url(#p37ae2885e1)" style="fill: #b5cf6b; stroke: #ffffff; stroke-linejoin: miter"/>
   </g>
   <g id="patch_89">
    <path d="M 429.883325 395.88737 
L 434.03688 395.88737 
L 434.03688 239.161282 
L 429.883325 239.161282 
z
" clip-path="url(#p37ae2885e1)" style="fill: #afcfd0; stroke: #ffffff; stroke-linejoin: miter"/>
   </g>
   <g id="patch_90">
    <path d="M 429.883325 239.161282 
L 434.03688 239.161282 
L 434.03688 12.388862 
L 429.883325 12.388862 
z
" clip-path="url(#p37ae2885e1)" style="fill: #b5cf6b; stroke: #ffffff; stroke-linejoin: miter"/>
   </g>
   <g id="patch_91">
    <path d="M 54.609683 395.88737 
L 54.609683 12.388862 
" style="fill: none; stroke: #cccccc; stroke-width: 0.8; stroke-linejoin: miter; stroke-linecap: square"/>
   </g>
   <g id="patch_92">
    <path d="M 54.609683 395.88737 
L 452.104841 395.88737 
" style="fill: none; stroke: #cccccc; stroke-width: 0.8; stroke-linejoin: miter; stroke-linecap: square"/>
   </g>
  </g>
  <g id="axes_2">
   <g id="patch_93">
    <path d="M 452.104841 395.88737 
L 849.6 395.88737 
L 849.6 12.388862 
L 452.104841 12.388862 
z
" style="fill: #ffffff"/>
   </g>
   <g id="matplotlib.axis_3">
    <g id="text_14">
     <!-- Class II -->
     <g style="fill: #262626" transform="translate(620.189506 413.724366)scale(0.2 -0.2)">
      <use xlink:href="#CMR17-43" transform="scale(0.996264)"/>
      <use xlink:href="#CMR17-6c" transform="translate(66.509881 0)scale(0.996264)"/>
      <use xlink:href="#CMR17-61" transform="translate(91.380939 0)scale(0.996264)"/>
      <use xlink:href="#CMR17-73" transform="translate(137.071416 0)scale(0.996264)"/>
      <use xlink:href="#CMR17-73" transform="translate(172.872754 0)scale(0.996264)"/>
      <use xlink:href="#CMR17-49" transform="translate(238.750058 0)scale(0.996264)"/>
      <use xlink:href="#CMR17-49" transform="translate(273.990906 0)scale(0.996264)"/>
     </g>
    </g>
   </g>
   <g id="matplotlib.axis_4">
    <g id="ytick_12">
     <g id="line2d_12">
      <path d="M 452.104841 395.88737 
L 849.6 395.88737 
" clip-path="url(#pef0c383032)" style="fill: none; stroke: #e6e6e6; stroke-width: 0.8; stroke-linecap: round"/>
     </g>
    </g>
    <g id="ytick_13">
     <g id="line2d_13">
      <path d="M 452.104841 357.537519 
L 849.6 357.537519 
" clip-path="url(#pef0c383032)" style="fill: none; stroke: #e6e6e6; stroke-width: 0.8; stroke-linecap: round"/>
     </g>
    </g>
    <g id="ytick_14">
     <g id="line2d_14">
      <path d="M 452.104841 319.187668 
L 849.6 319.187668 
" clip-path="url(#pef0c383032)" style="fill: none; stroke: #e6e6e6; stroke-width: 0.8; stroke-linecap: round"/>
     </g>
    </g>
    <g id="ytick_15">
     <g id="line2d_15">
      <path d="M 452.104841 280.837817 
L 849.6 280.837817 
" clip-path="url(#pef0c383032)" style="fill: none; stroke: #e6e6e6; stroke-width: 0.8; stroke-linecap: round"/>
     </g>
    </g>
    <g id="ytick_16">
     <g id="line2d_16">
      <path d="M 452.104841 242.487967 
L 849.6 242.487967 
" clip-path="url(#pef0c383032)" style="fill: none; stroke: #e6e6e6; stroke-width: 0.8; stroke-linecap: round"/>
     </g>
    </g>
    <g id="ytick_17">
     <g id="line2d_17">
      <path d="M 452.104841 204.138116 
L 849.6 204.138116 
" clip-path="url(#pef0c383032)" style="fill: none; stroke: #e6e6e6; stroke-width: 0.8; stroke-linecap: round"/>
     </g>
    </g>
    <g id="ytick_18">
     <g id="line2d_18">
      <path d="M 452.104841 165.788265 
L 849.6 165.788265 
" clip-path="url(#pef0c383032)" style="fill: none; stroke: #e6e6e6; stroke-width: 0.8; stroke-linecap: round"/>
     </g>
    </g>
    <g id="ytick_19">
     <g id="line2d_19">
      <path d="M 452.104841 127.438415 
L 849.6 127.438415 
" clip-path="url(#pef0c383032)" style="fill: none; stroke: #e6e6e6; stroke-width: 0.8; stroke-linecap: round"/>
     </g>
    </g>
    <g id="ytick_20">
     <g id="line2d_20">
      <path d="M 452.104841 89.088564 
L 849.6 89.088564 
" clip-path="url(#pef0c383032)" style="fill: none; stroke: #e6e6e6; stroke-width: 0.8; stroke-linecap: round"/>
     </g>
    </g>
    <g id="ytick_21">
     <g id="line2d_21">
      <path d="M 452.104841 50.738713 
L 849.6 50.738713 
" clip-path="url(#pef0c383032)" style="fill: none; stroke: #e6e6e6; stroke-width: 0.8; stroke-linecap: round"/>
     </g>
    </g>
    <g id="ytick_22">
     <g id="line2d_22">
      <path d="M 452.104841 12.388862 
L 849.6 12.388862 
" clip-path="url(#pef0c383032)" style="fill: none; stroke: #e6e6e6; stroke-width: 0.8; stroke-linecap: round"/>
     </g>
    </g>
   </g>
   <g id="patch_94">
    <path d="M 470.172803 395.88737 
L 474.86578 395.88737 
L 474.86578 12.388862 
L 470.172803 12.388862 
z
" clip-path="url(#pef0c383032)" style="fill: #b5cf6b; stroke: #ffffff; stroke-linejoin: miter"/>
   </g>
   <g id="patch_95">
    <path d="M 470.172803 12.388862 
L 474.86578 12.388862 
L 474.86578 12.388862 
L 470.172803 12.388862 
z
" clip-path="url(#pef0c383032)" style="fill: #afcfd0; stroke: #ffffff; stroke-linejoin: miter"/>
   </g>
   <g id="patch_96">
    <path d="M 479.558757 395.88737 
L 484.251734 395.88737 
L 484.251734 12.388862 
L 479.558757 12.388862 
z
" clip-path="url(#pef0c383032)" style="fill: #b5cf6b; stroke: #ffffff; stroke-linejoin: miter"/>
   </g>
   <g id="patch_97">
    <path d="M 479.558757 12.388862 
L 484.251734 12.388862 
L 484.251734 12.388862 
L 479.558757 12.388862 
z
" clip-path="url(#pef0c383032)" style="fill: #afcfd0; stroke: #ffffff; stroke-linejoin: miter"/>
   </g>
   <g id="patch_98">
    <path d="M 488.944711 395.88737 
L 493.637688 395.88737 
L 493.637688 12.388862 
L 488.944711 12.388862 
z
" clip-path="url(#pef0c383032)" style="fill: #b5cf6b; stroke: #ffffff; stroke-linejoin: miter"/>
   </g>
   <g id="patch_99">
    <path d="M 488.944711 12.388862 
L 493.637688 12.388862 
L 493.637688 12.388862 
L 488.944711 12.388862 
z
" clip-path="url(#pef0c383032)" style="fill: #afcfd0; stroke: #ffffff; stroke-linejoin: miter"/>
   </g>
   <g id="patch_100">
    <path d="M 498.330666 395.88737 
L 503.023643 395.88737 
L 503.023643 12.388862 
L 498.330666 12.388862 
z
" clip-path="url(#pef0c383032)" style="fill: #b5cf6b; stroke: #ffffff; stroke-linejoin: miter"/>
   </g>
   <g id="patch_101">
    <path d="M 498.330666 12.388862 
L 503.023643 12.388862 
L 503.023643 12.388862 
L 498.330666 12.388862 
z
" clip-path="url(#pef0c383032)" style="fill: #afcfd0; stroke: #ffffff; stroke-linejoin: miter"/>
   </g>
   <g id="patch_102">
    <path d="M 507.71662 395.88737 
L 512.409597 395.88737 
L 512.409597 12.388862 
L 507.71662 12.388862 
z
" clip-path="url(#pef0c383032)" style="fill: #b5cf6b; stroke: #ffffff; stroke-linejoin: miter"/>
   </g>
   <g id="patch_103">
    <path d="M 507.71662 12.388862 
L 512.409597 12.388862 
L 512.409597 12.388862 
L 507.71662 12.388862 
z
" clip-path="url(#pef0c383032)" style="fill: #afcfd0; stroke: #ffffff; stroke-linejoin: miter"/>
   </g>
   <g id="patch_104">
    <path d="M 517.102574 395.88737 
L 521.795551 395.88737 
L 521.795551 12.388862 
L 517.102574 12.388862 
z
" clip-path="url(#pef0c383032)" style="fill: #b5cf6b; stroke: #ffffff; stroke-linejoin: miter"/>
   </g>
   <g id="patch_105">
    <path d="M 517.102574 12.388862 
L 521.795551 12.388862 
L 521.795551 12.388862 
L 517.102574 12.388862 
z
" clip-path="url(#pef0c383032)" style="fill: #afcfd0; stroke: #ffffff; stroke-linejoin: miter"/>
   </g>
   <g id="patch_106">
    <path d="M 526.488528 395.88737 
L 531.181505 395.88737 
L 531.181505 12.388862 
L 526.488528 12.388862 
z
" clip-path="url(#pef0c383032)" style="fill: #b5cf6b; stroke: #ffffff; stroke-linejoin: miter"/>
   </g>
   <g id="patch_107">
    <path d="M 526.488528 12.388862 
L 531.181505 12.388862 
L 531.181505 12.388862 
L 526.488528 12.388862 
z
" clip-path="url(#pef0c383032)" style="fill: #afcfd0; stroke: #ffffff; stroke-linejoin: miter"/>
   </g>
   <g id="patch_108">
    <path d="M 535.874482 395.88737 
L 540.567459 395.88737 
L 540.567459 12.388862 
L 535.874482 12.388862 
z
" clip-path="url(#pef0c383032)" style="fill: #b5cf6b; stroke: #ffffff; stroke-linejoin: miter"/>
   </g>
   <g id="patch_109">
    <path d="M 535.874482 12.388862 
L 540.567459 12.388862 
L 540.567459 12.388862 
L 535.874482 12.388862 
z
" clip-path="url(#pef0c383032)" style="fill: #afcfd0; stroke: #ffffff; stroke-linejoin: miter"/>
   </g>
   <g id="patch_110">
    <path d="M 545.260436 395.88737 
L 549.953413 395.88737 
L 549.953413 12.388862 
L 545.260436 12.388862 
z
" clip-path="url(#pef0c383032)" style="fill: #b5cf6b; stroke: #ffffff; stroke-linejoin: miter"/>
   </g>
   <g id="patch_111">
    <path d="M 545.260436 12.388862 
L 549.953413 12.388862 
L 549.953413 12.388862 
L 545.260436 12.388862 
z
" clip-path="url(#pef0c383032)" style="fill: #afcfd0; stroke: #ffffff; stroke-linejoin: miter"/>
   </g>
   <g id="patch_112">
    <path d="M 554.64639 395.88737 
L 559.339368 395.88737 
L 559.339368 12.388862 
L 554.64639 12.388862 
z
" clip-path="url(#pef0c383032)" style="fill: #b5cf6b; stroke: #ffffff; stroke-linejoin: miter"/>
   </g>
   <g id="patch_113">
    <path d="M 554.64639 12.388862 
L 559.339368 12.388862 
L 559.339368 12.388862 
L 554.64639 12.388862 
z
" clip-path="url(#pef0c383032)" style="fill: #afcfd0; stroke: #ffffff; stroke-linejoin: miter"/>
   </g>
   <g id="patch_114">
    <path d="M 564.032345 395.88737 
L 568.725322 395.88737 
L 568.725322 12.388862 
L 564.032345 12.388862 
z
" clip-path="url(#pef0c383032)" style="fill: #b5cf6b; stroke: #ffffff; stroke-linejoin: miter"/>
   </g>
   <g id="patch_115">
    <path d="M 564.032345 12.388862 
L 568.725322 12.388862 
L 568.725322 12.388862 
L 564.032345 12.388862 
z
" clip-path="url(#pef0c383032)" style="fill: #afcfd0; stroke: #ffffff; stroke-linejoin: miter"/>
   </g>
   <g id="patch_116">
    <path d="M 573.418299 395.88737 
L 578.111276 395.88737 
L 578.111276 12.388862 
L 573.418299 12.388862 
z
" clip-path="url(#pef0c383032)" style="fill: #b5cf6b; stroke: #ffffff; stroke-linejoin: miter"/>
   </g>
   <g id="patch_117">
    <path d="M 573.418299 12.388862 
L 578.111276 12.388862 
L 578.111276 12.388862 
L 573.418299 12.388862 
z
" clip-path="url(#pef0c383032)" style="fill: #afcfd0; stroke: #ffffff; stroke-linejoin: miter"/>
   </g>
   <g id="patch_118">
    <path d="M 582.804253 395.88737 
L 587.49723 395.88737 
L 587.49723 12.388862 
L 582.804253 12.388862 
z
" clip-path="url(#pef0c383032)" style="fill: #b5cf6b; stroke: #ffffff; stroke-linejoin: miter"/>
   </g>
   <g id="patch_119">
    <path d="M 582.804253 12.388862 
L 587.49723 12.388862 
L 587.49723 12.388862 
L 582.804253 12.388862 
z
" clip-path="url(#pef0c383032)" style="fill: #afcfd0; stroke: #ffffff; stroke-linejoin: miter"/>
   </g>
   <g id="patch_120">
    <path d="M 592.190207 395.88737 
L 596.883184 395.88737 
L 596.883184 12.388862 
L 592.190207 12.388862 
z
" clip-path="url(#pef0c383032)" style="fill: #b5cf6b; stroke: #ffffff; stroke-linejoin: miter"/>
   </g>
   <g id="patch_121">
    <path d="M 592.190207 12.388862 
L 596.883184 12.388862 
L 596.883184 12.388862 
L 592.190207 12.388862 
z
" clip-path="url(#pef0c383032)" style="fill: #afcfd0; stroke: #ffffff; stroke-linejoin: miter"/>
   </g>
   <g id="patch_122">
    <path d="M 601.576161 395.88737 
L 606.269138 395.88737 
L 606.269138 12.388862 
L 601.576161 12.388862 
z
" clip-path="url(#pef0c383032)" style="fill: #b5cf6b; stroke: #ffffff; stroke-linejoin: miter"/>
   </g>
   <g id="patch_123">
    <path d="M 601.576161 12.388862 
L 606.269138 12.388862 
L 606.269138 12.388862 
L 601.576161 12.388862 
z
" clip-path="url(#pef0c383032)" style="fill: #afcfd0; stroke: #ffffff; stroke-linejoin: miter"/>
   </g>
   <g id="patch_124">
    <path d="M 610.962115 395.88737 
L 615.655093 395.88737 
L 615.655093 12.388862 
L 610.962115 12.388862 
z
" clip-path="url(#pef0c383032)" style="fill: #b5cf6b; stroke: #ffffff; stroke-linejoin: miter"/>
   </g>
   <g id="patch_125">
    <path d="M 610.962115 12.388862 
L 615.655093 12.388862 
L 615.655093 12.388862 
L 610.962115 12.388862 
z
" clip-path="url(#pef0c383032)" style="fill: #afcfd0; stroke: #ffffff; stroke-linejoin: miter"/>
   </g>
   <g id="patch_126">
    <path d="M 620.34807 395.88737 
L 625.041047 395.88737 
L 625.041047 12.388862 
L 620.34807 12.388862 
z
" clip-path="url(#pef0c383032)" style="fill: #b5cf6b; stroke: #ffffff; stroke-linejoin: miter"/>
   </g>
   <g id="patch_127">
    <path d="M 620.34807 12.388862 
L 625.041047 12.388862 
L 625.041047 12.388862 
L 620.34807 12.388862 
z
" clip-path="url(#pef0c383032)" style="fill: #afcfd0; stroke: #ffffff; stroke-linejoin: miter"/>
   </g>
   <g id="patch_128">
    <path d="M 629.734024 395.88737 
L 634.427001 395.88737 
L 634.427001 12.388862 
L 629.734024 12.388862 
z
" clip-path="url(#pef0c383032)" style="fill: #b5cf6b; stroke: #ffffff; stroke-linejoin: miter"/>
   </g>
   <g id="patch_129">
    <path d="M 629.734024 12.388862 
L 634.427001 12.388862 
L 634.427001 12.388862 
L 629.734024 12.388862 
z
" clip-path="url(#pef0c383032)" style="fill: #afcfd0; stroke: #ffffff; stroke-linejoin: miter"/>
   </g>
   <g id="patch_130">
    <path d="M 639.119978 395.88737 
L 643.812955 395.88737 
L 643.812955 12.388862 
L 639.119978 12.388862 
z
" clip-path="url(#pef0c383032)" style="fill: #b5cf6b; stroke: #ffffff; stroke-linejoin: miter"/>
   </g>
   <g id="patch_131">
    <path d="M 639.119978 12.388862 
L 643.812955 12.388862 
L 643.812955 12.388862 
L 639.119978 12.388862 
z
" clip-path="url(#pef0c383032)" style="fill: #afcfd0; stroke: #ffffff; stroke-linejoin: miter"/>
   </g>
   <g id="patch_132">
    <path d="M 648.505932 395.88737 
L 653.198909 395.88737 
L 653.198909 12.388862 
L 648.505932 12.388862 
z
" clip-path="url(#pef0c383032)" style="fill: #b5cf6b; stroke: #ffffff; stroke-linejoin: miter"/>
   </g>
   <g id="patch_133">
    <path d="M 648.505932 12.388862 
L 653.198909 12.388862 
L 653.198909 12.388862 
L 648.505932 12.388862 
z
" clip-path="url(#pef0c383032)" style="fill: #afcfd0; stroke: #ffffff; stroke-linejoin: miter"/>
   </g>
   <g id="patch_134">
    <path d="M 657.891886 395.88737 
L 662.584863 395.88737 
L 662.584863 12.388862 
L 657.891886 12.388862 
z
" clip-path="url(#pef0c383032)" style="fill: #b5cf6b; stroke: #ffffff; stroke-linejoin: miter"/>
   </g>
   <g id="patch_135">
    <path d="M 657.891886 12.388862 
L 662.584863 12.388862 
L 662.584863 12.388862 
L 657.891886 12.388862 
z
" clip-path="url(#pef0c383032)" style="fill: #afcfd0; stroke: #ffffff; stroke-linejoin: miter"/>
   </g>
   <g id="patch_136">
    <path d="M 667.27784 395.88737 
L 671.970818 395.88737 
L 671.970818 12.388862 
L 667.27784 12.388862 
z
" clip-path="url(#pef0c383032)" style="fill: #b5cf6b; stroke: #ffffff; stroke-linejoin: miter"/>
   </g>
   <g id="patch_137">
    <path d="M 667.27784 12.388862 
L 671.970818 12.388862 
L 671.970818 12.388862 
L 667.27784 12.388862 
z
" clip-path="url(#pef0c383032)" style="fill: #afcfd0; stroke: #ffffff; stroke-linejoin: miter"/>
   </g>
   <g id="patch_138">
    <path d="M 676.663795 395.88737 
L 681.356772 395.88737 
L 681.356772 12.549125 
L 676.663795 12.549125 
z
" clip-path="url(#pef0c383032)" style="fill: #b5cf6b; stroke: #ffffff; stroke-linejoin: miter"/>
   </g>
   <g id="patch_139">
    <path d="M 676.663795 12.549125 
L 681.356772 12.549125 
L 681.356772 12.388862 
L 676.663795 12.388862 
z
" clip-path="url(#pef0c383032)" style="fill: #afcfd0; stroke: #ffffff; stroke-linejoin: miter"/>
   </g>
   <g id="patch_140">
    <path d="M 686.049749 395.88737 
L 690.742726 395.88737 
L 690.742726 12.586414 
L 686.049749 12.586414 
z
" clip-path="url(#pef0c383032)" style="fill: #b5cf6b; stroke: #ffffff; stroke-linejoin: miter"/>
   </g>
   <g id="patch_141">
    <path d="M 686.049749 12.586414 
L 690.742726 12.586414 
L 690.742726 12.388862 
L 686.049749 12.388862 
z
" clip-path="url(#pef0c383032)" style="fill: #afcfd0; stroke: #ffffff; stroke-linejoin: miter"/>
   </g>
   <g id="patch_142">
    <path d="M 695.435703 395.88737 
L 700.12868 395.88737 
L 700.12868 12.672367 
L 695.435703 12.672367 
z
" clip-path="url(#pef0c383032)" style="fill: #b5cf6b; stroke: #ffffff; stroke-linejoin: miter"/>
   </g>
   <g id="patch_143">
    <path d="M 695.435703 12.672367 
L 700.12868 12.672367 
L 700.12868 12.388862 
L 695.435703 12.388862 
z
" clip-path="url(#pef0c383032)" style="fill: #afcfd0; stroke: #ffffff; stroke-linejoin: miter"/>
   </g>
   <g id="patch_144">
    <path d="M 704.821657 395.88737 
L 709.514634 395.88737 
L 709.514634 13.125734 
L 704.821657 13.125734 
z
" clip-path="url(#pef0c383032)" style="fill: #b5cf6b; stroke: #ffffff; stroke-linejoin: miter"/>
   </g>
   <g id="patch_145">
    <path d="M 704.821657 13.125734 
L 709.514634 13.125734 
L 709.514634 12.388862 
L 704.821657 12.388862 
z
" clip-path="url(#pef0c383032)" style="fill: #afcfd0; stroke: #ffffff; stroke-linejoin: miter"/>
   </g>
   <g id="patch_146">
    <path d="M 714.207611 395.88737 
L 718.900588 395.88737 
L 718.900588 13.163525 
L 714.207611 13.163525 
z
" clip-path="url(#pef0c383032)" style="fill: #b5cf6b; stroke: #ffffff; stroke-linejoin: miter"/>
   </g>
   <g id="patch_147">
    <path d="M 714.207611 13.163525 
L 718.900588 13.163525 
L 718.900588 12.388862 
L 714.207611 12.388862 
z
" clip-path="url(#pef0c383032)" style="fill: #afcfd0; stroke: #ffffff; stroke-linejoin: miter"/>
   </g>
   <g id="patch_148">
    <path d="M 723.593565 395.88737 
L 728.286542 395.88737 
L 728.286542 13.347736 
L 723.593565 13.347736 
z
" clip-path="url(#pef0c383032)" style="fill: #b5cf6b; stroke: #ffffff; stroke-linejoin: miter"/>
   </g>
   <g id="patch_149">
    <path d="M 723.593565 13.347736 
L 728.286542 13.347736 
L 728.286542 12.388862 
L 723.593565 12.388862 
z
" clip-path="url(#pef0c383032)" style="fill: #afcfd0; stroke: #ffffff; stroke-linejoin: miter"/>
   </g>
   <g id="patch_150">
    <path d="M 732.97952 395.88737 
L 737.672497 395.88737 
L 737.672497 13.388204 
L 732.97952 13.388204 
z
" clip-path="url(#pef0c383032)" style="fill: #b5cf6b; stroke: #ffffff; stroke-linejoin: miter"/>
   </g>
   <g id="patch_151">
    <path d="M 732.97952 13.388204 
L 737.672497 13.388204 
L 737.672497 12.388862 
L 732.97952 12.388862 
z
" clip-path="url(#pef0c383032)" style="fill: #afcfd0; stroke: #ffffff; stroke-linejoin: miter"/>
   </g>
   <g id="patch_152">
    <path d="M 742.365474 395.88737 
L 747.058451 395.88737 
L 747.058451 13.430596 
L 742.365474 13.430596 
z
" clip-path="url(#pef0c383032)" style="fill: #b5cf6b; stroke: #ffffff; stroke-linejoin: miter"/>
   </g>
   <g id="patch_153">
    <path d="M 742.365474 13.430596 
L 747.058451 13.430596 
L 747.058451 12.388862 
L 742.365474 12.388862 
z
" clip-path="url(#pef0c383032)" style="fill: #afcfd0; stroke: #ffffff; stroke-linejoin: miter"/>
   </g>
   <g id="patch_154">
    <path d="M 751.751428 395.88737 
L 756.444405 395.88737 
L 756.444405 13.691222 
L 751.751428 13.691222 
z
" clip-path="url(#pef0c383032)" style="fill: #b5cf6b; stroke: #ffffff; stroke-linejoin: miter"/>
   </g>
   <g id="patch_155">
    <path d="M 751.751428 13.691222 
L 756.444405 13.691222 
L 756.444405 12.388862 
L 751.751428 12.388862 
z
" clip-path="url(#pef0c383032)" style="fill: #afcfd0; stroke: #ffffff; stroke-linejoin: miter"/>
   </g>
   <g id="patch_156">
    <path d="M 761.137382 395.88737 
L 765.830359 395.88737 
L 765.830359 14.934771 
L 761.137382 14.934771 
z
" clip-path="url(#pef0c383032)" style="fill: #b5cf6b; stroke: #ffffff; stroke-linejoin: miter"/>
   </g>
   <g id="patch_157">
    <path d="M 761.137382 14.934771 
L 765.830359 14.934771 
L 765.830359 12.388862 
L 761.137382 12.388862 
z
" clip-path="url(#pef0c383032)" style="fill: #afcfd0; stroke: #ffffff; stroke-linejoin: miter"/>
   </g>
   <g id="patch_158">
    <path d="M 770.523336 395.88737 
L 775.216313 395.88737 
L 775.216313 15.583746 
L 770.523336 15.583746 
z
" clip-path="url(#pef0c383032)" style="fill: #b5cf6b; stroke: #ffffff; stroke-linejoin: miter"/>
   </g>
   <g id="patch_159">
    <path d="M 770.523336 15.583746 
L 775.216313 15.583746 
L 775.216313 12.388862 
L 770.523336 12.388862 
z
" clip-path="url(#pef0c383032)" style="fill: #afcfd0; stroke: #ffffff; stroke-linejoin: miter"/>
   </g>
   <g id="patch_160">
    <path d="M 779.90929 395.88737 
L 784.602267 395.88737 
L 784.602267 15.890208 
L 779.90929 15.890208 
z
" clip-path="url(#pef0c383032)" style="fill: #b5cf6b; stroke: #ffffff; stroke-linejoin: miter"/>
   </g>
   <g id="patch_161">
    <path d="M 779.90929 15.890208 
L 784.602267 15.890208 
L 784.602267 12.388862 
L 779.90929 12.388862 
z
" clip-path="url(#pef0c383032)" style="fill: #afcfd0; stroke: #ffffff; stroke-linejoin: miter"/>
   </g>
   <g id="patch_162">
    <path d="M 789.295245 395.88737 
L 793.988222 395.88737 
L 793.988222 17.991828 
L 789.295245 17.991828 
z
" clip-path="url(#pef0c383032)" style="fill: #b5cf6b; stroke: #ffffff; stroke-linejoin: miter"/>
   </g>
   <g id="patch_163">
    <path d="M 789.295245 17.991828 
L 793.988222 17.991828 
L 793.988222 12.388862 
L 789.295245 12.388862 
z
" clip-path="url(#pef0c383032)" style="fill: #afcfd0; stroke: #ffffff; stroke-linejoin: miter"/>
   </g>
   <g id="patch_164">
    <path d="M 798.681199 395.88737 
L 803.374176 395.88737 
L 803.374176 23.897701 
L 798.681199 23.897701 
z
" clip-path="url(#pef0c383032)" style="fill: #b5cf6b; stroke: #ffffff; stroke-linejoin: miter"/>
   </g>
   <g id="patch_165">
    <path d="M 798.681199 23.897701 
L 803.374176 23.897701 
L 803.374176 12.388862 
L 798.681199 12.388862 
z
" clip-path="url(#pef0c383032)" style="fill: #afcfd0; stroke: #ffffff; stroke-linejoin: miter"/>
   </g>
   <g id="patch_166">
    <path d="M 808.067153 395.88737 
L 812.76013 395.88737 
L 812.76013 27.288331 
L 808.067153 27.288331 
z
" clip-path="url(#pef0c383032)" style="fill: #b5cf6b; stroke: #ffffff; stroke-linejoin: miter"/>
   </g>
   <g id="patch_167">
    <path d="M 808.067153 27.288331 
L 812.76013 27.288331 
L 812.76013 12.388862 
L 808.067153 12.388862 
z
" clip-path="url(#pef0c383032)" style="fill: #afcfd0; stroke: #ffffff; stroke-linejoin: miter"/>
   </g>
   <g id="patch_168">
    <path d="M 817.453107 395.88737 
L 822.146084 395.88737 
L 822.146084 28.53891 
L 817.453107 28.53891 
z
" clip-path="url(#pef0c383032)" style="fill: #b5cf6b; stroke: #ffffff; stroke-linejoin: miter"/>
   </g>
   <g id="patch_169">
    <path d="M 817.453107 28.53891 
L 822.146084 28.53891 
L 822.146084 12.388862 
L 817.453107 12.388862 
z
" clip-path="url(#pef0c383032)" style="fill: #afcfd0; stroke: #ffffff; stroke-linejoin: miter"/>
   </g>
   <g id="patch_170">
    <path d="M 826.839061 395.88737 
L 831.532038 395.88737 
L 831.532038 38.882418 
L 826.839061 38.882418 
z
" clip-path="url(#pef0c383032)" style="fill: #b5cf6b; stroke: #ffffff; stroke-linejoin: miter"/>
   </g>
   <g id="patch_171">
    <path d="M 826.839061 38.882418 
L 831.532038 38.882418 
L 831.532038 12.388862 
L 826.839061 12.388862 
z
" clip-path="url(#pef0c383032)" style="fill: #afcfd0; stroke: #ffffff; stroke-linejoin: miter"/>
   </g>
   <g id="patch_172">
    <path d="M 452.104841 395.88737 
L 452.104841 12.388862 
" style="fill: none; stroke: #cccccc; stroke-width: 0.8; stroke-linejoin: miter; stroke-linecap: square"/>
   </g>
   <g id="patch_173">
    <path d="M 452.104841 395.88737 
L 849.6 395.88737 
" style="fill: none; stroke: #cccccc; stroke-width: 0.8; stroke-linejoin: miter; stroke-linecap: square"/>
   </g>
  </g>
 </g>
 <defs>
  <clipPath id="p37ae2885e1">
   <rect x="54.609683" y="12.388862" width="397.495159" height="383.498507"/>
  </clipPath>
  <clipPath id="pef0c383032">
   <rect x="452.104841" y="12.388862" width="397.495159" height="383.498507"/>
  </clipPath>
 </defs>
</svg>
