<?xml version="1.0" encoding="utf-8" standalone="no"?>
<!DOCTYPE svg PUBLIC "-//W3C//DTD SVG 1.1//EN"
  "http://www.w3.org/Graphics/SVG/1.1/DTD/svg11.dtd">
<svg xmlns:xlink="http://www.w3.org/1999/xlink" width="855.670312pt" height="423.112031pt" viewBox="0 0 855.670312 423.112031" xmlns="http://www.w3.org/2000/svg" version="1.1">
 <metadata>
  <rdf:RDF xmlns:dc="http://purl.org/dc/elements/1.1/" xmlns:cc="http://creativecommons.org/ns#" xmlns:rdf="http://www.w3.org/1999/02/22-rdf-syntax-ns#">
   <cc:Work>
    <dc:type rdf:resource="http://purl.org/dc/dcmitype/StillImage"/>
    <dc:date>2023-03-26T21:34:50.851621</dc:date>
    <dc:format>image/svg+xml</dc:format>
    <dc:creator>
     <cc:Agent>
      <dc:title>Matplotlib v3.7.1, https://matplotlib.org/</dc:title>
     </cc:Agent>
    </dc:creator>
   </cc:Work>
  </rdf:RDF>
 </metadata>
 <defs>
  <style type="text/css">*{stroke-linejoin: round; stroke-linecap: butt}</style>
 </defs>
 <g id="figure_1">
  <g id="patch_1">
   <path d="M 0 423.112031 
L 855.670312 423.112031 
L 855.670312 0 
L 0 0 
z
" style="fill: #ffffff"/>
  </g>
  <g id="axes_1">
   <g id="patch_2">
    <path d="M 95.370313 382.877656 
L 471.920312 382.877656 
L 471.920312 18.597656 
L 95.370313 18.597656 
z
" style="fill: #ffffff"/>
   </g>
   <g id="patch_3">
    <path d="M 112.486222 382.877656 
L 116.420913 382.877656 
L 116.420913 18.597656 
L 112.486222 18.597656 
z
" clip-path="url(#pb1f30fc99c)" style="fill: #afcfd0"/>
   </g>
   <g id="patch_4">
    <path d="M 112.486222 18.597656 
L 116.420913 18.597656 
L 116.420913 18.597656 
L 112.486222 18.597656 
z
" clip-path="url(#pb1f30fc99c)" style="fill: #b5cf6b"/>
   </g>
   <g id="patch_5">
    <path d="M 120.355605 382.877656 
L 124.290297 382.877656 
L 124.290297 18.597656 
L 120.355605 18.597656 
z
" clip-path="url(#pb1f30fc99c)" style="fill: #afcfd0"/>
   </g>
   <g id="patch_6">
    <path d="M 120.355605 18.597656 
L 124.290297 18.597656 
L 124.290297 18.597656 
L 120.355605 18.597656 
z
" clip-path="url(#pb1f30fc99c)" style="fill: #b5cf6b"/>
   </g>
   <g id="patch_7">
    <path d="M 128.224989 382.877656 
L 132.15968 382.877656 
L 132.15968 18.597656 
L 128.224989 18.597656 
z
" clip-path="url(#pb1f30fc99c)" style="fill: #afcfd0"/>
   </g>
   <g id="patch_8">
    <path d="M 128.224989 18.597656 
L 132.15968 18.597656 
L 132.15968 18.597656 
L 128.224989 18.597656 
z
" clip-path="url(#pb1f30fc99c)" style="fill: #b5cf6b"/>
   </g>
   <g id="patch_9">
    <path d="M 136.094372 382.877656 
L 140.029064 382.877656 
L 140.029064 18.597656 
L 136.094372 18.597656 
z
" clip-path="url(#pb1f30fc99c)" style="fill: #afcfd0"/>
   </g>
   <g id="patch_10">
    <path d="M 136.094372 18.597656 
L 140.029064 18.597656 
L 140.029064 18.597656 
L 136.094372 18.597656 
z
" clip-path="url(#pb1f30fc99c)" style="fill: #b5cf6b"/>
   </g>
   <g id="patch_11">
    <path d="M 143.963756 382.877656 
L 147.898447 382.877656 
L 147.898447 18.597656 
L 143.963756 18.597656 
z
" clip-path="url(#pb1f30fc99c)" style="fill: #afcfd0"/>
   </g>
   <g id="patch_12">
    <path d="M 143.963756 18.597656 
L 147.898447 18.597656 
L 147.898447 18.597656 
L 143.963756 18.597656 
z
" clip-path="url(#pb1f30fc99c)" style="fill: #b5cf6b"/>
   </g>
   <g id="patch_13">
    <path d="M 151.833139 382.877656 
L 155.767831 382.877656 
L 155.767831 18.597656 
L 151.833139 18.597656 
z
" clip-path="url(#pb1f30fc99c)" style="fill: #afcfd0"/>
   </g>
   <g id="patch_14">
    <path d="M 151.833139 18.597656 
L 155.767831 18.597656 
L 155.767831 18.597656 
L 151.833139 18.597656 
z
" clip-path="url(#pb1f30fc99c)" style="fill: #b5cf6b"/>
   </g>
   <g id="patch_15">
    <path d="M 159.702523 382.877656 
L 163.637214 382.877656 
L 163.637214 18.597656 
L 159.702523 18.597656 
z
" clip-path="url(#pb1f30fc99c)" style="fill: #afcfd0"/>
   </g>
   <g id="patch_16">
    <path d="M 159.702523 18.597656 
L 163.637214 18.597656 
L 163.637214 18.597656 
L 159.702523 18.597656 
z
" clip-path="url(#pb1f30fc99c)" style="fill: #b5cf6b"/>
   </g>
   <g id="patch_17">
    <path d="M 167.571906 382.877656 
L 171.506598 382.877656 
L 171.506598 18.597656 
L 167.571906 18.597656 
z
" clip-path="url(#pb1f30fc99c)" style="fill: #afcfd0"/>
   </g>
   <g id="patch_18">
    <path d="M 167.571906 18.597656 
L 171.506598 18.597656 
L 171.506598 18.597656 
L 167.571906 18.597656 
z
" clip-path="url(#pb1f30fc99c)" style="fill: #b5cf6b"/>
   </g>
   <g id="patch_19">
    <path d="M 175.44129 382.877656 
L 179.375981 382.877656 
L 179.375981 18.597656 
L 175.44129 18.597656 
z
" clip-path="url(#pb1f30fc99c)" style="fill: #afcfd0"/>
   </g>
   <g id="patch_20">
    <path d="M 175.44129 18.597656 
L 179.375981 18.597656 
L 179.375981 18.597656 
L 175.44129 18.597656 
z
" clip-path="url(#pb1f30fc99c)" style="fill: #b5cf6b"/>
   </g>
   <g id="patch_21">
    <path d="M 183.310673 382.877656 
L 187.245365 382.877656 
L 187.245365 18.597656 
L 183.310673 18.597656 
z
" clip-path="url(#pb1f30fc99c)" style="fill: #afcfd0"/>
   </g>
   <g id="patch_22">
    <path d="M 183.310673 18.597656 
L 187.245365 18.597656 
L 187.245365 18.597656 
L 183.310673 18.597656 
z
" clip-path="url(#pb1f30fc99c)" style="fill: #b5cf6b"/>
   </g>
   <g id="patch_23">
    <path d="M 191.180056 382.877656 
L 195.114748 382.877656 
L 195.114748 18.597656 
L 191.180056 18.597656 
z
" clip-path="url(#pb1f30fc99c)" style="fill: #afcfd0"/>
   </g>
   <g id="patch_24">
    <path d="M 191.180056 18.597656 
L 195.114748 18.597656 
L 195.114748 18.597656 
L 191.180056 18.597656 
z
" clip-path="url(#pb1f30fc99c)" style="fill: #b5cf6b"/>
   </g>
   <g id="patch_25">
    <path d="M 199.04944 382.877656 
L 202.984132 382.877656 
L 202.984132 18.597656 
L 199.04944 18.597656 
z
" clip-path="url(#pb1f30fc99c)" style="fill: #afcfd0"/>
   </g>
   <g id="patch_26">
    <path d="M 199.04944 18.597656 
L 202.984132 18.597656 
L 202.984132 18.597656 
L 199.04944 18.597656 
z
" clip-path="url(#pb1f30fc99c)" style="fill: #b5cf6b"/>
   </g>
   <g id="patch_27">
    <path d="M 206.918823 382.877656 
L 210.853515 382.877656 
L 210.853515 18.597656 
L 206.918823 18.597656 
z
" clip-path="url(#pb1f30fc99c)" style="fill: #afcfd0"/>
   </g>
   <g id="patch_28">
    <path d="M 206.918823 18.597656 
L 210.853515 18.597656 
L 210.853515 18.597656 
L 206.918823 18.597656 
z
" clip-path="url(#pb1f30fc99c)" style="fill: #b5cf6b"/>
   </g>
   <g id="patch_29">
    <path d="M 214.788207 382.877656 
L 218.722899 382.877656 
L 218.722899 18.597656 
L 214.788207 18.597656 
z
" clip-path="url(#pb1f30fc99c)" style="fill: #afcfd0"/>
   </g>
   <g id="patch_30">
    <path d="M 214.788207 18.597656 
L 218.722899 18.597656 
L 218.722899 18.597656 
L 214.788207 18.597656 
z
" clip-path="url(#pb1f30fc99c)" style="fill: #b5cf6b"/>
   </g>
   <g id="patch_31">
    <path d="M 222.65759 382.877656 
L 226.592282 382.877656 
L 226.592282 18.597656 
L 222.65759 18.597656 
z
" clip-path="url(#pb1f30fc99c)" style="fill: #afcfd0"/>
   </g>
   <g id="patch_32">
    <path d="M 222.65759 18.597656 
L 226.592282 18.597656 
L 226.592282 18.597656 
L 222.65759 18.597656 
z
" clip-path="url(#pb1f30fc99c)" style="fill: #b5cf6b"/>
   </g>
   <g id="patch_33">
    <path d="M 230.526974 382.877656 
L 234.461666 382.877656 
L 234.461666 18.597656 
L 230.526974 18.597656 
z
" clip-path="url(#pb1f30fc99c)" style="fill: #afcfd0"/>
   </g>
   <g id="patch_34">
    <path d="M 230.526974 18.597656 
L 234.461666 18.597656 
L 234.461666 18.597656 
L 230.526974 18.597656 
z
" clip-path="url(#pb1f30fc99c)" style="fill: #b5cf6b"/>
   </g>
   <g id="patch_35">
    <path d="M 238.396357 382.877656 
L 242.331049 382.877656 
L 242.331049 18.597656 
L 238.396357 18.597656 
z
" clip-path="url(#pb1f30fc99c)" style="fill: #afcfd0"/>
   </g>
   <g id="patch_36">
    <path d="M 238.396357 18.597656 
L 242.331049 18.597656 
L 242.331049 18.597656 
L 238.396357 18.597656 
z
" clip-path="url(#pb1f30fc99c)" style="fill: #b5cf6b"/>
   </g>
   <g id="patch_37">
    <path d="M 246.265741 382.877656 
L 250.200433 382.877656 
L 250.200433 18.597656 
L 246.265741 18.597656 
z
" clip-path="url(#pb1f30fc99c)" style="fill: #afcfd0"/>
   </g>
   <g id="patch_38">
    <path d="M 246.265741 18.597656 
L 250.200433 18.597656 
L 250.200433 18.597656 
L 246.265741 18.597656 
z
" clip-path="url(#pb1f30fc99c)" style="fill: #b5cf6b"/>
   </g>
   <g id="patch_39">
    <path d="M 254.135124 382.877656 
L 258.069816 382.877656 
L 258.069816 18.597656 
L 254.135124 18.597656 
z
" clip-path="url(#pb1f30fc99c)" style="fill: #afcfd0"/>
   </g>
   <g id="patch_40">
    <path d="M 254.135124 18.597656 
L 258.069816 18.597656 
L 258.069816 18.597656 
L 254.135124 18.597656 
z
" clip-path="url(#pb1f30fc99c)" style="fill: #b5cf6b"/>
   </g>
   <g id="patch_41">
    <path d="M 262.004508 382.877656 
L 265.9392 382.877656 
L 265.9392 18.597656 
L 262.004508 18.597656 
z
" clip-path="url(#pb1f30fc99c)" style="fill: #afcfd0"/>
   </g>
   <g id="patch_42">
    <path d="M 262.004508 18.597656 
L 265.9392 18.597656 
L 265.9392 18.597656 
L 262.004508 18.597656 
z
" clip-path="url(#pb1f30fc99c)" style="fill: #b5cf6b"/>
   </g>
   <g id="patch_43">
    <path d="M 269.873891 382.877656 
L 273.808583 382.877656 
L 273.808583 18.597656 
L 269.873891 18.597656 
z
" clip-path="url(#pb1f30fc99c)" style="fill: #afcfd0"/>
   </g>
   <g id="patch_44">
    <path d="M 269.873891 18.597656 
L 273.808583 18.597656 
L 273.808583 18.597656 
L 269.873891 18.597656 
z
" clip-path="url(#pb1f30fc99c)" style="fill: #b5cf6b"/>
   </g>
   <g id="patch_45">
    <path d="M 277.743275 382.877656 
L 281.677967 382.877656 
L 281.677967 18.597656 
L 277.743275 18.597656 
z
" clip-path="url(#pb1f30fc99c)" style="fill: #afcfd0"/>
   </g>
   <g id="patch_46">
    <path d="M 277.743275 18.597656 
L 281.677967 18.597656 
L 281.677967 18.597656 
L 277.743275 18.597656 
z
" clip-path="url(#pb1f30fc99c)" style="fill: #b5cf6b"/>
   </g>
   <g id="patch_47">
    <path d="M 285.612658 382.877656 
L 289.54735 382.877656 
L 289.54735 18.597656 
L 285.612658 18.597656 
z
" clip-path="url(#pb1f30fc99c)" style="fill: #afcfd0"/>
   </g>
   <g id="patch_48">
    <path d="M 285.612658 18.597656 
L 289.54735 18.597656 
L 289.54735 18.597656 
L 285.612658 18.597656 
z
" clip-path="url(#pb1f30fc99c)" style="fill: #b5cf6b"/>
   </g>
   <g id="patch_49">
    <path d="M 293.482042 382.877656 
L 297.416734 382.877656 
L 297.416734 18.997266 
L 293.482042 18.997266 
z
" clip-path="url(#pb1f30fc99c)" style="fill: #afcfd0"/>
   </g>
   <g id="patch_50">
    <path d="M 293.482042 18.997266 
L 297.416734 18.997266 
L 297.416734 18.997266 
L 293.482042 18.997266 
z
" clip-path="url(#pb1f30fc99c)" style="fill: #b5cf6b"/>
   </g>
   <g id="patch_51">
    <path d="M 301.351425 382.877656 
L 305.286117 382.877656 
L 305.286117 19.005753 
L 301.351425 19.005753 
z
" clip-path="url(#pb1f30fc99c)" style="fill: #afcfd0"/>
   </g>
   <g id="patch_52">
    <path d="M 301.351425 19.005753 
L 305.286117 19.005753 
L 305.286117 19.005753 
L 301.351425 19.005753 
z
" clip-path="url(#pb1f30fc99c)" style="fill: #b5cf6b"/>
   </g>
   <g id="patch_53">
    <path d="M 309.220809 382.877656 
L 313.155501 382.877656 
L 313.155501 19.502134 
L 309.220809 19.502134 
z
" clip-path="url(#pb1f30fc99c)" style="fill: #afcfd0"/>
   </g>
   <g id="patch_54">
    <path d="M 309.220809 19.502134 
L 313.155501 19.502134 
L 313.155501 19.502134 
L 309.220809 19.502134 
z
" clip-path="url(#pb1f30fc99c)" style="fill: #b5cf6b"/>
   </g>
   <g id="patch_55">
    <path d="M 317.090192 382.877656 
L 321.024884 382.877656 
L 321.024884 20.016252 
L 317.090192 20.016252 
z
" clip-path="url(#pb1f30fc99c)" style="fill: #afcfd0"/>
   </g>
   <g id="patch_56">
    <path d="M 317.090192 20.016252 
L 321.024884 20.016252 
L 321.024884 18.716946 
L 317.090192 18.716946 
z
" clip-path="url(#pb1f30fc99c)" style="fill: #b5cf6b"/>
   </g>
   <g id="patch_57">
    <path d="M 324.959576 382.877656 
L 328.894268 382.877656 
L 328.894268 20.970655 
L 324.959576 20.970655 
z
" clip-path="url(#pb1f30fc99c)" style="fill: #afcfd0"/>
   </g>
   <g id="patch_58">
    <path d="M 324.959576 20.970655 
L 328.894268 20.970655 
L 328.894268 18.597656 
L 324.959576 18.597656 
z
" clip-path="url(#pb1f30fc99c)" style="fill: #b5cf6b"/>
   </g>
   <g id="patch_59">
    <path d="M 332.828959 382.877656 
L 336.763651 382.877656 
L 336.763651 23.204725 
L 332.828959 23.204725 
z
" clip-path="url(#pb1f30fc99c)" style="fill: #afcfd0"/>
   </g>
   <g id="patch_60">
    <path d="M 332.828959 23.204725 
L 336.763651 23.204725 
L 336.763651 18.597656 
L 332.828959 18.597656 
z
" clip-path="url(#pb1f30fc99c)" style="fill: #b5cf6b"/>
   </g>
   <g id="patch_61">
    <path d="M 340.698343 382.877656 
L 344.633035 382.877656 
L 344.633035 24.170464 
L 340.698343 24.170464 
z
" clip-path="url(#pb1f30fc99c)" style="fill: #afcfd0"/>
   </g>
   <g id="patch_62">
    <path d="M 340.698343 24.170464 
L 344.633035 24.170464 
L 344.633035 24.170464 
L 340.698343 24.170464 
z
" clip-path="url(#pb1f30fc99c)" style="fill: #b5cf6b"/>
   </g>
   <g id="patch_63">
    <path d="M 348.567726 382.877656 
L 352.502418 382.877656 
L 352.502418 24.666147 
L 348.567726 24.666147 
z
" clip-path="url(#pb1f30fc99c)" style="fill: #afcfd0"/>
   </g>
   <g id="patch_64">
    <path d="M 348.567726 24.666147 
L 352.502418 24.666147 
L 352.502418 18.597656 
L 348.567726 18.597656 
z
" clip-path="url(#pb1f30fc99c)" style="fill: #b5cf6b"/>
   </g>
   <g id="patch_65">
    <path d="M 356.43711 382.877656 
L 360.371802 382.877656 
L 360.371802 24.850674 
L 356.43711 24.850674 
z
" clip-path="url(#pb1f30fc99c)" style="fill: #afcfd0"/>
   </g>
   <g id="patch_66">
    <path d="M 356.43711 24.850674 
L 360.371802 24.850674 
L 360.371802 21.395612 
L 356.43711 21.395612 
z
" clip-path="url(#pb1f30fc99c)" style="fill: #b5cf6b"/>
   </g>
   <g id="patch_67">
    <path d="M 364.306493 382.877656 
L 368.241185 382.877656 
L 368.241185 25.869656 
L 364.306493 25.869656 
z
" clip-path="url(#pb1f30fc99c)" style="fill: #afcfd0"/>
   </g>
   <g id="patch_68">
    <path d="M 364.306493 25.869656 
L 368.241185 25.869656 
L 368.241185 18.597656 
L 364.306493 18.597656 
z
" clip-path="url(#pb1f30fc99c)" style="fill: #b5cf6b"/>
   </g>
   <g id="patch_69">
    <path d="M 372.175877 382.877656 
L 376.110569 382.877656 
L 376.110569 26.958583 
L 372.175877 26.958583 
z
" clip-path="url(#pb1f30fc99c)" style="fill: #afcfd0"/>
   </g>
   <g id="patch_70">
    <path d="M 372.175877 26.958583 
L 376.110569 26.958583 
L 376.110569 26.958583 
L 372.175877 26.958583 
z
" clip-path="url(#pb1f30fc99c)" style="fill: #b5cf6b"/>
   </g>
   <g id="patch_71">
    <path d="M 380.04526 382.877656 
L 383.979952 382.877656 
L 383.979952 30.815696 
L 380.04526 30.815696 
z
" clip-path="url(#pb1f30fc99c)" style="fill: #afcfd0"/>
   </g>
   <g id="patch_72">
    <path d="M 380.04526 30.815696 
L 383.979952 30.815696 
L 383.979952 18.597656 
L 380.04526 18.597656 
z
" clip-path="url(#pb1f30fc99c)" style="fill: #b5cf6b"/>
   </g>
   <g id="patch_73">
    <path d="M 387.914644 382.877656 
L 391.849335 382.877656 
L 391.849335 31.068464 
L 387.914644 31.068464 
z
" clip-path="url(#pb1f30fc99c)" style="fill: #afcfd0"/>
   </g>
   <g id="patch_74">
    <path d="M 387.914644 31.068464 
L 391.849335 31.068464 
L 391.849335 27.151756 
L 387.914644 27.151756 
z
" clip-path="url(#pb1f30fc99c)" style="fill: #b5cf6b"/>
   </g>
   <g id="patch_75">
    <path d="M 395.784027 382.877656 
L 399.718719 382.877656 
L 399.718719 32.271282 
L 395.784027 32.271282 
z
" clip-path="url(#pb1f30fc99c)" style="fill: #afcfd0"/>
   </g>
   <g id="patch_76">
    <path d="M 395.784027 32.271282 
L 399.718719 32.271282 
L 399.718719 30.997097 
L 395.784027 30.997097 
z
" clip-path="url(#pb1f30fc99c)" style="fill: #b5cf6b"/>
   </g>
   <g id="patch_77">
    <path d="M 403.653411 382.877656 
L 407.588102 382.877656 
L 407.588102 32.356953 
L 403.653411 32.356953 
z
" clip-path="url(#pb1f30fc99c)" style="fill: #afcfd0"/>
   </g>
   <g id="patch_78">
    <path d="M 403.653411 32.356953 
L 407.588102 32.356953 
L 407.588102 32.356953 
L 403.653411 32.356953 
z
" clip-path="url(#pb1f30fc99c)" style="fill: #b5cf6b"/>
   </g>
   <g id="patch_79">
    <path d="M 411.522794 382.877656 
L 415.457486 382.877656 
L 415.457486 38.988508 
L 411.522794 38.988508 
z
" clip-path="url(#pb1f30fc99c)" style="fill: #afcfd0"/>
   </g>
   <g id="patch_80">
    <path d="M 411.522794 38.988508 
L 415.457486 38.988508 
L 415.457486 38.988508 
L 411.522794 38.988508 
z
" clip-path="url(#pb1f30fc99c)" style="fill: #b5cf6b"/>
   </g>
   <g id="patch_81">
    <path d="M 419.392178 382.877656 
L 423.326869 382.877656 
L 423.326869 48.821689 
L 419.392178 48.821689 
z
" clip-path="url(#pb1f30fc99c)" style="fill: #afcfd0"/>
   </g>
   <g id="patch_82">
    <path d="M 419.392178 48.821689 
L 423.326869 48.821689 
L 423.326869 30.95522 
L 419.392178 30.95522 
z
" clip-path="url(#pb1f30fc99c)" style="fill: #b5cf6b"/>
   </g>
   <g id="patch_83">
    <path d="M 427.261561 382.877656 
L 431.196253 382.877656 
L 431.196253 100.377862 
L 427.261561 100.377862 
z
" clip-path="url(#pb1f30fc99c)" style="fill: #afcfd0"/>
   </g>
   <g id="patch_84">
    <path d="M 427.261561 100.377862 
L 431.196253 100.377862 
L 431.196253 97.045085 
L 427.261561 97.045085 
z
" clip-path="url(#pb1f30fc99c)" style="fill: #b5cf6b"/>
   </g>
   <g id="patch_85">
    <path d="M 435.130945 382.877656 
L 439.065636 382.877656 
L 439.065636 111.785049 
L 435.130945 111.785049 
z
" clip-path="url(#pb1f30fc99c)" style="fill: #afcfd0"/>
   </g>
   <g id="patch_86">
    <path d="M 435.130945 111.785049 
L 439.065636 111.785049 
L 439.065636 111.785049 
L 435.130945 111.785049 
z
" clip-path="url(#pb1f30fc99c)" style="fill: #b5cf6b"/>
   </g>
   <g id="patch_87">
    <path d="M 443.000328 382.877656 
L 446.93502 382.877656 
L 446.93502 219.750744 
L 443.000328 219.750744 
z
" clip-path="url(#pb1f30fc99c)" style="fill: #afcfd0"/>
   </g>
   <g id="patch_88">
    <path d="M 443.000328 219.750744 
L 446.93502 219.750744 
L 446.93502 219.750744 
L 443.000328 219.750744 
z
" clip-path="url(#pb1f30fc99c)" style="fill: #b5cf6b"/>
   </g>
   <g id="patch_89">
    <path d="M 450.869712 382.877656 
L 454.804403 382.877656 
L 454.804403 256.511138 
L 450.869712 256.511138 
z
" clip-path="url(#pb1f30fc99c)" style="fill: #afcfd0"/>
   </g>
   <g id="patch_90">
    <path d="M 450.869712 256.511138 
L 454.804403 256.511138 
L 454.804403 20.405132 
L 450.869712 20.405132 
z
" clip-path="url(#pb1f30fc99c)" style="fill: #b5cf6b"/>
   </g>
   <g id="matplotlib.axis_1">
    <g id="text_1">
     <!-- Class I -->
     <g transform="translate(232.340625 409.672969) scale(0.3 -0.3)">
      <defs>
       <path id="DejaVuSerif-43" d="M 4513 1234 
Q 4306 581 3820 245 
Q 3334 -91 2591 -91 
Q 2134 -91 1743 65 
Q 1353 222 1050 525 
Q 700 875 529 1320 
Q 359 1766 359 2328 
Q 359 3416 987 4083 
Q 1616 4750 2644 4750 
Q 3025 4750 3456 4650 
Q 3888 4550 4384 4347 
L 4384 3272 
L 4031 3272 
Q 3916 3859 3567 4137 
Q 3219 4416 2591 4416 
Q 1844 4416 1459 3886 
Q 1075 3356 1075 2328 
Q 1075 1303 1459 773 
Q 1844 244 2591 244 
Q 3113 244 3450 492 
Q 3788 741 3938 1234 
L 4513 1234 
z
" transform="scale(0.015625)"/>
       <path id="DejaVuSerif-6c" d="M 1313 331 
L 1856 331 
L 1856 0 
L 184 0 
L 184 331 
L 738 331 
L 738 4531 
L 184 4531 
L 184 4863 
L 1313 4863 
L 1313 331 
z
" transform="scale(0.015625)"/>
       <path id="DejaVuSerif-61" d="M 2547 1044 
L 2547 1747 
L 1806 1747 
Q 1378 1747 1168 1562 
Q 959 1378 959 997 
Q 959 650 1171 447 
Q 1384 244 1747 244 
Q 2106 244 2326 466 
Q 2547 688 2547 1044 
z
M 3122 2075 
L 3122 331 
L 3634 331 
L 3634 0 
L 2547 0 
L 2547 359 
Q 2356 128 2106 18 
Q 1856 -91 1522 -91 
Q 969 -91 644 203 
Q 319 497 319 997 
Q 319 1513 691 1797 
Q 1063 2081 1741 2081 
L 2547 2081 
L 2547 2309 
Q 2547 2688 2317 2895 
Q 2088 3103 1672 3103 
Q 1328 3103 1125 2947 
Q 922 2791 872 2484 
L 575 2484 
L 575 3156 
Q 875 3284 1158 3348 
Q 1441 3413 1709 3413 
Q 2400 3413 2761 3070 
Q 3122 2728 3122 2075 
z
" transform="scale(0.015625)"/>
       <path id="DejaVuSerif-73" d="M 359 184 
L 359 959 
L 691 959 
Q 703 588 923 403 
Q 1144 219 1575 219 
Q 1963 219 2166 364 
Q 2369 509 2369 788 
Q 2369 1006 2220 1140 
Q 2072 1275 1594 1428 
L 1178 1569 
Q 750 1706 558 1912 
Q 366 2119 366 2438 
Q 366 2894 700 3153 
Q 1034 3413 1625 3413 
Q 1888 3413 2178 3344 
Q 2469 3275 2778 3144 
L 2778 2419 
L 2447 2419 
Q 2434 2741 2221 2922 
Q 2009 3103 1644 3103 
Q 1281 3103 1095 2975 
Q 909 2847 909 2591 
Q 909 2381 1050 2254 
Q 1191 2128 1613 1997 
L 2069 1856 
Q 2541 1709 2748 1489 
Q 2956 1269 2956 922 
Q 2956 450 2595 179 
Q 2234 -91 1600 -91 
Q 1278 -91 972 -22 
Q 666 47 359 184 
z
" transform="scale(0.015625)"/>
       <path id="DejaVuSerif-20" transform="scale(0.015625)"/>
       <path id="DejaVuSerif-49" d="M 1581 331 
L 2175 331 
L 2175 0 
L 353 0 
L 353 331 
L 947 331 
L 947 4331 
L 353 4331 
L 353 4666 
L 2175 4666 
L 2175 4331 
L 1581 4331 
L 1581 331 
z
" transform="scale(0.015625)"/>
      </defs>
      <use xlink:href="#DejaVuSerif-43"/>
      <use xlink:href="#DejaVuSerif-6c" x="76.513672"/>
      <use xlink:href="#DejaVuSerif-61" x="108.496094"/>
      <use xlink:href="#DejaVuSerif-73" x="168.115234"/>
      <use xlink:href="#DejaVuSerif-73" x="219.433594"/>
      <use xlink:href="#DejaVuSerif-20" x="270.751953"/>
      <use xlink:href="#DejaVuSerif-49" x="302.539062"/>
     </g>
    </g>
   </g>
   <g id="matplotlib.axis_2">
    <g id="ytick_1">
     <g id="line2d_1">
      <defs>
       <path id="m16cb7bdcea" d="M 0 0 
L -3.5 0 
" style="stroke: #000000; stroke-width: 0.8"/>
      </defs>
      <g>
       <use xlink:href="#m16cb7bdcea" x="95.370313" y="382.877656" style="stroke: #000000; stroke-width: 0.8"/>
      </g>
     </g>
     <g id="text_2">
      <!-- 0.0 -->
      <g transform="translate(40.660938 394.275312) scale(0.3 -0.3)">
       <defs>
        <path id="DejaVuSerif-30" d="M 2034 219 
Q 2513 219 2750 744 
Q 2988 1269 2988 2328 
Q 2988 3391 2750 3916 
Q 2513 4441 2034 4441 
Q 1556 4441 1318 3916 
Q 1081 3391 1081 2328 
Q 1081 1269 1318 744 
Q 1556 219 2034 219 
z
M 2034 -91 
Q 1275 -91 848 546 
Q 422 1184 422 2328 
Q 422 3475 848 4112 
Q 1275 4750 2034 4750 
Q 2797 4750 3222 4112 
Q 3647 3475 3647 2328 
Q 3647 1184 3222 546 
Q 2797 -91 2034 -91 
z
" transform="scale(0.015625)"/>
        <path id="DejaVuSerif-2e" d="M 603 325 
Q 603 500 722 622 
Q 841 744 1019 744 
Q 1191 744 1312 622 
Q 1434 500 1434 325 
Q 1434 153 1312 31 
Q 1191 -91 1019 -91 
Q 841 -91 722 29 
Q 603 150 603 325 
z
" transform="scale(0.015625)"/>
       </defs>
       <use xlink:href="#DejaVuSerif-30"/>
       <use xlink:href="#DejaVuSerif-2e" x="63.623047"/>
       <use xlink:href="#DejaVuSerif-30" x="95.410156"/>
      </g>
     </g>
    </g>
    <g id="ytick_2">
     <g id="line2d_2">
      <g>
       <use xlink:href="#m16cb7bdcea" x="95.370313" y="346.449656" style="stroke: #000000; stroke-width: 0.8"/>
      </g>
     </g>
     <g id="text_3">
      <!-- 0.1 -->
      <g transform="translate(40.660938 357.847312) scale(0.3 -0.3)">
       <defs>
        <path id="DejaVuSerif-31" d="M 909 0 
L 909 331 
L 1722 331 
L 1722 4213 
L 781 3603 
L 781 4013 
L 1919 4750 
L 2350 4750 
L 2350 331 
L 3163 331 
L 3163 0 
L 909 0 
z
" transform="scale(0.015625)"/>
       </defs>
       <use xlink:href="#DejaVuSerif-30"/>
       <use xlink:href="#DejaVuSerif-2e" x="63.623047"/>
       <use xlink:href="#DejaVuSerif-31" x="95.410156"/>
      </g>
     </g>
    </g>
    <g id="ytick_3">
     <g id="line2d_3">
      <g>
       <use xlink:href="#m16cb7bdcea" x="95.370313" y="310.021656" style="stroke: #000000; stroke-width: 0.8"/>
      </g>
     </g>
     <g id="text_4">
      <!-- 0.2 -->
      <g transform="translate(40.660938 321.419312) scale(0.3 -0.3)">
       <defs>
        <path id="DejaVuSerif-32" d="M 819 3553 
L 469 3553 
L 469 4384 
Q 803 4563 1142 4656 
Q 1481 4750 1806 4750 
Q 2534 4750 2956 4397 
Q 3378 4044 3378 3438 
Q 3378 2753 2422 1800 
Q 2347 1728 2309 1691 
L 1131 513 
L 3078 513 
L 3078 1088 
L 3444 1088 
L 3444 0 
L 434 0 
L 434 341 
L 1850 1753 
Q 2319 2222 2519 2614 
Q 2719 3006 2719 3438 
Q 2719 3909 2473 4175 
Q 2228 4441 1797 4441 
Q 1350 4441 1106 4219 
Q 863 3997 819 3553 
z
" transform="scale(0.015625)"/>
       </defs>
       <use xlink:href="#DejaVuSerif-30"/>
       <use xlink:href="#DejaVuSerif-2e" x="63.623047"/>
       <use xlink:href="#DejaVuSerif-32" x="95.410156"/>
      </g>
     </g>
    </g>
    <g id="ytick_4">
     <g id="line2d_4">
      <g>
       <use xlink:href="#m16cb7bdcea" x="95.370313" y="273.593656" style="stroke: #000000; stroke-width: 0.8"/>
      </g>
     </g>
     <g id="text_5">
      <!-- 0.3 -->
      <g transform="translate(40.660938 284.991312) scale(0.3 -0.3)">
       <defs>
        <path id="DejaVuSerif-33" d="M 622 4469 
Q 988 4606 1323 4678 
Q 1659 4750 1953 4750 
Q 2638 4750 3022 4454 
Q 3406 4159 3406 3634 
Q 3406 3213 3140 2930 
Q 2875 2647 2388 2547 
Q 2963 2466 3280 2130 
Q 3597 1794 3597 1259 
Q 3597 606 3158 257 
Q 2719 -91 1894 -91 
Q 1528 -91 1179 -12 
Q 831 66 488 225 
L 488 1131 
L 838 1131 
Q 869 681 1141 450 
Q 1413 219 1906 219 
Q 2384 219 2661 495 
Q 2938 772 2938 1253 
Q 2938 1803 2653 2086 
Q 2369 2369 1819 2369 
L 1522 2369 
L 1522 2688 
L 1678 2688 
Q 2225 2688 2498 2914 
Q 2772 3141 2772 3597 
Q 2772 4006 2547 4223 
Q 2322 4441 1900 4441 
Q 1478 4441 1245 4241 
Q 1013 4041 972 3647 
L 622 3647 
L 622 4469 
z
" transform="scale(0.015625)"/>
       </defs>
       <use xlink:href="#DejaVuSerif-30"/>
       <use xlink:href="#DejaVuSerif-2e" x="63.623047"/>
       <use xlink:href="#DejaVuSerif-33" x="95.410156"/>
      </g>
     </g>
    </g>
    <g id="ytick_5">
     <g id="line2d_5">
      <g>
       <use xlink:href="#m16cb7bdcea" x="95.370313" y="237.165656" style="stroke: #000000; stroke-width: 0.8"/>
      </g>
     </g>
     <g id="text_6">
      <!-- 0.4 -->
      <g transform="translate(40.660938 248.563312) scale(0.3 -0.3)">
       <defs>
        <path id="DejaVuSerif-34" d="M 2234 1581 
L 2234 4063 
L 641 1581 
L 2234 1581 
z
M 3609 0 
L 1484 0 
L 1484 331 
L 2234 331 
L 2234 1247 
L 197 1247 
L 197 1588 
L 2241 4750 
L 2859 4750 
L 2859 1581 
L 3750 1581 
L 3750 1247 
L 2859 1247 
L 2859 331 
L 3609 331 
L 3609 0 
z
" transform="scale(0.015625)"/>
       </defs>
       <use xlink:href="#DejaVuSerif-30"/>
       <use xlink:href="#DejaVuSerif-2e" x="63.623047"/>
       <use xlink:href="#DejaVuSerif-34" x="95.410156"/>
      </g>
     </g>
    </g>
    <g id="ytick_6">
     <g id="line2d_6">
      <g>
       <use xlink:href="#m16cb7bdcea" x="95.370313" y="200.737656" style="stroke: #000000; stroke-width: 0.8"/>
      </g>
     </g>
     <g id="text_7">
      <!-- 0.5 -->
      <g transform="translate(40.660938 212.135312) scale(0.3 -0.3)">
       <defs>
        <path id="DejaVuSerif-35" d="M 3219 4666 
L 3219 4153 
L 1081 4153 
L 1081 2816 
Q 1244 2928 1461 2984 
Q 1678 3041 1947 3041 
Q 2703 3041 3140 2622 
Q 3578 2203 3578 1478 
Q 3578 738 3136 323 
Q 2694 -91 1894 -91 
Q 1572 -91 1234 -12 
Q 897 66 544 225 
L 544 1131 
L 897 1131 
Q 925 688 1179 453 
Q 1434 219 1894 219 
Q 2388 219 2653 544 
Q 2919 869 2919 1478 
Q 2919 2084 2655 2407 
Q 2391 2731 1894 2731 
Q 1613 2731 1398 2631 
Q 1184 2531 1019 2322 
L 750 2322 
L 750 4666 
L 3219 4666 
z
" transform="scale(0.015625)"/>
       </defs>
       <use xlink:href="#DejaVuSerif-30"/>
       <use xlink:href="#DejaVuSerif-2e" x="63.623047"/>
       <use xlink:href="#DejaVuSerif-35" x="95.410156"/>
      </g>
     </g>
    </g>
    <g id="ytick_7">
     <g id="line2d_7">
      <g>
       <use xlink:href="#m16cb7bdcea" x="95.370313" y="164.309656" style="stroke: #000000; stroke-width: 0.8"/>
      </g>
     </g>
     <g id="text_8">
      <!-- 0.6 -->
      <g transform="translate(40.660938 175.707312) scale(0.3 -0.3)">
       <defs>
        <path id="DejaVuSerif-36" d="M 2094 219 
Q 2534 219 2771 542 
Q 3009 866 3009 1472 
Q 3009 2078 2771 2401 
Q 2534 2725 2094 2725 
Q 1647 2725 1412 2412 
Q 1178 2100 1178 1509 
Q 1178 888 1415 553 
Q 1653 219 2094 219 
z
M 1075 2569 
Q 1288 2803 1556 2918 
Q 1825 3034 2163 3034 
Q 2859 3034 3264 2615 
Q 3669 2197 3669 1472 
Q 3669 763 3233 336 
Q 2797 -91 2069 -91 
Q 1278 -91 853 498 
Q 428 1088 428 2181 
Q 428 3406 931 4078 
Q 1434 4750 2350 4750 
Q 2597 4750 2869 4703 
Q 3141 4656 3425 4563 
L 3425 3794 
L 3072 3794 
Q 3034 4109 2831 4275 
Q 2628 4441 2284 4441 
Q 1678 4441 1381 3981 
Q 1084 3522 1075 2569 
z
" transform="scale(0.015625)"/>
       </defs>
       <use xlink:href="#DejaVuSerif-30"/>
       <use xlink:href="#DejaVuSerif-2e" x="63.623047"/>
       <use xlink:href="#DejaVuSerif-36" x="95.410156"/>
      </g>
     </g>
    </g>
    <g id="ytick_8">
     <g id="line2d_8">
      <g>
       <use xlink:href="#m16cb7bdcea" x="95.370313" y="127.881656" style="stroke: #000000; stroke-width: 0.8"/>
      </g>
     </g>
     <g id="text_9">
      <!-- 0.7 -->
      <g transform="translate(40.660938 139.279312) scale(0.3 -0.3)">
       <defs>
        <path id="DejaVuSerif-37" d="M 3609 4347 
L 1784 0 
L 1319 0 
L 3059 4153 
L 903 4153 
L 903 3578 
L 538 3578 
L 538 4666 
L 3609 4666 
L 3609 4347 
z
" transform="scale(0.015625)"/>
       </defs>
       <use xlink:href="#DejaVuSerif-30"/>
       <use xlink:href="#DejaVuSerif-2e" x="63.623047"/>
       <use xlink:href="#DejaVuSerif-37" x="95.410156"/>
      </g>
     </g>
    </g>
    <g id="ytick_9">
     <g id="line2d_9">
      <g>
       <use xlink:href="#m16cb7bdcea" x="95.370313" y="91.453656" style="stroke: #000000; stroke-width: 0.8"/>
      </g>
     </g>
     <g id="text_10">
      <!-- 0.8 -->
      <g transform="translate(40.660938 102.851313) scale(0.3 -0.3)">
       <defs>
        <path id="DejaVuSerif-38" d="M 2981 1275 
Q 2981 1775 2732 2051 
Q 2484 2328 2034 2328 
Q 1584 2328 1336 2051 
Q 1088 1775 1088 1275 
Q 1088 772 1336 495 
Q 1584 219 2034 219 
Q 2484 219 2732 495 
Q 2981 772 2981 1275 
z
M 2853 3541 
Q 2853 3966 2637 4203 
Q 2422 4441 2034 4441 
Q 1650 4441 1433 4203 
Q 1216 3966 1216 3541 
Q 1216 3113 1433 2875 
Q 1650 2638 2034 2638 
Q 2422 2638 2637 2875 
Q 2853 3113 2853 3541 
z
M 2516 2484 
Q 3047 2413 3344 2092 
Q 3641 1772 3641 1275 
Q 3641 619 3225 264 
Q 2809 -91 2034 -91 
Q 1263 -91 845 264 
Q 428 619 428 1275 
Q 428 1772 725 2092 
Q 1022 2413 1556 2484 
Q 1084 2569 832 2842 
Q 581 3116 581 3541 
Q 581 4103 968 4426 
Q 1356 4750 2034 4750 
Q 2713 4750 3100 4426 
Q 3488 4103 3488 3541 
Q 3488 3116 3236 2842 
Q 2984 2569 2516 2484 
z
" transform="scale(0.015625)"/>
       </defs>
       <use xlink:href="#DejaVuSerif-30"/>
       <use xlink:href="#DejaVuSerif-2e" x="63.623047"/>
       <use xlink:href="#DejaVuSerif-38" x="95.410156"/>
      </g>
     </g>
    </g>
    <g id="ytick_10">
     <g id="line2d_10">
      <g>
       <use xlink:href="#m16cb7bdcea" x="95.370313" y="55.025656" style="stroke: #000000; stroke-width: 0.8"/>
      </g>
     </g>
     <g id="text_11">
      <!-- 0.9 -->
      <g transform="translate(40.660938 66.423313) scale(0.3 -0.3)">
       <defs>
        <path id="DejaVuSerif-39" d="M 2994 2091 
Q 2784 1856 2512 1740 
Q 2241 1625 1900 1625 
Q 1206 1625 804 2044 
Q 403 2463 403 3188 
Q 403 3897 839 4323 
Q 1275 4750 2003 4750 
Q 2794 4750 3217 4161 
Q 3641 3572 3641 2478 
Q 3641 1253 3137 581 
Q 2634 -91 1722 -91 
Q 1475 -91 1203 -44 
Q 931 3 647 97 
L 647 872 
L 997 872 
Q 1038 556 1241 387 
Q 1444 219 1784 219 
Q 2391 219 2687 676 
Q 2984 1134 2994 2091 
z
M 1978 4441 
Q 1534 4441 1298 4117 
Q 1063 3794 1063 3188 
Q 1063 2581 1298 2256 
Q 1534 1931 1978 1931 
Q 2422 1931 2658 2245 
Q 2894 2559 2894 3150 
Q 2894 3772 2656 4106 
Q 2419 4441 1978 4441 
z
" transform="scale(0.015625)"/>
       </defs>
       <use xlink:href="#DejaVuSerif-30"/>
       <use xlink:href="#DejaVuSerif-2e" x="63.623047"/>
       <use xlink:href="#DejaVuSerif-39" x="95.410156"/>
      </g>
     </g>
    </g>
    <g id="ytick_11">
     <g id="line2d_11">
      <g>
       <use xlink:href="#m16cb7bdcea" x="95.370313" y="18.597656" style="stroke: #000000; stroke-width: 0.8"/>
      </g>
     </g>
     <g id="text_12">
      <!-- 1.0 -->
      <g transform="translate(40.660938 29.995313) scale(0.3 -0.3)">
       <use xlink:href="#DejaVuSerif-31"/>
       <use xlink:href="#DejaVuSerif-2e" x="63.623047"/>
       <use xlink:href="#DejaVuSerif-30" x="95.410156"/>
      </g>
     </g>
    </g>
    <g id="text_13">
     <!-- Community membership -->
     <g transform="translate(29.995313 387.818125) rotate(-90) scale(0.3 -0.3)">
      <defs>
       <path id="DejaVuSerif-6f" d="M 1925 219 
Q 2388 219 2623 584 
Q 2859 950 2859 1663 
Q 2859 2375 2623 2739 
Q 2388 3103 1925 3103 
Q 1463 3103 1227 2739 
Q 991 2375 991 1663 
Q 991 950 1228 584 
Q 1466 219 1925 219 
z
M 1925 -91 
Q 1200 -91 759 389 
Q 319 869 319 1663 
Q 319 2456 758 2934 
Q 1197 3413 1925 3413 
Q 2653 3413 3092 2934 
Q 3531 2456 3531 1663 
Q 3531 869 3092 389 
Q 2653 -91 1925 -91 
z
" transform="scale(0.015625)"/>
       <path id="DejaVuSerif-6d" d="M 3316 2675 
Q 3481 3041 3739 3227 
Q 3997 3413 4341 3413 
Q 4863 3413 5119 3089 
Q 5375 2766 5375 2113 
L 5375 331 
L 5894 331 
L 5894 0 
L 4300 0 
L 4300 331 
L 4800 331 
L 4800 2047 
Q 4800 2556 4650 2772 
Q 4500 2988 4153 2988 
Q 3769 2988 3567 2697 
Q 3366 2406 3366 1850 
L 3366 331 
L 3866 331 
L 3866 0 
L 2291 0 
L 2291 331 
L 2791 331 
L 2791 2069 
Q 2791 2566 2641 2777 
Q 2491 2988 2144 2988 
Q 1759 2988 1557 2697 
Q 1356 2406 1356 1850 
L 1356 331 
L 1856 331 
L 1856 0 
L 263 0 
L 263 331 
L 781 331 
L 781 2994 
L 231 2994 
L 231 3322 
L 1356 3322 
L 1356 2731 
Q 1516 3063 1762 3238 
Q 2009 3413 2322 3413 
Q 2709 3413 2968 3220 
Q 3228 3028 3316 2675 
z
" transform="scale(0.015625)"/>
       <path id="DejaVuSerif-75" d="M 2266 3322 
L 3341 3322 
L 3341 331 
L 3884 331 
L 3884 0 
L 2766 0 
L 2766 588 
Q 2606 256 2353 82 
Q 2100 -91 1766 -91 
Q 1213 -91 952 223 
Q 691 538 691 1209 
L 691 2988 
L 172 2988 
L 172 3322 
L 1269 3322 
L 1269 1388 
Q 1269 781 1417 556 
Q 1566 331 1947 331 
Q 2347 331 2556 625 
Q 2766 919 2766 1478 
L 2766 2988 
L 2266 2988 
L 2266 3322 
z
" transform="scale(0.015625)"/>
       <path id="DejaVuSerif-6e" d="M 263 0 
L 263 331 
L 781 331 
L 781 2988 
L 231 2988 
L 231 3322 
L 1356 3322 
L 1356 2731 
Q 1516 3069 1770 3241 
Q 2025 3413 2363 3413 
Q 2913 3413 3172 3097 
Q 3431 2781 3431 2113 
L 3431 331 
L 3944 331 
L 3944 0 
L 2356 0 
L 2356 331 
L 2853 331 
L 2853 1931 
Q 2853 2541 2703 2767 
Q 2553 2994 2175 2994 
Q 1775 2994 1565 2701 
Q 1356 2409 1356 1850 
L 1356 331 
L 1856 331 
L 1856 0 
L 263 0 
z
" transform="scale(0.015625)"/>
       <path id="DejaVuSerif-69" d="M 622 4353 
Q 622 4497 726 4603 
Q 831 4709 978 4709 
Q 1122 4709 1226 4603 
Q 1331 4497 1331 4353 
Q 1331 4206 1228 4103 
Q 1125 4000 978 4000 
Q 831 4000 726 4103 
Q 622 4206 622 4353 
z
M 1356 331 
L 1900 331 
L 1900 0 
L 231 0 
L 231 331 
L 781 331 
L 781 2988 
L 231 2988 
L 231 3322 
L 1356 3322 
L 1356 331 
z
" transform="scale(0.015625)"/>
       <path id="DejaVuSerif-74" d="M 691 2988 
L 184 2988 
L 184 3322 
L 691 3322 
L 691 4353 
L 1269 4353 
L 1269 3322 
L 2350 3322 
L 2350 2988 
L 1269 2988 
L 1269 878 
Q 1269 456 1350 337 
Q 1431 219 1650 219 
Q 1875 219 1978 351 
Q 2081 484 2088 781 
L 2522 781 
Q 2497 328 2275 118 
Q 2053 -91 1600 -91 
Q 1103 -91 897 129 
Q 691 350 691 878 
L 691 2988 
z
" transform="scale(0.015625)"/>
       <path id="DejaVuSerif-79" d="M 1381 -609 
L 1600 -56 
L 359 2988 
L -19 2988 
L -19 3322 
L 1509 3322 
L 1509 2988 
L 978 2988 
L 1913 703 
L 2847 2988 
L 2350 2988 
L 2350 3322 
L 3597 3322 
L 3597 2988 
L 3225 2988 
L 1703 -750 
Q 1547 -1138 1356 -1280 
Q 1166 -1422 819 -1422 
Q 672 -1422 517 -1397 
Q 363 -1372 206 -1325 
L 206 -691 
L 500 -691 
Q 519 -903 608 -995 
Q 697 -1088 884 -1088 
Q 1056 -1088 1161 -992 
Q 1266 -897 1381 -609 
z
" transform="scale(0.015625)"/>
       <path id="DejaVuSerif-65" d="M 3469 1600 
L 991 1600 
L 991 1575 
Q 991 903 1244 561 
Q 1497 219 1991 219 
Q 2369 219 2611 417 
Q 2853 616 2950 1006 
L 3413 1006 
Q 3275 459 2904 184 
Q 2534 -91 1931 -91 
Q 1203 -91 761 389 
Q 319 869 319 1663 
Q 319 2450 753 2931 
Q 1188 3413 1894 3413 
Q 2647 3413 3050 2948 
Q 3453 2484 3469 1600 
z
M 2791 1931 
Q 2772 2513 2545 2808 
Q 2319 3103 1894 3103 
Q 1497 3103 1269 2806 
Q 1041 2509 991 1931 
L 2791 1931 
z
" transform="scale(0.015625)"/>
       <path id="DejaVuSerif-62" d="M 738 331 
L 738 4531 
L 184 4531 
L 184 4863 
L 1313 4863 
L 1313 2803 
Q 1481 3116 1742 3264 
Q 2003 3413 2388 3413 
Q 3000 3413 3387 2928 
Q 3775 2444 3775 1663 
Q 3775 881 3387 395 
Q 3000 -91 2388 -91 
Q 2003 -91 1742 57 
Q 1481 206 1313 519 
L 1313 0 
L 184 0 
L 184 331 
L 738 331 
z
M 1313 1497 
Q 1313 897 1542 583 
Q 1772 269 2209 269 
Q 2650 269 2876 622 
Q 3103 975 3103 1663 
Q 3103 2353 2876 2703 
Q 2650 3053 2209 3053 
Q 1772 3053 1542 2737 
Q 1313 2422 1313 1825 
L 1313 1497 
z
" transform="scale(0.015625)"/>
       <path id="DejaVuSerif-72" d="M 3059 3328 
L 3059 2497 
L 2728 2497 
Q 2713 2744 2591 2866 
Q 2469 2988 2234 2988 
Q 1809 2988 1582 2694 
Q 1356 2400 1356 1850 
L 1356 331 
L 2022 331 
L 2022 0 
L 263 0 
L 263 331 
L 781 331 
L 781 2994 
L 231 2994 
L 231 3322 
L 1356 3322 
L 1356 2731 
Q 1525 3078 1790 3245 
Q 2056 3413 2438 3413 
Q 2578 3413 2733 3391 
Q 2888 3369 3059 3328 
z
" transform="scale(0.015625)"/>
       <path id="DejaVuSerif-68" d="M 263 0 
L 263 331 
L 781 331 
L 781 4531 
L 231 4531 
L 231 4863 
L 1356 4863 
L 1356 2731 
Q 1516 3069 1770 3241 
Q 2025 3413 2363 3413 
Q 2913 3413 3172 3097 
Q 3431 2781 3431 2113 
L 3431 331 
L 3944 331 
L 3944 0 
L 2356 0 
L 2356 331 
L 2853 331 
L 2853 1931 
Q 2853 2541 2704 2764 
Q 2556 2988 2175 2988 
Q 1775 2988 1565 2697 
Q 1356 2406 1356 1850 
L 1356 331 
L 1856 331 
L 1856 0 
L 263 0 
z
" transform="scale(0.015625)"/>
       <path id="DejaVuSerif-70" d="M 1313 1825 
L 1313 1497 
Q 1313 897 1542 583 
Q 1772 269 2209 269 
Q 2650 269 2876 622 
Q 3103 975 3103 1663 
Q 3103 2353 2876 2703 
Q 2650 3053 2209 3053 
Q 1772 3053 1542 2737 
Q 1313 2422 1313 1825 
z
M 738 2988 
L 184 2988 
L 184 3322 
L 1313 3322 
L 1313 2803 
Q 1481 3116 1742 3264 
Q 2003 3413 2388 3413 
Q 3000 3413 3387 2928 
Q 3775 2444 3775 1663 
Q 3775 881 3387 395 
Q 3000 -91 2388 -91 
Q 2003 -91 1742 57 
Q 1481 206 1313 519 
L 1313 -997 
L 1856 -997 
L 1856 -1331 
L 184 -1331 
L 184 -997 
L 738 -997 
L 738 2988 
z
" transform="scale(0.015625)"/>
      </defs>
      <use xlink:href="#DejaVuSerif-43"/>
      <use xlink:href="#DejaVuSerif-6f" x="76.513672"/>
      <use xlink:href="#DejaVuSerif-6d" x="136.71875"/>
      <use xlink:href="#DejaVuSerif-6d" x="231.542969"/>
      <use xlink:href="#DejaVuSerif-75" x="326.367188"/>
      <use xlink:href="#DejaVuSerif-6e" x="390.771484"/>
      <use xlink:href="#DejaVuSerif-69" x="455.175781"/>
      <use xlink:href="#DejaVuSerif-74" x="487.158203"/>
      <use xlink:href="#DejaVuSerif-79" x="527.34375"/>
      <use xlink:href="#DejaVuSerif-20" x="583.837891"/>
      <use xlink:href="#DejaVuSerif-6d" x="615.625"/>
      <use xlink:href="#DejaVuSerif-65" x="710.449219"/>
      <use xlink:href="#DejaVuSerif-6d" x="769.628906"/>
      <use xlink:href="#DejaVuSerif-62" x="864.453125"/>
      <use xlink:href="#DejaVuSerif-65" x="928.466797"/>
      <use xlink:href="#DejaVuSerif-72" x="987.646484"/>
      <use xlink:href="#DejaVuSerif-73" x="1035.449219"/>
      <use xlink:href="#DejaVuSerif-68" x="1086.767578"/>
      <use xlink:href="#DejaVuSerif-69" x="1151.171875"/>
      <use xlink:href="#DejaVuSerif-70" x="1183.154297"/>
     </g>
    </g>
   </g>
   <g id="patch_91">
    <path d="M 95.370313 382.877656 
L 95.370313 18.597656 
" style="fill: none; stroke: #000000; stroke-width: 0.8; stroke-linejoin: miter; stroke-linecap: square"/>
   </g>
   <g id="patch_92">
    <path d="M 95.370313 382.877656 
L 471.920313 382.877656 
" style="fill: none; stroke: #000000; stroke-width: 0.8; stroke-linejoin: miter; stroke-linecap: square"/>
   </g>
  </g>
  <g id="axes_2">
   <g id="patch_93">
    <path d="M 471.920312 382.877656 
L 848.470312 382.877656 
L 848.470312 18.597656 
L 471.920312 18.597656 
z
" style="fill: #ffffff"/>
   </g>
   <g id="patch_94">
    <path d="M 489.036222 382.877656 
L 493.481912 382.877656 
L 493.481912 68.583576 
L 489.036222 68.583576 
z
" clip-path="url(#p84a1203da0)" style="fill: #b5cf6b"/>
   </g>
   <g id="patch_95">
    <path d="M 489.036222 68.583576 
L 493.481912 68.583576 
L 493.481912 68.583576 
L 489.036222 68.583576 
z
" clip-path="url(#p84a1203da0)" style="fill: #afcfd0"/>
   </g>
   <g id="patch_96">
    <path d="M 497.927603 382.877656 
L 502.373294 382.877656 
L 502.373294 90.310319 
L 497.927603 90.310319 
z
" clip-path="url(#p84a1203da0)" style="fill: #b5cf6b"/>
   </g>
   <g id="patch_97">
    <path d="M 497.927603 90.310319 
L 502.373294 90.310319 
L 502.373294 90.310319 
L 497.927603 90.310319 
z
" clip-path="url(#p84a1203da0)" style="fill: #afcfd0"/>
   </g>
   <g id="patch_98">
    <path d="M 506.818984 382.877656 
L 511.264675 382.877656 
L 511.264675 149.217408 
L 506.818984 149.217408 
z
" clip-path="url(#p84a1203da0)" style="fill: #b5cf6b"/>
   </g>
   <g id="patch_99">
    <path d="M 506.818984 149.217408 
L 511.264675 149.217408 
L 511.264675 149.217408 
L 506.818984 149.217408 
z
" clip-path="url(#p84a1203da0)" style="fill: #afcfd0"/>
   </g>
   <g id="patch_100">
    <path d="M 515.710366 382.877656 
L 520.156056 382.877656 
L 520.156056 172.367818 
L 515.710366 172.367818 
z
" clip-path="url(#p84a1203da0)" style="fill: #b5cf6b"/>
   </g>
   <g id="patch_101">
    <path d="M 515.710366 172.367818 
L 520.156056 172.367818 
L 520.156056 170.304593 
L 515.710366 170.304593 
z
" clip-path="url(#p84a1203da0)" style="fill: #afcfd0"/>
   </g>
   <g id="patch_102">
    <path d="M 524.601747 382.877656 
L 529.047438 382.877656 
L 529.047438 310.794681 
L 524.601747 310.794681 
z
" clip-path="url(#p84a1203da0)" style="fill: #b5cf6b"/>
   </g>
   <g id="patch_103">
    <path d="M 524.601747 310.794681 
L 529.047438 310.794681 
L 529.047438 284.260788 
L 524.601747 284.260788 
z
" clip-path="url(#p84a1203da0)" style="fill: #afcfd0"/>
   </g>
   <g id="patch_104">
    <path d="M 533.493128 382.877656 
L 537.938819 382.877656 
L 537.938819 355.961353 
L 533.493128 355.961353 
z
" clip-path="url(#p84a1203da0)" style="fill: #b5cf6b"/>
   </g>
   <g id="patch_105">
    <path d="M 533.493128 355.961353 
L 537.938819 355.961353 
L 537.938819 354.981441 
L 533.493128 354.981441 
z
" clip-path="url(#p84a1203da0)" style="fill: #afcfd0"/>
   </g>
   <g id="patch_106">
    <path d="M 542.38451 382.877656 
L 546.8302 382.877656 
L 546.8302 378.584959 
L 542.38451 378.584959 
z
" clip-path="url(#p84a1203da0)" style="fill: #b5cf6b"/>
   </g>
   <g id="patch_107">
    <path d="M 542.38451 378.584959 
L 546.8302 378.584959 
L 546.8302 377.472349 
L 542.38451 377.472349 
z
" clip-path="url(#p84a1203da0)" style="fill: #afcfd0"/>
   </g>
   <g id="patch_108">
    <path d="M 551.275891 382.877656 
L 555.721582 382.877656 
L 555.721582 379.080755 
L 551.275891 379.080755 
z
" clip-path="url(#p84a1203da0)" style="fill: #b5cf6b"/>
   </g>
   <g id="patch_109">
    <path d="M 551.275891 379.080755 
L 555.721582 379.080755 
L 555.721582 379.080755 
L 551.275891 379.080755 
z
" clip-path="url(#p84a1203da0)" style="fill: #afcfd0"/>
   </g>
   <g id="patch_110">
    <path d="M 560.167272 382.877656 
L 564.612963 382.877656 
L 564.612963 379.690643 
L 560.167272 379.690643 
z
" clip-path="url(#p84a1203da0)" style="fill: #b5cf6b"/>
   </g>
   <g id="patch_111">
    <path d="M 560.167272 379.690643 
L 564.612963 379.690643 
L 564.612963 379.690643 
L 560.167272 379.690643 
z
" clip-path="url(#p84a1203da0)" style="fill: #afcfd0"/>
   </g>
   <g id="patch_112">
    <path d="M 569.058654 382.877656 
L 573.504344 382.877656 
L 573.504344 380.057428 
L 569.058654 380.057428 
z
" clip-path="url(#p84a1203da0)" style="fill: #b5cf6b"/>
   </g>
   <g id="patch_113">
    <path d="M 569.058654 380.057428 
L 573.504344 380.057428 
L 573.504344 380.057428 
L 569.058654 380.057428 
z
" clip-path="url(#p84a1203da0)" style="fill: #afcfd0"/>
   </g>
   <g id="patch_114">
    <path d="M 577.950035 382.877656 
L 582.395726 382.877656 
L 582.395726 380.163955 
L 577.950035 380.163955 
z
" clip-path="url(#p84a1203da0)" style="fill: #b5cf6b"/>
   </g>
   <g id="patch_115">
    <path d="M 577.950035 380.163955 
L 582.395726 380.163955 
L 582.395726 376.048994 
L 577.950035 376.048994 
z
" clip-path="url(#p84a1203da0)" style="fill: #afcfd0"/>
   </g>
   <g id="patch_116">
    <path d="M 586.841416 382.877656 
L 591.287107 382.877656 
L 591.287107 380.458969 
L 586.841416 380.458969 
z
" clip-path="url(#p84a1203da0)" style="fill: #b5cf6b"/>
   </g>
   <g id="patch_117">
    <path d="M 586.841416 380.458969 
L 591.287107 380.458969 
L 591.287107 379.296573 
L 586.841416 379.296573 
z
" clip-path="url(#p84a1203da0)" style="fill: #afcfd0"/>
   </g>
   <g id="patch_118">
    <path d="M 595.732798 382.877656 
L 600.178488 382.877656 
L 600.178488 381.071881 
L 595.732798 381.071881 
z
" clip-path="url(#p84a1203da0)" style="fill: #b5cf6b"/>
   </g>
   <g id="patch_119">
    <path d="M 595.732798 381.071881 
L 600.178488 381.071881 
L 600.178488 381.071881 
L 595.732798 381.071881 
z
" clip-path="url(#p84a1203da0)" style="fill: #afcfd0"/>
   </g>
   <g id="patch_120">
    <path d="M 604.624179 382.877656 
L 609.06987 382.877656 
L 609.06987 381.092621 
L 604.624179 381.092621 
z
" clip-path="url(#p84a1203da0)" style="fill: #b5cf6b"/>
   </g>
   <g id="patch_121">
    <path d="M 604.624179 381.092621 
L 609.06987 381.092621 
L 609.06987 366.65766 
L 604.624179 366.65766 
z
" clip-path="url(#p84a1203da0)" style="fill: #afcfd0"/>
   </g>
   <g id="patch_122">
    <path d="M 613.51556 382.877656 
L 617.961251 382.877656 
L 617.961251 381.46265 
L 613.51556 381.46265 
z
" clip-path="url(#p84a1203da0)" style="fill: #b5cf6b"/>
   </g>
   <g id="patch_123">
    <path d="M 613.51556 381.46265 
L 617.961251 381.46265 
L 617.961251 381.46265 
L 613.51556 381.46265 
z
" clip-path="url(#p84a1203da0)" style="fill: #afcfd0"/>
   </g>
   <g id="patch_124">
    <path d="M 622.406942 382.877656 
L 626.852632 382.877656 
L 626.852632 381.89962 
L 622.406942 381.89962 
z
" clip-path="url(#p84a1203da0)" style="fill: #b5cf6b"/>
   </g>
   <g id="patch_125">
    <path d="M 622.406942 381.89962 
L 626.852632 381.89962 
L 626.852632 381.89962 
L 622.406942 381.89962 
z
" clip-path="url(#p84a1203da0)" style="fill: #afcfd0"/>
   </g>
   <g id="patch_126">
    <path d="M 631.298323 382.877656 
L 635.744014 382.877656 
L 635.744014 381.946524 
L 631.298323 381.946524 
z
" clip-path="url(#p84a1203da0)" style="fill: #b5cf6b"/>
   </g>
   <g id="patch_127">
    <path d="M 631.298323 381.946524 
L 635.744014 381.946524 
L 635.744014 379.058171 
L 631.298323 379.058171 
z
" clip-path="url(#p84a1203da0)" style="fill: #afcfd0"/>
   </g>
   <g id="patch_128">
    <path d="M 640.189704 382.877656 
L 644.635395 382.877656 
L 644.635395 381.965468 
L 640.189704 381.965468 
z
" clip-path="url(#p84a1203da0)" style="fill: #b5cf6b"/>
   </g>
   <g id="patch_129">
    <path d="M 640.189704 381.965468 
L 644.635395 381.965468 
L 644.635395 381.965468 
L 640.189704 381.965468 
z
" clip-path="url(#p84a1203da0)" style="fill: #afcfd0"/>
   </g>
   <g id="patch_130">
    <path d="M 649.081086 382.877656 
L 653.526776 382.877656 
L 653.526776 382.238274 
L 649.081086 382.238274 
z
" clip-path="url(#p84a1203da0)" style="fill: #b5cf6b"/>
   </g>
   <g id="patch_131">
    <path d="M 649.081086 382.238274 
L 653.526776 382.238274 
L 653.526776 365.84091 
L 649.081086 365.84091 
z
" clip-path="url(#p84a1203da0)" style="fill: #afcfd0"/>
   </g>
   <g id="patch_132">
    <path d="M 657.972467 382.877656 
L 662.418158 382.877656 
L 662.418158 382.320484 
L 657.972467 382.320484 
z
" clip-path="url(#p84a1203da0)" style="fill: #b5cf6b"/>
   </g>
   <g id="patch_133">
    <path d="M 657.972467 382.320484 
L 662.418158 382.320484 
L 662.418158 381.473989 
L 657.972467 381.473989 
z
" clip-path="url(#p84a1203da0)" style="fill: #afcfd0"/>
   </g>
   <g id="patch_134">
    <path d="M 666.863849 382.877656 
L 671.309539 382.877656 
L 671.309539 382.340014 
L 666.863849 382.340014 
z
" clip-path="url(#p84a1203da0)" style="fill: #b5cf6b"/>
   </g>
   <g id="patch_135">
    <path d="M 666.863849 382.340014 
L 671.309539 382.340014 
L 671.309539 381.39686 
L 666.863849 381.39686 
z
" clip-path="url(#p84a1203da0)" style="fill: #afcfd0"/>
   </g>
   <g id="patch_136">
    <path d="M 675.75523 382.877656 
L 680.200921 382.877656 
L 680.200921 382.359051 
L 675.75523 382.359051 
z
" clip-path="url(#p84a1203da0)" style="fill: #b5cf6b"/>
   </g>
   <g id="patch_137">
    <path d="M 675.75523 382.359051 
L 680.200921 382.359051 
L 680.200921 382.04382 
L 675.75523 382.04382 
z
" clip-path="url(#p84a1203da0)" style="fill: #afcfd0"/>
   </g>
   <g id="patch_138">
    <path d="M 684.646611 382.877656 
L 689.092302 382.877656 
L 689.092302 382.462887 
L 684.646611 382.462887 
z
" clip-path="url(#p84a1203da0)" style="fill: #b5cf6b"/>
   </g>
   <g id="patch_139">
    <path d="M 684.646611 382.462887 
L 689.092302 382.462887 
L 689.092302 382.462887 
L 684.646611 382.462887 
z
" clip-path="url(#p84a1203da0)" style="fill: #afcfd0"/>
   </g>
   <g id="patch_140">
    <path d="M 693.537993 382.877656 
L 697.983683 382.877656 
L 697.983683 382.57723 
L 693.537993 382.57723 
z
" clip-path="url(#p84a1203da0)" style="fill: #b5cf6b"/>
   </g>
   <g id="patch_141">
    <path d="M 693.537993 382.57723 
L 697.983683 382.57723 
L 697.983683 382.422114 
L 693.537993 382.422114 
z
" clip-path="url(#p84a1203da0)" style="fill: #afcfd0"/>
   </g>
   <g id="patch_142">
    <path d="M 702.429374 382.877656 
L 706.875065 382.877656 
L 706.875065 382.769057 
L 702.429374 382.769057 
z
" clip-path="url(#p84a1203da0)" style="fill: #b5cf6b"/>
   </g>
   <g id="patch_143">
    <path d="M 702.429374 382.769057 
L 706.875065 382.769057 
L 706.875065 382.769057 
L 702.429374 382.769057 
z
" clip-path="url(#p84a1203da0)" style="fill: #afcfd0"/>
   </g>
   <g id="patch_144">
    <path d="M 711.320755 382.877656 
L 715.766446 382.877656 
L 715.766446 382.877656 
L 711.320755 382.877656 
z
" clip-path="url(#p84a1203da0)" style="fill: #b5cf6b"/>
   </g>
   <g id="patch_145">
    <path d="M 711.320755 382.877656 
L 715.766446 382.877656 
L 715.766446 376.621451 
L 711.320755 376.621451 
z
" clip-path="url(#p84a1203da0)" style="fill: #afcfd0"/>
   </g>
   <g id="patch_146">
    <path d="M 720.212137 382.877656 
L 724.657827 382.877656 
L 724.657827 382.877656 
L 720.212137 382.877656 
z
" clip-path="url(#p84a1203da0)" style="fill: #b5cf6b"/>
   </g>
   <g id="patch_147">
    <path d="M 720.212137 382.877656 
L 724.657827 382.877656 
L 724.657827 378.960133 
L 720.212137 378.960133 
z
" clip-path="url(#p84a1203da0)" style="fill: #afcfd0"/>
   </g>
   <g id="patch_148">
    <path d="M 729.103518 382.877656 
L 733.549209 382.877656 
L 733.549209 382.877656 
L 729.103518 382.877656 
z
" clip-path="url(#p84a1203da0)" style="fill: #b5cf6b"/>
   </g>
   <g id="patch_149">
    <path d="M 729.103518 382.877656 
L 733.549209 382.877656 
L 733.549209 380.762085 
L 729.103518 380.762085 
z
" clip-path="url(#p84a1203da0)" style="fill: #afcfd0"/>
   </g>
   <g id="patch_150">
    <path d="M 737.994899 382.877656 
L 742.44059 382.877656 
L 742.44059 382.877656 
L 737.994899 382.877656 
z
" clip-path="url(#p84a1203da0)" style="fill: #b5cf6b"/>
   </g>
   <g id="patch_151">
    <path d="M 737.994899 382.877656 
L 742.44059 382.877656 
L 742.44059 381.245999 
L 737.994899 381.245999 
z
" clip-path="url(#p84a1203da0)" style="fill: #afcfd0"/>
   </g>
   <g id="patch_152">
    <path d="M 746.886281 382.877656 
L 751.331971 382.877656 
L 751.331971 382.877656 
L 746.886281 382.877656 
z
" clip-path="url(#p84a1203da0)" style="fill: #b5cf6b"/>
   </g>
   <g id="patch_153">
    <path d="M 746.886281 382.877656 
L 751.331971 382.877656 
L 751.331971 382.877656 
L 746.886281 382.877656 
z
" clip-path="url(#p84a1203da0)" style="fill: #afcfd0"/>
   </g>
   <g id="patch_154">
    <path d="M 755.777662 382.877656 
L 760.223353 382.877656 
L 760.223353 382.877656 
L 755.777662 382.877656 
z
" clip-path="url(#p84a1203da0)" style="fill: #b5cf6b"/>
   </g>
   <g id="patch_155">
    <path d="M 755.777662 382.877656 
L 760.223353 382.877656 
L 760.223353 382.877656 
L 755.777662 382.877656 
z
" clip-path="url(#p84a1203da0)" style="fill: #afcfd0"/>
   </g>
   <g id="patch_156">
    <path d="M 764.669043 382.877656 
L 769.114734 382.877656 
L 769.114734 382.877656 
L 764.669043 382.877656 
z
" clip-path="url(#p84a1203da0)" style="fill: #b5cf6b"/>
   </g>
   <g id="patch_157">
    <path d="M 764.669043 382.877656 
L 769.114734 382.877656 
L 769.114734 382.877656 
L 764.669043 382.877656 
z
" clip-path="url(#p84a1203da0)" style="fill: #afcfd0"/>
   </g>
   <g id="patch_158">
    <path d="M 773.560425 382.877656 
L 778.006115 382.877656 
L 778.006115 382.877656 
L 773.560425 382.877656 
z
" clip-path="url(#p84a1203da0)" style="fill: #b5cf6b"/>
   </g>
   <g id="patch_159">
    <path d="M 773.560425 382.877656 
L 778.006115 382.877656 
L 778.006115 382.877656 
L 773.560425 382.877656 
z
" clip-path="url(#p84a1203da0)" style="fill: #afcfd0"/>
   </g>
   <g id="patch_160">
    <path d="M 782.451806 382.877656 
L 786.897497 382.877656 
L 786.897497 382.877656 
L 782.451806 382.877656 
z
" clip-path="url(#p84a1203da0)" style="fill: #b5cf6b"/>
   </g>
   <g id="patch_161">
    <path d="M 782.451806 382.877656 
L 786.897497 382.877656 
L 786.897497 382.877656 
L 782.451806 382.877656 
z
" clip-path="url(#p84a1203da0)" style="fill: #afcfd0"/>
   </g>
   <g id="patch_162">
    <path d="M 791.343187 382.877656 
L 795.788878 382.877656 
L 795.788878 382.877656 
L 791.343187 382.877656 
z
" clip-path="url(#p84a1203da0)" style="fill: #b5cf6b"/>
   </g>
   <g id="patch_163">
    <path d="M 791.343187 382.877656 
L 795.788878 382.877656 
L 795.788878 382.877656 
L 791.343187 382.877656 
z
" clip-path="url(#p84a1203da0)" style="fill: #afcfd0"/>
   </g>
   <g id="patch_164">
    <path d="M 800.234569 382.877656 
L 804.680259 382.877656 
L 804.680259 382.877656 
L 800.234569 382.877656 
z
" clip-path="url(#p84a1203da0)" style="fill: #b5cf6b"/>
   </g>
   <g id="patch_165">
    <path d="M 800.234569 382.877656 
L 804.680259 382.877656 
L 804.680259 382.877656 
L 800.234569 382.877656 
z
" clip-path="url(#p84a1203da0)" style="fill: #afcfd0"/>
   </g>
   <g id="patch_166">
    <path d="M 809.12595 382.877656 
L 813.571641 382.877656 
L 813.571641 382.877656 
L 809.12595 382.877656 
z
" clip-path="url(#p84a1203da0)" style="fill: #b5cf6b"/>
   </g>
   <g id="patch_167">
    <path d="M 809.12595 382.877656 
L 813.571641 382.877656 
L 813.571641 382.877656 
L 809.12595 382.877656 
z
" clip-path="url(#p84a1203da0)" style="fill: #afcfd0"/>
   </g>
   <g id="patch_168">
    <path d="M 818.017331 382.877656 
L 822.463022 382.877656 
L 822.463022 382.877656 
L 818.017331 382.877656 
z
" clip-path="url(#p84a1203da0)" style="fill: #b5cf6b"/>
   </g>
   <g id="patch_169">
    <path d="M 818.017331 382.877656 
L 822.463022 382.877656 
L 822.463022 382.877656 
L 818.017331 382.877656 
z
" clip-path="url(#p84a1203da0)" style="fill: #afcfd0"/>
   </g>
   <g id="patch_170">
    <path d="M 826.908713 382.877656 
L 831.354403 382.877656 
L 831.354403 382.877656 
L 826.908713 382.877656 
z
" clip-path="url(#p84a1203da0)" style="fill: #b5cf6b"/>
   </g>
   <g id="patch_171">
    <path d="M 826.908713 382.877656 
L 831.354403 382.877656 
L 831.354403 382.877656 
L 826.908713 382.877656 
z
" clip-path="url(#p84a1203da0)" style="fill: #afcfd0"/>
   </g>
   <g id="matplotlib.axis_3">
    <g id="text_14">
     <!-- Class II -->
     <g transform="translate(602.965625 409.672969) scale(0.3 -0.3)">
      <use xlink:href="#DejaVuSerif-43"/>
      <use xlink:href="#DejaVuSerif-6c" x="76.513672"/>
      <use xlink:href="#DejaVuSerif-61" x="108.496094"/>
      <use xlink:href="#DejaVuSerif-73" x="168.115234"/>
      <use xlink:href="#DejaVuSerif-73" x="219.433594"/>
      <use xlink:href="#DejaVuSerif-20" x="270.751953"/>
      <use xlink:href="#DejaVuSerif-49" x="302.539062"/>
      <use xlink:href="#DejaVuSerif-49" x="342.041016"/>
     </g>
    </g>
   </g>
   <g id="matplotlib.axis_4">
    <g id="ytick_12">
     <g id="line2d_12">
      <g>
       <use xlink:href="#m16cb7bdcea" x="471.920312" y="382.877656" style="stroke: #000000; stroke-width: 0.8"/>
      </g>
     </g>
    </g>
    <g id="ytick_13">
     <g id="line2d_13">
      <g>
       <use xlink:href="#m16cb7bdcea" x="471.920312" y="346.449656" style="stroke: #000000; stroke-width: 0.8"/>
      </g>
     </g>
    </g>
    <g id="ytick_14">
     <g id="line2d_14">
      <g>
       <use xlink:href="#m16cb7bdcea" x="471.920312" y="310.021656" style="stroke: #000000; stroke-width: 0.8"/>
      </g>
     </g>
    </g>
    <g id="ytick_15">
     <g id="line2d_15">
      <g>
       <use xlink:href="#m16cb7bdcea" x="471.920312" y="273.593656" style="stroke: #000000; stroke-width: 0.8"/>
      </g>
     </g>
    </g>
    <g id="ytick_16">
     <g id="line2d_16">
      <g>
       <use xlink:href="#m16cb7bdcea" x="471.920312" y="237.165656" style="stroke: #000000; stroke-width: 0.8"/>
      </g>
     </g>
    </g>
    <g id="ytick_17">
     <g id="line2d_17">
      <g>
       <use xlink:href="#m16cb7bdcea" x="471.920312" y="200.737656" style="stroke: #000000; stroke-width: 0.8"/>
      </g>
     </g>
    </g>
    <g id="ytick_18">
     <g id="line2d_18">
      <g>
       <use xlink:href="#m16cb7bdcea" x="471.920312" y="164.309656" style="stroke: #000000; stroke-width: 0.8"/>
      </g>
     </g>
    </g>
    <g id="ytick_19">
     <g id="line2d_19">
      <g>
       <use xlink:href="#m16cb7bdcea" x="471.920312" y="127.881656" style="stroke: #000000; stroke-width: 0.8"/>
      </g>
     </g>
    </g>
    <g id="ytick_20">
     <g id="line2d_20">
      <g>
       <use xlink:href="#m16cb7bdcea" x="471.920312" y="91.453656" style="stroke: #000000; stroke-width: 0.8"/>
      </g>
     </g>
    </g>
    <g id="ytick_21">
     <g id="line2d_21">
      <g>
       <use xlink:href="#m16cb7bdcea" x="471.920312" y="55.025656" style="stroke: #000000; stroke-width: 0.8"/>
      </g>
     </g>
    </g>
    <g id="ytick_22">
     <g id="line2d_22">
      <g>
       <use xlink:href="#m16cb7bdcea" x="471.920312" y="18.597656" style="stroke: #000000; stroke-width: 0.8"/>
      </g>
     </g>
    </g>
   </g>
   <g id="patch_172">
    <path d="M 471.920312 382.877656 
L 471.920312 18.597656 
" style="fill: none; stroke: #000000; stroke-width: 0.8; stroke-linejoin: miter; stroke-linecap: square"/>
   </g>
   <g id="patch_173">
    <path d="M 471.920312 382.877656 
L 848.470312 382.877656 
" style="fill: none; stroke: #000000; stroke-width: 0.8; stroke-linejoin: miter; stroke-linecap: square"/>
   </g>
  </g>
 </g>
 <defs>
  <clipPath id="pb1f30fc99c">
   <rect x="95.370313" y="18.597656" width="376.55" height="364.28"/>
  </clipPath>
  <clipPath id="p84a1203da0">
   <rect x="471.920312" y="18.597656" width="376.55" height="364.28"/>
  </clipPath>
 </defs>
</svg>
