<svg width="440" height="340" xmlns="http://www.w3.org/2000/svg">
<path stroke-width="1.0" stroke="black" d="M 420 170 417 144"/>
<path stroke-width="1.0" stroke="black" d="M 53 254 160 313"/>
<path stroke-width="1.0" stroke="black" d="M 53 254 194 318"/>
<path stroke-width="1.0" stroke="black" d="M 53 254 261 316"/>
<path stroke-width="1.0" stroke="black" d="M 74 273 420 170"/>
<path stroke-width="1.0" stroke="black" d="M 74 273 294 30"/>
<path stroke-width="1.0" stroke="black" d="M 74 273 194 318"/>
<path stroke-width="1.0" stroke="black" d="M 74 273 228 320"/>
<path stroke-width="1.0" stroke="black" d="M 74 273 375 264"/>
<path stroke-width="1.0" stroke="black" d="M 100 290 420 170"/>
<path stroke-width="1.0" stroke="black" d="M 100 290 294 30"/>
<path stroke-width="1.0" stroke="black" d="M 100 290 160 313"/>
<path stroke-width="1.0" stroke="black" d="M 100 290 375 264"/>
<path stroke-width="1.0" stroke="black" d="M 129 304 53 254"/>
<path stroke-width="1.0" stroke="black" d="M 129 304 228 320"/>
<path stroke-width="1.0" stroke="black" d="M 160 313 352 57"/>
<path stroke-width="1.0" stroke="black" d="M 160 313 25 132"/>
<path stroke-width="1.0" stroke="black" d="M 160 313 20 182"/>
<path stroke-width="1.0" stroke="black" d="M 160 313 53 254"/>
<path stroke-width="1.0" stroke="black" d="M 160 313 100 290"/>
<path stroke-width="1.0" stroke="black" d="M 160 313 261 316"/>
<path stroke-width="1.0" stroke="black" d="M 160 313 294 309"/>
<path stroke-width="1.0" stroke="black" d="M 53 254 129 304"/>
<path stroke-width="1.0" stroke="black" d="M 194 318 417 144"/>
<path stroke-width="1.0" stroke="black" d="M 53 254 74 66"/>
<path stroke-width="1.0" stroke="black" d="M 53 254 160 26"/>
<path stroke-width="1.0" stroke="black" d="M 37 108 25 132"/>
<path stroke-width="1.0" stroke="black" d="M 37 108 37 231"/>
<path stroke-width="1.0" stroke="black" d="M 37 108 194 318"/>
<path stroke-width="1.0" stroke="black" d="M 25 132 37 108"/>
<path stroke-width="1.0" stroke="black" d="M 25 132 37 231"/>
<path stroke-width="1.0" stroke="black" d="M 25 132 160 313"/>
<path stroke-width="1.0" stroke="black" d="M 25 132 228 320"/>
<path stroke-width="1.0" stroke="black" d="M 25 132 408 220"/>
<path stroke-width="1.0" stroke="black" d="M 20 157 261 316"/>
<path stroke-width="1.0" stroke="black" d="M 20 157 294 309"/>
<path stroke-width="1.0" stroke="black" d="M 20 182 160 313"/>
<path stroke-width="1.0" stroke="black" d="M 25 207 228 20"/>
<path stroke-width="1.0" stroke="black" d="M 25 207 194 21"/>
<path stroke-width="1.0" stroke="black" d="M 25 207 194 318"/>
<path stroke-width="1.0" stroke="black" d="M 25 207 294 309"/>
<path stroke-width="1.0" stroke="black" d="M 25 207 324 297"/>
<path stroke-width="1.0" stroke="black" d="M 37 231 37 108"/>
<path stroke-width="1.0" stroke="black" d="M 37 231 25 132"/>
<path stroke-width="1.0" stroke="black" d="M 37 231 194 318"/>
<path stroke-width="1.0" stroke="black" d="M 53 254 324 42"/>
<path stroke-width="1.0" stroke="black" d="M 53 254 228 20"/>
<path stroke-width="1.0" stroke="black" d="M 53 254 100 49"/>
<path stroke-width="1.0" stroke="black" d="M 37 108 294 30"/>
<path stroke-width="1.0" stroke="black" d="M 194 318 100 49"/>
<path stroke-width="1.0" stroke="black" d="M 194 318 37 108"/>
<path stroke-width="1.0" stroke="black" d="M 294 309 261 316"/>
<path stroke-width="1.0" stroke="black" d="M 294 309 324 297"/>
<path stroke-width="1.0" stroke="black" d="M 324 297 160 26"/>
<path stroke-width="1.0" stroke="black" d="M 324 297 129 35"/>
<path stroke-width="1.0" stroke="black" d="M 324 297 25 207"/>
<path stroke-width="1.0" stroke="black" d="M 324 297 294 309"/>
<path stroke-width="1.0" stroke="black" d="M 352 282 394 96"/>
<path stroke-width="1.0" stroke="black" d="M 352 282 160 26"/>
<path stroke-width="1.0" stroke="black" d="M 352 282 100 49"/>
<path stroke-width="1.0" stroke="black" d="M 375 264 420 170"/>
<path stroke-width="1.0" stroke="black" d="M 375 264 417 144"/>
<path stroke-width="1.0" stroke="black" d="M 375 264 74 66"/>
<path stroke-width="1.0" stroke="black" d="M 375 264 53 85"/>
<path stroke-width="1.0" stroke="black" d="M 375 264 74 273"/>
<path stroke-width="1.0" stroke="black" d="M 375 264 100 290"/>
<path stroke-width="1.0" stroke="black" d="M 394 243 408 119"/>
<path stroke-width="1.0" stroke="black" d="M 394 243 100 49"/>
<path stroke-width="1.0" stroke="black" d="M 394 243 74 66"/>
<path stroke-width="1.0" stroke="black" d="M 408 220 420 170"/>
<path stroke-width="1.0" stroke="black" d="M 408 220 408 119"/>
<path stroke-width="1.0" stroke="black" d="M 408 220 394 96"/>
<path stroke-width="1.0" stroke="black" d="M 294 309 160 313"/>
<path stroke-width="1.0" stroke="black" d="M 194 318 53 85"/>
<path stroke-width="1.0" stroke="black" d="M 294 309 25 207"/>
<path stroke-width="1.0" stroke="black" d="M 294 309 74 66"/>
<path stroke-width="1.0" stroke="black" d="M 194 318 25 207"/>
<path stroke-width="1.0" stroke="black" d="M 194 318 37 231"/>
<path stroke-width="1.0" stroke="black" d="M 194 318 53 254"/>
<path stroke-width="1.0" stroke="black" d="M 194 318 74 273"/>
<path stroke-width="1.0" stroke="black" d="M 194 318 408 220"/>
<path stroke-width="1.0" stroke="black" d="M 228 320 408 119"/>
<path stroke-width="1.0" stroke="black" d="M 228 320 129 35"/>
<path stroke-width="1.0" stroke="black" d="M 228 320 53 85"/>
<path stroke-width="1.0" stroke="black" d="M 228 320 25 132"/>
<path stroke-width="1.0" stroke="black" d="M 228 320 74 273"/>
<path stroke-width="1.0" stroke="black" d="M 228 320 129 304"/>
<path stroke-width="1.0" stroke="black" d="M 261 316 324 42"/>
<path stroke-width="1.0" stroke="black" d="M 261 316 100 49"/>
<path stroke-width="1.0" stroke="black" d="M 261 316 20 157"/>
<path stroke-width="1.0" stroke="black" d="M 261 316 53 254"/>
<path stroke-width="1.0" stroke="black" d="M 261 316 160 313"/>
<path stroke-width="1.0" stroke="black" d="M 261 316 294 309"/>
<path stroke-width="1.0" stroke="black" d="M 294 309 420 170"/>
<path stroke-width="1.0" stroke="black" d="M 294 309 417 144"/>
<path stroke-width="1.0" stroke="black" d="M 294 309 352 57"/>
<path stroke-width="1.0" stroke="black" d="M 294 309 261 23"/>
<path stroke-width="1.0" stroke="black" d="M 294 309 20 157"/>
<path stroke-width="1.0" stroke="black" d="M 37 108 420 170"/>
<path stroke-width="1.0" stroke="black" d="M 53 85 375 264"/>
<path stroke-width="1.0" stroke="black" d="M 53 85 228 320"/>
<path stroke-width="1.0" stroke="black" d="M 394 96 74 66"/>
<path stroke-width="1.0" stroke="black" d="M 394 96 352 282"/>
<path stroke-width="1.0" stroke="black" d="M 394 96 408 220"/>
<path stroke-width="1.0" stroke="black" d="M 375 75 417 144"/>
<path stroke-width="1.0" stroke="black" d="M 375 75 408 119"/>
<path stroke-width="1.0" stroke="black" d="M 375 75 394 96"/>
<path stroke-width="1.0" stroke="black" d="M 375 75 352 57"/>
<path stroke-width="1.0" stroke="black" d="M 375 75 100 49"/>
<path stroke-width="1.0" stroke="black" d="M 375 75 74 66"/>
<path stroke-width="1.0" stroke="black" d="M 352 57 375 75"/>
<path stroke-width="1.0" stroke="black" d="M 352 57 324 42"/>
<path stroke-width="1.0" stroke="black" d="M 352 57 74 66"/>
<path stroke-width="1.0" stroke="black" d="M 352 57 160 313"/>
<path stroke-width="1.0" stroke="black" d="M 352 57 294 309"/>
<path stroke-width="1.0" stroke="black" d="M 324 42 417 144"/>
<path stroke-width="1.0" stroke="black" d="M 324 42 352 57"/>
<path stroke-width="1.0" stroke="black" d="M 324 42 100 49"/>
<path stroke-width="1.0" stroke="black" d="M 324 42 74 66"/>
<path stroke-width="1.0" stroke="black" d="M 324 42 53 254"/>
<path stroke-width="1.0" stroke="black" d="M 324 42 261 316"/>
<path stroke-width="1.0" stroke="black" d="M 294 30 160 26"/>
<path stroke-width="1.0" stroke="black" d="M 394 96 160 26"/>
<path stroke-width="1.0" stroke="black" d="M 294 30 129 35"/>
<path stroke-width="1.0" stroke="black" d="M 394 96 375 75"/>
<path stroke-width="1.0" stroke="black" d="M 394 96 417 144"/>
<path stroke-width="1.0" stroke="black" d="M 420 170 53 85"/>
<path stroke-width="1.0" stroke="black" d="M 420 170 37 108"/>
<path stroke-width="1.0" stroke="black" d="M 420 170 74 273"/>
<path stroke-width="1.0" stroke="black" d="M 420 170 100 290"/>
<path stroke-width="1.0" stroke="black" d="M 420 170 294 309"/>
<path stroke-width="1.0" stroke="black" d="M 420 170 375 264"/>
<path stroke-width="1.0" stroke="black" d="M 420 170 408 220"/>
<path stroke-width="1.0" stroke="black" d="M 417 144 420 170"/>
<path stroke-width="1.0" stroke="black" d="M 417 144 394 96"/>
<path stroke-width="1.0" stroke="black" d="M 417 144 375 75"/>
<path stroke-width="1.0" stroke="black" d="M 417 144 324 42"/>
<path stroke-width="1.0" stroke="black" d="M 417 144 194 318"/>
<path stroke-width="1.0" stroke="black" d="M 417 144 294 309"/>
<path stroke-width="1.0" stroke="black" d="M 417 144 375 264"/>
<path stroke-width="1.0" stroke="black" d="M 408 119 394 96"/>
<path stroke-width="1.0" stroke="black" d="M 408 119 375 75"/>
<path stroke-width="1.0" stroke="black" d="M 408 119 100 49"/>
<path stroke-width="1.0" stroke="black" d="M 408 119 74 66"/>
<path stroke-width="1.0" stroke="black" d="M 408 119 228 320"/>
<path stroke-width="1.0" stroke="black" d="M 408 119 394 243"/>
<path stroke-width="1.0" stroke="black" d="M 408 119 408 220"/>
<path stroke-width="1.0" stroke="black" d="M 394 96 408 119"/>
<path stroke-width="1.0" stroke="black" d="M 294 30 74 66"/>
<path stroke-width="1.0" stroke="black" d="M 294 30 53 85"/>
<path stroke-width="1.0" stroke="black" d="M 294 30 37 108"/>
<path stroke-width="1.0" stroke="black" d="M 100 49 261 316"/>
<path stroke-width="1.0" stroke="black" d="M 100 49 352 282"/>
<path stroke-width="1.0" stroke="black" d="M 100 49 394 243"/>
<path stroke-width="1.0" stroke="black" d="M 74 66 408 119"/>
<path stroke-width="1.0" stroke="black" d="M 74 66 394 96"/>
<path stroke-width="1.0" stroke="black" d="M 74 66 375 75"/>
<path stroke-width="1.0" stroke="black" d="M 74 66 352 57"/>
<path stroke-width="1.0" stroke="black" d="M 74 66 324 42"/>
<path stroke-width="1.0" stroke="black" d="M 74 66 294 30"/>
<path stroke-width="1.0" stroke="black" d="M 74 66 160 26"/>
<path stroke-width="1.0" stroke="black" d="M 74 66 129 35"/>
<path stroke-width="1.0" stroke="black" d="M 74 66 100 49"/>
<path stroke-width="1.0" stroke="black" d="M 74 66 53 85"/>
<path stroke-width="1.0" stroke="black" d="M 74 66 53 254"/>
<path stroke-width="1.0" stroke="black" d="M 74 66 294 309"/>
<path stroke-width="1.0" stroke="black" d="M 74 66 375 264"/>
<path stroke-width="1.0" stroke="black" d="M 74 66 394 243"/>
<path stroke-width="1.0" stroke="black" d="M 53 85 420 170"/>
<path stroke-width="1.0" stroke="black" d="M 53 85 294 30"/>
<path stroke-width="1.0" stroke="black" d="M 53 85 74 66"/>
<path stroke-width="1.0" stroke="black" d="M 53 85 194 318"/>
<path stroke-width="1.0" stroke="black" d="M 100 49 194 318"/>
<path stroke-width="1.0" stroke="black" d="M 100 49 53 254"/>
<path stroke-width="1.0" stroke="black" d="M 100 49 74 66"/>
<path stroke-width="1.0" stroke="black" d="M 100 49 324 42"/>
<path stroke-width="1.0" stroke="black" d="M 294 30 74 273"/>
<path stroke-width="1.0" stroke="black" d="M 294 30 100 290"/>
<path stroke-width="1.0" stroke="black" d="M 261 23 194 21"/>
<path stroke-width="1.0" stroke="black" d="M 261 23 294 309"/>
<path stroke-width="1.0" stroke="black" d="M 228 20 25 207"/>
<path stroke-width="1.0" stroke="black" d="M 228 20 53 254"/>
<path stroke-width="1.0" stroke="black" d="M 194 21 261 23"/>
<path stroke-width="1.0" stroke="black" d="M 194 21 160 26"/>
<path stroke-width="1.0" stroke="black" d="M 194 21 25 207"/>
<path stroke-width="1.0" stroke="black" d="M 160 26 394 96"/>
<path stroke-width="1.0" stroke="black" d="M 408 220 25 132"/>
<path stroke-width="1.0" stroke="black" d="M 160 26 294 30"/>
<path stroke-width="1.0" stroke="black" d="M 160 26 74 66"/>
<path stroke-width="1.0" stroke="black" d="M 160 26 53 254"/>
<path stroke-width="1.0" stroke="black" d="M 160 26 324 297"/>
<path stroke-width="1.0" stroke="black" d="M 160 26 352 282"/>
<path stroke-width="1.0" stroke="black" d="M 129 35 294 30"/>
<path stroke-width="1.0" stroke="black" d="M 129 35 74 66"/>
<path stroke-width="1.0" stroke="black" d="M 129 35 228 320"/>
<path stroke-width="1.0" stroke="black" d="M 129 35 324 297"/>
<path stroke-width="1.0" stroke="black" d="M 100 49 408 119"/>
<path stroke-width="1.0" stroke="black" d="M 100 49 375 75"/>
<path stroke-width="1.0" stroke="black" d="M 160 26 194 21"/>
<path stroke-width="1.0" stroke="black" d="M 408 220 194 318"/>
<path d="M 428.0 170.0 A 8.0 8.0 0 0 1 412.07451243170937 171.08933319276997 L 420.0 170.0" style="fill:red;stroke:black;stroke-width:1.0" />
<path d="M 412.07451243170937 171.08933319276997 A 8.0 8.0 0 0 1 427.3376904120436 166.81279128123006 L 420.0 170.0" style="fill:yellow;stroke:black;stroke-width:1.0" />
<path d="M 427.3376904120436 166.81279128123006 A 8.0 8.0 0 0 1 428.0 170.0 L 420.0 170.0" style="fill:green;stroke:black;stroke-width:1.0" />
<path d="M 428.0 170.0 A 8.0 8.0 0 0 1 428.0 170.0 L 420.0 170.0" style="fill:blue;stroke:black;stroke-width:1.0" />
<path d="M 428.0 170.0 A 8.0 8.0 0 0 1 428.0 170.0 L 420.0 170.0" style="fill:red;stroke:black;stroke-width:1.0" />
<path d="M 425.1179905936563 144.62701494007405 A 8.0 8.0 0 0 1 409.1179905936563 144.62701494007405 L 417.1179905936563 144.62701494007405" style="fill:red;stroke:black;stroke-width:1.0" />
<path d="M 409.1179905936563 144.62701494007405 A 8.0 8.0 0 0 1 424.8213288924387 142.46864077081784 L 417.1179905936563 144.62701494007405" style="fill:yellow;stroke:black;stroke-width:1.0" />
<path d="M 424.8213288924387 142.46864077081784 A 8.0 8.0 0 0 1 425.1179905936563 144.62701494007405 L 417.1179905936563 144.62701494007405" style="fill:green;stroke:black;stroke-width:1.0" />
<path d="M 425.1179905936563 144.62701494007405 A 8.0 8.0 0 0 1 425.1179905936563 144.62701494007405 L 417.1179905936563 144.62701494007405" style="fill:blue;stroke:black;stroke-width:1.0" />
<path d="M 425.1179905936563 144.62701494007405 A 8.0 8.0 0 0 1 425.1179905936563 144.62701494007405 L 417.1179905936563 144.62701494007405" style="fill:red;stroke:black;stroke-width:1.0" />
<path d="M 416.5548787376554 119.98396233073194 A 8.0 8.0 0 0 1 400.8789349487394 122.23782278546338 L 408.5548787376554 119.98396233073194" style="fill:red;stroke:black;stroke-width:1.0" />
<path d="M 400.8789349487394 122.23782278546338 A 8.0 8.0 0 0 1 411.87819884167044 112.7069063678958 L 408.5548787376554 119.98396233073194" style="fill:yellow;stroke:black;stroke-width:1.0" />
<path d="M 411.87819884167044 112.7069063678958 A 8.0 8.0 0 0 1 416.5548787376554 119.98396233073194 L 408.5548787376554 119.98396233073194" style="fill:green;stroke:black;stroke-width:1.0" />
<path d="M 416.5548787376554 119.98396233073194 A 8.0 8.0 0 0 1 416.5548787376554 119.98396233073194 L 408.5548787376554 119.98396233073194" style="fill:blue;stroke:black;stroke-width:1.0" />
<path d="M 416.5548787376554 119.98396233073194 A 8.0 8.0 0 0 1 416.5548787376554 119.98396233073194 L 408.5548787376554 119.98396233073194" style="fill:red;stroke:black;stroke-width:1.0" />
<path d="M 402.55698920570586 96.77978306893426 A 8.0 8.0 0 1 1 386.81512563023784 94.76395857785326 L 394.55698920570586 96.77978306893426" style="fill:red;stroke:black;stroke-width:1.0" />
<path d="M 386.81512563023784 94.76395857785326 A 8.0 8.0 0 0 1 400.78127524025336 91.75402309056912 L 394.55698920570586 96.77978306893426" style="fill:yellow;stroke:black;stroke-width:1.0" />
<path d="M 400.78127524025336 91.75402309056912 A 8.0 8.0 0 0 1 402.55698920570586 96.77978306893426 L 394.55698920570586 96.77978306893426" style="fill:green;stroke:black;stroke-width:1.0" />
<path d="M 402.55698920570586 96.77978306893426 A 8.0 8.0 0 0 1 402.55698920570586 96.77978306893426 L 394.55698920570586 96.77978306893426" style="fill:blue;stroke:black;stroke-width:1.0" />
<path d="M 402.55698920570586 96.77978306893426 A 8.0 8.0 0 0 1 402.55698920570586 96.77978306893426 L 394.55698920570586 96.77978306893426" style="fill:red;stroke:black;stroke-width:1.0" />
<path d="M 383.52704496973666 75.68201213941046 A 8.0 8.0 0 1 1 372.05597505679617 68.47426119619111 L 375.52704496973666 75.68201213941046" style="fill:red;stroke:black;stroke-width:1.0" />
<path d="M 372.05597505679617 68.47426119619111 A 8.0 8.0 0 0 1 383.3264682671913 73.90184466775995 L 375.52704496973666 75.68201213941046" style="fill:yellow;stroke:black;stroke-width:1.0" />
<path d="M 383.3264682671913 73.90184466775995 A 8.0 8.0 0 0 1 383.52704496973666 75.68201213941046 L 375.52704496973666 75.68201213941046" style="fill:green;stroke:black;stroke-width:1.0" />
<path d="M 383.52704496973666 75.68201213941046 A 8.0 8.0 0 0 1 383.52704496973666 75.68201213941046 L 375.52704496973666 75.68201213941046" style="fill:blue;stroke:black;stroke-width:1.0" />
<path d="M 383.52704496973666 75.68201213941046 A 8.0 8.0 0 0 1 383.52704496973666 75.68201213941046 L 375.52704496973666 75.68201213941046" style="fill:red;stroke:black;stroke-width:1.0" />
<path d="M 360.01248749327937 57.29760813368301 A 8.0 8.0 0 1 1 348.01248749327937 50.369404903407506 L 352.01248749327937 57.29760813368301" style="fill:red;stroke:black;stroke-width:1.0" />
<path d="M 348.01248749327937 50.369404903407506 A 8.0 8.0 0 0 1 359.5300284595666 54.56144698707766 L 352.01248749327937 57.29760813368301" style="fill:yellow;stroke:black;stroke-width:1.0" />
<path d="M 359.5300284595666 54.56144698707766 A 8.0 8.0 0 0 1 360.01248749327937 57.29760813368301 L 352.01248749327937 57.29760813368301" style="fill:green;stroke:black;stroke-width:1.0" />
<path d="M 360.01248749327937 57.29760813368301 A 8.0 8.0 0 0 1 360.01248749327937 57.29760813368301 L 352.01248749327937 57.29760813368301" style="fill:blue;stroke:black;stroke-width:1.0" />
<path d="M 360.01248749327937 57.29760813368301 A 8.0 8.0 0 0 1 360.01248749327937 57.29760813368301 L 352.01248749327937 57.29760813368301" style="fill:red;stroke:black;stroke-width:1.0" />
<path d="M 332.68977242246905 42.15543828967957 A 8.0 8.0 0 1 1 324.28457907175937 34.16570623231115 L 324.68977242246905 42.15543828967957" style="fill:red;stroke:black;stroke-width:1.0" />
<path d="M 324.28457907175937 34.16570623231115 A 8.0 8.0 0 0 1 332.526011952489 40.54505012897029 L 324.68977242246905 42.15543828967957" style="fill:yellow;stroke:black;stroke-width:1.0" />
<path d="M 332.526011952489 40.54505012897029 A 8.0 8.0 0 0 1 332.68977242246905 42.15543828967957 L 324.68977242246905 42.15543828967957" style="fill:green;stroke:black;stroke-width:1.0" />
<path d="M 332.68977242246905 42.15543828967957 A 8.0 8.0 0 0 1 332.68977242246905 42.15543828967957 L 324.68977242246905 42.15543828967957" style="fill:blue;stroke:black;stroke-width:1.0" />
<path d="M 332.68977242246905 42.15543828967957 A 8.0 8.0 0 0 1 332.68977242246905 42.15543828967957 L 324.68977242246905 42.15543828967957" style="fill:red;stroke:black;stroke-width:1.0" />
<path d="M 302.3449690917702 30.691128241158786 A 8.0 8.0 0 0 1 286.3952714126243 31.58684404998525 L 294.3449690917702 30.691128241158786" style="fill:red;stroke:black;stroke-width:1.0" />
<path d="M 286.3952714126243 31.58684404998525 A 8.0 8.0 0 0 1 300.59962095151445 25.703209826288916 L 294.3449690917702 30.691128241158786" style="fill:yellow;stroke:black;stroke-width:1.0" />
<path d="M 300.59962095151445 25.703209826288916 A 8.0 8.0 0 0 1 302.3449690917702 30.691128241158776 L 294.3449690917702 30.691128241158786" style="fill:green;stroke:black;stroke-width:1.0" />
<path d="M 302.3449690917702 30.691128241158776 A 8.0 8.0 0 0 1 302.3449690917702 30.691128241158776 L 294.3449690917702 30.691128241158786" style="fill:blue;stroke:black;stroke-width:1.0" />
<path d="M 302.3449690917702 30.691128241158776 A 8.0 8.0 0 0 1 302.3449690917702 30.691128241158783 L 294.3449690917702 30.691128241158786" style="fill:red;stroke:black;stroke-width:1.0" />
<path d="M 269.85098031909723 23.234466638098265 A 8.0 8.0 0 1 1 260.46179489776176 15.3560046140006 L 261.85098031909723 23.234466638098265" style="fill:red;stroke:black;stroke-width:1.0" />
<path d="M 260.46179489776176 15.3560046140006 A 8.0 8.0 0 0 1 269.3685212853845 20.49830549149291 L 261.85098031909723 23.234466638098265" style="fill:yellow;stroke:black;stroke-width:1.0" />
<path d="M 269.3685212853845 20.49830549149291 A 8.0 8.0 0 0 1 269.85098031909723 23.23446663809826 L 261.85098031909723 23.234466638098265" style="fill:green;stroke:black;stroke-width:1.0" />
<path d="M 269.85098031909723 23.23446663809826 A 8.0 8.0 0 0 1 269.85098031909723 23.23446663809826 L 261.85098031909723 23.234466638098265" style="fill:blue;stroke:black;stroke-width:1.0" />
<path d="M 269.85098031909723 23.23446663809826 A 8.0 8.0 0 0 1 269.85098031909723 23.23446663809826 L 261.85098031909723 23.234466638098265" style="fill:red;stroke:black;stroke-width:1.0" />
<path d="M 236.14265809223338 20.0 A 8.0 8.0 0 1 1 224.14265809223338 13.071796769724493 L 228.14265809223338 20.0" style="fill:red;stroke:black;stroke-width:1.0" />
<path d="M 224.14265809223338 13.071796769724493 A 8.0 8.0 0 0 1 235.07086132250888 15.999999999999996 L 228.14265809223338 20.0" style="fill:yellow;stroke:black;stroke-width:1.0" />
<path d="M 235.07086132250888 15.999999999999996 A 8.0 8.0 0 0 1 236.14265809223338 19.999999999999996 L 228.14265809223338 20.0" style="fill:green;stroke:black;stroke-width:1.0" />
<path d="M 236.14265809223338 19.999999999999996 A 8.0 8.0 0 0 1 236.14265809223338 19.999999999999996 L 228.14265809223338 20.0" style="fill:blue;stroke:black;stroke-width:1.0" />
<path d="M 236.14265809223338 19.999999999999996 A 8.0 8.0 0 0 1 236.14265809223338 19.999999999999996 L 228.14265809223338 20.0" style="fill:red;stroke:black;stroke-width:1.0" />
<path d="M 202.18970243976887 21.080750686414646 A 8.0 8.0 0 1 1 187.07901885052948 17.41493851259536 L 194.18970243976887 21.080750686414646" style="fill:red;stroke:black;stroke-width:1.0" />
<path d="M 187.07901885052948 17.41493851259536 A 8.0 8.0 0 0 1 202.18970243976887 21.080750686414643 L 194.18970243976887 21.080750686414646" style="fill:yellow;stroke:black;stroke-width:1.0" />
<path d="M 202.18970243976887 21.080750686414643 A 8.0 8.0 0 0 1 202.18970243976887 21.080750686414643 L 194.18970243976887 21.080750686414646" style="fill:green;stroke:black;stroke-width:1.0" />
<path d="M 202.18970243976887 21.080750686414643 A 8.0 8.0 0 0 1 202.18970243976887 21.080750686414643 L 194.18970243976887 21.080750686414646" style="fill:blue;stroke:black;stroke-width:1.0" />
<path d="M 202.18970243976887 21.080750686414643 A 8.0 8.0 0 0 1 202.18970243976887 21.080750686414643 L 194.18970243976887 21.080750686414646" style="fill:red;stroke:black;stroke-width:1.0" />
<path d="M 168.96886390848843 26.445639654079127 A 8.0 8.0 0 1 1 159.4081413323594 18.599357410853283 L 160.96886390848843 26.445639654079127" style="fill:red;stroke:black;stroke-width:1.0" />
<path d="M 159.4081413323594 18.599357410853283 A 8.0 8.0 0 0 1 168.35990016857872 23.384172195158403 L 160.96886390848843 26.445639654079127" style="fill:yellow;stroke:black;stroke-width:1.0" />
<path d="M 168.35990016857872 23.384172195158403 A 8.0 8.0 0 0 1 168.96886390848843 26.445639654079123 L 160.96886390848843 26.445639654079127" style="fill:green;stroke:black;stroke-width:1.0" />
<path d="M 168.96886390848843 26.445639654079123 A 8.0 8.0 0 0 1 168.96886390848843 26.445639654079123 L 160.96886390848843 26.445639654079127" style="fill:blue;stroke:black;stroke-width:1.0" />
<path d="M 168.96886390848843 26.445639654079123 A 8.0 8.0 0 0 1 168.96886390848843 26.445639654079123 L 160.96886390848843 26.445639654079127" style="fill:red;stroke:black;stroke-width:1.0" />
<path d="M 137.43587733585173 35.94032764035099 A 8.0 8.0 0 1 1 131.5064296966719 28.212921030038444 L 129.43587733585173 35.94032764035099" style="fill:red;stroke:black;stroke-width:1.0" />
<path d="M 131.5064296966719 28.212921030038444 A 8.0 8.0 0 0 1 137.43587733585173 35.94032764035099 L 129.43587733585173 35.94032764035099" style="fill:yellow;stroke:black;stroke-width:1.0" />
<path d="M 137.43587733585173 35.94032764035099 A 8.0 8.0 0 0 1 137.43587733585173 35.94032764035099 L 129.43587733585173 35.94032764035099" style="fill:green;stroke:black;stroke-width:1.0" />
<path d="M 137.43587733585173 35.94032764035099 A 8.0 8.0 0 0 1 137.43587733585173 35.94032764035099 L 129.43587733585173 35.94032764035099" style="fill:blue;stroke:black;stroke-width:1.0" />
<path d="M 137.43587733585173 35.94032764035099 A 8.0 8.0 0 0 1 137.43587733585173 35.94032764035099 L 129.43587733585173 35.94032764035099" style="fill:red;stroke:black;stroke-width:1.0" />
<path d="M 108.49786361685403 49.291662696897305 A 8.0 8.0 0 1 1 92.73032907744562 47.37713738259684 L 100.49786361685403 49.291662696897305" style="fill:red;stroke:black;stroke-width:1.0" />
<path d="M 92.73032907744562 47.37713738259684 A 8.0 8.0 0 0 1 107.58151182207972 45.573877320547155 L 100.49786361685403 49.291662696897305" style="fill:yellow;stroke:black;stroke-width:1.0" />
<path d="M 107.58151182207972 45.573877320547155 A 8.0 8.0 0 0 1 108.49786361685403 49.291662696897305 L 100.49786361685403 49.291662696897305" style="fill:green;stroke:black;stroke-width:1.0" />
<path d="M 108.49786361685403 49.291662696897305 A 8.0 8.0 0 0 1 108.49786361685403 49.291662696897305 L 100.49786361685403 49.291662696897305" style="fill:blue;stroke:black;stroke-width:1.0" />
<path d="M 108.49786361685403 49.291662696897305 A 8.0 8.0 0 0 1 108.49786361685403 49.291662696897305 L 100.49786361685403 49.291662696897305" style="fill:red;stroke:black;stroke-width:1.0" />
<path d="M 82.98734220752186 66.11555509843963 A 8.0 8.0 0 0 1 68.30343971621838 70.51162692300608 L 74.98734220752186 66.11555509843963" style="fill:red;stroke:black;stroke-width:1.0" />
<path d="M 68.30343971621838 70.51162692300608 A 8.0 8.0 0 1 1 81.836677403764 61.98196012922473 L 74.98734220752186 66.11555509843963" style="fill:yellow;stroke:black;stroke-width:1.0" />
<path d="M 81.836677403764 61.98196012922473 A 8.0 8.0 0 0 1 82.98734220752186 66.11555509843963 L 74.98734220752186 66.11555509843963" style="fill:green;stroke:black;stroke-width:1.0" />
<path d="M 82.98734220752186 66.11555509843963 A 8.0 8.0 0 0 1 82.98734220752186 66.11555509843963 L 74.98734220752186 66.11555509843963" style="fill:blue;stroke:black;stroke-width:1.0" />
<path d="M 82.98734220752186 66.11555509843963 A 8.0 8.0 0 0 1 82.98734220752186 66.11555509843963 L 74.98734220752186 66.11555509843963" style="fill:red;stroke:black;stroke-width:1.0" />
<path d="M 61.638152179650604 85.9280380100368 A 8.0 8.0 0 1 1 47.50979663469878 80.78573713254448 L 53.638152179650604 85.9280380100368" style="fill:red;stroke:black;stroke-width:1.0" />
<path d="M 47.50979663469878 80.78573713254448 A 8.0 8.0 0 0 1 60.56635540992612 81.9280380100368 L 53.638152179650604 85.9280380100368" style="fill:yellow;stroke:black;stroke-width:1.0" />
<path d="M 60.56635540992612 81.9280380100368 A 8.0 8.0 0 0 1 61.638152179650604 85.9280380100368 L 53.638152179650604 85.9280380100368" style="fill:green;stroke:black;stroke-width:1.0" />
<path d="M 61.638152179650604 85.9280380100368 A 8.0 8.0 0 0 1 61.638152179650604 85.9280380100368 L 53.638152179650604 85.9280380100368" style="fill:blue;stroke:black;stroke-width:1.0" />
<path d="M 61.638152179650604 85.9280380100368 A 8.0 8.0 0 0 1 61.638152179650604 85.9280380100368 L 53.638152179650604 85.9280380100368" style="fill:red;stroke:black;stroke-width:1.0" />
<path d="M 45.064529065391795 108.15910226994842 A 8.0 8.0 0 1 1 30.088133800241334 104.24375948745974 L 37.064529065391795 108.15910226994842" style="fill:red;stroke:black;stroke-width:1.0" />
<path d="M 30.088133800241334 104.24375948745974 A 8.0 8.0 0 0 1 43.736511608510824 103.74496034378485 L 37.064529065391795 108.15910226994842" style="fill:yellow;stroke:black;stroke-width:1.0" />
<path d="M 43.736511608510824 103.74496034378485 A 8.0 8.0 0 0 1 45.064529065391795 108.15910226994842 L 37.064529065391795 108.15910226994842" style="fill:green;stroke:black;stroke-width:1.0" />
<path d="M 45.064529065391795 108.15910226994842 A 8.0 8.0 0 0 1 45.064529065391795 108.15910226994842 L 37.064529065391795 108.15910226994842" style="fill:blue;stroke:black;stroke-width:1.0" />
<path d="M 45.064529065391795 108.15910226994842 A 8.0 8.0 0 0 1 45.064529065391795 108.15910226994842 L 37.064529065391795 108.15910226994842" style="fill:red;stroke:black;stroke-width:1.0" />
<path d="M 33.74325090899884 132.16920685171945 A 8.0 8.0 0 1 1 18.453422985893752 128.8739968657675 L 25.74325090899884 132.16920685171945" style="fill:red;stroke:black;stroke-width:1.0" />
<path d="M 18.453422985893752 128.8739968657675 A 8.0 8.0 0 0 1 31.028648696119493 126.16382840969766 L 25.74325090899884 132.16920685171945" style="fill:yellow;stroke:black;stroke-width:1.0" />
<path d="M 31.028648696119493 126.16382840969766 A 8.0 8.0 0 0 1 33.74325090899884 132.16920685171945 L 25.74325090899884 132.16920685171945" style="fill:green;stroke:black;stroke-width:1.0" />
<path d="M 33.74325090899884 132.16920685171945 A 8.0 8.0 0 0 1 33.74325090899884 132.16920685171945 L 25.74325090899884 132.16920685171945" style="fill:blue;stroke:black;stroke-width:1.0" />
<path d="M 33.74325090899884 132.16920685171945 A 8.0 8.0 0 0 1 33.74325090899884 132.16920685171945 L 25.74325090899884 132.16920685171945" style="fill:red;stroke:black;stroke-width:1.0" />
<path d="M 28.0 157.26763724519228 A 8.0 8.0 0 1 1 15.555438135843183 150.61588034677192 L 20.0 157.26763724519228" style="fill:red;stroke:black;stroke-width:1.0" />
<path d="M 15.555438135843183 150.61588034677192 A 8.0 8.0 0 0 1 28.0 157.26763724519228 L 20.0 157.26763724519228" style="fill:yellow;stroke:black;stroke-width:1.0" />
<path d="M 28.0 157.26763724519228 A 8.0 8.0 0 0 1 28.0 157.26763724519228 L 20.0 157.26763724519228" style="fill:green;stroke:black;stroke-width:1.0" />
<path d="M 28.0 157.26763724519228 A 8.0 8.0 0 0 1 28.0 157.26763724519228 L 20.0 157.26763724519228" style="fill:blue;stroke:black;stroke-width:1.0" />
<path d="M 28.0 157.26763724519228 A 8.0 8.0 0 0 1 28.0 157.26763724519228 L 20.0 157.26763724519228" style="fill:red;stroke:black;stroke-width:1.0" />
<circle cx="20" cy="182" r="8.0" style="fill:red;stroke:black;stroke-width:1.0"/>
<path d="M 33.74325090899884 207.83078419952062 A 8.0 8.0 0 1 1 25.74325090899884 199.83078419952062 L 25.74325090899884 207.83078419952062" style="fill:red;stroke:black;stroke-width:1.0" />
<path d="M 25.74325090899884 199.83078419952062 A 8.0 8.0 0 0 1 33.47065751931139 205.76023183870046 L 25.74325090899884 207.83078419952062" style="fill:yellow;stroke:black;stroke-width:1.0" />
<path d="M 33.47065751931139 205.76023183870046 A 8.0 8.0 0 0 1 33.74325090899884 207.83078419952062 L 25.74325090899884 207.83078419952062" style="fill:green;stroke:black;stroke-width:1.0" />
<path d="M 33.74325090899884 207.83078419952062 A 8.0 8.0 0 0 1 33.74325090899884 207.83078419952062 L 25.74325090899884 207.83078419952062" style="fill:blue;stroke:black;stroke-width:1.0" />
<path d="M 33.74325090899884 207.83078419952062 A 8.0 8.0 0 0 1 33.74325090899884 207.83078419952062 L 25.74325090899884 207.83078419952062" style="fill:red;stroke:black;stroke-width:1.0" />
<path d="M 45.06455295027239 231.84092457633142 A 8.0 8.0 0 0 1 29.16304622551129 233.09240029665327 L 37.06455295027239 231.84092457633142" style="fill:red;stroke:black;stroke-width:1.0" />
<path d="M 29.16304622551129 233.09240029665327 A 8.0 8.0 0 0 1 42.72140719976477 226.18407032683905 L 37.06455295027239 231.84092457633142" style="fill:yellow;stroke:black;stroke-width:1.0" />
<path d="M 42.72140719976477 226.18407032683905 A 8.0 8.0 0 0 1 45.06455295027239 231.84092457633142 L 37.06455295027239 231.84092457633142" style="fill:green;stroke:black;stroke-width:1.0" />
<path d="M 45.06455295027239 231.84092457633142 A 8.0 8.0 0 0 1 45.06455295027239 231.84092457633142 L 37.06455295027239 231.84092457633142" style="fill:blue;stroke:black;stroke-width:1.0" />
<path d="M 45.06455295027239 231.84092457633142 A 8.0 8.0 0 0 1 45.06455295027239 231.84092457633142 L 37.06455295027239 231.84092457633142" style="fill:red;stroke:black;stroke-width:1.0" />
<path d="M 61.63816412209092 254.07197093872313 A 8.0 8.0 0 1 1 47.02825392756296 249.56541047421416 L 53.63816412209092 254.07197093872313" style="fill:red;stroke:black;stroke-width:1.0" />
<path d="M 47.02825392756296 249.56541047421416 A 8.0 8.0 0 0 1 60.84591506531027 250.60090102578266 L 53.63816412209092 254.07197093872313" style="fill:yellow;stroke:black;stroke-width:1.0" />
<path d="M 60.84591506531027 250.60090102578266 A 8.0 8.0 0 0 1 61.63816412209092 254.07197093872313 L 53.63816412209092 254.07197093872313" style="fill:green;stroke:black;stroke-width:1.0" />
<path d="M 61.63816412209092 254.07197093872313 A 8.0 8.0 0 0 1 61.63816412209092 254.07197093872313 L 53.63816412209092 254.07197093872313" style="fill:blue;stroke:black;stroke-width:1.0" />
<path d="M 61.63816412209092 254.07197093872313 A 8.0 8.0 0 0 1 61.63816412209092 254.07197093872313 L 53.63816412209092 254.07197093872313" style="fill:red;stroke:black;stroke-width:1.0" />
<path d="M 82.98733026508158 273.88443595280046 A 8.0 8.0 0 1 1 67.64963985303795 270.69722723403055 L 74.98733026508158 273.88443595280046" style="fill:red;stroke:black;stroke-width:1.0" />
<path d="M 67.64963985303795 270.69722723403055 A 8.0 8.0 0 0 1 82.69066856386398 271.72606178354425 L 74.98733026508158 273.88443595280046" style="fill:yellow;stroke:black;stroke-width:1.0" />
<path d="M 82.69066856386398 271.72606178354425 A 8.0 8.0 0 0 1 82.98733026508158 273.88443595280046 L 74.98733026508158 273.88443595280046" style="fill:green;stroke:black;stroke-width:1.0" />
<path d="M 82.98733026508158 273.88443595280046 A 8.0 8.0 0 0 1 82.98733026508158 273.88443595280046 L 74.98733026508158 273.88443595280046" style="fill:blue;stroke:black;stroke-width:1.0" />
<path d="M 82.98733026508158 273.88443595280046 A 8.0 8.0 0 0 1 82.98733026508158 273.88443595280046 L 74.98733026508158 273.88443595280046" style="fill:red;stroke:black;stroke-width:1.0" />
<path d="M 108.49785167441372 290.7083283543427 A 8.0 8.0 0 1 1 92.82190788549775 288.4544678996113 L 100.49785167441372 290.7083283543427" style="fill:red;stroke:black;stroke-width:1.0" />
<path d="M 92.82190788549775 288.4544678996113 A 8.0 8.0 0 0 1 108.1737954633297 288.45446789961125 L 100.49785167441372 290.7083283543427" style="fill:yellow;stroke:black;stroke-width:1.0" />
<path d="M 108.1737954633297 288.45446789961125 A 8.0 8.0 0 0 1 108.49785167441372 290.7083283543427 L 100.49785167441372 290.7083283543427" style="fill:green;stroke:black;stroke-width:1.0" />
<path d="M 108.49785167441372 290.7083283543427 A 8.0 8.0 0 0 1 108.49785167441372 290.7083283543427 L 100.49785167441372 290.7083283543427" style="fill:blue;stroke:black;stroke-width:1.0" />
<path d="M 108.49785167441372 290.7083283543427 A 8.0 8.0 0 0 1 108.49785167441372 290.7083283543427 L 100.49785167441372 290.7083283543427" style="fill:red;stroke:black;stroke-width:1.0" />
<path d="M 137.43590122073235 304.0596813084089 A 8.0 8.0 0 1 1 136.27125645710424 299.90300970812547 L 129.43590122073235 304.0596813084089" style="fill:red;stroke:black;stroke-width:1.0" />
<path d="M 136.27125645710424 299.90300970812547 A 8.0 8.0 0 0 1 137.43590122073235 304.0596813084089 L 129.43590122073235 304.0596813084089" style="fill:yellow;stroke:black;stroke-width:1.0" />
<path d="M 137.43590122073235 304.0596813084089 A 8.0 8.0 0 0 1 137.43590122073235 304.0596813084089 L 129.43590122073235 304.0596813084089" style="fill:green;stroke:black;stroke-width:1.0" />
<path d="M 137.43590122073235 304.0596813084089 A 8.0 8.0 0 0 1 137.43590122073235 304.0596813084089 L 129.43590122073235 304.0596813084089" style="fill:blue;stroke:black;stroke-width:1.0" />
<path d="M 137.43590122073235 304.0596813084089 A 8.0 8.0 0 0 1 137.43590122073235 304.0596813084089 L 129.43590122073235 304.0596813084089" style="fill:red;stroke:black;stroke-width:1.0" />
<path d="M 168.96884599482794 313.55435139716093 A 8.0 8.0 0 1 1 155.10443102018934 308.1129694949936 L 160.96884599482794 313.55435139716093" style="fill:red;stroke:black;stroke-width:1.0" />
<path d="M 155.10443102018934 308.1129694949936 A 8.0 8.0 0 0 1 168.17659693804728 310.08328148422044 L 160.96884599482794 313.55435139716093" style="fill:yellow;stroke:black;stroke-width:1.0" />
<path d="M 168.17659693804728 310.08328148422044 A 8.0 8.0 0 0 1 168.96884599482794 313.55435139716093 L 160.96884599482794 313.55435139716093" style="fill:green;stroke:black;stroke-width:1.0" />
<path d="M 168.96884599482794 313.55435139716093 A 8.0 8.0 0 0 1 168.96884599482794 313.55435139716093 L 160.96884599482794 313.55435139716093" style="fill:blue;stroke:black;stroke-width:1.0" />
<path d="M 168.96884599482794 313.55435139716093 A 8.0 8.0 0 0 1 168.96884599482794 313.55435139716093 L 160.96884599482794 313.55435139716093" style="fill:red;stroke:black;stroke-width:1.0" />
<path d="M 202.1897143822092 318.91924931358534 A 8.0 8.0 0 1 1 188.95082851064691 312.87325271875125 L 194.1897143822092 318.91924931358534" style="fill:red;stroke:black;stroke-width:1.0" />
<path d="M 188.95082851064691 312.87325271875125 A 8.0 8.0 0 0 1 200.91974264485864 314.59412277394057 L 194.1897143822092 318.91924931358534" style="fill:yellow;stroke:black;stroke-width:1.0" />
<path d="M 200.91974264485864 314.59412277394057 A 8.0 8.0 0 0 1 202.1897143822092 318.91924931358534 L 194.1897143822092 318.91924931358534" style="fill:green;stroke:black;stroke-width:1.0" />
<path d="M 202.1897143822092 318.91924931358534 A 8.0 8.0 0 0 1 202.1897143822092 318.91924931358534 L 194.1897143822092 318.91924931358534" style="fill:blue;stroke:black;stroke-width:1.0" />
<path d="M 202.1897143822092 318.91924931358534 A 8.0 8.0 0 0 1 202.1897143822092 318.91924931358534 L 194.1897143822092 318.91924931358534" style="fill:red;stroke:black;stroke-width:1.0" />
<path d="M 236.14262151850994 320.0 A 8.0 8.0 0 1 1 227.40447464280354 312.0341265896397 L 228.14262151850994 320.0" style="fill:red;stroke:black;stroke-width:1.0" />
<path d="M 227.40447464280354 312.0341265896397 A 8.0 8.0 0 0 1 235.6023993537448 317.11006667050276 L 228.14262151850994 320.0" style="fill:yellow;stroke:black;stroke-width:1.0" />
<path d="M 235.6023993537448 317.11006667050276 A 8.0 8.0 0 0 1 236.14262151850994 320.0 L 228.14262151850994 320.0" style="fill:green;stroke:black;stroke-width:1.0" />
<path d="M 236.14262151850994 320.0 A 8.0 8.0 0 0 1 236.14262151850994 320.0 L 228.14262151850994 320.0" style="fill:blue;stroke:black;stroke-width:1.0" />
<path d="M 236.14262151850994 320.0 A 8.0 8.0 0 0 1 236.14262151850994 320.0 L 228.14262151850994 320.0" style="fill:red;stroke:black;stroke-width:1.0" />
<path d="M 269.8509922615375 316.7655244131418 A 8.0 8.0 0 1 1 260.2902696854085 308.91924216991595 L 261.8509922615375 316.7655244131418" style="fill:red;stroke:black;stroke-width:1.0" />
<path d="M 260.2902696854085 308.91924216991595 A 8.0 8.0 0 0 1 269.2420285216278 313.7040569542211 L 261.8509922615375 316.7655244131418" style="fill:yellow;stroke:black;stroke-width:1.0" />
<path d="M 269.2420285216278 313.7040569542211 A 8.0 8.0 0 0 1 269.8509922615375 316.7655244131418 L 261.8509922615375 316.7655244131418" style="fill:green;stroke:black;stroke-width:1.0" />
<path d="M 269.8509922615375 316.7655244131418 A 8.0 8.0 0 0 1 269.8509922615375 316.7655244131418 L 261.8509922615375 316.7655244131418" style="fill:blue;stroke:black;stroke-width:1.0" />
<path d="M 269.8509922615375 316.7655244131418 A 8.0 8.0 0 0 1 269.8509922615375 316.7655244131418 L 261.8509922615375 316.7655244131418" style="fill:red;stroke:black;stroke-width:1.0" />
<path d="M 302.34499894787103 309.3088628100812 A 8.0 8.0 0 0 1 286.45410852064924 310.6256195323271 L 294.34499894787103 309.3088628100812" style="fill:red;stroke:black;stroke-width:1.0" />
<path d="M 286.45410852064924 310.6256195323271 A 8.0 8.0 0 0 1 301.91153688147614 306.7112670564438 L 294.34499894787103 309.3088628100812" style="fill:yellow;stroke:black;stroke-width:1.0" />
<path d="M 301.91153688147614 306.7112670564438 A 8.0 8.0 0 0 1 302.34499894787103 309.3088628100812 L 294.34499894787103 309.3088628100812" style="fill:green;stroke:black;stroke-width:1.0" />
<path d="M 302.34499894787103 309.3088628100812 A 8.0 8.0 0 0 1 302.34499894787103 309.3088628100812 L 294.34499894787103 309.3088628100812" style="fill:blue;stroke:black;stroke-width:1.0" />
<path d="M 302.34499894787103 309.3088628100812 A 8.0 8.0 0 0 1 302.34499894787103 309.3088628100812 L 294.34499894787103 309.3088628100812" style="fill:red;stroke:black;stroke-width:1.0" />
<path d="M 332.68977242246905 297.8445706590804 A 8.0 8.0 0 1 1 326.31742052689015 290.0118979576218 L 324.68977242246905 297.8445706590804" style="fill:red;stroke:black;stroke-width:1.0" />
<path d="M 326.31742052689015 290.0118979576218 A 8.0 8.0 0 0 1 332.68977242246905 297.8445706590804 L 324.68977242246905 297.8445706590804" style="fill:yellow;stroke:black;stroke-width:1.0" />
<path d="M 332.68977242246905 297.8445706590804 A 8.0 8.0 0 0 1 332.68977242246905 297.8445706590804 L 324.68977242246905 297.8445706590804" style="fill:green;stroke:black;stroke-width:1.0" />
<path d="M 332.68977242246905 297.8445706590804 A 8.0 8.0 0 0 1 332.68977242246905 297.8445706590804 L 324.68977242246905 297.8445706590804" style="fill:blue;stroke:black;stroke-width:1.0" />
<path d="M 332.68977242246905 297.8445706590804 A 8.0 8.0 0 0 1 332.68977242246905 297.8445706590804 L 324.68977242246905 297.8445706590804" style="fill:red;stroke:black;stroke-width:1.0" />
<path d="M 360.0124994357197 282.70238291755703 A 8.0 8.0 0 1 1 349.71807357403094 275.03846681903315 L 352.0124994357197 282.70238291755703" style="fill:red;stroke:black;stroke-width:1.0" />
<path d="M 349.71807357403094 275.03846681903315 A 8.0 8.0 0 0 1 359.161560558307 279.11198947595335 L 352.0124994357197 282.70238291755703" style="fill:yellow;stroke:black;stroke-width:1.0" />
<path d="M 359.161560558307 279.11198947595335 A 8.0 8.0 0 0 1 360.0124994357197 282.70238291755703 L 352.0124994357197 282.70238291755703" style="fill:green;stroke:black;stroke-width:1.0" />
<path d="M 360.0124994357197 282.70238291755703 A 8.0 8.0 0 0 1 360.0124994357197 282.70238291755703 L 352.0124994357197 282.70238291755703" style="fill:blue;stroke:black;stroke-width:1.0" />
<path d="M 360.0124994357197 282.70238291755703 A 8.0 8.0 0 0 1 360.0124994357197 282.70238291755703 L 352.0124994357197 282.70238291755703" style="fill:red;stroke:black;stroke-width:1.0" />
<path d="M 383.5270210848561 264.31799680934944 A 8.0 8.0 0 0 1 368.1359848247658 267.37946426827017 L 375.5270210848561 264.31799680934944" style="fill:red;stroke:black;stroke-width:1.0" />
<path d="M 368.1359848247658 267.37946426827017 A 8.0 8.0 0 0 1 381.87384780718594 259.44790537727965 L 375.5270210848561 264.31799680934944" style="fill:yellow;stroke:black;stroke-width:1.0" />
<path d="M 381.87384780718594 259.44790537727965 A 8.0 8.0 0 0 1 383.5270210848561 264.31799680934944 L 375.5270210848561 264.31799680934944" style="fill:green;stroke:black;stroke-width:1.0" />
<path d="M 383.5270210848561 264.31799680934944 A 8.0 8.0 0 0 1 383.5270210848561 264.31799680934944 L 375.5270210848561 264.31799680934944" style="fill:blue;stroke:black;stroke-width:1.0" />
<path d="M 383.5270210848561 264.31799680934944 A 8.0 8.0 0 0 1 383.5270210848561 264.31799680934944 L 375.5270210848561 264.31799680934944" style="fill:red;stroke:black;stroke-width:1.0" />
<path d="M 402.5570011481462 243.2202079823058 A 8.0 8.0 0 0 1 389.3181152765839 249.26620457713986 L 394.5570011481462 243.2202079823058" style="fill:red;stroke:black;stroke-width:1.0" />
<path d="M 389.3181152765839 249.26620457713986 A 8.0 8.0 0 0 1 397.88032125216125 235.94315201946964 L 394.5570011481462 243.2202079823058" style="fill:yellow;stroke:black;stroke-width:1.0" />
<path d="M 397.88032125216125 235.94315201946964 A 8.0 8.0 0 0 1 402.5570011481462 243.2202079823058 L 394.5570011481462 243.2202079823058" style="fill:green;stroke:black;stroke-width:1.0" />
<path d="M 402.5570011481462 243.2202079823058 A 8.0 8.0 0 0 1 402.5570011481462 243.2202079823058 L 394.5570011481462 243.2202079823058" style="fill:blue;stroke:black;stroke-width:1.0" />
<path d="M 402.5570011481462 243.2202079823058 A 8.0 8.0 0 0 1 402.5570011481462 243.2202079823058 L 394.5570011481462 243.2202079823058" style="fill:red;stroke:black;stroke-width:1.0" />
<path d="M 416.55485485277484 220.01606451554784 A 8.0 8.0 0 1 1 401.2650269296698 216.7208545295959 L 408.55485485277484 220.01606451554784" style="fill:red;stroke:black;stroke-width:1.0" />
<path d="M 401.2650269296698 216.7208545295959 A 8.0 8.0 0 0 1 414.77914088732234 214.9903045371827 L 408.55485485277484 220.01606451554784" style="fill:yellow;stroke:black;stroke-width:1.0" />
<path d="M 414.77914088732234 214.9903045371827 A 8.0 8.0 0 0 1 416.55485485277484 220.01606451554784 L 408.55485485277484 220.01606451554784" style="fill:green;stroke:black;stroke-width:1.0" />
<path d="M 416.55485485277484 220.01606451554784 A 8.0 8.0 0 0 1 416.55485485277484 220.01606451554784 L 408.55485485277484 220.01606451554784" style="fill:blue;stroke:black;stroke-width:1.0" />
<path d="M 416.55485485277484 220.01606451554784 A 8.0 8.0 0 0 1 416.55485485277484 220.01606451554784 L 408.55485485277484 220.01606451554784" style="fill:red;stroke:black;stroke-width:1.0" />
<circle cx="417" cy="195" r="8.0" style="fill:red;stroke:black;stroke-width:1.0"/>
</svg>
