<?xml version="1.0" encoding="utf-8" standalone="no"?>
<!DOCTYPE svg PUBLIC "-//W3C//DTD SVG 1.1//EN"
  "http://www.w3.org/Graphics/SVG/1.1/DTD/svg11.dtd">
<svg xmlns:xlink="http://www.w3.org/1999/xlink" width="519.398125pt" height="390.077734pt" viewBox="0 0 519.398125 390.077734" xmlns="http://www.w3.org/2000/svg" version="1.1">
 <metadata>
  <rdf:RDF xmlns:dc="http://purl.org/dc/elements/1.1/" xmlns:cc="http://creativecommons.org/ns#" xmlns:rdf="http://www.w3.org/1999/02/22-rdf-syntax-ns#">
   <cc:Work>
    <dc:type rdf:resource="http://purl.org/dc/dcmitype/StillImage"/>
    <dc:date>2023-03-26T16:14:14.335291</dc:date>
    <dc:format>image/svg+xml</dc:format>
    <dc:creator>
     <cc:Agent>
      <dc:title>Matplotlib v3.7.1, https://matplotlib.org/</dc:title>
     </cc:Agent>
    </dc:creator>
   </cc:Work>
  </rdf:RDF>
 </metadata>
 <defs>
  <style type="text/css">*{stroke-linejoin: round; stroke-linecap: butt}</style>
 </defs>
 <g id="figure_1">
  <g id="patch_1">
   <path d="M 0 390.077734 
L 519.398125 390.077734 
L 519.398125 0 
L 0 0 
z
" style="fill: #ffffff"/>
  </g>
  <g id="axes_1">
   <g id="patch_2">
    <path d="M 53.39125 344.778984 
L 499.79125 344.778984 
L 499.79125 12.138984 
L 53.39125 12.138984 
z
" style="fill: #ffffff"/>
   </g>
   <g id="matplotlib.axis_1">
    <g id="xtick_1">
     <g id="line2d_1">
      <defs>
       <path id="m60e75e131a" d="M 0 0 
L 0 3.5 
" style="stroke: #000000; stroke-width: 0.8"/>
      </defs>
      <g>
       <use xlink:href="#m60e75e131a" x="53.39125" y="344.778984" style="stroke: #000000; stroke-width: 0.8"/>
      </g>
     </g>
     <g id="text_1">
      <!-- 0 -->
      <g transform="translate(49.255625 361.656953) scale(0.13 -0.13)">
       <defs>
        <path id="DejaVuSans-30" d="M 2034 4250 
Q 1547 4250 1301 3770 
Q 1056 3291 1056 2328 
Q 1056 1369 1301 889 
Q 1547 409 2034 409 
Q 2525 409 2770 889 
Q 3016 1369 3016 2328 
Q 3016 3291 2770 3770 
Q 2525 4250 2034 4250 
z
M 2034 4750 
Q 2819 4750 3233 4129 
Q 3647 3509 3647 2328 
Q 3647 1150 3233 529 
Q 2819 -91 2034 -91 
Q 1250 -91 836 529 
Q 422 1150 422 2328 
Q 422 3509 836 4129 
Q 1250 4750 2034 4750 
z
" transform="scale(0.015625)"/>
       </defs>
       <use xlink:href="#DejaVuSans-30"/>
      </g>
     </g>
    </g>
    <g id="xtick_2">
     <g id="line2d_2">
      <g>
       <use xlink:href="#m60e75e131a" x="127.79125" y="344.778984" style="stroke: #000000; stroke-width: 0.8"/>
      </g>
     </g>
     <g id="text_2">
      <!-- 50 -->
      <g transform="translate(119.52 361.656953) scale(0.13 -0.13)">
       <defs>
        <path id="DejaVuSans-35" d="M 691 4666 
L 3169 4666 
L 3169 4134 
L 1269 4134 
L 1269 2991 
Q 1406 3038 1543 3061 
Q 1681 3084 1819 3084 
Q 2600 3084 3056 2656 
Q 3513 2228 3513 1497 
Q 3513 744 3044 326 
Q 2575 -91 1722 -91 
Q 1428 -91 1123 -41 
Q 819 9 494 109 
L 494 744 
Q 775 591 1075 516 
Q 1375 441 1709 441 
Q 2250 441 2565 725 
Q 2881 1009 2881 1497 
Q 2881 1984 2565 2268 
Q 2250 2553 1709 2553 
Q 1456 2553 1204 2497 
Q 953 2441 691 2322 
L 691 4666 
z
" transform="scale(0.015625)"/>
       </defs>
       <use xlink:href="#DejaVuSans-35"/>
       <use xlink:href="#DejaVuSans-30" x="63.623047"/>
      </g>
     </g>
    </g>
    <g id="xtick_3">
     <g id="line2d_3">
      <g>
       <use xlink:href="#m60e75e131a" x="202.19125" y="344.778984" style="stroke: #000000; stroke-width: 0.8"/>
      </g>
     </g>
     <g id="text_3">
      <!-- 100 -->
      <g transform="translate(189.784375 361.656953) scale(0.13 -0.13)">
       <defs>
        <path id="DejaVuSans-31" d="M 794 531 
L 1825 531 
L 1825 4091 
L 703 3866 
L 703 4441 
L 1819 4666 
L 2450 4666 
L 2450 531 
L 3481 531 
L 3481 0 
L 794 0 
L 794 531 
z
" transform="scale(0.015625)"/>
       </defs>
       <use xlink:href="#DejaVuSans-31"/>
       <use xlink:href="#DejaVuSans-30" x="63.623047"/>
       <use xlink:href="#DejaVuSans-30" x="127.246094"/>
      </g>
     </g>
    </g>
    <g id="xtick_4">
     <g id="line2d_4">
      <g>
       <use xlink:href="#m60e75e131a" x="276.59125" y="344.778984" style="stroke: #000000; stroke-width: 0.8"/>
      </g>
     </g>
     <g id="text_4">
      <!-- 150 -->
      <g transform="translate(264.184375 361.656953) scale(0.13 -0.13)">
       <use xlink:href="#DejaVuSans-31"/>
       <use xlink:href="#DejaVuSans-35" x="63.623047"/>
       <use xlink:href="#DejaVuSans-30" x="127.246094"/>
      </g>
     </g>
    </g>
    <g id="xtick_5">
     <g id="line2d_5">
      <g>
       <use xlink:href="#m60e75e131a" x="350.99125" y="344.778984" style="stroke: #000000; stroke-width: 0.8"/>
      </g>
     </g>
     <g id="text_5">
      <!-- 200 -->
      <g transform="translate(338.584375 361.656953) scale(0.13 -0.13)">
       <defs>
        <path id="DejaVuSans-32" d="M 1228 531 
L 3431 531 
L 3431 0 
L 469 0 
L 469 531 
Q 828 903 1448 1529 
Q 2069 2156 2228 2338 
Q 2531 2678 2651 2914 
Q 2772 3150 2772 3378 
Q 2772 3750 2511 3984 
Q 2250 4219 1831 4219 
Q 1534 4219 1204 4116 
Q 875 4013 500 3803 
L 500 4441 
Q 881 4594 1212 4672 
Q 1544 4750 1819 4750 
Q 2544 4750 2975 4387 
Q 3406 4025 3406 3419 
Q 3406 3131 3298 2873 
Q 3191 2616 2906 2266 
Q 2828 2175 2409 1742 
Q 1991 1309 1228 531 
z
" transform="scale(0.015625)"/>
       </defs>
       <use xlink:href="#DejaVuSans-32"/>
       <use xlink:href="#DejaVuSans-30" x="63.623047"/>
       <use xlink:href="#DejaVuSans-30" x="127.246094"/>
      </g>
     </g>
    </g>
    <g id="xtick_6">
     <g id="line2d_6">
      <g>
       <use xlink:href="#m60e75e131a" x="425.39125" y="344.778984" style="stroke: #000000; stroke-width: 0.8"/>
      </g>
     </g>
     <g id="text_6">
      <!-- 250 -->
      <g transform="translate(412.984375 361.656953) scale(0.13 -0.13)">
       <use xlink:href="#DejaVuSans-32"/>
       <use xlink:href="#DejaVuSans-35" x="63.623047"/>
       <use xlink:href="#DejaVuSans-30" x="127.246094"/>
      </g>
     </g>
    </g>
    <g id="xtick_7">
     <g id="line2d_7">
      <g>
       <use xlink:href="#m60e75e131a" x="499.79125" y="344.778984" style="stroke: #000000; stroke-width: 0.8"/>
      </g>
     </g>
     <g id="text_7">
      <!-- 300 -->
      <g transform="translate(487.384375 361.656953) scale(0.13 -0.13)">
       <defs>
        <path id="DejaVuSans-33" d="M 2597 2516 
Q 3050 2419 3304 2112 
Q 3559 1806 3559 1356 
Q 3559 666 3084 287 
Q 2609 -91 1734 -91 
Q 1441 -91 1130 -33 
Q 819 25 488 141 
L 488 750 
Q 750 597 1062 519 
Q 1375 441 1716 441 
Q 2309 441 2620 675 
Q 2931 909 2931 1356 
Q 2931 1769 2642 2001 
Q 2353 2234 1838 2234 
L 1294 2234 
L 1294 2753 
L 1863 2753 
Q 2328 2753 2575 2939 
Q 2822 3125 2822 3475 
Q 2822 3834 2567 4026 
Q 2313 4219 1838 4219 
Q 1578 4219 1281 4162 
Q 984 4106 628 3988 
L 628 4550 
Q 988 4650 1302 4700 
Q 1616 4750 1894 4750 
Q 2613 4750 3031 4423 
Q 3450 4097 3450 3541 
Q 3450 3153 3228 2886 
Q 3006 2619 2597 2516 
z
" transform="scale(0.015625)"/>
       </defs>
       <use xlink:href="#DejaVuSans-33"/>
       <use xlink:href="#DejaVuSans-30" x="63.623047"/>
       <use xlink:href="#DejaVuSans-30" x="127.246094"/>
      </g>
     </g>
    </g>
    <g id="text_8">
     <!-- time -->
     <g transform="translate(259.647109 379.758203) scale(0.15 -0.15)">
      <defs>
       <path id="DejaVuSans-74" d="M 1172 4494 
L 1172 3500 
L 2356 3500 
L 2356 3053 
L 1172 3053 
L 1172 1153 
Q 1172 725 1289 603 
Q 1406 481 1766 481 
L 2356 481 
L 2356 0 
L 1766 0 
Q 1100 0 847 248 
Q 594 497 594 1153 
L 594 3053 
L 172 3053 
L 172 3500 
L 594 3500 
L 594 4494 
L 1172 4494 
z
" transform="scale(0.015625)"/>
       <path id="DejaVuSans-69" d="M 603 3500 
L 1178 3500 
L 1178 0 
L 603 0 
L 603 3500 
z
M 603 4863 
L 1178 4863 
L 1178 4134 
L 603 4134 
L 603 4863 
z
" transform="scale(0.015625)"/>
       <path id="DejaVuSans-6d" d="M 3328 2828 
Q 3544 3216 3844 3400 
Q 4144 3584 4550 3584 
Q 5097 3584 5394 3201 
Q 5691 2819 5691 2113 
L 5691 0 
L 5113 0 
L 5113 2094 
Q 5113 2597 4934 2840 
Q 4756 3084 4391 3084 
Q 3944 3084 3684 2787 
Q 3425 2491 3425 1978 
L 3425 0 
L 2847 0 
L 2847 2094 
Q 2847 2600 2669 2842 
Q 2491 3084 2119 3084 
Q 1678 3084 1418 2786 
Q 1159 2488 1159 1978 
L 1159 0 
L 581 0 
L 581 3500 
L 1159 3500 
L 1159 2956 
Q 1356 3278 1631 3431 
Q 1906 3584 2284 3584 
Q 2666 3584 2933 3390 
Q 3200 3197 3328 2828 
z
" transform="scale(0.015625)"/>
       <path id="DejaVuSans-65" d="M 3597 1894 
L 3597 1613 
L 953 1613 
Q 991 1019 1311 708 
Q 1631 397 2203 397 
Q 2534 397 2845 478 
Q 3156 559 3463 722 
L 3463 178 
Q 3153 47 2828 -22 
Q 2503 -91 2169 -91 
Q 1331 -91 842 396 
Q 353 884 353 1716 
Q 353 2575 817 3079 
Q 1281 3584 2069 3584 
Q 2775 3584 3186 3129 
Q 3597 2675 3597 1894 
z
M 3022 2063 
Q 3016 2534 2758 2815 
Q 2500 3097 2075 3097 
Q 1594 3097 1305 2825 
Q 1016 2553 972 2059 
L 3022 2063 
z
" transform="scale(0.015625)"/>
      </defs>
      <use xlink:href="#DejaVuSans-74"/>
      <use xlink:href="#DejaVuSans-69" x="39.208984"/>
      <use xlink:href="#DejaVuSans-6d" x="66.992188"/>
      <use xlink:href="#DejaVuSans-65" x="164.404297"/>
     </g>
    </g>
   </g>
   <g id="matplotlib.axis_2">
    <g id="ytick_1">
     <g id="line2d_8">
      <defs>
       <path id="md8900f0aa5" d="M 0 0 
L -3.5 0 
" style="stroke: #000000; stroke-width: 0.8"/>
      </defs>
      <g>
       <use xlink:href="#md8900f0aa5" x="53.39125" y="344.778984" style="stroke: #000000; stroke-width: 0.8"/>
      </g>
     </g>
     <g id="text_9">
      <!-- 0.0 -->
      <g transform="translate(25.717188 349.717969) scale(0.13 -0.13)">
       <defs>
        <path id="DejaVuSans-2e" d="M 684 794 
L 1344 794 
L 1344 0 
L 684 0 
L 684 794 
z
" transform="scale(0.015625)"/>
       </defs>
       <use xlink:href="#DejaVuSans-30"/>
       <use xlink:href="#DejaVuSans-2e" x="63.623047"/>
       <use xlink:href="#DejaVuSans-30" x="95.410156"/>
      </g>
     </g>
    </g>
    <g id="ytick_2">
     <g id="line2d_9">
      <g>
       <use xlink:href="#md8900f0aa5" x="53.39125" y="278.250984" style="stroke: #000000; stroke-width: 0.8"/>
      </g>
     </g>
     <g id="text_10">
      <!-- 0.2 -->
      <g transform="translate(25.717188 283.189969) scale(0.13 -0.13)">
       <use xlink:href="#DejaVuSans-30"/>
       <use xlink:href="#DejaVuSans-2e" x="63.623047"/>
       <use xlink:href="#DejaVuSans-32" x="95.410156"/>
      </g>
     </g>
    </g>
    <g id="ytick_3">
     <g id="line2d_10">
      <g>
       <use xlink:href="#md8900f0aa5" x="53.39125" y="211.722984" style="stroke: #000000; stroke-width: 0.8"/>
      </g>
     </g>
     <g id="text_11">
      <!-- 0.4 -->
      <g transform="translate(25.717188 216.661969) scale(0.13 -0.13)">
       <defs>
        <path id="DejaVuSans-34" d="M 2419 4116 
L 825 1625 
L 2419 1625 
L 2419 4116 
z
M 2253 4666 
L 3047 4666 
L 3047 1625 
L 3713 1625 
L 3713 1100 
L 3047 1100 
L 3047 0 
L 2419 0 
L 2419 1100 
L 313 1100 
L 313 1709 
L 2253 4666 
z
" transform="scale(0.015625)"/>
       </defs>
       <use xlink:href="#DejaVuSans-30"/>
       <use xlink:href="#DejaVuSans-2e" x="63.623047"/>
       <use xlink:href="#DejaVuSans-34" x="95.410156"/>
      </g>
     </g>
    </g>
    <g id="ytick_4">
     <g id="line2d_11">
      <g>
       <use xlink:href="#md8900f0aa5" x="53.39125" y="145.194984" style="stroke: #000000; stroke-width: 0.8"/>
      </g>
     </g>
     <g id="text_12">
      <!-- 0.6 -->
      <g transform="translate(25.717188 150.133969) scale(0.13 -0.13)">
       <defs>
        <path id="DejaVuSans-36" d="M 2113 2584 
Q 1688 2584 1439 2293 
Q 1191 2003 1191 1497 
Q 1191 994 1439 701 
Q 1688 409 2113 409 
Q 2538 409 2786 701 
Q 3034 994 3034 1497 
Q 3034 2003 2786 2293 
Q 2538 2584 2113 2584 
z
M 3366 4563 
L 3366 3988 
Q 3128 4100 2886 4159 
Q 2644 4219 2406 4219 
Q 1781 4219 1451 3797 
Q 1122 3375 1075 2522 
Q 1259 2794 1537 2939 
Q 1816 3084 2150 3084 
Q 2853 3084 3261 2657 
Q 3669 2231 3669 1497 
Q 3669 778 3244 343 
Q 2819 -91 2113 -91 
Q 1303 -91 875 529 
Q 447 1150 447 2328 
Q 447 3434 972 4092 
Q 1497 4750 2381 4750 
Q 2619 4750 2861 4703 
Q 3103 4656 3366 4563 
z
" transform="scale(0.015625)"/>
       </defs>
       <use xlink:href="#DejaVuSans-30"/>
       <use xlink:href="#DejaVuSans-2e" x="63.623047"/>
       <use xlink:href="#DejaVuSans-36" x="95.410156"/>
      </g>
     </g>
    </g>
    <g id="ytick_5">
     <g id="line2d_12">
      <g>
       <use xlink:href="#md8900f0aa5" x="53.39125" y="78.666984" style="stroke: #000000; stroke-width: 0.8"/>
      </g>
     </g>
     <g id="text_13">
      <!-- 0.8 -->
      <g transform="translate(25.717188 83.605969) scale(0.13 -0.13)">
       <defs>
        <path id="DejaVuSans-38" d="M 2034 2216 
Q 1584 2216 1326 1975 
Q 1069 1734 1069 1313 
Q 1069 891 1326 650 
Q 1584 409 2034 409 
Q 2484 409 2743 651 
Q 3003 894 3003 1313 
Q 3003 1734 2745 1975 
Q 2488 2216 2034 2216 
z
M 1403 2484 
Q 997 2584 770 2862 
Q 544 3141 544 3541 
Q 544 4100 942 4425 
Q 1341 4750 2034 4750 
Q 2731 4750 3128 4425 
Q 3525 4100 3525 3541 
Q 3525 3141 3298 2862 
Q 3072 2584 2669 2484 
Q 3125 2378 3379 2068 
Q 3634 1759 3634 1313 
Q 3634 634 3220 271 
Q 2806 -91 2034 -91 
Q 1263 -91 848 271 
Q 434 634 434 1313 
Q 434 1759 690 2068 
Q 947 2378 1403 2484 
z
M 1172 3481 
Q 1172 3119 1398 2916 
Q 1625 2713 2034 2713 
Q 2441 2713 2670 2916 
Q 2900 3119 2900 3481 
Q 2900 3844 2670 4047 
Q 2441 4250 2034 4250 
Q 1625 4250 1398 4047 
Q 1172 3844 1172 3481 
z
" transform="scale(0.015625)"/>
       </defs>
       <use xlink:href="#DejaVuSans-30"/>
       <use xlink:href="#DejaVuSans-2e" x="63.623047"/>
       <use xlink:href="#DejaVuSans-38" x="95.410156"/>
      </g>
     </g>
    </g>
    <g id="ytick_6">
     <g id="line2d_13">
      <g>
       <use xlink:href="#md8900f0aa5" x="53.39125" y="12.138984" style="stroke: #000000; stroke-width: 0.8"/>
      </g>
     </g>
     <g id="text_14">
      <!-- 1.0 -->
      <g transform="translate(25.717188 17.077969) scale(0.13 -0.13)">
       <use xlink:href="#DejaVuSans-31"/>
       <use xlink:href="#DejaVuSans-2e" x="63.623047"/>
       <use xlink:href="#DejaVuSans-30" x="95.410156"/>
      </g>
     </g>
    </g>
    <g id="text_15">
     <!-- fraction of infected nodes -->
     <g transform="translate(18.597656 274.805859) rotate(-90) scale(0.15 -0.15)">
      <defs>
       <path id="DejaVuSans-66" d="M 2375 4863 
L 2375 4384 
L 1825 4384 
Q 1516 4384 1395 4259 
Q 1275 4134 1275 3809 
L 1275 3500 
L 2222 3500 
L 2222 3053 
L 1275 3053 
L 1275 0 
L 697 0 
L 697 3053 
L 147 3053 
L 147 3500 
L 697 3500 
L 697 3744 
Q 697 4328 969 4595 
Q 1241 4863 1831 4863 
L 2375 4863 
z
" transform="scale(0.015625)"/>
       <path id="DejaVuSans-72" d="M 2631 2963 
Q 2534 3019 2420 3045 
Q 2306 3072 2169 3072 
Q 1681 3072 1420 2755 
Q 1159 2438 1159 1844 
L 1159 0 
L 581 0 
L 581 3500 
L 1159 3500 
L 1159 2956 
Q 1341 3275 1631 3429 
Q 1922 3584 2338 3584 
Q 2397 3584 2469 3576 
Q 2541 3569 2628 3553 
L 2631 2963 
z
" transform="scale(0.015625)"/>
       <path id="DejaVuSans-61" d="M 2194 1759 
Q 1497 1759 1228 1600 
Q 959 1441 959 1056 
Q 959 750 1161 570 
Q 1363 391 1709 391 
Q 2188 391 2477 730 
Q 2766 1069 2766 1631 
L 2766 1759 
L 2194 1759 
z
M 3341 1997 
L 3341 0 
L 2766 0 
L 2766 531 
Q 2569 213 2275 61 
Q 1981 -91 1556 -91 
Q 1019 -91 701 211 
Q 384 513 384 1019 
Q 384 1609 779 1909 
Q 1175 2209 1959 2209 
L 2766 2209 
L 2766 2266 
Q 2766 2663 2505 2880 
Q 2244 3097 1772 3097 
Q 1472 3097 1187 3025 
Q 903 2953 641 2809 
L 641 3341 
Q 956 3463 1253 3523 
Q 1550 3584 1831 3584 
Q 2591 3584 2966 3190 
Q 3341 2797 3341 1997 
z
" transform="scale(0.015625)"/>
       <path id="DejaVuSans-63" d="M 3122 3366 
L 3122 2828 
Q 2878 2963 2633 3030 
Q 2388 3097 2138 3097 
Q 1578 3097 1268 2742 
Q 959 2388 959 1747 
Q 959 1106 1268 751 
Q 1578 397 2138 397 
Q 2388 397 2633 464 
Q 2878 531 3122 666 
L 3122 134 
Q 2881 22 2623 -34 
Q 2366 -91 2075 -91 
Q 1284 -91 818 406 
Q 353 903 353 1747 
Q 353 2603 823 3093 
Q 1294 3584 2113 3584 
Q 2378 3584 2631 3529 
Q 2884 3475 3122 3366 
z
" transform="scale(0.015625)"/>
       <path id="DejaVuSans-6f" d="M 1959 3097 
Q 1497 3097 1228 2736 
Q 959 2375 959 1747 
Q 959 1119 1226 758 
Q 1494 397 1959 397 
Q 2419 397 2687 759 
Q 2956 1122 2956 1747 
Q 2956 2369 2687 2733 
Q 2419 3097 1959 3097 
z
M 1959 3584 
Q 2709 3584 3137 3096 
Q 3566 2609 3566 1747 
Q 3566 888 3137 398 
Q 2709 -91 1959 -91 
Q 1206 -91 779 398 
Q 353 888 353 1747 
Q 353 2609 779 3096 
Q 1206 3584 1959 3584 
z
" transform="scale(0.015625)"/>
       <path id="DejaVuSans-6e" d="M 3513 2113 
L 3513 0 
L 2938 0 
L 2938 2094 
Q 2938 2591 2744 2837 
Q 2550 3084 2163 3084 
Q 1697 3084 1428 2787 
Q 1159 2491 1159 1978 
L 1159 0 
L 581 0 
L 581 3500 
L 1159 3500 
L 1159 2956 
Q 1366 3272 1645 3428 
Q 1925 3584 2291 3584 
Q 2894 3584 3203 3211 
Q 3513 2838 3513 2113 
z
" transform="scale(0.015625)"/>
       <path id="DejaVuSans-20" transform="scale(0.015625)"/>
       <path id="DejaVuSans-64" d="M 2906 2969 
L 2906 4863 
L 3481 4863 
L 3481 0 
L 2906 0 
L 2906 525 
Q 2725 213 2448 61 
Q 2172 -91 1784 -91 
Q 1150 -91 751 415 
Q 353 922 353 1747 
Q 353 2572 751 3078 
Q 1150 3584 1784 3584 
Q 2172 3584 2448 3432 
Q 2725 3281 2906 2969 
z
M 947 1747 
Q 947 1113 1208 752 
Q 1469 391 1925 391 
Q 2381 391 2643 752 
Q 2906 1113 2906 1747 
Q 2906 2381 2643 2742 
Q 2381 3103 1925 3103 
Q 1469 3103 1208 2742 
Q 947 2381 947 1747 
z
" transform="scale(0.015625)"/>
       <path id="DejaVuSans-73" d="M 2834 3397 
L 2834 2853 
Q 2591 2978 2328 3040 
Q 2066 3103 1784 3103 
Q 1356 3103 1142 2972 
Q 928 2841 928 2578 
Q 928 2378 1081 2264 
Q 1234 2150 1697 2047 
L 1894 2003 
Q 2506 1872 2764 1633 
Q 3022 1394 3022 966 
Q 3022 478 2636 193 
Q 2250 -91 1575 -91 
Q 1294 -91 989 -36 
Q 684 19 347 128 
L 347 722 
Q 666 556 975 473 
Q 1284 391 1588 391 
Q 1994 391 2212 530 
Q 2431 669 2431 922 
Q 2431 1156 2273 1281 
Q 2116 1406 1581 1522 
L 1381 1569 
Q 847 1681 609 1914 
Q 372 2147 372 2553 
Q 372 3047 722 3315 
Q 1072 3584 1716 3584 
Q 2034 3584 2315 3537 
Q 2597 3491 2834 3397 
z
" transform="scale(0.015625)"/>
      </defs>
      <use xlink:href="#DejaVuSans-66"/>
      <use xlink:href="#DejaVuSans-72" x="35.205078"/>
      <use xlink:href="#DejaVuSans-61" x="76.318359"/>
      <use xlink:href="#DejaVuSans-63" x="137.597656"/>
      <use xlink:href="#DejaVuSans-74" x="192.578125"/>
      <use xlink:href="#DejaVuSans-69" x="231.787109"/>
      <use xlink:href="#DejaVuSans-6f" x="259.570312"/>
      <use xlink:href="#DejaVuSans-6e" x="320.751953"/>
      <use xlink:href="#DejaVuSans-20" x="384.130859"/>
      <use xlink:href="#DejaVuSans-6f" x="415.917969"/>
      <use xlink:href="#DejaVuSans-66" x="477.099609"/>
      <use xlink:href="#DejaVuSans-20" x="512.304688"/>
      <use xlink:href="#DejaVuSans-69" x="544.091797"/>
      <use xlink:href="#DejaVuSans-6e" x="571.875"/>
      <use xlink:href="#DejaVuSans-66" x="635.253906"/>
      <use xlink:href="#DejaVuSans-65" x="670.458984"/>
      <use xlink:href="#DejaVuSans-63" x="731.982422"/>
      <use xlink:href="#DejaVuSans-74" x="786.962891"/>
      <use xlink:href="#DejaVuSans-65" x="826.171875"/>
      <use xlink:href="#DejaVuSans-64" x="887.695312"/>
      <use xlink:href="#DejaVuSans-20" x="951.171875"/>
      <use xlink:href="#DejaVuSans-6e" x="982.958984"/>
      <use xlink:href="#DejaVuSans-6f" x="1046.337891"/>
      <use xlink:href="#DejaVuSans-64" x="1107.519531"/>
      <use xlink:href="#DejaVuSans-65" x="1170.996094"/>
      <use xlink:href="#DejaVuSans-73" x="1232.519531"/>
     </g>
    </g>
   </g>
   <g id="line2d_14">
    <path d="M 53.39125 178.967608 
L 54.87925 153.536416 
L 57.85525 119.967241 
L 59.34325 101.656783 
L 60.83125 94.536049 
L 62.31925 93.518801 
L 63.80725 83.346324 
L 65.29525 76.22559 
L 66.78325 79.277333 
L 69.75925 81.311828 
L 71.24725 75.208342 
L 72.73525 80.294581 
L 74.22325 78.260085 
L 75.71125 75.208342 
L 77.19925 76.22559 
L 78.68725 76.22559 
L 80.17525 80.294581 
L 81.66325 68.087608 
L 83.15125 69.104856 
L 84.63925 69.104856 
L 86.12725 66.053113 
L 87.61525 64.018617 
L 89.10325 59.949627 
L 90.59125 63.00137 
L 92.07925 68.087608 
L 93.56725 67.070361 
L 95.05525 63.00137 
L 96.54325 61.984122 
L 98.03125 63.00137 
L 99.51925 68.087608 
L 101.00725 70.122104 
L 102.49525 69.104856 
L 103.98325 67.070361 
L 105.47125 72.156599 
L 106.95925 76.22559 
L 108.44725 73.173847 
L 109.93525 73.173847 
L 111.42325 66.053113 
L 112.91125 68.087608 
L 115.88725 66.053113 
L 117.37525 72.156599 
L 118.86325 73.173847 
L 120.35125 65.035865 
L 121.83925 63.00137 
L 123.32725 71.139351 
L 124.81525 69.104856 
L 126.30325 69.104856 
L 127.79125 67.070361 
L 129.27925 64.018617 
L 130.76725 59.949627 
L 132.25525 64.018617 
L 133.74325 67.070361 
L 135.23125 66.053113 
L 136.71925 63.00137 
L 138.20725 64.018617 
L 141.18325 76.22559 
L 142.67125 76.22559 
L 144.15925 77.242838 
L 145.64725 74.191094 
L 147.13525 70.122104 
L 148.62325 74.191094 
L 150.11125 70.122104 
L 151.59925 68.087608 
L 153.08725 65.035865 
L 154.57525 69.104856 
L 156.06325 63.00137 
L 157.55125 72.156599 
L 159.03925 72.156599 
L 160.52725 63.00137 
L 162.01525 65.035865 
L 163.50325 69.104856 
L 164.99125 59.949627 
L 166.47925 63.00137 
L 167.96725 75.208342 
L 169.45525 64.018617 
L 170.94325 66.053113 
L 172.43125 69.104856 
L 173.91925 65.035865 
L 175.40725 64.018617 
L 176.89525 64.018617 
L 178.38325 66.053113 
L 179.87125 67.070361 
L 181.35925 61.984122 
L 182.84725 67.070361 
L 184.33525 67.070361 
L 185.82325 71.139351 
L 187.31125 66.053113 
L 188.79925 75.208342 
L 190.28725 73.173847 
L 191.77525 66.053113 
L 193.26325 71.139351 
L 194.75125 75.208342 
L 196.23925 81.311828 
L 197.72725 82.329076 
L 199.21525 88.432562 
L 200.70325 96.570544 
L 202.19125 90.467058 
L 203.67925 88.432562 
L 205.16725 87.415315 
L 206.65525 76.22559 
L 209.63125 80.294581 
L 211.11925 68.087608 
L 212.60725 69.104856 
L 214.09525 64.018617 
L 215.58325 69.104856 
L 217.07125 70.122104 
L 218.55925 60.966874 
L 220.04725 64.018617 
L 221.53525 60.966874 
L 223.02325 58.932379 
L 224.51125 59.949627 
L 225.99925 61.984122 
L 227.48725 63.00137 
L 228.97525 69.104856 
L 230.46325 72.156599 
L 231.95125 60.966874 
L 233.43925 55.880636 
L 234.92725 66.053113 
L 236.41525 59.949627 
L 237.90325 60.966874 
L 239.39125 60.966874 
L 240.87925 61.984122 
L 243.85525 66.053113 
L 245.34325 67.070361 
L 246.83125 65.035865 
L 248.31925 66.053113 
L 249.80725 69.104856 
L 251.29525 71.139351 
L 252.78325 66.053113 
L 254.27125 64.018617 
L 257.24725 78.260085 
L 258.73525 65.035865 
L 260.22325 66.053113 
L 261.71125 75.208342 
L 263.19925 77.242838 
L 264.68725 83.346324 
L 266.17525 80.294581 
L 267.66325 82.329076 
L 269.15125 78.260085 
L 270.63925 86.398067 
L 272.12725 78.260085 
L 273.61525 80.294581 
L 275.10325 78.260085 
L 276.59125 87.415315 
L 278.07925 85.380819 
L 279.56725 75.208342 
L 281.05525 74.191094 
L 282.54325 75.208342 
L 284.03125 79.277333 
L 285.51925 81.311828 
L 287.00725 85.380819 
L 288.49525 84.363572 
L 289.98325 85.380819 
L 291.47125 79.277333 
L 292.95925 74.191094 
L 294.44725 79.277333 
L 295.93525 87.415315 
L 297.42325 69.104856 
L 298.91125 70.122104 
L 300.39925 73.173847 
L 301.88725 68.087608 
L 303.37525 64.018617 
L 304.86325 65.035865 
L 306.35125 69.104856 
L 307.83925 64.018617 
L 309.32725 70.122104 
L 310.81525 66.053113 
L 312.30325 78.260085 
L 313.79125 79.277333 
L 315.27925 82.329076 
L 316.76725 79.277333 
L 318.25525 87.415315 
L 319.74325 87.415315 
L 321.23125 86.398067 
L 322.71925 83.346324 
L 324.20725 77.242838 
L 325.69525 81.311828 
L 327.18325 87.415315 
L 328.67125 81.311828 
L 330.15925 79.277333 
L 331.64725 74.191094 
L 333.13525 81.311828 
L 334.62325 78.260085 
L 336.11125 84.363572 
L 337.59925 73.173847 
L 339.08725 74.191094 
L 340.57525 77.242838 
L 342.06325 81.311828 
L 343.55125 77.242838 
L 345.03925 69.104856 
L 346.52725 72.156599 
L 348.01525 68.087608 
L 349.50325 69.104856 
L 350.99125 76.22559 
L 352.47925 73.173847 
L 353.96725 64.018617 
L 355.45525 61.984122 
L 358.43125 59.949627 
L 361.40725 66.053113 
L 362.89525 67.070361 
L 364.38325 76.22559 
L 365.87125 79.277333 
L 367.35925 81.311828 
L 368.84725 70.122104 
L 370.33525 65.035865 
L 371.82325 67.070361 
L 373.31125 63.00137 
L 374.79925 64.018617 
L 376.28725 69.104856 
L 377.77525 68.087608 
L 379.26325 59.949627 
L 380.75125 60.966874 
L 382.23925 66.053113 
L 383.72725 73.173847 
L 385.21525 66.053113 
L 386.70325 71.139351 
L 388.19125 78.260085 
L 389.67925 79.277333 
L 391.16725 79.277333 
L 392.65525 76.22559 
L 394.14325 80.294581 
L 395.63125 76.22559 
L 397.11925 79.277333 
L 398.60725 79.277333 
L 400.09525 80.294581 
L 401.58325 86.398067 
L 403.07125 87.415315 
L 404.55925 86.398067 
L 406.04725 84.363572 
L 407.53525 73.173847 
L 409.02325 70.122104 
L 410.51125 80.294581 
L 411.99925 79.277333 
L 413.48725 77.242838 
L 414.97525 78.260085 
L 416.46325 82.329076 
L 417.95125 83.346324 
L 419.43925 89.44981 
L 420.92725 84.363572 
L 422.41525 84.363572 
L 423.90325 79.277333 
L 425.39125 79.277333 
L 426.87925 78.260085 
L 428.36725 82.329076 
L 429.85525 74.191094 
L 431.34325 72.156599 
L 432.83125 63.00137 
L 434.31925 65.035865 
L 435.80725 70.122104 
L 437.29525 72.156599 
L 438.78325 61.984122 
L 440.27125 60.966874 
L 441.75925 69.104856 
L 443.24725 71.139351 
L 444.73525 72.156599 
L 446.22325 70.122104 
L 447.71125 64.018617 
L 449.19925 61.984122 
L 450.68725 68.087608 
L 452.17525 63.00137 
L 453.66325 70.122104 
L 455.15125 68.087608 
L 456.63925 67.070361 
L 458.12725 83.346324 
L 459.61525 79.277333 
L 461.10325 81.311828 
L 462.59125 69.104856 
L 464.07925 66.053113 
L 465.56725 68.087608 
L 467.05525 75.208342 
L 468.54325 74.191094 
L 470.03125 81.311828 
L 471.51925 87.415315 
L 473.00725 76.22559 
L 474.49525 71.139351 
L 475.98325 76.22559 
L 477.47125 67.070361 
L 478.95925 72.156599 
L 480.44725 68.087608 
L 481.93525 80.294581 
L 483.42325 67.070361 
L 484.91125 66.053113 
L 486.39925 71.139351 
L 487.88725 67.070361 
L 489.37525 58.932379 
L 490.86325 70.122104 
L 492.35125 69.104856 
L 493.83925 58.932379 
L 495.32725 70.122104 
L 496.81525 77.242838 
L 498.30325 71.139351 
L 499.79125 78.260085 
L 501.27925 58.932379 
L 502.76725 67.070361 
L 504.25525 68.087608 
L 505.74325 74.191094 
L 507.23125 66.053113 
L 508.71925 69.104856 
L 511.69525 65.035865 
L 513.18325 79.277333 
L 514.67125 76.22559 
L 516.15925 71.139351 
L 517.64725 57.915131 
L 519.13525 63.00137 
L 520.398125 61.274681 
L 520.398125 61.274681 
" clip-path="url(#p81159706b2)" style="fill: none; stroke: #386cb0; stroke-width: 2; stroke-linecap: square"/>
   </g>
   <g id="line2d_15">
    <path d="M 53.39125 178.967608 
L 54.87925 184.053847 
L 56.36725 194.226324 
L 57.85525 194.226324 
L 59.34325 203.381553 
L 60.83125 206.433296 
L 62.31925 211.519535 
L 63.80725 212.536783 
L 65.29525 216.605773 
L 66.78325 217.623021 
L 68.27125 214.571278 
L 69.75925 215.588526 
L 71.24725 218.640269 
L 72.73525 222.70926 
L 74.22325 220.674764 
L 75.71125 219.657516 
L 78.68725 227.795498 
L 80.17525 229.829994 
L 81.66325 234.916232 
L 84.63925 238.985223 
L 86.12725 244.071461 
L 87.61525 243.054214 
L 89.10325 245.088709 
L 90.59125 250.174948 
L 92.07925 251.192195 
L 93.56725 250.174948 
L 95.05525 246.105957 
L 96.54325 251.192195 
L 98.03125 252.209443 
L 101.00725 250.174948 
L 102.49525 252.209443 
L 103.98325 253.226691 
L 105.47125 252.209443 
L 106.95925 249.1577 
L 108.44725 254.243939 
L 109.93525 256.278434 
L 111.42325 260.347425 
L 112.91125 260.347425 
L 114.39925 261.364672 
L 115.88725 261.364672 
L 117.37525 267.468159 
L 120.35125 269.502654 
L 121.83925 269.502654 
L 123.32725 270.519902 
L 124.81525 270.519902 
L 126.30325 272.554397 
L 127.79125 270.519902 
L 129.27925 273.571645 
L 130.76725 273.571645 
L 132.25525 275.60614 
L 133.74325 280.692379 
L 136.71925 286.795865 
L 138.20725 290.864856 
L 139.69525 291.882104 
L 142.67125 295.951094 
L 144.15925 299.002838 
L 145.64725 304.089076 
L 147.13525 306.123572 
L 148.62325 306.123572 
L 150.11125 304.089076 
L 151.59925 301.037333 
L 153.08725 305.106324 
L 154.57525 305.106324 
L 156.06325 308.158067 
L 159.03925 308.158067 
L 160.52725 311.20981 
L 162.01525 313.244305 
L 164.99125 313.244305 
L 166.47925 310.192562 
L 167.96725 308.158067 
L 169.45525 310.192562 
L 170.94325 309.175315 
L 173.91925 315.278801 
L 175.40725 316.296049 
L 176.89525 312.227058 
L 178.38325 311.20981 
L 179.87125 311.20981 
L 181.35925 312.227058 
L 182.84725 312.227058 
L 184.33525 310.192562 
L 187.31125 312.227058 
L 188.79925 312.227058 
L 190.28725 311.20981 
L 191.77525 311.20981 
L 193.26325 310.192562 
L 194.75125 311.20981 
L 196.23925 310.192562 
L 197.72725 311.20981 
L 199.21525 310.192562 
L 200.70325 310.192562 
L 202.19125 308.158067 
L 203.67925 310.192562 
L 206.65525 310.192562 
L 208.14325 309.175315 
L 209.63125 311.20981 
L 211.11925 315.278801 
L 212.60725 317.313296 
L 214.09525 320.365039 
L 215.58325 320.365039 
L 217.07125 324.43403 
L 218.55925 324.43403 
L 220.04725 325.451278 
L 221.53525 325.451278 
L 223.02325 324.43403 
L 224.51125 326.468526 
L 225.99925 326.468526 
L 227.48725 327.485773 
L 228.97525 325.451278 
L 231.95125 325.451278 
L 233.43925 324.43403 
L 234.92725 324.43403 
L 236.41525 325.451278 
L 239.39125 325.451278 
L 240.87925 322.399535 
L 242.36725 326.468526 
L 243.85525 325.451278 
L 245.34325 326.468526 
L 246.83125 326.468526 
L 248.31925 327.485773 
L 249.80725 327.485773 
L 251.29525 325.451278 
L 252.78325 326.468526 
L 254.27125 326.468526 
L 255.75925 327.485773 
L 258.73525 325.451278 
L 261.71125 325.451278 
L 263.19925 326.468526 
L 264.68725 328.503021 
L 266.17525 327.485773 
L 267.66325 327.485773 
L 269.15125 325.451278 
L 270.63925 324.43403 
L 272.12725 325.451278 
L 273.61525 325.451278 
L 275.10325 324.43403 
L 276.59125 326.468526 
L 278.07925 325.451278 
L 279.56725 327.485773 
L 281.05525 326.468526 
L 284.03125 326.468526 
L 285.51925 327.485773 
L 287.00725 326.468526 
L 288.49525 324.43403 
L 289.98325 324.43403 
L 292.95925 326.468526 
L 294.44725 325.451278 
L 297.42325 325.451278 
L 298.91125 324.43403 
L 300.39925 322.399535 
L 301.88725 322.399535 
L 303.37525 320.365039 
L 304.86325 319.347792 
L 306.35125 320.365039 
L 307.83925 319.347792 
L 310.81525 323.416783 
L 313.79125 323.416783 
L 315.27925 327.485773 
L 316.76725 330.537516 
L 318.25525 330.537516 
L 319.74325 332.572012 
L 322.71925 332.572012 
L 325.69525 334.606507 
L 327.18325 334.606507 
L 328.67125 335.623755 
L 331.64725 335.623755 
L 333.13525 334.606507 
L 336.11125 336.641003 
L 337.59925 339.692746 
L 339.08725 337.65825 
L 343.55125 337.65825 
L 345.03925 338.675498 
L 346.52725 336.641003 
L 348.01525 336.641003 
L 352.47925 339.692746 
L 353.96725 339.692746 
L 355.45525 338.675498 
L 356.94325 338.675498 
L 358.43125 339.692746 
L 359.91925 338.675498 
L 362.89525 338.675498 
L 364.38325 339.692746 
L 373.31125 339.692746 
L 374.79925 337.65825 
L 379.26325 337.65825 
L 380.75125 338.675498 
L 383.72725 338.675498 
L 385.21525 339.692746 
L 386.70325 338.675498 
L 388.19125 338.675498 
L 389.67925 339.692746 
L 394.14325 339.692746 
L 395.63125 337.65825 
L 397.11925 337.65825 
L 398.60725 338.675498 
L 400.09525 337.65825 
L 401.58325 338.675498 
L 404.55925 338.675498 
L 406.04725 337.65825 
L 411.99925 337.65825 
L 414.97525 339.692746 
L 416.46325 338.675498 
L 419.43925 340.709994 
L 426.87925 340.709994 
L 428.36725 339.692746 
L 431.34325 339.692746 
L 434.31925 341.727241 
L 435.80725 339.692746 
L 441.75925 343.761737 
L 443.24725 343.761737 
L 444.73525 342.744489 
L 456.63925 342.744489 
L 458.12725 343.761737 
L 467.05525 343.761737 
L 468.54325 344.778984 
L 520.398125 344.778984 
L 520.398125 344.778984 
" clip-path="url(#p81159706b2)" style="fill: none; stroke: #f0027f; stroke-width: 2; stroke-linecap: square"/>
   </g>
   <g id="patch_3">
    <path d="M 53.39125 344.778984 
L 53.39125 12.138984 
" style="fill: none; stroke: #000000; stroke-width: 0.8; stroke-linejoin: miter; stroke-linecap: square"/>
   </g>
   <g id="patch_4">
    <path d="M 53.39125 344.778984 
L 499.79125 344.778984 
" style="fill: none; stroke: #000000; stroke-width: 0.8; stroke-linejoin: miter; stroke-linecap: square"/>
   </g>
   <g id="legend_1">
    <g id="line2d_16">
     <path d="M 399.74125 166.339453 
L 414.74125 166.339453 
L 429.74125 166.339453 
" style="fill: none; stroke: #386cb0; stroke-width: 2; stroke-linecap: square"/>
    </g>
    <g id="text_16">
     <!-- $\lambda_\Delta = 2$ -->
     <g transform="translate(441.74125 171.589453) scale(0.15 -0.15)">
      <defs>
       <path id="DejaVuSans-Oblique-3bb" d="M 2350 4316 
L 3125 0 
L 2516 0 
L 2038 2588 
L 328 0 
L -281 0 
L 1903 3356 
L 1794 3975 
Q 1725 4369 1391 4369 
L 1091 4369 
L 1184 4863 
L 1550 4856 
Q 2253 4847 2350 4316 
z
" transform="scale(0.015625)"/>
       <path id="DejaVuSans-394" d="M 2188 4044 
L 906 525 
L 3472 525 
L 2188 4044 
z
M 50 0 
L 1831 4666 
L 2547 4666 
L 4325 0 
L 50 0 
z
" transform="scale(0.015625)"/>
       <path id="DejaVuSans-3d" d="M 678 2906 
L 4684 2906 
L 4684 2381 
L 678 2381 
L 678 2906 
z
M 678 1631 
L 4684 1631 
L 4684 1100 
L 678 1100 
L 678 1631 
z
" transform="scale(0.015625)"/>
      </defs>
      <use xlink:href="#DejaVuSans-Oblique-3bb" transform="translate(0 0.015625)"/>
      <use xlink:href="#DejaVuSans-394" transform="translate(59.179688 -16.390625) scale(0.7)"/>
      <use xlink:href="#DejaVuSans-3d" transform="translate(129.282227 0.015625)"/>
      <use xlink:href="#DejaVuSans-32" transform="translate(232.553711 0.015625)"/>
     </g>
    </g>
    <g id="line2d_17">
     <path d="M 399.74125 188.356641 
L 414.74125 188.356641 
L 429.74125 188.356641 
" style="fill: none; stroke: #f0027f; stroke-width: 2; stroke-linecap: square"/>
    </g>
    <g id="text_17">
     <!-- $\lambda_\Delta = 0$ -->
     <g transform="translate(441.74125 193.606641) scale(0.15 -0.15)">
      <use xlink:href="#DejaVuSans-Oblique-3bb" transform="translate(0 0.015625)"/>
      <use xlink:href="#DejaVuSans-394" transform="translate(59.179688 -16.390625) scale(0.7)"/>
      <use xlink:href="#DejaVuSans-3d" transform="translate(129.282227 0.015625)"/>
      <use xlink:href="#DejaVuSans-30" transform="translate(232.553711 0.015625)"/>
     </g>
    </g>
   </g>
  </g>
 </g>
 <defs>
  <clipPath id="p81159706b2">
   <rect x="53.39125" y="12.138984" width="446.4" height="332.64"/>
  </clipPath>
 </defs>
</svg>
