<?xml version="1.0" encoding="utf-8" standalone="no"?>
<!DOCTYPE svg PUBLIC "-//W3C//DTD SVG 1.1//EN"
  "http://www.w3.org/Graphics/SVG/1.1/DTD/svg11.dtd">
<svg xmlns:xlink="http://www.w3.org/1999/xlink" width="562.1125pt" height="418.428672pt" viewBox="0 0 562.1125 418.428672" xmlns="http://www.w3.org/2000/svg" version="1.1">
 <metadata>
  <rdf:RDF xmlns:dc="http://purl.org/dc/elements/1.1/" xmlns:cc="http://creativecommons.org/ns#" xmlns:rdf="http://www.w3.org/1999/02/22-rdf-syntax-ns#">
   <cc:Work>
    <dc:type rdf:resource="http://purl.org/dc/dcmitype/StillImage"/>
    <dc:date>2023-03-26T22:26:48.825598</dc:date>
    <dc:format>image/svg+xml</dc:format>
    <dc:creator>
     <cc:Agent>
      <dc:title>Matplotlib v3.7.1, https://matplotlib.org/</dc:title>
     </cc:Agent>
    </dc:creator>
   </cc:Work>
  </rdf:RDF>
 </metadata>
 <defs>
  <style type="text/css">*{stroke-linejoin: round; stroke-linecap: butt}</style>
 </defs>
 <g id="figure_1">
  <g id="patch_1">
   <path d="M 0 418.428672 
L 562.1125 418.428672 
L 562.1125 0 
L 0 0 
z
" style="fill: #ffffff"/>
  </g>
  <g id="axes_1">
   <g id="patch_2">
    <path d="M 84.653125 349.338047 
L 531.053125 349.338047 
L 531.053125 16.698047 
L 84.653125 16.698047 
z
" style="fill: #ffffff"/>
   </g>
   <g id="matplotlib.axis_1">
    <g id="xtick_1">
     <g id="text_1">
      <!-- 0 -->
      <g style="fill: #262626" transform="translate(76.7 377.834141) scale(0.25 -0.25)">
       <defs>
        <path id="DejaVuSerif-30" d="M 2034 219 
Q 2513 219 2750 744 
Q 2988 1269 2988 2328 
Q 2988 3391 2750 3916 
Q 2513 4441 2034 4441 
Q 1556 4441 1318 3916 
Q 1081 3391 1081 2328 
Q 1081 1269 1318 744 
Q 1556 219 2034 219 
z
M 2034 -91 
Q 1275 -91 848 546 
Q 422 1184 422 2328 
Q 422 3475 848 4112 
Q 1275 4750 2034 4750 
Q 2797 4750 3222 4112 
Q 3647 3475 3647 2328 
Q 3647 1184 3222 546 
Q 2797 -91 2034 -91 
z
" transform="scale(0.015625)"/>
       </defs>
       <use xlink:href="#DejaVuSerif-30"/>
      </g>
     </g>
    </g>
    <g id="xtick_2">
     <g id="text_2">
      <!-- 100 -->
      <g style="fill: #262626" transform="translate(209.59375 377.834141) scale(0.25 -0.25)">
       <defs>
        <path id="DejaVuSerif-31" d="M 909 0 
L 909 331 
L 1722 331 
L 1722 4213 
L 781 3603 
L 781 4013 
L 1919 4750 
L 2350 4750 
L 2350 331 
L 3163 331 
L 3163 0 
L 909 0 
z
" transform="scale(0.015625)"/>
       </defs>
       <use xlink:href="#DejaVuSerif-31"/>
       <use xlink:href="#DejaVuSerif-30" x="63.623047"/>
       <use xlink:href="#DejaVuSerif-30" x="127.246094"/>
      </g>
     </g>
    </g>
    <g id="xtick_3">
     <g id="text_3">
      <!-- 200 -->
      <g style="fill: #262626" transform="translate(358.39375 377.834141) scale(0.25 -0.25)">
       <defs>
        <path id="DejaVuSerif-32" d="M 819 3553 
L 469 3553 
L 469 4384 
Q 803 4563 1142 4656 
Q 1481 4750 1806 4750 
Q 2534 4750 2956 4397 
Q 3378 4044 3378 3438 
Q 3378 2753 2422 1800 
Q 2347 1728 2309 1691 
L 1131 513 
L 3078 513 
L 3078 1088 
L 3444 1088 
L 3444 0 
L 434 0 
L 434 341 
L 1850 1753 
Q 2319 2222 2519 2614 
Q 2719 3006 2719 3438 
Q 2719 3909 2473 4175 
Q 2228 4441 1797 4441 
Q 1350 4441 1106 4219 
Q 863 3997 819 3553 
z
" transform="scale(0.015625)"/>
       </defs>
       <use xlink:href="#DejaVuSerif-32"/>
       <use xlink:href="#DejaVuSerif-30" x="63.623047"/>
       <use xlink:href="#DejaVuSerif-30" x="127.246094"/>
      </g>
     </g>
    </g>
    <g id="xtick_4">
     <g id="text_4">
      <!-- 300 -->
      <g style="fill: #262626" transform="translate(507.19375 377.834141) scale(0.25 -0.25)">
       <defs>
        <path id="DejaVuSerif-33" d="M 622 4469 
Q 988 4606 1323 4678 
Q 1659 4750 1953 4750 
Q 2638 4750 3022 4454 
Q 3406 4159 3406 3634 
Q 3406 3213 3140 2930 
Q 2875 2647 2388 2547 
Q 2963 2466 3280 2130 
Q 3597 1794 3597 1259 
Q 3597 606 3158 257 
Q 2719 -91 1894 -91 
Q 1528 -91 1179 -12 
Q 831 66 488 225 
L 488 1131 
L 838 1131 
Q 869 681 1141 450 
Q 1413 219 1906 219 
Q 2384 219 2661 495 
Q 2938 772 2938 1253 
Q 2938 1803 2653 2086 
Q 2369 2369 1819 2369 
L 1522 2369 
L 1522 2688 
L 1678 2688 
Q 2225 2688 2498 2914 
Q 2772 3141 2772 3597 
Q 2772 4006 2547 4223 
Q 2322 4441 1900 4441 
Q 1478 4441 1245 4241 
Q 1013 4041 972 3647 
L 622 3647 
L 622 4469 
z
" transform="scale(0.015625)"/>
       </defs>
       <use xlink:href="#DejaVuSerif-33"/>
       <use xlink:href="#DejaVuSerif-30" x="63.623047"/>
       <use xlink:href="#DejaVuSerif-30" x="127.246094"/>
      </g>
     </g>
    </g>
    <g id="text_5">
     <!-- Time -->
     <g style="fill: #262626" transform="translate(276.265234 406.029453) scale(0.25 -0.25)">
      <defs>
       <path id="DejaVuSerif-54" d="M 1222 0 
L 1222 331 
L 1819 331 
L 1819 4294 
L 447 4294 
L 447 3566 
L 63 3566 
L 63 4666 
L 4206 4666 
L 4206 3566 
L 3822 3566 
L 3822 4294 
L 2450 4294 
L 2450 331 
L 3047 331 
L 3047 0 
L 1222 0 
z
" transform="scale(0.015625)"/>
       <path id="DejaVuSerif-69" d="M 622 4353 
Q 622 4497 726 4603 
Q 831 4709 978 4709 
Q 1122 4709 1226 4603 
Q 1331 4497 1331 4353 
Q 1331 4206 1228 4103 
Q 1125 4000 978 4000 
Q 831 4000 726 4103 
Q 622 4206 622 4353 
z
M 1356 331 
L 1900 331 
L 1900 0 
L 231 0 
L 231 331 
L 781 331 
L 781 2988 
L 231 2988 
L 231 3322 
L 1356 3322 
L 1356 331 
z
" transform="scale(0.015625)"/>
       <path id="DejaVuSerif-6d" d="M 3316 2675 
Q 3481 3041 3739 3227 
Q 3997 3413 4341 3413 
Q 4863 3413 5119 3089 
Q 5375 2766 5375 2113 
L 5375 331 
L 5894 331 
L 5894 0 
L 4300 0 
L 4300 331 
L 4800 331 
L 4800 2047 
Q 4800 2556 4650 2772 
Q 4500 2988 4153 2988 
Q 3769 2988 3567 2697 
Q 3366 2406 3366 1850 
L 3366 331 
L 3866 331 
L 3866 0 
L 2291 0 
L 2291 331 
L 2791 331 
L 2791 2069 
Q 2791 2566 2641 2777 
Q 2491 2988 2144 2988 
Q 1759 2988 1557 2697 
Q 1356 2406 1356 1850 
L 1356 331 
L 1856 331 
L 1856 0 
L 263 0 
L 263 331 
L 781 331 
L 781 2994 
L 231 2994 
L 231 3322 
L 1356 3322 
L 1356 2731 
Q 1516 3063 1762 3238 
Q 2009 3413 2322 3413 
Q 2709 3413 2968 3220 
Q 3228 3028 3316 2675 
z
" transform="scale(0.015625)"/>
       <path id="DejaVuSerif-65" d="M 3469 1600 
L 991 1600 
L 991 1575 
Q 991 903 1244 561 
Q 1497 219 1991 219 
Q 2369 219 2611 417 
Q 2853 616 2950 1006 
L 3413 1006 
Q 3275 459 2904 184 
Q 2534 -91 1931 -91 
Q 1203 -91 761 389 
Q 319 869 319 1663 
Q 319 2450 753 2931 
Q 1188 3413 1894 3413 
Q 2647 3413 3050 2948 
Q 3453 2484 3469 1600 
z
M 2791 1931 
Q 2772 2513 2545 2808 
Q 2319 3103 1894 3103 
Q 1497 3103 1269 2806 
Q 1041 2509 991 1931 
L 2791 1931 
z
" transform="scale(0.015625)"/>
      </defs>
      <use xlink:href="#DejaVuSerif-54"/>
      <use xlink:href="#DejaVuSerif-69" x="66.699219"/>
      <use xlink:href="#DejaVuSerif-6d" x="98.681641"/>
      <use xlink:href="#DejaVuSerif-65" x="193.505859"/>
     </g>
    </g>
   </g>
   <g id="matplotlib.axis_2">
    <g id="ytick_1">
     <g id="text_6">
      <!-- 0.0 -->
      <g style="fill: #262626" transform="translate(35.395313 358.836094) scale(0.25 -0.25)">
       <defs>
        <path id="DejaVuSerif-2e" d="M 603 325 
Q 603 500 722 622 
Q 841 744 1019 744 
Q 1191 744 1312 622 
Q 1434 500 1434 325 
Q 1434 153 1312 31 
Q 1191 -91 1019 -91 
Q 841 -91 722 29 
Q 603 150 603 325 
z
" transform="scale(0.015625)"/>
       </defs>
       <use xlink:href="#DejaVuSerif-30"/>
       <use xlink:href="#DejaVuSerif-2e" x="63.623047"/>
       <use xlink:href="#DejaVuSerif-30" x="95.410156"/>
      </g>
     </g>
    </g>
    <g id="ytick_2">
     <g id="text_7">
      <!-- 0.2 -->
      <g style="fill: #262626" transform="translate(35.395313 292.308094) scale(0.25 -0.25)">
       <use xlink:href="#DejaVuSerif-30"/>
       <use xlink:href="#DejaVuSerif-2e" x="63.623047"/>
       <use xlink:href="#DejaVuSerif-32" x="95.410156"/>
      </g>
     </g>
    </g>
    <g id="ytick_3">
     <g id="text_8">
      <!-- 0.4 -->
      <g style="fill: #262626" transform="translate(35.395313 225.780094) scale(0.25 -0.25)">
       <defs>
        <path id="DejaVuSerif-34" d="M 2234 1581 
L 2234 4063 
L 641 1581 
L 2234 1581 
z
M 3609 0 
L 1484 0 
L 1484 331 
L 2234 331 
L 2234 1247 
L 197 1247 
L 197 1588 
L 2241 4750 
L 2859 4750 
L 2859 1581 
L 3750 1581 
L 3750 1247 
L 2859 1247 
L 2859 331 
L 3609 331 
L 3609 0 
z
" transform="scale(0.015625)"/>
       </defs>
       <use xlink:href="#DejaVuSerif-30"/>
       <use xlink:href="#DejaVuSerif-2e" x="63.623047"/>
       <use xlink:href="#DejaVuSerif-34" x="95.410156"/>
      </g>
     </g>
    </g>
    <g id="ytick_4">
     <g id="text_9">
      <!-- 0.6 -->
      <g style="fill: #262626" transform="translate(35.395313 159.252094) scale(0.25 -0.25)">
       <defs>
        <path id="DejaVuSerif-36" d="M 2094 219 
Q 2534 219 2771 542 
Q 3009 866 3009 1472 
Q 3009 2078 2771 2401 
Q 2534 2725 2094 2725 
Q 1647 2725 1412 2412 
Q 1178 2100 1178 1509 
Q 1178 888 1415 553 
Q 1653 219 2094 219 
z
M 1075 2569 
Q 1288 2803 1556 2918 
Q 1825 3034 2163 3034 
Q 2859 3034 3264 2615 
Q 3669 2197 3669 1472 
Q 3669 763 3233 336 
Q 2797 -91 2069 -91 
Q 1278 -91 853 498 
Q 428 1088 428 2181 
Q 428 3406 931 4078 
Q 1434 4750 2350 4750 
Q 2597 4750 2869 4703 
Q 3141 4656 3425 4563 
L 3425 3794 
L 3072 3794 
Q 3034 4109 2831 4275 
Q 2628 4441 2284 4441 
Q 1678 4441 1381 3981 
Q 1084 3522 1075 2569 
z
" transform="scale(0.015625)"/>
       </defs>
       <use xlink:href="#DejaVuSerif-30"/>
       <use xlink:href="#DejaVuSerif-2e" x="63.623047"/>
       <use xlink:href="#DejaVuSerif-36" x="95.410156"/>
      </g>
     </g>
    </g>
    <g id="ytick_5">
     <g id="text_10">
      <!-- 0.8 -->
      <g style="fill: #262626" transform="translate(35.395313 92.724094) scale(0.25 -0.25)">
       <defs>
        <path id="DejaVuSerif-38" d="M 2981 1275 
Q 2981 1775 2732 2051 
Q 2484 2328 2034 2328 
Q 1584 2328 1336 2051 
Q 1088 1775 1088 1275 
Q 1088 772 1336 495 
Q 1584 219 2034 219 
Q 2484 219 2732 495 
Q 2981 772 2981 1275 
z
M 2853 3541 
Q 2853 3966 2637 4203 
Q 2422 4441 2034 4441 
Q 1650 4441 1433 4203 
Q 1216 3966 1216 3541 
Q 1216 3113 1433 2875 
Q 1650 2638 2034 2638 
Q 2422 2638 2637 2875 
Q 2853 3113 2853 3541 
z
M 2516 2484 
Q 3047 2413 3344 2092 
Q 3641 1772 3641 1275 
Q 3641 619 3225 264 
Q 2809 -91 2034 -91 
Q 1263 -91 845 264 
Q 428 619 428 1275 
Q 428 1772 725 2092 
Q 1022 2413 1556 2484 
Q 1084 2569 832 2842 
Q 581 3116 581 3541 
Q 581 4103 968 4426 
Q 1356 4750 2034 4750 
Q 2713 4750 3100 4426 
Q 3488 4103 3488 3541 
Q 3488 3116 3236 2842 
Q 2984 2569 2516 2484 
z
" transform="scale(0.015625)"/>
       </defs>
       <use xlink:href="#DejaVuSerif-30"/>
       <use xlink:href="#DejaVuSerif-2e" x="63.623047"/>
       <use xlink:href="#DejaVuSerif-38" x="95.410156"/>
      </g>
     </g>
    </g>
    <g id="ytick_6">
     <g id="text_11">
      <!-- 1.0 -->
      <g style="fill: #262626" transform="translate(35.395313 26.196094) scale(0.25 -0.25)">
       <use xlink:href="#DejaVuSerif-31"/>
       <use xlink:href="#DejaVuSerif-2e" x="63.623047"/>
       <use xlink:href="#DejaVuSerif-30" x="95.410156"/>
      </g>
     </g>
    </g>
    <g id="text_12">
     <!-- Fraction of infected nodes -->
     <g style="fill: #262626" transform="translate(26.196094 349.67625) rotate(-90) scale(0.25 -0.25)">
      <defs>
       <path id="DejaVuSerif-46" d="M 353 0 
L 353 331 
L 947 331 
L 947 4331 
L 353 4331 
L 353 4666 
L 4172 4666 
L 4172 3628 
L 3788 3628 
L 3788 4281 
L 1581 4281 
L 1581 2719 
L 3175 2719 
L 3175 3303 
L 3559 3303 
L 3559 1753 
L 3175 1753 
L 3175 2338 
L 1581 2338 
L 1581 331 
L 2328 331 
L 2328 0 
L 353 0 
z
" transform="scale(0.015625)"/>
       <path id="DejaVuSerif-72" d="M 3059 3328 
L 3059 2497 
L 2728 2497 
Q 2713 2744 2591 2866 
Q 2469 2988 2234 2988 
Q 1809 2988 1582 2694 
Q 1356 2400 1356 1850 
L 1356 331 
L 2022 331 
L 2022 0 
L 263 0 
L 263 331 
L 781 331 
L 781 2994 
L 231 2994 
L 231 3322 
L 1356 3322 
L 1356 2731 
Q 1525 3078 1790 3245 
Q 2056 3413 2438 3413 
Q 2578 3413 2733 3391 
Q 2888 3369 3059 3328 
z
" transform="scale(0.015625)"/>
       <path id="DejaVuSerif-61" d="M 2547 1044 
L 2547 1747 
L 1806 1747 
Q 1378 1747 1168 1562 
Q 959 1378 959 997 
Q 959 650 1171 447 
Q 1384 244 1747 244 
Q 2106 244 2326 466 
Q 2547 688 2547 1044 
z
M 3122 2075 
L 3122 331 
L 3634 331 
L 3634 0 
L 2547 0 
L 2547 359 
Q 2356 128 2106 18 
Q 1856 -91 1522 -91 
Q 969 -91 644 203 
Q 319 497 319 997 
Q 319 1513 691 1797 
Q 1063 2081 1741 2081 
L 2547 2081 
L 2547 2309 
Q 2547 2688 2317 2895 
Q 2088 3103 1672 3103 
Q 1328 3103 1125 2947 
Q 922 2791 872 2484 
L 575 2484 
L 575 3156 
Q 875 3284 1158 3348 
Q 1441 3413 1709 3413 
Q 2400 3413 2761 3070 
Q 3122 2728 3122 2075 
z
" transform="scale(0.015625)"/>
       <path id="DejaVuSerif-63" d="M 3291 997 
Q 3169 466 2822 187 
Q 2475 -91 1925 -91 
Q 1200 -91 759 389 
Q 319 869 319 1663 
Q 319 2459 759 2936 
Q 1200 3413 1925 3413 
Q 2241 3413 2553 3339 
Q 2866 3266 3181 3116 
L 3181 2266 
L 2847 2266 
Q 2781 2703 2561 2903 
Q 2341 3103 1931 3103 
Q 1466 3103 1228 2742 
Q 991 2381 991 1663 
Q 991 944 1227 581 
Q 1463 219 1931 219 
Q 2303 219 2525 412 
Q 2747 606 2828 997 
L 3291 997 
z
" transform="scale(0.015625)"/>
       <path id="DejaVuSerif-74" d="M 691 2988 
L 184 2988 
L 184 3322 
L 691 3322 
L 691 4353 
L 1269 4353 
L 1269 3322 
L 2350 3322 
L 2350 2988 
L 1269 2988 
L 1269 878 
Q 1269 456 1350 337 
Q 1431 219 1650 219 
Q 1875 219 1978 351 
Q 2081 484 2088 781 
L 2522 781 
Q 2497 328 2275 118 
Q 2053 -91 1600 -91 
Q 1103 -91 897 129 
Q 691 350 691 878 
L 691 2988 
z
" transform="scale(0.015625)"/>
       <path id="DejaVuSerif-6f" d="M 1925 219 
Q 2388 219 2623 584 
Q 2859 950 2859 1663 
Q 2859 2375 2623 2739 
Q 2388 3103 1925 3103 
Q 1463 3103 1227 2739 
Q 991 2375 991 1663 
Q 991 950 1228 584 
Q 1466 219 1925 219 
z
M 1925 -91 
Q 1200 -91 759 389 
Q 319 869 319 1663 
Q 319 2456 758 2934 
Q 1197 3413 1925 3413 
Q 2653 3413 3092 2934 
Q 3531 2456 3531 1663 
Q 3531 869 3092 389 
Q 2653 -91 1925 -91 
z
" transform="scale(0.015625)"/>
       <path id="DejaVuSerif-6e" d="M 263 0 
L 263 331 
L 781 331 
L 781 2988 
L 231 2988 
L 231 3322 
L 1356 3322 
L 1356 2731 
Q 1516 3069 1770 3241 
Q 2025 3413 2363 3413 
Q 2913 3413 3172 3097 
Q 3431 2781 3431 2113 
L 3431 331 
L 3944 331 
L 3944 0 
L 2356 0 
L 2356 331 
L 2853 331 
L 2853 1931 
Q 2853 2541 2703 2767 
Q 2553 2994 2175 2994 
Q 1775 2994 1565 2701 
Q 1356 2409 1356 1850 
L 1356 331 
L 1856 331 
L 1856 0 
L 263 0 
z
" transform="scale(0.015625)"/>
       <path id="DejaVuSerif-20" transform="scale(0.015625)"/>
       <path id="DejaVuSerif-66" d="M 2753 4078 
L 2450 4078 
Q 2447 4313 2317 4434 
Q 2188 4556 1941 4556 
Q 1619 4556 1487 4379 
Q 1356 4203 1356 3750 
L 1356 3322 
L 2284 3322 
L 2284 2988 
L 1356 2988 
L 1356 331 
L 2094 331 
L 2094 0 
L 231 0 
L 231 331 
L 781 331 
L 781 2988 
L 231 2988 
L 231 3322 
L 781 3322 
L 781 3738 
Q 781 4294 1070 4578 
Q 1359 4863 1919 4863 
Q 2128 4863 2337 4825 
Q 2547 4788 2753 4709 
L 2753 4078 
z
" transform="scale(0.015625)"/>
       <path id="DejaVuSerif-64" d="M 3359 331 
L 3909 331 
L 3909 0 
L 2784 0 
L 2784 519 
Q 2616 206 2355 57 
Q 2094 -91 1709 -91 
Q 1097 -91 708 395 
Q 319 881 319 1663 
Q 319 2444 706 2928 
Q 1094 3413 1709 3413 
Q 2094 3413 2355 3264 
Q 2616 3116 2784 2803 
L 2784 4531 
L 2241 4531 
L 2241 4863 
L 3359 4863 
L 3359 331 
z
M 2784 1497 
L 2784 1825 
Q 2784 2422 2554 2737 
Q 2325 3053 1888 3053 
Q 1444 3053 1217 2703 
Q 991 2353 991 1663 
Q 991 975 1217 622 
Q 1444 269 1888 269 
Q 2325 269 2554 583 
Q 2784 897 2784 1497 
z
" transform="scale(0.015625)"/>
       <path id="DejaVuSerif-73" d="M 359 184 
L 359 959 
L 691 959 
Q 703 588 923 403 
Q 1144 219 1575 219 
Q 1963 219 2166 364 
Q 2369 509 2369 788 
Q 2369 1006 2220 1140 
Q 2072 1275 1594 1428 
L 1178 1569 
Q 750 1706 558 1912 
Q 366 2119 366 2438 
Q 366 2894 700 3153 
Q 1034 3413 1625 3413 
Q 1888 3413 2178 3344 
Q 2469 3275 2778 3144 
L 2778 2419 
L 2447 2419 
Q 2434 2741 2221 2922 
Q 2009 3103 1644 3103 
Q 1281 3103 1095 2975 
Q 909 2847 909 2591 
Q 909 2381 1050 2254 
Q 1191 2128 1613 1997 
L 2069 1856 
Q 2541 1709 2748 1489 
Q 2956 1269 2956 922 
Q 2956 450 2595 179 
Q 2234 -91 1600 -91 
Q 1278 -91 972 -22 
Q 666 47 359 184 
z
" transform="scale(0.015625)"/>
      </defs>
      <use xlink:href="#DejaVuSerif-46"/>
      <use xlink:href="#DejaVuSerif-72" x="69.384766"/>
      <use xlink:href="#DejaVuSerif-61" x="117.1875"/>
      <use xlink:href="#DejaVuSerif-63" x="176.806641"/>
      <use xlink:href="#DejaVuSerif-74" x="232.8125"/>
      <use xlink:href="#DejaVuSerif-69" x="272.998047"/>
      <use xlink:href="#DejaVuSerif-6f" x="304.980469"/>
      <use xlink:href="#DejaVuSerif-6e" x="365.185547"/>
      <use xlink:href="#DejaVuSerif-20" x="429.589844"/>
      <use xlink:href="#DejaVuSerif-6f" x="461.376953"/>
      <use xlink:href="#DejaVuSerif-66" x="521.582031"/>
      <use xlink:href="#DejaVuSerif-20" x="558.59375"/>
      <use xlink:href="#DejaVuSerif-69" x="590.380859"/>
      <use xlink:href="#DejaVuSerif-6e" x="622.363281"/>
      <use xlink:href="#DejaVuSerif-66" x="686.767578"/>
      <use xlink:href="#DejaVuSerif-65" x="723.779297"/>
      <use xlink:href="#DejaVuSerif-63" x="782.958984"/>
      <use xlink:href="#DejaVuSerif-74" x="838.964844"/>
      <use xlink:href="#DejaVuSerif-65" x="879.150391"/>
      <use xlink:href="#DejaVuSerif-64" x="938.330078"/>
      <use xlink:href="#DejaVuSerif-20" x="1002.34375"/>
      <use xlink:href="#DejaVuSerif-6e" x="1034.130859"/>
      <use xlink:href="#DejaVuSerif-6f" x="1098.535156"/>
      <use xlink:href="#DejaVuSerif-64" x="1158.740234"/>
      <use xlink:href="#DejaVuSerif-65" x="1222.753906"/>
      <use xlink:href="#DejaVuSerif-73" x="1281.933594"/>
     </g>
    </g>
   </g>
   <g id="line2d_1">
    <path d="M 84.653125 183.526671 
L 86.141125 158.095478 
L 89.117125 124.526304 
L 90.605125 106.215845 
L 92.093125 99.095111 
L 93.581125 98.077863 
L 95.069125 87.905386 
L 96.557125 80.784652 
L 98.045125 83.836395 
L 101.021125 85.870891 
L 102.509125 79.767405 
L 103.997125 84.853643 
L 105.485125 82.819148 
L 106.973125 79.767405 
L 108.461125 80.784652 
L 109.949125 80.784652 
L 111.437125 84.853643 
L 112.925125 72.646671 
L 114.413125 73.663918 
L 115.901125 73.663918 
L 117.389125 70.612175 
L 118.877125 68.57768 
L 120.365125 64.508689 
L 121.853125 67.560432 
L 123.341125 72.646671 
L 124.829125 71.629423 
L 126.317125 67.560432 
L 127.805125 66.543184 
L 129.293125 67.560432 
L 130.781125 72.646671 
L 132.269125 74.681166 
L 133.757125 73.663918 
L 135.245125 71.629423 
L 136.733125 76.715662 
L 138.221125 80.784652 
L 139.709125 77.732909 
L 141.197125 77.732909 
L 142.685125 70.612175 
L 144.173125 72.646671 
L 147.149125 70.612175 
L 148.637125 76.715662 
L 150.125125 77.732909 
L 151.613125 69.594928 
L 153.101125 67.560432 
L 154.589125 75.698414 
L 156.077125 73.663918 
L 157.565125 73.663918 
L 159.053125 71.629423 
L 160.541125 68.57768 
L 162.029125 64.508689 
L 163.517125 68.57768 
L 165.005125 71.629423 
L 166.493125 70.612175 
L 167.981125 67.560432 
L 169.469125 68.57768 
L 172.445125 80.784652 
L 173.933125 80.784652 
L 175.421125 81.8019 
L 176.909125 78.750157 
L 178.397125 74.681166 
L 179.885125 78.750157 
L 181.373125 74.681166 
L 182.861125 72.646671 
L 184.349125 69.594928 
L 185.837125 73.663918 
L 187.325125 67.560432 
L 188.813125 76.715662 
L 190.301125 76.715662 
L 191.789125 67.560432 
L 193.277125 69.594928 
L 194.765125 73.663918 
L 196.253125 64.508689 
L 197.741125 67.560432 
L 199.229125 79.767405 
L 200.717125 68.57768 
L 202.205125 70.612175 
L 203.693125 73.663918 
L 205.181125 69.594928 
L 206.669125 68.57768 
L 208.157125 68.57768 
L 209.645125 70.612175 
L 211.133125 71.629423 
L 212.621125 66.543184 
L 214.109125 71.629423 
L 215.597125 71.629423 
L 217.085125 75.698414 
L 218.573125 70.612175 
L 220.061125 79.767405 
L 221.549125 77.732909 
L 223.037125 70.612175 
L 224.525125 75.698414 
L 226.013125 79.767405 
L 227.501125 85.870891 
L 228.989125 86.888139 
L 230.477125 92.991625 
L 231.965125 101.129607 
L 233.453125 95.02612 
L 234.941125 92.991625 
L 236.429125 91.974377 
L 237.917125 80.784652 
L 240.893125 84.853643 
L 242.381125 72.646671 
L 243.869125 73.663918 
L 245.357125 68.57768 
L 246.845125 73.663918 
L 248.333125 74.681166 
L 249.821125 65.525937 
L 251.309125 68.57768 
L 252.797125 65.525937 
L 254.285125 63.491441 
L 255.773125 64.508689 
L 257.261125 66.543184 
L 258.749125 67.560432 
L 260.237125 73.663918 
L 261.725125 76.715662 
L 263.213125 65.525937 
L 264.701125 60.439698 
L 266.189125 70.612175 
L 267.677125 64.508689 
L 269.165125 65.525937 
L 270.653125 65.525937 
L 272.141125 66.543184 
L 275.117125 70.612175 
L 276.605125 71.629423 
L 278.093125 69.594928 
L 279.581125 70.612175 
L 281.069125 73.663918 
L 282.557125 75.698414 
L 284.045125 70.612175 
L 285.533125 68.57768 
L 288.509125 82.819148 
L 289.997125 69.594928 
L 291.485125 70.612175 
L 292.973125 79.767405 
L 294.461125 81.8019 
L 295.949125 87.905386 
L 297.437125 84.853643 
L 298.925125 86.888139 
L 300.413125 82.819148 
L 301.901125 90.957129 
L 303.389125 82.819148 
L 304.877125 84.853643 
L 306.365125 82.819148 
L 307.853125 91.974377 
L 309.341125 89.939882 
L 310.829125 79.767405 
L 312.317125 78.750157 
L 313.805125 79.767405 
L 315.293125 83.836395 
L 316.781125 85.870891 
L 318.269125 89.939882 
L 319.757125 88.922634 
L 321.245125 89.939882 
L 322.733125 83.836395 
L 324.221125 78.750157 
L 325.709125 83.836395 
L 327.197125 91.974377 
L 328.685125 73.663918 
L 330.173125 74.681166 
L 331.661125 77.732909 
L 333.149125 72.646671 
L 334.637125 68.57768 
L 336.125125 69.594928 
L 337.613125 73.663918 
L 339.101125 68.57768 
L 340.589125 74.681166 
L 342.077125 70.612175 
L 343.565125 82.819148 
L 345.053125 83.836395 
L 346.541125 86.888139 
L 348.029125 83.836395 
L 349.517125 91.974377 
L 351.005125 91.974377 
L 352.493125 90.957129 
L 353.981125 87.905386 
L 355.469125 81.8019 
L 356.957125 85.870891 
L 358.445125 91.974377 
L 359.933125 85.870891 
L 361.421125 83.836395 
L 362.909125 78.750157 
L 364.397125 85.870891 
L 365.885125 82.819148 
L 367.373125 88.922634 
L 368.861125 77.732909 
L 370.349125 78.750157 
L 371.837125 81.8019 
L 373.325125 85.870891 
L 374.813125 81.8019 
L 376.301125 73.663918 
L 377.789125 76.715662 
L 379.277125 72.646671 
L 380.765125 73.663918 
L 382.253125 80.784652 
L 383.741125 77.732909 
L 385.229125 68.57768 
L 386.717125 66.543184 
L 389.693125 64.508689 
L 392.669125 70.612175 
L 394.157125 71.629423 
L 395.645125 80.784652 
L 397.133125 83.836395 
L 398.621125 85.870891 
L 400.109125 74.681166 
L 401.597125 69.594928 
L 403.085125 71.629423 
L 404.573125 67.560432 
L 406.061125 68.57768 
L 407.549125 73.663918 
L 409.037125 72.646671 
L 410.525125 64.508689 
L 412.013125 65.525937 
L 413.501125 70.612175 
L 414.989125 77.732909 
L 416.477125 70.612175 
L 417.965125 75.698414 
L 419.453125 82.819148 
L 420.941125 83.836395 
L 422.429125 83.836395 
L 423.917125 80.784652 
L 425.405125 84.853643 
L 426.893125 80.784652 
L 428.381125 83.836395 
L 429.869125 83.836395 
L 431.357125 84.853643 
L 432.845125 90.957129 
L 434.333125 91.974377 
L 435.821125 90.957129 
L 437.309125 88.922634 
L 438.797125 77.732909 
L 440.285125 74.681166 
L 441.773125 84.853643 
L 443.261125 83.836395 
L 444.749125 81.8019 
L 446.237125 82.819148 
L 447.725125 86.888139 
L 449.213125 87.905386 
L 450.701125 94.008873 
L 452.189125 88.922634 
L 453.677125 88.922634 
L 455.165125 83.836395 
L 456.653125 83.836395 
L 458.141125 82.819148 
L 459.629125 86.888139 
L 461.117125 78.750157 
L 462.605125 76.715662 
L 464.093125 67.560432 
L 465.581125 69.594928 
L 467.069125 74.681166 
L 468.557125 76.715662 
L 470.045125 66.543184 
L 471.533125 65.525937 
L 473.021125 73.663918 
L 474.509125 75.698414 
L 475.997125 76.715662 
L 477.485125 74.681166 
L 478.973125 68.57768 
L 480.461125 66.543184 
L 481.949125 72.646671 
L 483.437125 67.560432 
L 484.925125 74.681166 
L 486.413125 72.646671 
L 487.901125 71.629423 
L 489.389125 87.905386 
L 490.877125 83.836395 
L 492.365125 85.870891 
L 493.853125 73.663918 
L 495.341125 70.612175 
L 496.829125 72.646671 
L 498.317125 79.767405 
L 499.805125 78.750157 
L 501.293125 85.870891 
L 502.781125 91.974377 
L 504.269125 80.784652 
L 505.757125 75.698414 
L 507.245125 80.784652 
L 508.733125 71.629423 
L 510.221125 76.715662 
L 511.709125 72.646671 
L 513.197125 84.853643 
L 514.685125 71.629423 
L 516.173125 70.612175 
L 517.661125 75.698414 
L 519.149125 71.629423 
L 520.637125 63.491441 
L 522.125125 74.681166 
L 523.613125 73.663918 
L 525.101125 63.491441 
L 526.589125 74.681166 
L 528.077125 81.8019 
L 529.565125 75.698414 
L 531.053125 82.819148 
L 532.541125 63.491441 
L 534.029125 71.629423 
L 535.517125 72.646671 
L 537.005125 78.750157 
L 538.493125 70.612175 
L 539.981125 73.663918 
L 542.957125 69.594928 
L 544.445125 83.836395 
L 545.933125 80.784652 
L 547.421125 75.698414 
L 548.909125 62.474194 
L 550.397125 67.560432 
L 551.885125 65.525937 
L 553.373125 71.629423 
L 554.861125 67.560432 
L 556.349125 60.439698 
L 557.837125 66.543184 
L 559.325125 73.663918 
L 560.813125 66.543184 
L 562.301125 73.663918 
L 563.1125 70.8905 
L 563.1125 70.8905 
" clip-path="url(#p2efd83fee4)" style="fill: none; stroke: #386cb0; stroke-width: 2; stroke-linecap: round"/>
   </g>
   <g id="line2d_2">
    <path d="M 84.653125 183.526671 
L 86.141125 188.612909 
L 87.629125 198.785386 
L 89.117125 198.785386 
L 90.605125 207.940616 
L 92.093125 210.992359 
L 93.581125 216.078597 
L 95.069125 217.095845 
L 96.557125 221.164836 
L 98.045125 222.182084 
L 99.533125 219.13034 
L 101.021125 220.147588 
L 102.509125 223.199331 
L 103.997125 227.268322 
L 105.485125 225.233827 
L 106.973125 224.216579 
L 109.949125 232.354561 
L 111.437125 234.389056 
L 112.925125 239.475295 
L 115.901125 243.544285 
L 117.389125 248.630524 
L 118.877125 247.613276 
L 120.365125 249.647772 
L 121.853125 254.73401 
L 123.341125 255.751258 
L 124.829125 254.73401 
L 126.317125 250.665019 
L 127.805125 255.751258 
L 129.293125 256.768506 
L 132.269125 254.73401 
L 133.757125 256.768506 
L 135.245125 257.785753 
L 136.733125 256.768506 
L 138.221125 253.716762 
L 139.709125 258.803001 
L 141.197125 260.837496 
L 142.685125 264.906487 
L 144.173125 264.906487 
L 145.661125 265.923735 
L 147.149125 265.923735 
L 148.637125 272.027221 
L 151.613125 274.061717 
L 153.101125 274.061717 
L 154.589125 275.078964 
L 156.077125 275.078964 
L 157.565125 277.11346 
L 159.053125 275.078964 
L 160.541125 278.130707 
L 162.029125 278.130707 
L 163.517125 280.165203 
L 165.005125 285.251441 
L 167.981125 291.354928 
L 169.469125 295.423918 
L 170.957125 296.441166 
L 173.933125 300.510157 
L 175.421125 303.5619 
L 176.909125 308.648139 
L 178.397125 310.682634 
L 179.885125 310.682634 
L 181.373125 308.648139 
L 182.861125 305.596395 
L 184.349125 309.665386 
L 185.837125 309.665386 
L 187.325125 312.717129 
L 190.301125 312.717129 
L 191.789125 315.768873 
L 193.277125 317.803368 
L 196.253125 317.803368 
L 197.741125 314.751625 
L 199.229125 312.717129 
L 200.717125 314.751625 
L 202.205125 313.734377 
L 205.181125 319.837863 
L 206.669125 320.855111 
L 208.157125 316.78612 
L 209.645125 315.768873 
L 211.133125 315.768873 
L 212.621125 316.78612 
L 214.109125 316.78612 
L 215.597125 314.751625 
L 218.573125 316.78612 
L 220.061125 316.78612 
L 221.549125 315.768873 
L 223.037125 315.768873 
L 224.525125 314.751625 
L 226.013125 315.768873 
L 227.501125 314.751625 
L 228.989125 315.768873 
L 230.477125 314.751625 
L 231.965125 314.751625 
L 233.453125 312.717129 
L 234.941125 314.751625 
L 237.917125 314.751625 
L 239.405125 313.734377 
L 240.893125 315.768873 
L 242.381125 319.837863 
L 243.869125 321.872359 
L 245.357125 324.924102 
L 246.845125 324.924102 
L 248.333125 328.993093 
L 249.821125 328.993093 
L 251.309125 330.01034 
L 252.797125 330.01034 
L 254.285125 328.993093 
L 255.773125 331.027588 
L 257.261125 331.027588 
L 258.749125 332.044836 
L 260.237125 330.01034 
L 263.213125 330.01034 
L 264.701125 328.993093 
L 266.189125 328.993093 
L 267.677125 330.01034 
L 270.653125 330.01034 
L 272.141125 326.958597 
L 273.629125 331.027588 
L 275.117125 330.01034 
L 276.605125 331.027588 
L 278.093125 331.027588 
L 279.581125 332.044836 
L 281.069125 332.044836 
L 282.557125 330.01034 
L 284.045125 331.027588 
L 285.533125 331.027588 
L 287.021125 332.044836 
L 289.997125 330.01034 
L 292.973125 330.01034 
L 294.461125 331.027588 
L 295.949125 333.062084 
L 297.437125 332.044836 
L 298.925125 332.044836 
L 300.413125 330.01034 
L 301.901125 328.993093 
L 303.389125 330.01034 
L 304.877125 330.01034 
L 306.365125 328.993093 
L 307.853125 331.027588 
L 309.341125 330.01034 
L 310.829125 332.044836 
L 312.317125 331.027588 
L 315.293125 331.027588 
L 316.781125 332.044836 
L 318.269125 331.027588 
L 319.757125 328.993093 
L 321.245125 328.993093 
L 324.221125 331.027588 
L 325.709125 330.01034 
L 328.685125 330.01034 
L 330.173125 328.993093 
L 331.661125 326.958597 
L 333.149125 326.958597 
L 334.637125 324.924102 
L 336.125125 323.906854 
L 337.613125 324.924102 
L 339.101125 323.906854 
L 342.077125 327.975845 
L 345.053125 327.975845 
L 346.541125 332.044836 
L 348.029125 335.096579 
L 349.517125 335.096579 
L 351.005125 337.131074 
L 353.981125 337.131074 
L 356.957125 339.16557 
L 358.445125 339.16557 
L 359.933125 340.182818 
L 362.909125 340.182818 
L 364.397125 339.16557 
L 367.373125 341.200065 
L 368.861125 344.251808 
L 370.349125 342.217313 
L 374.813125 342.217313 
L 376.301125 343.234561 
L 377.789125 341.200065 
L 379.277125 341.200065 
L 383.741125 344.251808 
L 385.229125 344.251808 
L 386.717125 343.234561 
L 388.205125 343.234561 
L 389.693125 344.251808 
L 391.181125 343.234561 
L 394.157125 343.234561 
L 395.645125 344.251808 
L 404.573125 344.251808 
L 406.061125 342.217313 
L 410.525125 342.217313 
L 412.013125 343.234561 
L 414.989125 343.234561 
L 416.477125 344.251808 
L 417.965125 343.234561 
L 419.453125 343.234561 
L 420.941125 344.251808 
L 425.405125 344.251808 
L 426.893125 342.217313 
L 428.381125 342.217313 
L 429.869125 343.234561 
L 431.357125 342.217313 
L 432.845125 343.234561 
L 435.821125 343.234561 
L 437.309125 342.217313 
L 443.261125 342.217313 
L 446.237125 344.251808 
L 447.725125 343.234561 
L 450.701125 345.269056 
L 458.141125 345.269056 
L 459.629125 344.251808 
L 462.605125 344.251808 
L 465.581125 346.286304 
L 467.069125 344.251808 
L 473.021125 348.320799 
L 474.509125 348.320799 
L 475.997125 347.303551 
L 487.901125 347.303551 
L 489.389125 348.320799 
L 498.317125 348.320799 
L 499.805125 349.338047 
L 563.1125 349.338047 
L 563.1125 349.338047 
" clip-path="url(#p2efd83fee4)" style="fill: none; stroke: #f0027f; stroke-width: 2; stroke-linecap: round"/>
   </g>
   <g id="patch_3">
    <path d="M 84.653125 349.338047 
L 84.653125 16.698047 
" style="fill: none; stroke: #262626; stroke-width: 1.25; stroke-linejoin: miter; stroke-linecap: square"/>
   </g>
   <g id="patch_4">
    <path d="M 84.653125 349.338047 
L 531.053125 349.338047 
" style="fill: none; stroke: #262626; stroke-width: 1.25; stroke-linejoin: miter; stroke-linecap: square"/>
   </g>
   <g id="legend_1">
    <g id="line2d_3">
     <path d="M 135.603125 166.574297 
L 155.603125 166.574297 
L 175.603125 166.574297 
" style="fill: none; stroke: #386cb0; stroke-width: 2; stroke-linecap: round"/>
    </g>
    <g id="text_13">
     <!-- With higher-order infections -->
     <g style="fill: #262626" transform="translate(191.603125 173.574297) scale(0.2 -0.2)">
      <defs>
       <path id="DejaVuSerif-57" d="M 4878 0 
L 4366 0 
L 3297 3794 
L 2228 0 
L 1716 0 
L 494 4331 
L 31 4331 
L 31 4666 
L 1734 4666 
L 1734 4331 
L 1153 4331 
L 2125 884 
L 3188 4666 
L 3694 4666 
L 4775 844 
L 5753 4331 
L 5216 4331 
L 5216 4666 
L 6559 4666 
L 6559 4331 
L 6100 4331 
L 4878 0 
z
" transform="scale(0.015625)"/>
       <path id="DejaVuSerif-68" d="M 263 0 
L 263 331 
L 781 331 
L 781 4531 
L 231 4531 
L 231 4863 
L 1356 4863 
L 1356 2731 
Q 1516 3069 1770 3241 
Q 2025 3413 2363 3413 
Q 2913 3413 3172 3097 
Q 3431 2781 3431 2113 
L 3431 331 
L 3944 331 
L 3944 0 
L 2356 0 
L 2356 331 
L 2853 331 
L 2853 1931 
Q 2853 2541 2704 2764 
Q 2556 2988 2175 2988 
Q 1775 2988 1565 2697 
Q 1356 2406 1356 1850 
L 1356 331 
L 1856 331 
L 1856 0 
L 263 0 
z
" transform="scale(0.015625)"/>
       <path id="DejaVuSerif-67" d="M 3359 2988 
L 3359 72 
Q 3359 -644 2965 -1033 
Q 2572 -1422 1844 -1422 
Q 1516 -1422 1216 -1362 
Q 916 -1303 641 -1184 
L 641 -488 
L 941 -488 
Q 997 -813 1206 -963 
Q 1416 -1113 1806 -1113 
Q 2313 -1113 2548 -827 
Q 2784 -541 2784 72 
L 2784 519 
Q 2616 206 2355 57 
Q 2094 -91 1709 -91 
Q 1097 -91 708 395 
Q 319 881 319 1663 
Q 319 2444 706 2928 
Q 1094 3413 1709 3413 
Q 2094 3413 2355 3264 
Q 2616 3116 2784 2803 
L 2784 3322 
L 3909 3322 
L 3909 2988 
L 3359 2988 
z
M 2784 1825 
Q 2784 2422 2554 2737 
Q 2325 3053 1888 3053 
Q 1444 3053 1217 2703 
Q 991 2353 991 1663 
Q 991 975 1217 622 
Q 1444 269 1888 269 
Q 2325 269 2554 583 
Q 2784 897 2784 1497 
L 2784 1825 
z
" transform="scale(0.015625)"/>
       <path id="DejaVuSerif-2d" d="M 281 1959 
L 1881 1959 
L 1881 1472 
L 281 1472 
L 281 1959 
z
" transform="scale(0.015625)"/>
      </defs>
      <use xlink:href="#DejaVuSerif-57"/>
      <use xlink:href="#DejaVuSerif-69" x="101.033203"/>
      <use xlink:href="#DejaVuSerif-74" x="133.015625"/>
      <use xlink:href="#DejaVuSerif-68" x="173.201172"/>
      <use xlink:href="#DejaVuSerif-20" x="237.605469"/>
      <use xlink:href="#DejaVuSerif-68" x="269.392578"/>
      <use xlink:href="#DejaVuSerif-69" x="333.796875"/>
      <use xlink:href="#DejaVuSerif-67" x="365.779297"/>
      <use xlink:href="#DejaVuSerif-68" x="429.792969"/>
      <use xlink:href="#DejaVuSerif-65" x="494.197266"/>
      <use xlink:href="#DejaVuSerif-72" x="553.376953"/>
      <use xlink:href="#DejaVuSerif-2d" x="601.179688"/>
      <use xlink:href="#DejaVuSerif-6f" x="634.96875"/>
      <use xlink:href="#DejaVuSerif-72" x="695.173828"/>
      <use xlink:href="#DejaVuSerif-64" x="742.976562"/>
      <use xlink:href="#DejaVuSerif-65" x="806.990234"/>
      <use xlink:href="#DejaVuSerif-72" x="866.169922"/>
      <use xlink:href="#DejaVuSerif-20" x="913.972656"/>
      <use xlink:href="#DejaVuSerif-69" x="945.759766"/>
      <use xlink:href="#DejaVuSerif-6e" x="977.742188"/>
      <use xlink:href="#DejaVuSerif-66" x="1042.146484"/>
      <use xlink:href="#DejaVuSerif-65" x="1079.158203"/>
      <use xlink:href="#DejaVuSerif-63" x="1138.337891"/>
      <use xlink:href="#DejaVuSerif-74" x="1194.34375"/>
      <use xlink:href="#DejaVuSerif-69" x="1234.529297"/>
      <use xlink:href="#DejaVuSerif-6f" x="1266.511719"/>
      <use xlink:href="#DejaVuSerif-6e" x="1326.716797"/>
      <use xlink:href="#DejaVuSerif-73" x="1391.121094"/>
     </g>
    </g>
    <g id="line2d_4">
     <path d="M 135.603125 196.214922 
L 155.603125 196.214922 
L 175.603125 196.214922 
" style="fill: none; stroke: #f0027f; stroke-width: 2; stroke-linecap: round"/>
    </g>
    <g id="text_14">
     <!-- Without higher-order infections -->
     <g style="fill: #262626" transform="translate(191.603125 203.214922) scale(0.2 -0.2)">
      <defs>
       <path id="DejaVuSerif-75" d="M 2266 3322 
L 3341 3322 
L 3341 331 
L 3884 331 
L 3884 0 
L 2766 0 
L 2766 588 
Q 2606 256 2353 82 
Q 2100 -91 1766 -91 
Q 1213 -91 952 223 
Q 691 538 691 1209 
L 691 2988 
L 172 2988 
L 172 3322 
L 1269 3322 
L 1269 1388 
Q 1269 781 1417 556 
Q 1566 331 1947 331 
Q 2347 331 2556 625 
Q 2766 919 2766 1478 
L 2766 2988 
L 2266 2988 
L 2266 3322 
z
" transform="scale(0.015625)"/>
      </defs>
      <use xlink:href="#DejaVuSerif-57"/>
      <use xlink:href="#DejaVuSerif-69" x="101.033203"/>
      <use xlink:href="#DejaVuSerif-74" x="133.015625"/>
      <use xlink:href="#DejaVuSerif-68" x="173.201172"/>
      <use xlink:href="#DejaVuSerif-6f" x="237.605469"/>
      <use xlink:href="#DejaVuSerif-75" x="297.810547"/>
      <use xlink:href="#DejaVuSerif-74" x="362.214844"/>
      <use xlink:href="#DejaVuSerif-20" x="402.400391"/>
      <use xlink:href="#DejaVuSerif-68" x="434.1875"/>
      <use xlink:href="#DejaVuSerif-69" x="498.591797"/>
      <use xlink:href="#DejaVuSerif-67" x="530.574219"/>
      <use xlink:href="#DejaVuSerif-68" x="594.587891"/>
      <use xlink:href="#DejaVuSerif-65" x="658.992188"/>
      <use xlink:href="#DejaVuSerif-72" x="718.171875"/>
      <use xlink:href="#DejaVuSerif-2d" x="765.974609"/>
      <use xlink:href="#DejaVuSerif-6f" x="799.763672"/>
      <use xlink:href="#DejaVuSerif-72" x="859.96875"/>
      <use xlink:href="#DejaVuSerif-64" x="907.771484"/>
      <use xlink:href="#DejaVuSerif-65" x="971.785156"/>
      <use xlink:href="#DejaVuSerif-72" x="1030.964844"/>
      <use xlink:href="#DejaVuSerif-20" x="1078.767578"/>
      <use xlink:href="#DejaVuSerif-69" x="1110.554688"/>
      <use xlink:href="#DejaVuSerif-6e" x="1142.537109"/>
      <use xlink:href="#DejaVuSerif-66" x="1206.941406"/>
      <use xlink:href="#DejaVuSerif-65" x="1243.953125"/>
      <use xlink:href="#DejaVuSerif-63" x="1303.132812"/>
      <use xlink:href="#DejaVuSerif-74" x="1359.138672"/>
      <use xlink:href="#DejaVuSerif-69" x="1399.324219"/>
      <use xlink:href="#DejaVuSerif-6f" x="1431.306641"/>
      <use xlink:href="#DejaVuSerif-6e" x="1491.511719"/>
      <use xlink:href="#DejaVuSerif-73" x="1555.916016"/>
     </g>
    </g>
   </g>
  </g>
 </g>
 <defs>
  <clipPath id="p2efd83fee4">
   <rect x="84.653125" y="16.698047" width="446.4" height="332.64"/>
  </clipPath>
 </defs>
</svg>
