<?xml version="1.0" encoding="utf-8" standalone="no"?>
<!DOCTYPE svg PUBLIC "-//W3C//DTD SVG 1.1//EN"
  "http://www.w3.org/Graphics/SVG/1.1/DTD/svg11.dtd">
<svg xmlns:xlink="http://www.w3.org/1999/xlink" width="556.995313pt" height="409.286094pt" viewBox="0 0 556.995313 409.286094" xmlns="http://www.w3.org/2000/svg" version="1.1">
 <metadata>
  <rdf:RDF xmlns:dc="http://purl.org/dc/elements/1.1/" xmlns:cc="http://creativecommons.org/ns#" xmlns:rdf="http://www.w3.org/1999/02/22-rdf-syntax-ns#">
   <cc:Work>
    <dc:type rdf:resource="http://purl.org/dc/dcmitype/StillImage"/>
    <dc:date>2023-03-26T22:28:27.798959</dc:date>
    <dc:format>image/svg+xml</dc:format>
    <dc:creator>
     <cc:Agent>
      <dc:title>Matplotlib v3.7.1, https://matplotlib.org/</dc:title>
     </cc:Agent>
    </dc:creator>
   </cc:Work>
  </rdf:RDF>
 </metadata>
 <defs>
  <style type="text/css">*{stroke-linejoin: round; stroke-linecap: butt}</style>
 </defs>
 <g id="figure_1">
  <g id="patch_1">
   <path d="M 0 409.286094 
L 556.995313 409.286094 
L 556.995313 0 
L 0 0 
z
" style="fill: #ffffff"/>
  </g>
  <g id="axes_1">
   <g id="patch_2">
    <path d="M 103.395313 339.84 
L 549.795313 339.84 
L 549.795313 7.2 
L 103.395313 7.2 
z
" style="fill: #ffffff"/>
   </g>
   <g id="matplotlib.axis_1">
    <g id="xtick_1">
     <g id="text_1">
      <!-- $\mathdefault{10^{2}}$ -->
      <g style="fill: #262626" transform="translate(81.395312 368.336094) scale(0.25 -0.25)">
       <defs>
        <path id="DejaVuSerif-31" d="M 909 0 
L 909 331 
L 1722 331 
L 1722 4213 
L 781 3603 
L 781 4013 
L 1919 4750 
L 2350 4750 
L 2350 331 
L 3163 331 
L 3163 0 
L 909 0 
z
" transform="scale(0.015625)"/>
        <path id="DejaVuSerif-30" d="M 2034 219 
Q 2513 219 2750 744 
Q 2988 1269 2988 2328 
Q 2988 3391 2750 3916 
Q 2513 4441 2034 4441 
Q 1556 4441 1318 3916 
Q 1081 3391 1081 2328 
Q 1081 1269 1318 744 
Q 1556 219 2034 219 
z
M 2034 -91 
Q 1275 -91 848 546 
Q 422 1184 422 2328 
Q 422 3475 848 4112 
Q 1275 4750 2034 4750 
Q 2797 4750 3222 4112 
Q 3647 3475 3647 2328 
Q 3647 1184 3222 546 
Q 2797 -91 2034 -91 
z
" transform="scale(0.015625)"/>
        <path id="DejaVuSerif-32" d="M 819 3553 
L 469 3553 
L 469 4384 
Q 803 4563 1142 4656 
Q 1481 4750 1806 4750 
Q 2534 4750 2956 4397 
Q 3378 4044 3378 3438 
Q 3378 2753 2422 1800 
Q 2347 1728 2309 1691 
L 1131 513 
L 3078 513 
L 3078 1088 
L 3444 1088 
L 3444 0 
L 434 0 
L 434 341 
L 1850 1753 
Q 2319 2222 2519 2614 
Q 2719 3006 2719 3438 
Q 2719 3909 2473 4175 
Q 2228 4441 1797 4441 
Q 1350 4441 1106 4219 
Q 863 3997 819 3553 
z
" transform="scale(0.015625)"/>
       </defs>
       <use xlink:href="#DejaVuSerif-31" transform="translate(0 0.7125)"/>
       <use xlink:href="#DejaVuSerif-30" transform="translate(63.623047 0.7125)"/>
       <use xlink:href="#DejaVuSerif-32" transform="translate(128.154453 37.046875) scale(0.7)"/>
      </g>
     </g>
    </g>
    <g id="xtick_2">
     <g id="text_2">
      <!-- $\mathdefault{10^{3}}$ -->
      <g style="fill: #262626" transform="translate(262.881304 368.336094) scale(0.25 -0.25)">
       <defs>
        <path id="DejaVuSerif-33" d="M 622 4469 
Q 988 4606 1323 4678 
Q 1659 4750 1953 4750 
Q 2638 4750 3022 4454 
Q 3406 4159 3406 3634 
Q 3406 3213 3140 2930 
Q 2875 2647 2388 2547 
Q 2963 2466 3280 2130 
Q 3597 1794 3597 1259 
Q 3597 606 3158 257 
Q 2719 -91 1894 -91 
Q 1528 -91 1179 -12 
Q 831 66 488 225 
L 488 1131 
L 838 1131 
Q 869 681 1141 450 
Q 1413 219 1906 219 
Q 2384 219 2661 495 
Q 2938 772 2938 1253 
Q 2938 1803 2653 2086 
Q 2369 2369 1819 2369 
L 1522 2369 
L 1522 2688 
L 1678 2688 
Q 2225 2688 2498 2914 
Q 2772 3141 2772 3597 
Q 2772 4006 2547 4223 
Q 2322 4441 1900 4441 
Q 1478 4441 1245 4241 
Q 1013 4041 972 3647 
L 622 3647 
L 622 4469 
z
" transform="scale(0.015625)"/>
       </defs>
       <use xlink:href="#DejaVuSerif-31" transform="translate(0 0.7125)"/>
       <use xlink:href="#DejaVuSerif-30" transform="translate(63.623047 0.7125)"/>
       <use xlink:href="#DejaVuSerif-33" transform="translate(128.154453 37.046875) scale(0.7)"/>
      </g>
     </g>
    </g>
    <g id="xtick_3">
     <g id="text_3">
      <!-- $\mathdefault{10^{4}}$ -->
      <g style="fill: #262626" transform="translate(444.367295 368.336094) scale(0.25 -0.25)">
       <defs>
        <path id="DejaVuSerif-34" d="M 2234 1581 
L 2234 4063 
L 641 1581 
L 2234 1581 
z
M 3609 0 
L 1484 0 
L 1484 331 
L 2234 331 
L 2234 1247 
L 197 1247 
L 197 1588 
L 2241 4750 
L 2859 4750 
L 2859 1581 
L 3750 1581 
L 3750 1247 
L 2859 1247 
L 2859 331 
L 3609 331 
L 3609 0 
z
" transform="scale(0.015625)"/>
       </defs>
       <use xlink:href="#DejaVuSerif-31" transform="translate(0 0.7125)"/>
       <use xlink:href="#DejaVuSerif-30" transform="translate(63.623047 0.7125)"/>
       <use xlink:href="#DejaVuSerif-34" transform="translate(128.154453 37.046875) scale(0.7)"/>
      </g>
     </g>
    </g>
    <g id="xtick_4"/>
    <g id="xtick_5"/>
    <g id="xtick_6"/>
    <g id="xtick_7"/>
    <g id="xtick_8"/>
    <g id="xtick_9"/>
    <g id="xtick_10"/>
    <g id="xtick_11"/>
    <g id="xtick_12"/>
    <g id="xtick_13"/>
    <g id="xtick_14"/>
    <g id="xtick_15"/>
    <g id="xtick_16"/>
    <g id="xtick_17"/>
    <g id="xtick_18"/>
    <g id="xtick_19"/>
    <g id="xtick_20"/>
    <g id="text_4">
     <!-- Temporal lag -->
     <g style="fill: #262626" transform="translate(243.595312 396.531406) scale(0.25 -0.25)">
      <defs>
       <path id="DejaVuSerif-54" d="M 1222 0 
L 1222 331 
L 1819 331 
L 1819 4294 
L 447 4294 
L 447 3566 
L 63 3566 
L 63 4666 
L 4206 4666 
L 4206 3566 
L 3822 3566 
L 3822 4294 
L 2450 4294 
L 2450 331 
L 3047 331 
L 3047 0 
L 1222 0 
z
" transform="scale(0.015625)"/>
       <path id="DejaVuSerif-65" d="M 3469 1600 
L 991 1600 
L 991 1575 
Q 991 903 1244 561 
Q 1497 219 1991 219 
Q 2369 219 2611 417 
Q 2853 616 2950 1006 
L 3413 1006 
Q 3275 459 2904 184 
Q 2534 -91 1931 -91 
Q 1203 -91 761 389 
Q 319 869 319 1663 
Q 319 2450 753 2931 
Q 1188 3413 1894 3413 
Q 2647 3413 3050 2948 
Q 3453 2484 3469 1600 
z
M 2791 1931 
Q 2772 2513 2545 2808 
Q 2319 3103 1894 3103 
Q 1497 3103 1269 2806 
Q 1041 2509 991 1931 
L 2791 1931 
z
" transform="scale(0.015625)"/>
       <path id="DejaVuSerif-6d" d="M 3316 2675 
Q 3481 3041 3739 3227 
Q 3997 3413 4341 3413 
Q 4863 3413 5119 3089 
Q 5375 2766 5375 2113 
L 5375 331 
L 5894 331 
L 5894 0 
L 4300 0 
L 4300 331 
L 4800 331 
L 4800 2047 
Q 4800 2556 4650 2772 
Q 4500 2988 4153 2988 
Q 3769 2988 3567 2697 
Q 3366 2406 3366 1850 
L 3366 331 
L 3866 331 
L 3866 0 
L 2291 0 
L 2291 331 
L 2791 331 
L 2791 2069 
Q 2791 2566 2641 2777 
Q 2491 2988 2144 2988 
Q 1759 2988 1557 2697 
Q 1356 2406 1356 1850 
L 1356 331 
L 1856 331 
L 1856 0 
L 263 0 
L 263 331 
L 781 331 
L 781 2994 
L 231 2994 
L 231 3322 
L 1356 3322 
L 1356 2731 
Q 1516 3063 1762 3238 
Q 2009 3413 2322 3413 
Q 2709 3413 2968 3220 
Q 3228 3028 3316 2675 
z
" transform="scale(0.015625)"/>
       <path id="DejaVuSerif-70" d="M 1313 1825 
L 1313 1497 
Q 1313 897 1542 583 
Q 1772 269 2209 269 
Q 2650 269 2876 622 
Q 3103 975 3103 1663 
Q 3103 2353 2876 2703 
Q 2650 3053 2209 3053 
Q 1772 3053 1542 2737 
Q 1313 2422 1313 1825 
z
M 738 2988 
L 184 2988 
L 184 3322 
L 1313 3322 
L 1313 2803 
Q 1481 3116 1742 3264 
Q 2003 3413 2388 3413 
Q 3000 3413 3387 2928 
Q 3775 2444 3775 1663 
Q 3775 881 3387 395 
Q 3000 -91 2388 -91 
Q 2003 -91 1742 57 
Q 1481 206 1313 519 
L 1313 -997 
L 1856 -997 
L 1856 -1331 
L 184 -1331 
L 184 -997 
L 738 -997 
L 738 2988 
z
" transform="scale(0.015625)"/>
       <path id="DejaVuSerif-6f" d="M 1925 219 
Q 2388 219 2623 584 
Q 2859 950 2859 1663 
Q 2859 2375 2623 2739 
Q 2388 3103 1925 3103 
Q 1463 3103 1227 2739 
Q 991 2375 991 1663 
Q 991 950 1228 584 
Q 1466 219 1925 219 
z
M 1925 -91 
Q 1200 -91 759 389 
Q 319 869 319 1663 
Q 319 2456 758 2934 
Q 1197 3413 1925 3413 
Q 2653 3413 3092 2934 
Q 3531 2456 3531 1663 
Q 3531 869 3092 389 
Q 2653 -91 1925 -91 
z
" transform="scale(0.015625)"/>
       <path id="DejaVuSerif-72" d="M 3059 3328 
L 3059 2497 
L 2728 2497 
Q 2713 2744 2591 2866 
Q 2469 2988 2234 2988 
Q 1809 2988 1582 2694 
Q 1356 2400 1356 1850 
L 1356 331 
L 2022 331 
L 2022 0 
L 263 0 
L 263 331 
L 781 331 
L 781 2994 
L 231 2994 
L 231 3322 
L 1356 3322 
L 1356 2731 
Q 1525 3078 1790 3245 
Q 2056 3413 2438 3413 
Q 2578 3413 2733 3391 
Q 2888 3369 3059 3328 
z
" transform="scale(0.015625)"/>
       <path id="DejaVuSerif-61" d="M 2547 1044 
L 2547 1747 
L 1806 1747 
Q 1378 1747 1168 1562 
Q 959 1378 959 997 
Q 959 650 1171 447 
Q 1384 244 1747 244 
Q 2106 244 2326 466 
Q 2547 688 2547 1044 
z
M 3122 2075 
L 3122 331 
L 3634 331 
L 3634 0 
L 2547 0 
L 2547 359 
Q 2356 128 2106 18 
Q 1856 -91 1522 -91 
Q 969 -91 644 203 
Q 319 497 319 997 
Q 319 1513 691 1797 
Q 1063 2081 1741 2081 
L 2547 2081 
L 2547 2309 
Q 2547 2688 2317 2895 
Q 2088 3103 1672 3103 
Q 1328 3103 1125 2947 
Q 922 2791 872 2484 
L 575 2484 
L 575 3156 
Q 875 3284 1158 3348 
Q 1441 3413 1709 3413 
Q 2400 3413 2761 3070 
Q 3122 2728 3122 2075 
z
" transform="scale(0.015625)"/>
       <path id="DejaVuSerif-6c" d="M 1313 331 
L 1856 331 
L 1856 0 
L 184 0 
L 184 331 
L 738 331 
L 738 4531 
L 184 4531 
L 184 4863 
L 1313 4863 
L 1313 331 
z
" transform="scale(0.015625)"/>
       <path id="DejaVuSerif-20" transform="scale(0.015625)"/>
       <path id="DejaVuSerif-67" d="M 3359 2988 
L 3359 72 
Q 3359 -644 2965 -1033 
Q 2572 -1422 1844 -1422 
Q 1516 -1422 1216 -1362 
Q 916 -1303 641 -1184 
L 641 -488 
L 941 -488 
Q 997 -813 1206 -963 
Q 1416 -1113 1806 -1113 
Q 2313 -1113 2548 -827 
Q 2784 -541 2784 72 
L 2784 519 
Q 2616 206 2355 57 
Q 2094 -91 1709 -91 
Q 1097 -91 708 395 
Q 319 881 319 1663 
Q 319 2444 706 2928 
Q 1094 3413 1709 3413 
Q 2094 3413 2355 3264 
Q 2616 3116 2784 2803 
L 2784 3322 
L 3909 3322 
L 3909 2988 
L 3359 2988 
z
M 2784 1825 
Q 2784 2422 2554 2737 
Q 2325 3053 1888 3053 
Q 1444 3053 1217 2703 
Q 991 2353 991 1663 
Q 991 975 1217 622 
Q 1444 269 1888 269 
Q 2325 269 2554 583 
Q 2784 897 2784 1497 
L 2784 1825 
z
" transform="scale(0.015625)"/>
      </defs>
      <use xlink:href="#DejaVuSerif-54"/>
      <use xlink:href="#DejaVuSerif-65" x="58.949219"/>
      <use xlink:href="#DejaVuSerif-6d" x="118.128906"/>
      <use xlink:href="#DejaVuSerif-70" x="212.953125"/>
      <use xlink:href="#DejaVuSerif-6f" x="276.966797"/>
      <use xlink:href="#DejaVuSerif-72" x="337.171875"/>
      <use xlink:href="#DejaVuSerif-61" x="384.974609"/>
      <use xlink:href="#DejaVuSerif-6c" x="444.59375"/>
      <use xlink:href="#DejaVuSerif-20" x="476.576172"/>
      <use xlink:href="#DejaVuSerif-6c" x="508.363281"/>
      <use xlink:href="#DejaVuSerif-61" x="540.345703"/>
      <use xlink:href="#DejaVuSerif-67" x="599.964844"/>
     </g>
    </g>
   </g>
   <g id="matplotlib.axis_2">
    <g id="ytick_1">
     <g id="text_5">
      <!-- $\mathdefault{10^{-3}}$ -->
      <g style="fill: #262626" transform="translate(35.395313 265.26357) scale(0.25 -0.25)">
       <defs>
        <path id="DejaVuSerif-2212" d="M 678 2259 
L 4684 2259 
L 4684 1753 
L 678 1753 
L 678 2259 
z
" transform="scale(0.015625)"/>
       </defs>
       <use xlink:href="#DejaVuSerif-31" transform="translate(0 0.7125)"/>
       <use xlink:href="#DejaVuSerif-30" transform="translate(63.623047 0.7125)"/>
       <use xlink:href="#DejaVuSerif-2212" transform="translate(128.154453 37.046875) scale(0.7)"/>
       <use xlink:href="#DejaVuSerif-33" transform="translate(186.806797 37.046875) scale(0.7)"/>
      </g>
     </g>
    </g>
    <g id="ytick_2">
     <g id="text_6">
      <!-- $\mathdefault{10^{-1}}$ -->
      <g style="fill: #262626" transform="translate(35.395313 155.250265) scale(0.25 -0.25)">
       <use xlink:href="#DejaVuSerif-31" transform="translate(0 0.7125)"/>
       <use xlink:href="#DejaVuSerif-30" transform="translate(63.623047 0.7125)"/>
       <use xlink:href="#DejaVuSerif-2212" transform="translate(128.154453 37.046875) scale(0.7)"/>
       <use xlink:href="#DejaVuSerif-31" transform="translate(186.806797 37.046875) scale(0.7)"/>
      </g>
     </g>
    </g>
    <g id="ytick_3">
     <g id="text_7">
      <!-- $\mathdefault{10^{1}}$ -->
      <g style="fill: #262626" transform="translate(49.895313 45.23696) scale(0.25 -0.25)">
       <use xlink:href="#DejaVuSerif-31" transform="translate(0 0.7125)"/>
       <use xlink:href="#DejaVuSerif-30" transform="translate(63.623047 0.7125)"/>
       <use xlink:href="#DejaVuSerif-31" transform="translate(128.154453 37.046875) scale(0.7)"/>
      </g>
     </g>
    </g>
    <g id="text_8">
     <!-- Temporal autocorrelation -->
     <g style="fill: #262626" transform="translate(26.196094 335.041484) rotate(-90) scale(0.25 -0.25)">
      <defs>
       <path id="DejaVuSerif-75" d="M 2266 3322 
L 3341 3322 
L 3341 331 
L 3884 331 
L 3884 0 
L 2766 0 
L 2766 588 
Q 2606 256 2353 82 
Q 2100 -91 1766 -91 
Q 1213 -91 952 223 
Q 691 538 691 1209 
L 691 2988 
L 172 2988 
L 172 3322 
L 1269 3322 
L 1269 1388 
Q 1269 781 1417 556 
Q 1566 331 1947 331 
Q 2347 331 2556 625 
Q 2766 919 2766 1478 
L 2766 2988 
L 2266 2988 
L 2266 3322 
z
" transform="scale(0.015625)"/>
       <path id="DejaVuSerif-74" d="M 691 2988 
L 184 2988 
L 184 3322 
L 691 3322 
L 691 4353 
L 1269 4353 
L 1269 3322 
L 2350 3322 
L 2350 2988 
L 1269 2988 
L 1269 878 
Q 1269 456 1350 337 
Q 1431 219 1650 219 
Q 1875 219 1978 351 
Q 2081 484 2088 781 
L 2522 781 
Q 2497 328 2275 118 
Q 2053 -91 1600 -91 
Q 1103 -91 897 129 
Q 691 350 691 878 
L 691 2988 
z
" transform="scale(0.015625)"/>
       <path id="DejaVuSerif-63" d="M 3291 997 
Q 3169 466 2822 187 
Q 2475 -91 1925 -91 
Q 1200 -91 759 389 
Q 319 869 319 1663 
Q 319 2459 759 2936 
Q 1200 3413 1925 3413 
Q 2241 3413 2553 3339 
Q 2866 3266 3181 3116 
L 3181 2266 
L 2847 2266 
Q 2781 2703 2561 2903 
Q 2341 3103 1931 3103 
Q 1466 3103 1228 2742 
Q 991 2381 991 1663 
Q 991 944 1227 581 
Q 1463 219 1931 219 
Q 2303 219 2525 412 
Q 2747 606 2828 997 
L 3291 997 
z
" transform="scale(0.015625)"/>
       <path id="DejaVuSerif-69" d="M 622 4353 
Q 622 4497 726 4603 
Q 831 4709 978 4709 
Q 1122 4709 1226 4603 
Q 1331 4497 1331 4353 
Q 1331 4206 1228 4103 
Q 1125 4000 978 4000 
Q 831 4000 726 4103 
Q 622 4206 622 4353 
z
M 1356 331 
L 1900 331 
L 1900 0 
L 231 0 
L 231 331 
L 781 331 
L 781 2988 
L 231 2988 
L 231 3322 
L 1356 3322 
L 1356 331 
z
" transform="scale(0.015625)"/>
       <path id="DejaVuSerif-6e" d="M 263 0 
L 263 331 
L 781 331 
L 781 2988 
L 231 2988 
L 231 3322 
L 1356 3322 
L 1356 2731 
Q 1516 3069 1770 3241 
Q 2025 3413 2363 3413 
Q 2913 3413 3172 3097 
Q 3431 2781 3431 2113 
L 3431 331 
L 3944 331 
L 3944 0 
L 2356 0 
L 2356 331 
L 2853 331 
L 2853 1931 
Q 2853 2541 2703 2767 
Q 2553 2994 2175 2994 
Q 1775 2994 1565 2701 
Q 1356 2409 1356 1850 
L 1356 331 
L 1856 331 
L 1856 0 
L 263 0 
z
" transform="scale(0.015625)"/>
      </defs>
      <use xlink:href="#DejaVuSerif-54"/>
      <use xlink:href="#DejaVuSerif-65" x="58.949219"/>
      <use xlink:href="#DejaVuSerif-6d" x="118.128906"/>
      <use xlink:href="#DejaVuSerif-70" x="212.953125"/>
      <use xlink:href="#DejaVuSerif-6f" x="276.966797"/>
      <use xlink:href="#DejaVuSerif-72" x="337.171875"/>
      <use xlink:href="#DejaVuSerif-61" x="384.974609"/>
      <use xlink:href="#DejaVuSerif-6c" x="444.59375"/>
      <use xlink:href="#DejaVuSerif-20" x="476.576172"/>
      <use xlink:href="#DejaVuSerif-61" x="508.363281"/>
      <use xlink:href="#DejaVuSerif-75" x="567.982422"/>
      <use xlink:href="#DejaVuSerif-74" x="632.386719"/>
      <use xlink:href="#DejaVuSerif-6f" x="672.572266"/>
      <use xlink:href="#DejaVuSerif-63" x="732.777344"/>
      <use xlink:href="#DejaVuSerif-6f" x="788.783203"/>
      <use xlink:href="#DejaVuSerif-72" x="848.988281"/>
      <use xlink:href="#DejaVuSerif-72" x="896.791016"/>
      <use xlink:href="#DejaVuSerif-65" x="944.59375"/>
      <use xlink:href="#DejaVuSerif-6c" x="1003.773438"/>
      <use xlink:href="#DejaVuSerif-61" x="1035.755859"/>
      <use xlink:href="#DejaVuSerif-74" x="1095.375"/>
      <use xlink:href="#DejaVuSerif-69" x="1135.560547"/>
      <use xlink:href="#DejaVuSerif-6f" x="1167.542969"/>
      <use xlink:href="#DejaVuSerif-6e" x="1227.748047"/>
     </g>
    </g>
   </g>
   <g id="line2d_1">
    <path d="M -1 43.68191 
L 117.765599 43.695869 
L 172.398327 47.655457 
L 271.139055 55.453338 
L 281.663781 56.468859 
L 299.251591 58.421534 
L 325.771782 61.558368 
L 336.296508 63.221618 
L 345.579975 64.935303 
L 349.841465 65.578248 
L 353.884318 66.317898 
L 357.729879 66.83913 
L 368.254605 68.886837 
L 390.929236 74.61724 
L 395.707569 76.20265 
L 397.992319 76.686688 
L 400.212702 77.35861 
L 402.372244 78.393594 
L 406.521537 79.361883 
L 412.362606 81.892292 
L 414.217242 82.516843 
L 416.029238 83.404469 
L 417.800512 84.02576 
L 422.887332 86.512055 
L 424.512511 87.59595 
L 429.196168 89.337574 
L 430.697515 90.597406 
L 432.170799 91.381415 
L 433.617048 92.393119 
L 435.037237 93.221027 
L 436.432288 94.438184 
L 437.803077 95.133252 
L 439.150432 96.213312 
L 440.475142 96.084366 
L 441.777955 96.689241 
L 443.059582 96.942859 
L 444.320703 96.30262 
L 446.783977 96.378005 
L 447.987335 96.353864 
L 449.172595 97.025371 
L 452.625047 98.521396 
L 453.743056 99.542648 
L 454.845429 100.129628 
L 455.932596 101.164223 
L 457.004971 101.866365 
L 458.062952 102.735775 
L 459.106919 102.809884 
L 460.137239 103.524051 
L 462.158334 103.91303 
L 463.149773 104.764469 
L 466.05139 106.713564 
L 466.995334 107.843369 
L 467.928106 107.975899 
L 469.761174 109.606118 
L 470.661965 110.213085 
L 471.552578 110.989987 
L 472.433239 111.451539 
L 474.16558 113.058534 
L 475.017679 113.522016 
L 476.694729 115.744702 
L 477.52006 116.166183 
L 479.145238 118.025624 
L 479.945431 120.220165 
L 480.737582 121.797901 
L 481.521851 122.391109 
L 482.298393 122.591096 
L 483.067359 123.571953 
L 483.828895 123.710904 
L 484.583143 124.438635 
L 486.070326 126.881126 
L 486.803526 127.510218 
L 487.529967 128.677588 
L 488.249775 128.215914 
L 488.963068 129.614499 
L 489.669964 132.259114 
L 490.370576 133.869397 
L 491.065016 134.102205 
L 491.75339 136.363324 
L 492.435804 137.289797 
L 493.78316 143.807203 
L 494.448298 144.536931 
L 495.107869 144.215853 
L 495.761967 147.502118 
L 496.410682 154.893286 
L 497.054101 154.454567 
L 497.69231 163.815069 
L 498.325392 170.269603 
L 498.95343 174.842844 
L 499.576504 180.243103 
L 500.19469 187.156865 
L 500.808066 202.146173 
L 501.416705 185.03027 
L 502.02068 185.715904 
L 502.620062 182.467523 
L 503.21492 193.174796 
L 503.805323 201.474094 
L 504.391336 204.264263 
L 504.973024 210.165792 
L 505.55045 270.85091 
L 505.551908 410.286094 
L 505.551908 410.286094 
" clip-path="url(#pb8df71294d)" style="fill: none; stroke: #1b9e77; stroke-width: 2; stroke-linecap: round"/>
   </g>
   <g id="line2d_2">
    <path d="M -1 105.928919 
L 117.765599 105.954462 
L 172.398327 113.30848 
L 204.356423 119.3127 
L 227.031054 123.413163 
L 244.618864 126.986357 
L 271.139055 131.924157 
L 281.663781 133.533689 
L 290.947247 136.213625 
L 299.251591 136.83185 
L 306.763783 138.128792 
L 313.621878 142.345506 
L 319.930713 142.428415 
L 325.771782 145.11599 
L 336.296508 145.567972 
L 341.074842 144.760827 
L 345.579975 150.484854 
L 349.841465 148.886049 
L 353.884318 150.243401 
L 357.729879 150.202421 
L 361.396511 151.368632 
L 364.900126 152.772949 
L 368.254605 154.569924 
L 371.472128 155.41523 
L 374.56344 159.936549 
L 377.538071 160.10888 
L 380.40451 160.836977 
L 383.17035 163.345258 
L 385.842415 161.61925 
L 388.426855 161.396324 
L 390.929236 163.966263 
L 393.354607 164.645348 
L 395.707569 168.50757 
L 397.992319 169.469863 
L 400.212702 168.268365 
L 402.372244 170.172354 
L 404.474192 168.931724 
L 406.521537 172.881064 
L 408.517045 178.44021 
L 410.463277 179.723474 
L 412.362606 180.375313 
L 414.217242 184.025312 
L 416.029238 185.520285 
L 417.800512 198.44568 
L 419.532853 205.362528 
L 421.227937 196.524849 
L 422.887332 197.899255 
L 424.512511 206.673321 
L 426.104855 206.309502 
L 427.665666 211.13383 
L 429.196168 217.167654 
L 430.697515 215.548863 
L 432.170799 208.294565 
L 433.617048 204.557945 
L 435.037237 201.582695 
L 436.432288 206.814498 
L 437.803077 203.864506 
L 439.150432 199.391094 
L 440.475142 196.262969 
L 441.777955 197.10612 
L 443.059582 199.471021 
L 444.320703 197.702335 
L 445.561963 194.353244 
L 446.783977 189.32478 
L 447.987335 187.846774 
L 449.172595 188.928004 
L 450.340296 187.632613 
L 451.49095 189.729604 
L 452.625047 191.479587 
L 453.743056 190.403602 
L 454.845429 187.295408 
L 455.932596 190.747581 
L 457.004971 188.384509 
L 458.062952 188.380391 
L 459.106919 189.866757 
L 460.137239 191.636256 
L 461.154264 195.200566 
L 462.158334 190.369107 
L 463.149773 193.93418 
L 464.128895 193.127186 
L 465.096004 193.122658 
L 466.05139 196.706096 
L 466.995334 191.958483 
L 467.928106 190.141579 
L 468.849969 183.251751 
L 469.761174 182.098993 
L 470.661965 184.848665 
L 471.552578 184.291707 
L 472.433239 185.254283 
L 473.304169 187.158438 
L 474.16558 187.921317 
L 475.017679 192.599661 
L 475.860664 191.629329 
L 476.694729 190.879527 
L 477.52006 194.336164 
L 478.336837 197.157575 
L 479.145238 191.356415 
L 479.945431 191.908529 
L 480.737582 198.812245 
L 481.521851 200.356362 
L 482.298393 196.373214 
L 483.067359 197.252438 
L 483.828895 200.785944 
L 484.583143 206.614444 
L 485.330242 206.935344 
L 486.070326 196.977281 
L 486.803526 210.322064 
L 487.529967 216.770882 
L 488.249775 206.863279 
L 488.963068 204.813835 
L 489.669964 213.220153 
L 490.370576 219.481921 
L 491.065016 227.133064 
L 491.75339 227.870781 
L 492.435804 303.92287 
L 492.437118 410.286094 
M 494.446474 410.286094 
L 494.448298 259.914215 
L 495.107869 263.44614 
L 495.109621 410.286094 
M 496.409362 410.286094 
L 496.410682 298.783183 
L 496.411991 410.286094 
" clip-path="url(#pb8df71294d)" style="fill: none; stroke: #d95f02; stroke-width: 2; stroke-linecap: round"/>
   </g>
   <g id="line2d_3">
    <path d="M -1 153.601083 
L 117.765599 153.628446 
L 172.398327 166.417351 
L 204.356423 175.587591 
L 227.031054 181.480304 
L 244.618864 185.700574 
L 258.989151 187.588163 
L 271.139055 198.081553 
L 281.663781 207.474685 
L 290.947247 213.377554 
L 299.251591 225.295916 
L 306.763783 215.709721 
L 313.621878 223.168471 
L 319.930713 235.170806 
L 325.771782 230.154782 
L 331.209688 241.504381 
L 336.296508 223.823924 
L 341.074842 214.69891 
L 345.579975 252.344108 
L 349.841465 244.581153 
L 353.884318 236.252852 
L 357.729879 229.209225 
L 361.396511 257.380376 
L 364.900126 240.026498 
L 368.254605 250.099224 
L 371.472128 248.085386 
L 374.56344 267.841242 
L 377.538071 230.967 
L 380.40451 237.387034 
L 383.17035 241.385705 
L 385.842415 238.63597 
L 388.426855 236.16876 
L 390.929236 231.890994 
L 393.354607 248.021649 
L 395.707569 235.00526 
L 397.992319 252.200869 
L 402.372244 252.187131 
L 404.474192 246.141631 
L 404.480319 410.286094 
M 408.513928 410.286094 
L 408.517045 324.72 
L 408.520086 410.286094 
M 414.213037 410.286094 
L 414.217242 286.019211 
L 416.029238 285.985892 
L 417.800512 251.90077 
L 419.532853 251.895426 
L 421.227937 256.924942 
L 421.232577 410.286094 
M 424.507966 410.286094 
L 424.512511 256.915492 
L 426.104855 256.904596 
L 426.109221 410.286094 
M 429.191886 410.286094 
L 429.196168 256.885725 
L 429.200367 410.286094 
M 444.317774 410.286094 
L 444.320703 282.956337 
L 444.323586 410.286094 
" clip-path="url(#pb8df71294d)" style="fill: none; stroke: #7570b3; stroke-width: 2; stroke-linecap: round"/>
   </g>
   <g id="patch_3">
    <path d="M 103.395313 339.84 
L 103.395313 7.2 
" style="fill: none; stroke: #262626; stroke-width: 1.25; stroke-linejoin: miter; stroke-linecap: square"/>
   </g>
   <g id="patch_4">
    <path d="M 103.395312 339.84 
L 549.795313 339.84 
" style="fill: none; stroke: #262626; stroke-width: 1.25; stroke-linejoin: miter; stroke-linecap: square"/>
   </g>
  </g>
 </g>
 <defs>
  <clipPath id="pb8df71294d">
   <rect x="103.395313" y="7.2" width="446.4" height="332.64"/>
  </clipPath>
 </defs>
</svg>
