<?xml version="1.0" encoding="utf-8" standalone="no"?>
<!DOCTYPE svg PUBLIC "-//W3C//DTD SVG 1.1//EN"
  "http://www.w3.org/Graphics/SVG/1.1/DTD/svg11.dtd">
<svg xmlns:xlink="http://www.w3.org/1999/xlink" width="481.537293pt" height="417.516797pt" viewBox="0 0 481.537293 417.516797" xmlns="http://www.w3.org/2000/svg" version="1.1">
 <metadata>
  <rdf:RDF xmlns:dc="http://purl.org/dc/elements/1.1/" xmlns:cc="http://creativecommons.org/ns#" xmlns:rdf="http://www.w3.org/1999/02/22-rdf-syntax-ns#">
   <cc:Work>
    <dc:type rdf:resource="http://purl.org/dc/dcmitype/StillImage"/>
    <dc:date>2023-03-27T13:46:37.456326</dc:date>
    <dc:format>image/svg+xml</dc:format>
    <dc:creator>
     <cc:Agent>
      <dc:title>Matplotlib v3.7.1, https://matplotlib.org/</dc:title>
     </cc:Agent>
    </dc:creator>
   </cc:Work>
  </rdf:RDF>
 </metadata>
 <defs>
  <style type="text/css">*{stroke-linejoin: round; stroke-linecap: butt}</style>
 </defs>
 <g id="figure_1">
  <g id="patch_1">
   <path d="M 0 417.516797 
L 481.537293 417.516797 
L 481.537293 0 
L 0 0 
z
" style="fill: #ffffff"/>
  </g>
  <g id="axes_1">
   <g id="patch_2">
    <path d="M 83.256094 348.578203 
L 473.856094 348.578203 
L 473.856094 15.938203 
L 83.256094 15.938203 
z
" style="fill: #ffffff"/>
   </g>
   <g id="patch_3">
    <path d="M 101.010639 348.578203 
L 108.99021 348.578203 
L 108.99021 347.560955 
L 101.010639 347.560955 
z
" clip-path="url(#p78ecf65846)" style="fill: #3d7296; opacity: 0.75"/>
   </g>
   <g id="patch_4">
    <path d="M 120.959567 348.578203 
L 128.939138 348.578203 
L 128.939138 346.543708 
L 120.959567 346.543708 
z
" clip-path="url(#p78ecf65846)" style="fill: #3d7296; opacity: 0.75"/>
   </g>
   <g id="patch_5">
    <path d="M 140.908494 348.578203 
L 148.888065 348.578203 
L 148.888065 345.52646 
L 140.908494 345.52646 
z
" clip-path="url(#p78ecf65846)" style="fill: #3d7296; opacity: 0.75"/>
   </g>
   <g id="patch_6">
    <path d="M 160.857422 348.578203 
L 168.836993 348.578203 
L 168.836993 338.405726 
L 160.857422 338.405726 
z
" clip-path="url(#p78ecf65846)" style="fill: #3d7296; opacity: 0.75"/>
   </g>
   <g id="patch_7">
    <path d="M 180.806349 348.578203 
L 188.78592 348.578203 
L 188.78592 330.267744 
L 180.806349 330.267744 
z
" clip-path="url(#p78ecf65846)" style="fill: #3d7296; opacity: 0.75"/>
   </g>
   <g id="patch_8">
    <path d="M 200.755277 348.578203 
L 208.734848 348.578203 
L 208.734848 321.112515 
L 200.755277 321.112515 
z
" clip-path="url(#p78ecf65846)" style="fill: #3d7296; opacity: 0.75"/>
   </g>
   <g id="patch_9">
    <path d="M 220.704204 348.578203 
L 228.683775 348.578203 
L 228.683775 305.853799 
L 220.704204 305.853799 
z
" clip-path="url(#p78ecf65846)" style="fill: #3d7296; opacity: 0.75"/>
   </g>
   <g id="patch_10">
    <path d="M 240.653132 348.578203 
L 248.632703 348.578203 
L 248.632703 288.560588 
L 240.653132 288.560588 
z
" clip-path="url(#p78ecf65846)" style="fill: #3d7296; opacity: 0.75"/>
   </g>
   <g id="patch_11">
    <path d="M 260.602059 348.578203 
L 268.58163 348.578203 
L 268.58163 263.129396 
L 260.602059 263.129396 
z
" clip-path="url(#p78ecf65846)" style="fill: #3d7296; opacity: 0.75"/>
   </g>
   <g id="patch_12">
    <path d="M 280.550986 348.578203 
L 288.530557 348.578203 
L 288.530557 225.491231 
L 280.550986 225.491231 
z
" clip-path="url(#p78ecf65846)" style="fill: #3d7296; opacity: 0.75"/>
   </g>
   <g id="patch_13">
    <path d="M 300.499914 348.578203 
L 308.479485 348.578203 
L 308.479485 199.04279 
L 300.499914 199.04279 
z
" clip-path="url(#p78ecf65846)" style="fill: #3d7296; opacity: 0.75"/>
   </g>
   <g id="patch_14">
    <path d="M 320.448841 348.578203 
L 328.428412 348.578203 
L 328.428412 163.439121 
L 320.448841 163.439121 
z
" clip-path="url(#p78ecf65846)" style="fill: #3d7296; opacity: 0.75"/>
   </g>
   <g id="patch_15">
    <path d="M 340.397769 348.578203 
L 348.37734 348.578203 
L 348.37734 124.783708 
L 340.397769 124.783708 
z
" clip-path="url(#p78ecf65846)" style="fill: #3d7296; opacity: 0.75"/>
   </g>
   <g id="patch_16">
    <path d="M 360.346696 348.578203 
L 368.326267 348.578203 
L 368.326267 97.31802 
L 360.346696 97.31802 
z
" clip-path="url(#p78ecf65846)" style="fill: #3d7296; opacity: 0.75"/>
   </g>
   <g id="patch_17">
    <path d="M 380.295624 348.578203 
L 388.275195 348.578203 
L 388.275195 72.904075 
L 380.295624 72.904075 
z
" clip-path="url(#p78ecf65846)" style="fill: #3d7296; opacity: 0.75"/>
   </g>
   <g id="patch_18">
    <path d="M 400.244551 348.578203 
L 408.224122 348.578203 
L 408.224122 39.3349 
L 400.244551 39.3349 
z
" clip-path="url(#p78ecf65846)" style="fill: #3d7296; opacity: 0.75"/>
   </g>
   <g id="patch_19">
    <path d="M 420.193479 348.578203 
L 428.17305 348.578203 
L 428.17305 25.093432 
L 420.193479 25.093432 
z
" clip-path="url(#p78ecf65846)" style="fill: #3d7296; opacity: 0.75"/>
   </g>
   <g id="patch_20">
    <path d="M 440.142406 348.578203 
L 448.121977 348.578203 
L 448.121977 15.938203 
L 440.142406 15.938203 
z
" clip-path="url(#p78ecf65846)" style="fill: #3d7296; opacity: 0.75"/>
   </g>
   <g id="patch_21">
    <path d="M 108.99021 348.578203 
L 116.969781 348.578203 
L 116.969781 346.543708 
L 108.99021 346.543708 
z
" clip-path="url(#p78ecf65846)" style="fill: #bac9dc; opacity: 0.75"/>
   </g>
   <g id="patch_22">
    <path d="M 128.939138 348.578203 
L 136.918709 348.578203 
L 136.918709 346.543708 
L 128.939138 346.543708 
z
" clip-path="url(#p78ecf65846)" style="fill: #bac9dc; opacity: 0.75"/>
   </g>
   <g id="patch_23">
    <path d="M 148.888065 348.578203 
L 156.867636 348.578203 
L 156.867636 346.543708 
L 148.888065 346.543708 
z
" clip-path="url(#p78ecf65846)" style="fill: #bac9dc; opacity: 0.75"/>
   </g>
   <g id="patch_24">
    <path d="M 168.836993 348.578203 
L 176.816564 348.578203 
L 176.816564 344.509212 
L 168.836993 344.509212 
z
" clip-path="url(#p78ecf65846)" style="fill: #bac9dc; opacity: 0.75"/>
   </g>
   <g id="patch_25">
    <path d="M 188.78592 348.578203 
L 196.765491 348.578203 
L 196.765491 339.422974 
L 188.78592 339.422974 
z
" clip-path="url(#p78ecf65846)" style="fill: #bac9dc; opacity: 0.75"/>
   </g>
   <g id="patch_26">
    <path d="M 208.734848 348.578203 
L 216.714419 348.578203 
L 216.714419 328.233249 
L 208.734848 328.233249 
z
" clip-path="url(#p78ecf65846)" style="fill: #bac9dc; opacity: 0.75"/>
   </g>
   <g id="patch_27">
    <path d="M 228.683775 348.578203 
L 236.663346 348.578203 
L 236.663346 321.112515 
L 228.683775 321.112515 
z
" clip-path="url(#p78ecf65846)" style="fill: #bac9dc; opacity: 0.75"/>
   </g>
   <g id="patch_28">
    <path d="M 248.632703 348.578203 
L 256.612274 348.578203 
L 256.612274 306.871047 
L 248.632703 306.871047 
z
" clip-path="url(#p78ecf65846)" style="fill: #bac9dc; opacity: 0.75"/>
   </g>
   <g id="patch_29">
    <path d="M 268.58163 348.578203 
L 276.561201 348.578203 
L 276.561201 275.336368 
L 268.58163 275.336368 
z
" clip-path="url(#p78ecf65846)" style="fill: #bac9dc; opacity: 0.75"/>
   </g>
   <g id="patch_30">
    <path d="M 288.530557 348.578203 
L 296.510128 348.578203 
L 296.510128 243.801689 
L 288.530557 243.801689 
z
" clip-path="url(#p78ecf65846)" style="fill: #bac9dc; opacity: 0.75"/>
   </g>
   <g id="patch_31">
    <path d="M 308.479485 348.578203 
L 316.459056 348.578203 
L 316.459056 200.060038 
L 308.479485 200.060038 
z
" clip-path="url(#p78ecf65846)" style="fill: #bac9dc; opacity: 0.75"/>
   </g>
   <g id="patch_32">
    <path d="M 328.428412 348.578203 
L 336.407983 348.578203 
L 336.407983 161.404625 
L 328.428412 161.404625 
z
" clip-path="url(#p78ecf65846)" style="fill: #bac9dc; opacity: 0.75"/>
   </g>
   <g id="patch_33">
    <path d="M 348.37734 348.578203 
L 356.356911 348.578203 
L 356.356911 117.662974 
L 348.37734 117.662974 
z
" clip-path="url(#p78ecf65846)" style="fill: #bac9dc; opacity: 0.75"/>
   </g>
   <g id="patch_34">
    <path d="M 368.326267 348.578203 
L 376.305838 348.578203 
L 376.305838 83.076552 
L 368.326267 83.076552 
z
" clip-path="url(#p78ecf65846)" style="fill: #bac9dc; opacity: 0.75"/>
   </g>
   <g id="patch_35">
    <path d="M 388.275195 348.578203 
L 396.254766 348.578203 
L 396.254766 54.593616 
L 388.275195 54.593616 
z
" clip-path="url(#p78ecf65846)" style="fill: #bac9dc; opacity: 0.75"/>
   </g>
   <g id="patch_36">
    <path d="M 408.224122 348.578203 
L 416.203693 348.578203 
L 416.203693 27.127928 
L 408.224122 27.127928 
z
" clip-path="url(#p78ecf65846)" style="fill: #bac9dc; opacity: 0.75"/>
   </g>
   <g id="patch_37">
    <path d="M 428.17305 348.578203 
L 436.152621 348.578203 
L 436.152621 15.938203 
L 428.17305 15.938203 
z
" clip-path="url(#p78ecf65846)" style="fill: #bac9dc; opacity: 0.75"/>
   </g>
   <g id="patch_38">
    <path d="M 448.121977 348.578203 
L 456.101548 348.578203 
L 456.101548 15.938203 
L 448.121977 15.938203 
z
" clip-path="url(#p78ecf65846)" style="fill: #bac9dc; opacity: 0.75"/>
   </g>
   <g id="matplotlib.axis_1">
    <g id="xtick_1">
     <g id="line2d_1">
      <defs>
       <path id="me8206b2ac5" d="M 0 0 
L 0 3.5 
" style="stroke: #000000; stroke-width: 0.8"/>
      </defs>
      <g>
       <use xlink:href="#me8206b2ac5" x="180.354213" y="348.578203" style="stroke: #000000; stroke-width: 0.8"/>
      </g>
     </g>
     <g id="text_1">
      <!-- −5 -->
      <g transform="translate(163.400698 373.054609) scale(0.23 -0.23)">
       <defs>
        <path id="DejaVuSerif-2212" d="M 678 2259 
L 4684 2259 
L 4684 1753 
L 678 1753 
L 678 2259 
z
" transform="scale(0.015625)"/>
        <path id="DejaVuSerif-35" d="M 3219 4666 
L 3219 4153 
L 1081 4153 
L 1081 2816 
Q 1244 2928 1461 2984 
Q 1678 3041 1947 3041 
Q 2703 3041 3140 2622 
Q 3578 2203 3578 1478 
Q 3578 738 3136 323 
Q 2694 -91 1894 -91 
Q 1572 -91 1234 -12 
Q 897 66 544 225 
L 544 1131 
L 897 1131 
Q 925 688 1179 453 
Q 1434 219 1894 219 
Q 2388 219 2653 544 
Q 2919 869 2919 1478 
Q 2919 2084 2655 2407 
Q 2391 2731 1894 2731 
Q 1613 2731 1398 2631 
Q 1184 2531 1019 2322 
L 750 2322 
L 750 4666 
L 3219 4666 
z
" transform="scale(0.015625)"/>
       </defs>
       <use xlink:href="#DejaVuSerif-2212"/>
       <use xlink:href="#DejaVuSerif-35" x="83.789062"/>
      </g>
     </g>
    </g>
    <g id="xtick_2">
     <g id="line2d_2">
      <g>
       <use xlink:href="#me8206b2ac5" x="323.687316" y="348.578203" style="stroke: #000000; stroke-width: 0.8"/>
      </g>
     </g>
     <g id="text_2">
      <!-- 0 -->
      <g transform="translate(316.370441 373.054609) scale(0.23 -0.23)">
       <defs>
        <path id="DejaVuSerif-30" d="M 2034 219 
Q 2513 219 2750 744 
Q 2988 1269 2988 2328 
Q 2988 3391 2750 3916 
Q 2513 4441 2034 4441 
Q 1556 4441 1318 3916 
Q 1081 3391 1081 2328 
Q 1081 1269 1318 744 
Q 1556 219 2034 219 
z
M 2034 -91 
Q 1275 -91 848 546 
Q 422 1184 422 2328 
Q 422 3475 848 4112 
Q 1275 4750 2034 4750 
Q 2797 4750 3222 4112 
Q 3647 3475 3647 2328 
Q 3647 1184 3222 546 
Q 2797 -91 2034 -91 
z
" transform="scale(0.015625)"/>
       </defs>
       <use xlink:href="#DejaVuSerif-30"/>
      </g>
     </g>
    </g>
    <g id="xtick_3">
     <g id="line2d_3">
      <g>
       <use xlink:href="#me8206b2ac5" x="467.020418" y="348.578203" style="stroke: #000000; stroke-width: 0.8"/>
      </g>
     </g>
     <g id="text_3">
      <!-- 5 -->
      <g transform="translate(459.703543 373.054609) scale(0.23 -0.23)">
       <use xlink:href="#DejaVuSerif-35"/>
      </g>
     </g>
    </g>
    <g id="text_4">
     <!-- Higher-order centrality -->
     <g transform="translate(106.436563 403.873359) scale(0.29 -0.29)">
      <defs>
       <path id="DejaVuSerif-48" d="M 353 0 
L 353 331 
L 947 331 
L 947 4331 
L 353 4331 
L 353 4666 
L 2175 4666 
L 2175 4331 
L 1581 4331 
L 1581 2719 
L 4000 2719 
L 4000 4331 
L 3406 4331 
L 3406 4666 
L 5228 4666 
L 5228 4331 
L 4634 4331 
L 4634 331 
L 5228 331 
L 5228 0 
L 3406 0 
L 3406 331 
L 4000 331 
L 4000 2338 
L 1581 2338 
L 1581 331 
L 2175 331 
L 2175 0 
L 353 0 
z
" transform="scale(0.015625)"/>
       <path id="DejaVuSerif-69" d="M 622 4353 
Q 622 4497 726 4603 
Q 831 4709 978 4709 
Q 1122 4709 1226 4603 
Q 1331 4497 1331 4353 
Q 1331 4206 1228 4103 
Q 1125 4000 978 4000 
Q 831 4000 726 4103 
Q 622 4206 622 4353 
z
M 1356 331 
L 1900 331 
L 1900 0 
L 231 0 
L 231 331 
L 781 331 
L 781 2988 
L 231 2988 
L 231 3322 
L 1356 3322 
L 1356 331 
z
" transform="scale(0.015625)"/>
       <path id="DejaVuSerif-67" d="M 3359 2988 
L 3359 72 
Q 3359 -644 2965 -1033 
Q 2572 -1422 1844 -1422 
Q 1516 -1422 1216 -1362 
Q 916 -1303 641 -1184 
L 641 -488 
L 941 -488 
Q 997 -813 1206 -963 
Q 1416 -1113 1806 -1113 
Q 2313 -1113 2548 -827 
Q 2784 -541 2784 72 
L 2784 519 
Q 2616 206 2355 57 
Q 2094 -91 1709 -91 
Q 1097 -91 708 395 
Q 319 881 319 1663 
Q 319 2444 706 2928 
Q 1094 3413 1709 3413 
Q 2094 3413 2355 3264 
Q 2616 3116 2784 2803 
L 2784 3322 
L 3909 3322 
L 3909 2988 
L 3359 2988 
z
M 2784 1825 
Q 2784 2422 2554 2737 
Q 2325 3053 1888 3053 
Q 1444 3053 1217 2703 
Q 991 2353 991 1663 
Q 991 975 1217 622 
Q 1444 269 1888 269 
Q 2325 269 2554 583 
Q 2784 897 2784 1497 
L 2784 1825 
z
" transform="scale(0.015625)"/>
       <path id="DejaVuSerif-68" d="M 263 0 
L 263 331 
L 781 331 
L 781 4531 
L 231 4531 
L 231 4863 
L 1356 4863 
L 1356 2731 
Q 1516 3069 1770 3241 
Q 2025 3413 2363 3413 
Q 2913 3413 3172 3097 
Q 3431 2781 3431 2113 
L 3431 331 
L 3944 331 
L 3944 0 
L 2356 0 
L 2356 331 
L 2853 331 
L 2853 1931 
Q 2853 2541 2704 2764 
Q 2556 2988 2175 2988 
Q 1775 2988 1565 2697 
Q 1356 2406 1356 1850 
L 1356 331 
L 1856 331 
L 1856 0 
L 263 0 
z
" transform="scale(0.015625)"/>
       <path id="DejaVuSerif-65" d="M 3469 1600 
L 991 1600 
L 991 1575 
Q 991 903 1244 561 
Q 1497 219 1991 219 
Q 2369 219 2611 417 
Q 2853 616 2950 1006 
L 3413 1006 
Q 3275 459 2904 184 
Q 2534 -91 1931 -91 
Q 1203 -91 761 389 
Q 319 869 319 1663 
Q 319 2450 753 2931 
Q 1188 3413 1894 3413 
Q 2647 3413 3050 2948 
Q 3453 2484 3469 1600 
z
M 2791 1931 
Q 2772 2513 2545 2808 
Q 2319 3103 1894 3103 
Q 1497 3103 1269 2806 
Q 1041 2509 991 1931 
L 2791 1931 
z
" transform="scale(0.015625)"/>
       <path id="DejaVuSerif-72" d="M 3059 3328 
L 3059 2497 
L 2728 2497 
Q 2713 2744 2591 2866 
Q 2469 2988 2234 2988 
Q 1809 2988 1582 2694 
Q 1356 2400 1356 1850 
L 1356 331 
L 2022 331 
L 2022 0 
L 263 0 
L 263 331 
L 781 331 
L 781 2994 
L 231 2994 
L 231 3322 
L 1356 3322 
L 1356 2731 
Q 1525 3078 1790 3245 
Q 2056 3413 2438 3413 
Q 2578 3413 2733 3391 
Q 2888 3369 3059 3328 
z
" transform="scale(0.015625)"/>
       <path id="DejaVuSerif-2d" d="M 281 1959 
L 1881 1959 
L 1881 1472 
L 281 1472 
L 281 1959 
z
" transform="scale(0.015625)"/>
       <path id="DejaVuSerif-6f" d="M 1925 219 
Q 2388 219 2623 584 
Q 2859 950 2859 1663 
Q 2859 2375 2623 2739 
Q 2388 3103 1925 3103 
Q 1463 3103 1227 2739 
Q 991 2375 991 1663 
Q 991 950 1228 584 
Q 1466 219 1925 219 
z
M 1925 -91 
Q 1200 -91 759 389 
Q 319 869 319 1663 
Q 319 2456 758 2934 
Q 1197 3413 1925 3413 
Q 2653 3413 3092 2934 
Q 3531 2456 3531 1663 
Q 3531 869 3092 389 
Q 2653 -91 1925 -91 
z
" transform="scale(0.015625)"/>
       <path id="DejaVuSerif-64" d="M 3359 331 
L 3909 331 
L 3909 0 
L 2784 0 
L 2784 519 
Q 2616 206 2355 57 
Q 2094 -91 1709 -91 
Q 1097 -91 708 395 
Q 319 881 319 1663 
Q 319 2444 706 2928 
Q 1094 3413 1709 3413 
Q 2094 3413 2355 3264 
Q 2616 3116 2784 2803 
L 2784 4531 
L 2241 4531 
L 2241 4863 
L 3359 4863 
L 3359 331 
z
M 2784 1497 
L 2784 1825 
Q 2784 2422 2554 2737 
Q 2325 3053 1888 3053 
Q 1444 3053 1217 2703 
Q 991 2353 991 1663 
Q 991 975 1217 622 
Q 1444 269 1888 269 
Q 2325 269 2554 583 
Q 2784 897 2784 1497 
z
" transform="scale(0.015625)"/>
       <path id="DejaVuSerif-20" transform="scale(0.015625)"/>
       <path id="DejaVuSerif-63" d="M 3291 997 
Q 3169 466 2822 187 
Q 2475 -91 1925 -91 
Q 1200 -91 759 389 
Q 319 869 319 1663 
Q 319 2459 759 2936 
Q 1200 3413 1925 3413 
Q 2241 3413 2553 3339 
Q 2866 3266 3181 3116 
L 3181 2266 
L 2847 2266 
Q 2781 2703 2561 2903 
Q 2341 3103 1931 3103 
Q 1466 3103 1228 2742 
Q 991 2381 991 1663 
Q 991 944 1227 581 
Q 1463 219 1931 219 
Q 2303 219 2525 412 
Q 2747 606 2828 997 
L 3291 997 
z
" transform="scale(0.015625)"/>
       <path id="DejaVuSerif-6e" d="M 263 0 
L 263 331 
L 781 331 
L 781 2988 
L 231 2988 
L 231 3322 
L 1356 3322 
L 1356 2731 
Q 1516 3069 1770 3241 
Q 2025 3413 2363 3413 
Q 2913 3413 3172 3097 
Q 3431 2781 3431 2113 
L 3431 331 
L 3944 331 
L 3944 0 
L 2356 0 
L 2356 331 
L 2853 331 
L 2853 1931 
Q 2853 2541 2703 2767 
Q 2553 2994 2175 2994 
Q 1775 2994 1565 2701 
Q 1356 2409 1356 1850 
L 1356 331 
L 1856 331 
L 1856 0 
L 263 0 
z
" transform="scale(0.015625)"/>
       <path id="DejaVuSerif-74" d="M 691 2988 
L 184 2988 
L 184 3322 
L 691 3322 
L 691 4353 
L 1269 4353 
L 1269 3322 
L 2350 3322 
L 2350 2988 
L 1269 2988 
L 1269 878 
Q 1269 456 1350 337 
Q 1431 219 1650 219 
Q 1875 219 1978 351 
Q 2081 484 2088 781 
L 2522 781 
Q 2497 328 2275 118 
Q 2053 -91 1600 -91 
Q 1103 -91 897 129 
Q 691 350 691 878 
L 691 2988 
z
" transform="scale(0.015625)"/>
       <path id="DejaVuSerif-61" d="M 2547 1044 
L 2547 1747 
L 1806 1747 
Q 1378 1747 1168 1562 
Q 959 1378 959 997 
Q 959 650 1171 447 
Q 1384 244 1747 244 
Q 2106 244 2326 466 
Q 2547 688 2547 1044 
z
M 3122 2075 
L 3122 331 
L 3634 331 
L 3634 0 
L 2547 0 
L 2547 359 
Q 2356 128 2106 18 
Q 1856 -91 1522 -91 
Q 969 -91 644 203 
Q 319 497 319 997 
Q 319 1513 691 1797 
Q 1063 2081 1741 2081 
L 2547 2081 
L 2547 2309 
Q 2547 2688 2317 2895 
Q 2088 3103 1672 3103 
Q 1328 3103 1125 2947 
Q 922 2791 872 2484 
L 575 2484 
L 575 3156 
Q 875 3284 1158 3348 
Q 1441 3413 1709 3413 
Q 2400 3413 2761 3070 
Q 3122 2728 3122 2075 
z
" transform="scale(0.015625)"/>
       <path id="DejaVuSerif-6c" d="M 1313 331 
L 1856 331 
L 1856 0 
L 184 0 
L 184 331 
L 738 331 
L 738 4531 
L 184 4531 
L 184 4863 
L 1313 4863 
L 1313 331 
z
" transform="scale(0.015625)"/>
       <path id="DejaVuSerif-79" d="M 1381 -609 
L 1600 -56 
L 359 2988 
L -19 2988 
L -19 3322 
L 1509 3322 
L 1509 2988 
L 978 2988 
L 1913 703 
L 2847 2988 
L 2350 2988 
L 2350 3322 
L 3597 3322 
L 3597 2988 
L 3225 2988 
L 1703 -750 
Q 1547 -1138 1356 -1280 
Q 1166 -1422 819 -1422 
Q 672 -1422 517 -1397 
Q 363 -1372 206 -1325 
L 206 -691 
L 500 -691 
Q 519 -903 608 -995 
Q 697 -1088 884 -1088 
Q 1056 -1088 1161 -992 
Q 1266 -897 1381 -609 
z
" transform="scale(0.015625)"/>
      </defs>
      <use xlink:href="#DejaVuSerif-48"/>
      <use xlink:href="#DejaVuSerif-69" x="87.207031"/>
      <use xlink:href="#DejaVuSerif-67" x="119.189453"/>
      <use xlink:href="#DejaVuSerif-68" x="183.203125"/>
      <use xlink:href="#DejaVuSerif-65" x="247.607422"/>
      <use xlink:href="#DejaVuSerif-72" x="306.787109"/>
      <use xlink:href="#DejaVuSerif-2d" x="354.589844"/>
      <use xlink:href="#DejaVuSerif-6f" x="388.378906"/>
      <use xlink:href="#DejaVuSerif-72" x="448.583984"/>
      <use xlink:href="#DejaVuSerif-64" x="496.386719"/>
      <use xlink:href="#DejaVuSerif-65" x="560.400391"/>
      <use xlink:href="#DejaVuSerif-72" x="619.580078"/>
      <use xlink:href="#DejaVuSerif-20" x="667.382812"/>
      <use xlink:href="#DejaVuSerif-63" x="699.169922"/>
      <use xlink:href="#DejaVuSerif-65" x="755.175781"/>
      <use xlink:href="#DejaVuSerif-6e" x="814.355469"/>
      <use xlink:href="#DejaVuSerif-74" x="878.759766"/>
      <use xlink:href="#DejaVuSerif-72" x="918.945312"/>
      <use xlink:href="#DejaVuSerif-61" x="966.748047"/>
      <use xlink:href="#DejaVuSerif-6c" x="1026.367188"/>
      <use xlink:href="#DejaVuSerif-69" x="1058.349609"/>
      <use xlink:href="#DejaVuSerif-74" x="1090.332031"/>
      <use xlink:href="#DejaVuSerif-79" x="1130.517578"/>
     </g>
    </g>
   </g>
   <g id="matplotlib.axis_2">
    <g id="ytick_1">
     <g id="line2d_4">
      <defs>
       <path id="m46172ede7b" d="M 0 0 
L -3.5 0 
" style="stroke: #000000; stroke-width: 0.8"/>
      </defs>
      <g>
       <use xlink:href="#m46172ede7b" x="83.256094" y="348.578203" style="stroke: #000000; stroke-width: 0.8"/>
      </g>
     </g>
     <g id="text_5">
      <!-- 0.0 -->
      <g transform="translate(39.678906 357.316406) scale(0.23 -0.23)">
       <defs>
        <path id="DejaVuSerif-2e" d="M 603 325 
Q 603 500 722 622 
Q 841 744 1019 744 
Q 1191 744 1312 622 
Q 1434 500 1434 325 
Q 1434 153 1312 31 
Q 1191 -91 1019 -91 
Q 841 -91 722 29 
Q 603 150 603 325 
z
" transform="scale(0.015625)"/>
       </defs>
       <use xlink:href="#DejaVuSerif-30"/>
       <use xlink:href="#DejaVuSerif-2e" x="63.623047"/>
       <use xlink:href="#DejaVuSerif-30" x="95.410156"/>
      </g>
     </g>
    </g>
    <g id="ytick_2">
     <g id="line2d_5">
      <g>
       <use xlink:href="#m46172ede7b" x="83.256094" y="282.050203" style="stroke: #000000; stroke-width: 0.8"/>
      </g>
     </g>
     <g id="text_6">
      <!-- 0.2 -->
      <g transform="translate(39.678906 290.788406) scale(0.23 -0.23)">
       <defs>
        <path id="DejaVuSerif-32" d="M 819 3553 
L 469 3553 
L 469 4384 
Q 803 4563 1142 4656 
Q 1481 4750 1806 4750 
Q 2534 4750 2956 4397 
Q 3378 4044 3378 3438 
Q 3378 2753 2422 1800 
Q 2347 1728 2309 1691 
L 1131 513 
L 3078 513 
L 3078 1088 
L 3444 1088 
L 3444 0 
L 434 0 
L 434 341 
L 1850 1753 
Q 2319 2222 2519 2614 
Q 2719 3006 2719 3438 
Q 2719 3909 2473 4175 
Q 2228 4441 1797 4441 
Q 1350 4441 1106 4219 
Q 863 3997 819 3553 
z
" transform="scale(0.015625)"/>
       </defs>
       <use xlink:href="#DejaVuSerif-30"/>
       <use xlink:href="#DejaVuSerif-2e" x="63.623047"/>
       <use xlink:href="#DejaVuSerif-32" x="95.410156"/>
      </g>
     </g>
    </g>
    <g id="ytick_3">
     <g id="line2d_6">
      <g>
       <use xlink:href="#m46172ede7b" x="83.256094" y="215.522203" style="stroke: #000000; stroke-width: 0.8"/>
      </g>
     </g>
     <g id="text_7">
      <!-- 0.4 -->
      <g transform="translate(39.678906 224.260406) scale(0.23 -0.23)">
       <defs>
        <path id="DejaVuSerif-34" d="M 2234 1581 
L 2234 4063 
L 641 1581 
L 2234 1581 
z
M 3609 0 
L 1484 0 
L 1484 331 
L 2234 331 
L 2234 1247 
L 197 1247 
L 197 1588 
L 2241 4750 
L 2859 4750 
L 2859 1581 
L 3750 1581 
L 3750 1247 
L 2859 1247 
L 2859 331 
L 3609 331 
L 3609 0 
z
" transform="scale(0.015625)"/>
       </defs>
       <use xlink:href="#DejaVuSerif-30"/>
       <use xlink:href="#DejaVuSerif-2e" x="63.623047"/>
       <use xlink:href="#DejaVuSerif-34" x="95.410156"/>
      </g>
     </g>
    </g>
    <g id="ytick_4">
     <g id="line2d_7">
      <g>
       <use xlink:href="#m46172ede7b" x="83.256094" y="148.994203" style="stroke: #000000; stroke-width: 0.8"/>
      </g>
     </g>
     <g id="text_8">
      <!-- 0.6 -->
      <g transform="translate(39.678906 157.732406) scale(0.23 -0.23)">
       <defs>
        <path id="DejaVuSerif-36" d="M 2094 219 
Q 2534 219 2771 542 
Q 3009 866 3009 1472 
Q 3009 2078 2771 2401 
Q 2534 2725 2094 2725 
Q 1647 2725 1412 2412 
Q 1178 2100 1178 1509 
Q 1178 888 1415 553 
Q 1653 219 2094 219 
z
M 1075 2569 
Q 1288 2803 1556 2918 
Q 1825 3034 2163 3034 
Q 2859 3034 3264 2615 
Q 3669 2197 3669 1472 
Q 3669 763 3233 336 
Q 2797 -91 2069 -91 
Q 1278 -91 853 498 
Q 428 1088 428 2181 
Q 428 3406 931 4078 
Q 1434 4750 2350 4750 
Q 2597 4750 2869 4703 
Q 3141 4656 3425 4563 
L 3425 3794 
L 3072 3794 
Q 3034 4109 2831 4275 
Q 2628 4441 2284 4441 
Q 1678 4441 1381 3981 
Q 1084 3522 1075 2569 
z
" transform="scale(0.015625)"/>
       </defs>
       <use xlink:href="#DejaVuSerif-30"/>
       <use xlink:href="#DejaVuSerif-2e" x="63.623047"/>
       <use xlink:href="#DejaVuSerif-36" x="95.410156"/>
      </g>
     </g>
    </g>
    <g id="ytick_5">
     <g id="line2d_8">
      <g>
       <use xlink:href="#m46172ede7b" x="83.256094" y="82.466203" style="stroke: #000000; stroke-width: 0.8"/>
      </g>
     </g>
     <g id="text_9">
      <!-- 0.8 -->
      <g transform="translate(39.678906 91.204406) scale(0.23 -0.23)">
       <defs>
        <path id="DejaVuSerif-38" d="M 2981 1275 
Q 2981 1775 2732 2051 
Q 2484 2328 2034 2328 
Q 1584 2328 1336 2051 
Q 1088 1775 1088 1275 
Q 1088 772 1336 495 
Q 1584 219 2034 219 
Q 2484 219 2732 495 
Q 2981 772 2981 1275 
z
M 2853 3541 
Q 2853 3966 2637 4203 
Q 2422 4441 2034 4441 
Q 1650 4441 1433 4203 
Q 1216 3966 1216 3541 
Q 1216 3113 1433 2875 
Q 1650 2638 2034 2638 
Q 2422 2638 2637 2875 
Q 2853 3113 2853 3541 
z
M 2516 2484 
Q 3047 2413 3344 2092 
Q 3641 1772 3641 1275 
Q 3641 619 3225 264 
Q 2809 -91 2034 -91 
Q 1263 -91 845 264 
Q 428 619 428 1275 
Q 428 1772 725 2092 
Q 1022 2413 1556 2484 
Q 1084 2569 832 2842 
Q 581 3116 581 3541 
Q 581 4103 968 4426 
Q 1356 4750 2034 4750 
Q 2713 4750 3100 4426 
Q 3488 4103 3488 3541 
Q 3488 3116 3236 2842 
Q 2984 2569 2516 2484 
z
" transform="scale(0.015625)"/>
       </defs>
       <use xlink:href="#DejaVuSerif-30"/>
       <use xlink:href="#DejaVuSerif-2e" x="63.623047"/>
       <use xlink:href="#DejaVuSerif-38" x="95.410156"/>
      </g>
     </g>
    </g>
    <g id="ytick_6">
     <g id="line2d_9">
      <g>
       <use xlink:href="#m46172ede7b" x="83.256094" y="15.938203" style="stroke: #000000; stroke-width: 0.8"/>
      </g>
     </g>
     <g id="text_10">
      <!-- 1.0 -->
      <g transform="translate(39.678906 24.676406) scale(0.23 -0.23)">
       <defs>
        <path id="DejaVuSerif-31" d="M 909 0 
L 909 331 
L 1722 331 
L 1722 4213 
L 781 3603 
L 781 4013 
L 1919 4750 
L 2350 4750 
L 2350 331 
L 3163 331 
L 3163 0 
L 909 0 
z
" transform="scale(0.015625)"/>
       </defs>
       <use xlink:href="#DejaVuSerif-31"/>
       <use xlink:href="#DejaVuSerif-2e" x="63.623047"/>
       <use xlink:href="#DejaVuSerif-30" x="95.410156"/>
      </g>
     </g>
    </g>
    <g id="text_11">
     <!-- Cumulative frequency -->
     <g transform="translate(29.235469 344.646875) rotate(-90) scale(0.29 -0.29)">
      <defs>
       <path id="DejaVuSerif-43" d="M 4513 1234 
Q 4306 581 3820 245 
Q 3334 -91 2591 -91 
Q 2134 -91 1743 65 
Q 1353 222 1050 525 
Q 700 875 529 1320 
Q 359 1766 359 2328 
Q 359 3416 987 4083 
Q 1616 4750 2644 4750 
Q 3025 4750 3456 4650 
Q 3888 4550 4384 4347 
L 4384 3272 
L 4031 3272 
Q 3916 3859 3567 4137 
Q 3219 4416 2591 4416 
Q 1844 4416 1459 3886 
Q 1075 3356 1075 2328 
Q 1075 1303 1459 773 
Q 1844 244 2591 244 
Q 3113 244 3450 492 
Q 3788 741 3938 1234 
L 4513 1234 
z
" transform="scale(0.015625)"/>
       <path id="DejaVuSerif-75" d="M 2266 3322 
L 3341 3322 
L 3341 331 
L 3884 331 
L 3884 0 
L 2766 0 
L 2766 588 
Q 2606 256 2353 82 
Q 2100 -91 1766 -91 
Q 1213 -91 952 223 
Q 691 538 691 1209 
L 691 2988 
L 172 2988 
L 172 3322 
L 1269 3322 
L 1269 1388 
Q 1269 781 1417 556 
Q 1566 331 1947 331 
Q 2347 331 2556 625 
Q 2766 919 2766 1478 
L 2766 2988 
L 2266 2988 
L 2266 3322 
z
" transform="scale(0.015625)"/>
       <path id="DejaVuSerif-6d" d="M 3316 2675 
Q 3481 3041 3739 3227 
Q 3997 3413 4341 3413 
Q 4863 3413 5119 3089 
Q 5375 2766 5375 2113 
L 5375 331 
L 5894 331 
L 5894 0 
L 4300 0 
L 4300 331 
L 4800 331 
L 4800 2047 
Q 4800 2556 4650 2772 
Q 4500 2988 4153 2988 
Q 3769 2988 3567 2697 
Q 3366 2406 3366 1850 
L 3366 331 
L 3866 331 
L 3866 0 
L 2291 0 
L 2291 331 
L 2791 331 
L 2791 2069 
Q 2791 2566 2641 2777 
Q 2491 2988 2144 2988 
Q 1759 2988 1557 2697 
Q 1356 2406 1356 1850 
L 1356 331 
L 1856 331 
L 1856 0 
L 263 0 
L 263 331 
L 781 331 
L 781 2994 
L 231 2994 
L 231 3322 
L 1356 3322 
L 1356 2731 
Q 1516 3063 1762 3238 
Q 2009 3413 2322 3413 
Q 2709 3413 2968 3220 
Q 3228 3028 3316 2675 
z
" transform="scale(0.015625)"/>
       <path id="DejaVuSerif-76" d="M 1581 0 
L 359 2988 
L -19 2988 
L -19 3322 
L 1509 3322 
L 1509 2988 
L 978 2988 
L 1913 703 
L 2847 2988 
L 2350 2988 
L 2350 3322 
L 3597 3322 
L 3597 2988 
L 3225 2988 
L 2003 0 
L 1581 0 
z
" transform="scale(0.015625)"/>
       <path id="DejaVuSerif-66" d="M 2753 4078 
L 2450 4078 
Q 2447 4313 2317 4434 
Q 2188 4556 1941 4556 
Q 1619 4556 1487 4379 
Q 1356 4203 1356 3750 
L 1356 3322 
L 2284 3322 
L 2284 2988 
L 1356 2988 
L 1356 331 
L 2094 331 
L 2094 0 
L 231 0 
L 231 331 
L 781 331 
L 781 2988 
L 231 2988 
L 231 3322 
L 781 3322 
L 781 3738 
Q 781 4294 1070 4578 
Q 1359 4863 1919 4863 
Q 2128 4863 2337 4825 
Q 2547 4788 2753 4709 
L 2753 4078 
z
" transform="scale(0.015625)"/>
       <path id="DejaVuSerif-71" d="M 3359 2988 
L 3359 -997 
L 3909 -997 
L 3909 -1331 
L 2241 -1331 
L 2241 -997 
L 2784 -997 
L 2784 519 
Q 2616 206 2355 57 
Q 2094 -91 1709 -91 
Q 1097 -91 708 395 
Q 319 881 319 1663 
Q 319 2444 706 2928 
Q 1094 3413 1709 3413 
Q 2094 3413 2355 3264 
Q 2616 3116 2784 2803 
L 2784 3322 
L 3909 3322 
L 3909 2988 
L 3359 2988 
z
M 2784 1825 
Q 2784 2422 2554 2737 
Q 2325 3053 1888 3053 
Q 1444 3053 1217 2703 
Q 991 2353 991 1663 
Q 991 975 1217 622 
Q 1444 269 1888 269 
Q 2325 269 2554 583 
Q 2784 897 2784 1497 
L 2784 1825 
z
" transform="scale(0.015625)"/>
      </defs>
      <use xlink:href="#DejaVuSerif-43"/>
      <use xlink:href="#DejaVuSerif-75" x="76.513672"/>
      <use xlink:href="#DejaVuSerif-6d" x="140.917969"/>
      <use xlink:href="#DejaVuSerif-75" x="235.742188"/>
      <use xlink:href="#DejaVuSerif-6c" x="300.146484"/>
      <use xlink:href="#DejaVuSerif-61" x="332.128906"/>
      <use xlink:href="#DejaVuSerif-74" x="391.748047"/>
      <use xlink:href="#DejaVuSerif-69" x="431.933594"/>
      <use xlink:href="#DejaVuSerif-76" x="463.916016"/>
      <use xlink:href="#DejaVuSerif-65" x="520.410156"/>
      <use xlink:href="#DejaVuSerif-20" x="579.589844"/>
      <use xlink:href="#DejaVuSerif-66" x="611.376953"/>
      <use xlink:href="#DejaVuSerif-72" x="648.388672"/>
      <use xlink:href="#DejaVuSerif-65" x="696.191406"/>
      <use xlink:href="#DejaVuSerif-71" x="755.371094"/>
      <use xlink:href="#DejaVuSerif-75" x="819.384766"/>
      <use xlink:href="#DejaVuSerif-65" x="883.789062"/>
      <use xlink:href="#DejaVuSerif-6e" x="942.96875"/>
      <use xlink:href="#DejaVuSerif-63" x="1007.373047"/>
      <use xlink:href="#DejaVuSerif-79" x="1063.378906"/>
     </g>
    </g>
   </g>
   <g id="patch_39">
    <path d="M 83.256094 348.578203 
L 83.256094 15.938203 
" style="fill: none; stroke: #000000; stroke-width: 0.8; stroke-linejoin: miter; stroke-linecap: square"/>
   </g>
   <g id="patch_40">
    <path d="M 83.256094 348.578203 
L 473.856094 348.578203 
" style="fill: none; stroke: #000000; stroke-width: 0.8; stroke-linejoin: miter; stroke-linecap: square"/>
   </g>
   <g id="legend_1">
    <g id="patch_41">
     <path d="M 101.256094 49.135078 
L 121.256094 49.135078 
L 121.256094 35.135078 
L 101.256094 35.135078 
z
" style="fill: #3d7296; opacity: 0.75"/>
    </g>
    <g id="text_12">
     <!-- Dataset -->
     <g transform="translate(137.256094 49.135078) scale(0.2 -0.2)">
      <defs>
       <path id="DejaVuSerif-44" d="M 1581 331 
L 2163 331 
Q 3072 331 3558 850 
Q 4044 1369 4044 2338 
Q 4044 3306 3559 3818 
Q 3075 4331 2163 4331 
L 1581 4331 
L 1581 331 
z
M 353 0 
L 353 331 
L 947 331 
L 947 4331 
L 353 4331 
L 353 4666 
L 2209 4666 
Q 3416 4666 4089 4050 
Q 4763 3434 4763 2338 
Q 4763 1238 4088 619 
Q 3413 0 2209 0 
L 353 0 
z
" transform="scale(0.015625)"/>
       <path id="DejaVuSerif-73" d="M 359 184 
L 359 959 
L 691 959 
Q 703 588 923 403 
Q 1144 219 1575 219 
Q 1963 219 2166 364 
Q 2369 509 2369 788 
Q 2369 1006 2220 1140 
Q 2072 1275 1594 1428 
L 1178 1569 
Q 750 1706 558 1912 
Q 366 2119 366 2438 
Q 366 2894 700 3153 
Q 1034 3413 1625 3413 
Q 1888 3413 2178 3344 
Q 2469 3275 2778 3144 
L 2778 2419 
L 2447 2419 
Q 2434 2741 2221 2922 
Q 2009 3103 1644 3103 
Q 1281 3103 1095 2975 
Q 909 2847 909 2591 
Q 909 2381 1050 2254 
Q 1191 2128 1613 1997 
L 2069 1856 
Q 2541 1709 2748 1489 
Q 2956 1269 2956 922 
Q 2956 450 2595 179 
Q 2234 -91 1600 -91 
Q 1278 -91 972 -22 
Q 666 47 359 184 
z
" transform="scale(0.015625)"/>
      </defs>
      <use xlink:href="#DejaVuSerif-44"/>
      <use xlink:href="#DejaVuSerif-61" x="80.175781"/>
      <use xlink:href="#DejaVuSerif-74" x="139.794922"/>
      <use xlink:href="#DejaVuSerif-61" x="179.980469"/>
      <use xlink:href="#DejaVuSerif-73" x="239.599609"/>
      <use xlink:href="#DejaVuSerif-65" x="290.917969"/>
      <use xlink:href="#DejaVuSerif-74" x="350.097656"/>
     </g>
    </g>
    <g id="patch_42">
     <path d="M 101.256094 78.491328 
L 121.256094 78.491328 
L 121.256094 64.491328 
L 101.256094 64.491328 
z
" style="fill: #bac9dc; opacity: 0.75"/>
    </g>
    <g id="text_13">
     <!-- Sample -->
     <g transform="translate(137.256094 78.491328) scale(0.2 -0.2)">
      <defs>
       <path id="DejaVuSerif-53" d="M 594 225 
L 594 1288 
L 953 1284 
Q 969 753 1261 498 
Q 1553 244 2150 244 
Q 2706 244 2998 464 
Q 3291 684 3291 1106 
Q 3291 1444 3114 1625 
Q 2938 1806 2369 1978 
L 1753 2163 
Q 1084 2366 811 2669 
Q 538 2972 538 3500 
Q 538 4094 959 4422 
Q 1381 4750 2144 4750 
Q 2469 4750 2856 4679 
Q 3244 4609 3681 4475 
L 3681 3481 
L 3328 3481 
Q 3275 3975 2998 4195 
Q 2722 4416 2156 4416 
Q 1663 4416 1405 4214 
Q 1147 4013 1147 3628 
Q 1147 3294 1340 3103 
Q 1534 2913 2163 2725 
L 2741 2553 
Q 3375 2363 3645 2067 
Q 3916 1772 3916 1275 
Q 3916 597 3481 253 
Q 3047 -91 2188 -91 
Q 1803 -91 1404 -12 
Q 1006 66 594 225 
z
" transform="scale(0.015625)"/>
       <path id="DejaVuSerif-70" d="M 1313 1825 
L 1313 1497 
Q 1313 897 1542 583 
Q 1772 269 2209 269 
Q 2650 269 2876 622 
Q 3103 975 3103 1663 
Q 3103 2353 2876 2703 
Q 2650 3053 2209 3053 
Q 1772 3053 1542 2737 
Q 1313 2422 1313 1825 
z
M 738 2988 
L 184 2988 
L 184 3322 
L 1313 3322 
L 1313 2803 
Q 1481 3116 1742 3264 
Q 2003 3413 2388 3413 
Q 3000 3413 3387 2928 
Q 3775 2444 3775 1663 
Q 3775 881 3387 395 
Q 3000 -91 2388 -91 
Q 2003 -91 1742 57 
Q 1481 206 1313 519 
L 1313 -997 
L 1856 -997 
L 1856 -1331 
L 184 -1331 
L 184 -997 
L 738 -997 
L 738 2988 
z
" transform="scale(0.015625)"/>
      </defs>
      <use xlink:href="#DejaVuSerif-53"/>
      <use xlink:href="#DejaVuSerif-61" x="68.505859"/>
      <use xlink:href="#DejaVuSerif-6d" x="128.125"/>
      <use xlink:href="#DejaVuSerif-70" x="222.949219"/>
      <use xlink:href="#DejaVuSerif-6c" x="286.962891"/>
      <use xlink:href="#DejaVuSerif-65" x="318.945312"/>
     </g>
    </g>
   </g>
  </g>
 </g>
 <defs>
  <clipPath id="p78ecf65846">
   <rect x="83.256094" y="15.938203" width="390.6" height="332.64"/>
  </clipPath>
 </defs>
</svg>
