<?xml version="1.0" encoding="utf-8" standalone="no"?>
<!DOCTYPE svg PUBLIC "-//W3C//DTD SVG 1.1//EN"
  "http://www.w3.org/Graphics/SVG/1.1/DTD/svg11.dtd">
<svg xmlns:xlink="http://www.w3.org/1999/xlink" width="502.594375pt" height="417.104453pt" viewBox="0 0 502.594375 417.104453" xmlns="http://www.w3.org/2000/svg" version="1.1">
 <metadata>
  <rdf:RDF xmlns:dc="http://purl.org/dc/elements/1.1/" xmlns:cc="http://creativecommons.org/ns#" xmlns:rdf="http://www.w3.org/1999/02/22-rdf-syntax-ns#">
   <cc:Work>
    <dc:type rdf:resource="http://purl.org/dc/dcmitype/StillImage"/>
    <dc:date>2023-03-27T13:46:38.730046</dc:date>
    <dc:format>image/svg+xml</dc:format>
    <dc:creator>
     <cc:Agent>
      <dc:title>Matplotlib v3.7.1, https://matplotlib.org/</dc:title>
     </cc:Agent>
    </dc:creator>
   </cc:Work>
  </rdf:RDF>
 </metadata>
 <defs>
  <style type="text/css">*{stroke-linejoin: round; stroke-linecap: butt}</style>
 </defs>
 <g id="figure_1">
  <g id="patch_1">
   <path d="M 0 417.104453 
L 502.594375 417.104453 
L 502.594375 0 
L 0 0 
z
" style="fill: #ffffff"/>
  </g>
  <g id="axes_1">
   <g id="patch_2">
    <path d="M 82.84375 348.578203 
L 473.44375 348.578203 
L 473.44375 15.938203 
L 82.84375 15.938203 
z
" style="fill: #ffffff"/>
   </g>
   <g id="matplotlib.axis_1">
    <g id="xtick_1">
     <g id="line2d_1">
      <defs>
       <path id="mbbf10efc0f" d="M 0 0 
L 0 3.5 
" style="stroke: #000000; stroke-width: 0.8"/>
      </defs>
      <g>
       <use xlink:href="#mbbf10efc0f" x="82.84375" y="348.578203" style="stroke: #000000; stroke-width: 0.8"/>
      </g>
     </g>
     <g id="text_1">
      <!-- 0 -->
      <g transform="translate(75.526875 373.054609) scale(0.23 -0.23)">
       <defs>
        <path id="DejaVuSerif-30" d="M 2034 219 
Q 2513 219 2750 744 
Q 2988 1269 2988 2328 
Q 2988 3391 2750 3916 
Q 2513 4441 2034 4441 
Q 1556 4441 1318 3916 
Q 1081 3391 1081 2328 
Q 1081 1269 1318 744 
Q 1556 219 2034 219 
z
M 2034 -91 
Q 1275 -91 848 546 
Q 422 1184 422 2328 
Q 422 3475 848 4112 
Q 1275 4750 2034 4750 
Q 2797 4750 3222 4112 
Q 3647 3475 3647 2328 
Q 3647 1184 3222 546 
Q 2797 -91 2034 -91 
z
" transform="scale(0.015625)"/>
       </defs>
       <use xlink:href="#DejaVuSerif-30"/>
      </g>
     </g>
    </g>
    <g id="xtick_2">
     <g id="line2d_2">
      <g>
       <use xlink:href="#mbbf10efc0f" x="213.04375" y="348.578203" style="stroke: #000000; stroke-width: 0.8"/>
      </g>
     </g>
     <g id="text_2">
      <!-- 100 -->
      <g transform="translate(191.093125 373.054609) scale(0.23 -0.23)">
       <defs>
        <path id="DejaVuSerif-31" d="M 909 0 
L 909 331 
L 1722 331 
L 1722 4213 
L 781 3603 
L 781 4013 
L 1919 4750 
L 2350 4750 
L 2350 331 
L 3163 331 
L 3163 0 
L 909 0 
z
" transform="scale(0.015625)"/>
       </defs>
       <use xlink:href="#DejaVuSerif-31"/>
       <use xlink:href="#DejaVuSerif-30" x="63.623047"/>
       <use xlink:href="#DejaVuSerif-30" x="127.246094"/>
      </g>
     </g>
    </g>
    <g id="xtick_3">
     <g id="line2d_3">
      <g>
       <use xlink:href="#mbbf10efc0f" x="343.24375" y="348.578203" style="stroke: #000000; stroke-width: 0.8"/>
      </g>
     </g>
     <g id="text_3">
      <!-- 200 -->
      <g transform="translate(321.293125 373.054609) scale(0.23 -0.23)">
       <defs>
        <path id="DejaVuSerif-32" d="M 819 3553 
L 469 3553 
L 469 4384 
Q 803 4563 1142 4656 
Q 1481 4750 1806 4750 
Q 2534 4750 2956 4397 
Q 3378 4044 3378 3438 
Q 3378 2753 2422 1800 
Q 2347 1728 2309 1691 
L 1131 513 
L 3078 513 
L 3078 1088 
L 3444 1088 
L 3444 0 
L 434 0 
L 434 341 
L 1850 1753 
Q 2319 2222 2519 2614 
Q 2719 3006 2719 3438 
Q 2719 3909 2473 4175 
Q 2228 4441 1797 4441 
Q 1350 4441 1106 4219 
Q 863 3997 819 3553 
z
" transform="scale(0.015625)"/>
       </defs>
       <use xlink:href="#DejaVuSerif-32"/>
       <use xlink:href="#DejaVuSerif-30" x="63.623047"/>
       <use xlink:href="#DejaVuSerif-30" x="127.246094"/>
      </g>
     </g>
    </g>
    <g id="xtick_4">
     <g id="line2d_4">
      <g>
       <use xlink:href="#mbbf10efc0f" x="473.44375" y="348.578203" style="stroke: #000000; stroke-width: 0.8"/>
      </g>
     </g>
     <g id="text_4">
      <!-- 300 -->
      <g transform="translate(451.493125 373.054609) scale(0.23 -0.23)">
       <defs>
        <path id="DejaVuSerif-33" d="M 622 4469 
Q 988 4606 1323 4678 
Q 1659 4750 1953 4750 
Q 2638 4750 3022 4454 
Q 3406 4159 3406 3634 
Q 3406 3213 3140 2930 
Q 2875 2647 2388 2547 
Q 2963 2466 3280 2130 
Q 3597 1794 3597 1259 
Q 3597 606 3158 257 
Q 2719 -91 1894 -91 
Q 1528 -91 1179 -12 
Q 831 66 488 225 
L 488 1131 
L 838 1131 
Q 869 681 1141 450 
Q 1413 219 1906 219 
Q 2384 219 2661 495 
Q 2938 772 2938 1253 
Q 2938 1803 2653 2086 
Q 2369 2369 1819 2369 
L 1522 2369 
L 1522 2688 
L 1678 2688 
Q 2225 2688 2498 2914 
Q 2772 3141 2772 3597 
Q 2772 4006 2547 4223 
Q 2322 4441 1900 4441 
Q 1478 4441 1245 4241 
Q 1013 4041 972 3647 
L 622 3647 
L 622 4469 
z
" transform="scale(0.015625)"/>
       </defs>
       <use xlink:href="#DejaVuSerif-33"/>
       <use xlink:href="#DejaVuSerif-30" x="63.623047"/>
       <use xlink:href="#DejaVuSerif-30" x="127.246094"/>
      </g>
     </g>
    </g>
    <g id="text_5">
     <!-- Time -->
     <g transform="translate(241.501797 403.873359) scale(0.29 -0.29)">
      <defs>
       <path id="DejaVuSerif-54" d="M 1222 0 
L 1222 331 
L 1819 331 
L 1819 4294 
L 447 4294 
L 447 3566 
L 63 3566 
L 63 4666 
L 4206 4666 
L 4206 3566 
L 3822 3566 
L 3822 4294 
L 2450 4294 
L 2450 331 
L 3047 331 
L 3047 0 
L 1222 0 
z
" transform="scale(0.015625)"/>
       <path id="DejaVuSerif-69" d="M 622 4353 
Q 622 4497 726 4603 
Q 831 4709 978 4709 
Q 1122 4709 1226 4603 
Q 1331 4497 1331 4353 
Q 1331 4206 1228 4103 
Q 1125 4000 978 4000 
Q 831 4000 726 4103 
Q 622 4206 622 4353 
z
M 1356 331 
L 1900 331 
L 1900 0 
L 231 0 
L 231 331 
L 781 331 
L 781 2988 
L 231 2988 
L 231 3322 
L 1356 3322 
L 1356 331 
z
" transform="scale(0.015625)"/>
       <path id="DejaVuSerif-6d" d="M 3316 2675 
Q 3481 3041 3739 3227 
Q 3997 3413 4341 3413 
Q 4863 3413 5119 3089 
Q 5375 2766 5375 2113 
L 5375 331 
L 5894 331 
L 5894 0 
L 4300 0 
L 4300 331 
L 4800 331 
L 4800 2047 
Q 4800 2556 4650 2772 
Q 4500 2988 4153 2988 
Q 3769 2988 3567 2697 
Q 3366 2406 3366 1850 
L 3366 331 
L 3866 331 
L 3866 0 
L 2291 0 
L 2291 331 
L 2791 331 
L 2791 2069 
Q 2791 2566 2641 2777 
Q 2491 2988 2144 2988 
Q 1759 2988 1557 2697 
Q 1356 2406 1356 1850 
L 1356 331 
L 1856 331 
L 1856 0 
L 263 0 
L 263 331 
L 781 331 
L 781 2994 
L 231 2994 
L 231 3322 
L 1356 3322 
L 1356 2731 
Q 1516 3063 1762 3238 
Q 2009 3413 2322 3413 
Q 2709 3413 2968 3220 
Q 3228 3028 3316 2675 
z
" transform="scale(0.015625)"/>
       <path id="DejaVuSerif-65" d="M 3469 1600 
L 991 1600 
L 991 1575 
Q 991 903 1244 561 
Q 1497 219 1991 219 
Q 2369 219 2611 417 
Q 2853 616 2950 1006 
L 3413 1006 
Q 3275 459 2904 184 
Q 2534 -91 1931 -91 
Q 1203 -91 761 389 
Q 319 869 319 1663 
Q 319 2450 753 2931 
Q 1188 3413 1894 3413 
Q 2647 3413 3050 2948 
Q 3453 2484 3469 1600 
z
M 2791 1931 
Q 2772 2513 2545 2808 
Q 2319 3103 1894 3103 
Q 1497 3103 1269 2806 
Q 1041 2509 991 1931 
L 2791 1931 
z
" transform="scale(0.015625)"/>
      </defs>
      <use xlink:href="#DejaVuSerif-54"/>
      <use xlink:href="#DejaVuSerif-69" x="66.699219"/>
      <use xlink:href="#DejaVuSerif-6d" x="98.681641"/>
      <use xlink:href="#DejaVuSerif-65" x="193.505859"/>
     </g>
    </g>
   </g>
   <g id="matplotlib.axis_2">
    <g id="ytick_1">
     <g id="line2d_5">
      <defs>
       <path id="m64230cd6b4" d="M 0 0 
L -3.5 0 
" style="stroke: #000000; stroke-width: 0.8"/>
      </defs>
      <g>
       <use xlink:href="#m64230cd6b4" x="82.84375" y="348.578203" style="stroke: #000000; stroke-width: 0.8"/>
      </g>
     </g>
     <g id="text_6">
      <!-- 0.0 -->
      <g transform="translate(39.266562 357.316406) scale(0.23 -0.23)">
       <defs>
        <path id="DejaVuSerif-2e" d="M 603 325 
Q 603 500 722 622 
Q 841 744 1019 744 
Q 1191 744 1312 622 
Q 1434 500 1434 325 
Q 1434 153 1312 31 
Q 1191 -91 1019 -91 
Q 841 -91 722 29 
Q 603 150 603 325 
z
" transform="scale(0.015625)"/>
       </defs>
       <use xlink:href="#DejaVuSerif-30"/>
       <use xlink:href="#DejaVuSerif-2e" x="63.623047"/>
       <use xlink:href="#DejaVuSerif-30" x="95.410156"/>
      </g>
     </g>
    </g>
    <g id="ytick_2">
     <g id="line2d_6">
      <g>
       <use xlink:href="#m64230cd6b4" x="82.84375" y="282.050203" style="stroke: #000000; stroke-width: 0.8"/>
      </g>
     </g>
     <g id="text_7">
      <!-- 0.2 -->
      <g transform="translate(39.266562 290.788406) scale(0.23 -0.23)">
       <use xlink:href="#DejaVuSerif-30"/>
       <use xlink:href="#DejaVuSerif-2e" x="63.623047"/>
       <use xlink:href="#DejaVuSerif-32" x="95.410156"/>
      </g>
     </g>
    </g>
    <g id="ytick_3">
     <g id="line2d_7">
      <g>
       <use xlink:href="#m64230cd6b4" x="82.84375" y="215.522203" style="stroke: #000000; stroke-width: 0.8"/>
      </g>
     </g>
     <g id="text_8">
      <!-- 0.4 -->
      <g transform="translate(39.266562 224.260406) scale(0.23 -0.23)">
       <defs>
        <path id="DejaVuSerif-34" d="M 2234 1581 
L 2234 4063 
L 641 1581 
L 2234 1581 
z
M 3609 0 
L 1484 0 
L 1484 331 
L 2234 331 
L 2234 1247 
L 197 1247 
L 197 1588 
L 2241 4750 
L 2859 4750 
L 2859 1581 
L 3750 1581 
L 3750 1247 
L 2859 1247 
L 2859 331 
L 3609 331 
L 3609 0 
z
" transform="scale(0.015625)"/>
       </defs>
       <use xlink:href="#DejaVuSerif-30"/>
       <use xlink:href="#DejaVuSerif-2e" x="63.623047"/>
       <use xlink:href="#DejaVuSerif-34" x="95.410156"/>
      </g>
     </g>
    </g>
    <g id="ytick_4">
     <g id="line2d_8">
      <g>
       <use xlink:href="#m64230cd6b4" x="82.84375" y="148.994203" style="stroke: #000000; stroke-width: 0.8"/>
      </g>
     </g>
     <g id="text_9">
      <!-- 0.6 -->
      <g transform="translate(39.266562 157.732406) scale(0.23 -0.23)">
       <defs>
        <path id="DejaVuSerif-36" d="M 2094 219 
Q 2534 219 2771 542 
Q 3009 866 3009 1472 
Q 3009 2078 2771 2401 
Q 2534 2725 2094 2725 
Q 1647 2725 1412 2412 
Q 1178 2100 1178 1509 
Q 1178 888 1415 553 
Q 1653 219 2094 219 
z
M 1075 2569 
Q 1288 2803 1556 2918 
Q 1825 3034 2163 3034 
Q 2859 3034 3264 2615 
Q 3669 2197 3669 1472 
Q 3669 763 3233 336 
Q 2797 -91 2069 -91 
Q 1278 -91 853 498 
Q 428 1088 428 2181 
Q 428 3406 931 4078 
Q 1434 4750 2350 4750 
Q 2597 4750 2869 4703 
Q 3141 4656 3425 4563 
L 3425 3794 
L 3072 3794 
Q 3034 4109 2831 4275 
Q 2628 4441 2284 4441 
Q 1678 4441 1381 3981 
Q 1084 3522 1075 2569 
z
" transform="scale(0.015625)"/>
       </defs>
       <use xlink:href="#DejaVuSerif-30"/>
       <use xlink:href="#DejaVuSerif-2e" x="63.623047"/>
       <use xlink:href="#DejaVuSerif-36" x="95.410156"/>
      </g>
     </g>
    </g>
    <g id="ytick_5">
     <g id="line2d_9">
      <g>
       <use xlink:href="#m64230cd6b4" x="82.84375" y="82.466203" style="stroke: #000000; stroke-width: 0.8"/>
      </g>
     </g>
     <g id="text_10">
      <!-- 0.8 -->
      <g transform="translate(39.266562 91.204406) scale(0.23 -0.23)">
       <defs>
        <path id="DejaVuSerif-38" d="M 2981 1275 
Q 2981 1775 2732 2051 
Q 2484 2328 2034 2328 
Q 1584 2328 1336 2051 
Q 1088 1775 1088 1275 
Q 1088 772 1336 495 
Q 1584 219 2034 219 
Q 2484 219 2732 495 
Q 2981 772 2981 1275 
z
M 2853 3541 
Q 2853 3966 2637 4203 
Q 2422 4441 2034 4441 
Q 1650 4441 1433 4203 
Q 1216 3966 1216 3541 
Q 1216 3113 1433 2875 
Q 1650 2638 2034 2638 
Q 2422 2638 2637 2875 
Q 2853 3113 2853 3541 
z
M 2516 2484 
Q 3047 2413 3344 2092 
Q 3641 1772 3641 1275 
Q 3641 619 3225 264 
Q 2809 -91 2034 -91 
Q 1263 -91 845 264 
Q 428 619 428 1275 
Q 428 1772 725 2092 
Q 1022 2413 1556 2484 
Q 1084 2569 832 2842 
Q 581 3116 581 3541 
Q 581 4103 968 4426 
Q 1356 4750 2034 4750 
Q 2713 4750 3100 4426 
Q 3488 4103 3488 3541 
Q 3488 3116 3236 2842 
Q 2984 2569 2516 2484 
z
" transform="scale(0.015625)"/>
       </defs>
       <use xlink:href="#DejaVuSerif-30"/>
       <use xlink:href="#DejaVuSerif-2e" x="63.623047"/>
       <use xlink:href="#DejaVuSerif-38" x="95.410156"/>
      </g>
     </g>
    </g>
    <g id="ytick_6">
     <g id="line2d_10">
      <g>
       <use xlink:href="#m64230cd6b4" x="82.84375" y="15.938203" style="stroke: #000000; stroke-width: 0.8"/>
      </g>
     </g>
     <g id="text_11">
      <!-- 1.0 -->
      <g transform="translate(39.266562 24.676406) scale(0.23 -0.23)">
       <use xlink:href="#DejaVuSerif-31"/>
       <use xlink:href="#DejaVuSerif-2e" x="63.623047"/>
       <use xlink:href="#DejaVuSerif-30" x="95.410156"/>
      </g>
     </g>
    </g>
    <g id="text_12">
     <!-- Fraction of infected nodes -->
     <g transform="translate(29.235469 375.581719) rotate(-90) scale(0.29 -0.29)">
      <defs>
       <path id="DejaVuSerif-46" d="M 353 0 
L 353 331 
L 947 331 
L 947 4331 
L 353 4331 
L 353 4666 
L 4172 4666 
L 4172 3628 
L 3788 3628 
L 3788 4281 
L 1581 4281 
L 1581 2719 
L 3175 2719 
L 3175 3303 
L 3559 3303 
L 3559 1753 
L 3175 1753 
L 3175 2338 
L 1581 2338 
L 1581 331 
L 2328 331 
L 2328 0 
L 353 0 
z
" transform="scale(0.015625)"/>
       <path id="DejaVuSerif-72" d="M 3059 3328 
L 3059 2497 
L 2728 2497 
Q 2713 2744 2591 2866 
Q 2469 2988 2234 2988 
Q 1809 2988 1582 2694 
Q 1356 2400 1356 1850 
L 1356 331 
L 2022 331 
L 2022 0 
L 263 0 
L 263 331 
L 781 331 
L 781 2994 
L 231 2994 
L 231 3322 
L 1356 3322 
L 1356 2731 
Q 1525 3078 1790 3245 
Q 2056 3413 2438 3413 
Q 2578 3413 2733 3391 
Q 2888 3369 3059 3328 
z
" transform="scale(0.015625)"/>
       <path id="DejaVuSerif-61" d="M 2547 1044 
L 2547 1747 
L 1806 1747 
Q 1378 1747 1168 1562 
Q 959 1378 959 997 
Q 959 650 1171 447 
Q 1384 244 1747 244 
Q 2106 244 2326 466 
Q 2547 688 2547 1044 
z
M 3122 2075 
L 3122 331 
L 3634 331 
L 3634 0 
L 2547 0 
L 2547 359 
Q 2356 128 2106 18 
Q 1856 -91 1522 -91 
Q 969 -91 644 203 
Q 319 497 319 997 
Q 319 1513 691 1797 
Q 1063 2081 1741 2081 
L 2547 2081 
L 2547 2309 
Q 2547 2688 2317 2895 
Q 2088 3103 1672 3103 
Q 1328 3103 1125 2947 
Q 922 2791 872 2484 
L 575 2484 
L 575 3156 
Q 875 3284 1158 3348 
Q 1441 3413 1709 3413 
Q 2400 3413 2761 3070 
Q 3122 2728 3122 2075 
z
" transform="scale(0.015625)"/>
       <path id="DejaVuSerif-63" d="M 3291 997 
Q 3169 466 2822 187 
Q 2475 -91 1925 -91 
Q 1200 -91 759 389 
Q 319 869 319 1663 
Q 319 2459 759 2936 
Q 1200 3413 1925 3413 
Q 2241 3413 2553 3339 
Q 2866 3266 3181 3116 
L 3181 2266 
L 2847 2266 
Q 2781 2703 2561 2903 
Q 2341 3103 1931 3103 
Q 1466 3103 1228 2742 
Q 991 2381 991 1663 
Q 991 944 1227 581 
Q 1463 219 1931 219 
Q 2303 219 2525 412 
Q 2747 606 2828 997 
L 3291 997 
z
" transform="scale(0.015625)"/>
       <path id="DejaVuSerif-74" d="M 691 2988 
L 184 2988 
L 184 3322 
L 691 3322 
L 691 4353 
L 1269 4353 
L 1269 3322 
L 2350 3322 
L 2350 2988 
L 1269 2988 
L 1269 878 
Q 1269 456 1350 337 
Q 1431 219 1650 219 
Q 1875 219 1978 351 
Q 2081 484 2088 781 
L 2522 781 
Q 2497 328 2275 118 
Q 2053 -91 1600 -91 
Q 1103 -91 897 129 
Q 691 350 691 878 
L 691 2988 
z
" transform="scale(0.015625)"/>
       <path id="DejaVuSerif-6f" d="M 1925 219 
Q 2388 219 2623 584 
Q 2859 950 2859 1663 
Q 2859 2375 2623 2739 
Q 2388 3103 1925 3103 
Q 1463 3103 1227 2739 
Q 991 2375 991 1663 
Q 991 950 1228 584 
Q 1466 219 1925 219 
z
M 1925 -91 
Q 1200 -91 759 389 
Q 319 869 319 1663 
Q 319 2456 758 2934 
Q 1197 3413 1925 3413 
Q 2653 3413 3092 2934 
Q 3531 2456 3531 1663 
Q 3531 869 3092 389 
Q 2653 -91 1925 -91 
z
" transform="scale(0.015625)"/>
       <path id="DejaVuSerif-6e" d="M 263 0 
L 263 331 
L 781 331 
L 781 2988 
L 231 2988 
L 231 3322 
L 1356 3322 
L 1356 2731 
Q 1516 3069 1770 3241 
Q 2025 3413 2363 3413 
Q 2913 3413 3172 3097 
Q 3431 2781 3431 2113 
L 3431 331 
L 3944 331 
L 3944 0 
L 2356 0 
L 2356 331 
L 2853 331 
L 2853 1931 
Q 2853 2541 2703 2767 
Q 2553 2994 2175 2994 
Q 1775 2994 1565 2701 
Q 1356 2409 1356 1850 
L 1356 331 
L 1856 331 
L 1856 0 
L 263 0 
z
" transform="scale(0.015625)"/>
       <path id="DejaVuSerif-20" transform="scale(0.015625)"/>
       <path id="DejaVuSerif-66" d="M 2753 4078 
L 2450 4078 
Q 2447 4313 2317 4434 
Q 2188 4556 1941 4556 
Q 1619 4556 1487 4379 
Q 1356 4203 1356 3750 
L 1356 3322 
L 2284 3322 
L 2284 2988 
L 1356 2988 
L 1356 331 
L 2094 331 
L 2094 0 
L 231 0 
L 231 331 
L 781 331 
L 781 2988 
L 231 2988 
L 231 3322 
L 781 3322 
L 781 3738 
Q 781 4294 1070 4578 
Q 1359 4863 1919 4863 
Q 2128 4863 2337 4825 
Q 2547 4788 2753 4709 
L 2753 4078 
z
" transform="scale(0.015625)"/>
       <path id="DejaVuSerif-64" d="M 3359 331 
L 3909 331 
L 3909 0 
L 2784 0 
L 2784 519 
Q 2616 206 2355 57 
Q 2094 -91 1709 -91 
Q 1097 -91 708 395 
Q 319 881 319 1663 
Q 319 2444 706 2928 
Q 1094 3413 1709 3413 
Q 2094 3413 2355 3264 
Q 2616 3116 2784 2803 
L 2784 4531 
L 2241 4531 
L 2241 4863 
L 3359 4863 
L 3359 331 
z
M 2784 1497 
L 2784 1825 
Q 2784 2422 2554 2737 
Q 2325 3053 1888 3053 
Q 1444 3053 1217 2703 
Q 991 2353 991 1663 
Q 991 975 1217 622 
Q 1444 269 1888 269 
Q 2325 269 2554 583 
Q 2784 897 2784 1497 
z
" transform="scale(0.015625)"/>
       <path id="DejaVuSerif-73" d="M 359 184 
L 359 959 
L 691 959 
Q 703 588 923 403 
Q 1144 219 1575 219 
Q 1963 219 2166 364 
Q 2369 509 2369 788 
Q 2369 1006 2220 1140 
Q 2072 1275 1594 1428 
L 1178 1569 
Q 750 1706 558 1912 
Q 366 2119 366 2438 
Q 366 2894 700 3153 
Q 1034 3413 1625 3413 
Q 1888 3413 2178 3344 
Q 2469 3275 2778 3144 
L 2778 2419 
L 2447 2419 
Q 2434 2741 2221 2922 
Q 2009 3103 1644 3103 
Q 1281 3103 1095 2975 
Q 909 2847 909 2591 
Q 909 2381 1050 2254 
Q 1191 2128 1613 1997 
L 2069 1856 
Q 2541 1709 2748 1489 
Q 2956 1269 2956 922 
Q 2956 450 2595 179 
Q 2234 -91 1600 -91 
Q 1278 -91 972 -22 
Q 666 47 359 184 
z
" transform="scale(0.015625)"/>
      </defs>
      <use xlink:href="#DejaVuSerif-46"/>
      <use xlink:href="#DejaVuSerif-72" x="69.384766"/>
      <use xlink:href="#DejaVuSerif-61" x="117.1875"/>
      <use xlink:href="#DejaVuSerif-63" x="176.806641"/>
      <use xlink:href="#DejaVuSerif-74" x="232.8125"/>
      <use xlink:href="#DejaVuSerif-69" x="272.998047"/>
      <use xlink:href="#DejaVuSerif-6f" x="304.980469"/>
      <use xlink:href="#DejaVuSerif-6e" x="365.185547"/>
      <use xlink:href="#DejaVuSerif-20" x="429.589844"/>
      <use xlink:href="#DejaVuSerif-6f" x="461.376953"/>
      <use xlink:href="#DejaVuSerif-66" x="521.582031"/>
      <use xlink:href="#DejaVuSerif-20" x="558.59375"/>
      <use xlink:href="#DejaVuSerif-69" x="590.380859"/>
      <use xlink:href="#DejaVuSerif-6e" x="622.363281"/>
      <use xlink:href="#DejaVuSerif-66" x="686.767578"/>
      <use xlink:href="#DejaVuSerif-65" x="723.779297"/>
      <use xlink:href="#DejaVuSerif-63" x="782.958984"/>
      <use xlink:href="#DejaVuSerif-74" x="838.964844"/>
      <use xlink:href="#DejaVuSerif-65" x="879.150391"/>
      <use xlink:href="#DejaVuSerif-64" x="938.330078"/>
      <use xlink:href="#DejaVuSerif-20" x="1002.34375"/>
      <use xlink:href="#DejaVuSerif-6e" x="1034.130859"/>
      <use xlink:href="#DejaVuSerif-6f" x="1098.535156"/>
      <use xlink:href="#DejaVuSerif-64" x="1158.740234"/>
      <use xlink:href="#DejaVuSerif-65" x="1222.753906"/>
      <use xlink:href="#DejaVuSerif-73" x="1281.933594"/>
     </g>
    </g>
   </g>
   <g id="line2d_11">
    <path d="M 82.84375 182.766827 
L 84.14575 157.335634 
L 86.74975 123.76646 
L 88.05175 105.456001 
L 89.35375 98.335267 
L 90.65575 97.31802 
L 91.95775 87.145543 
L 93.25975 80.024809 
L 94.56175 83.076552 
L 97.16575 85.111047 
L 98.46775 79.007561 
L 99.76975 84.093799 
L 101.07175 82.059304 
L 102.37375 79.007561 
L 103.67575 80.024809 
L 104.97775 80.024809 
L 106.27975 84.093799 
L 107.58175 71.886827 
L 108.88375 72.904075 
L 110.18575 72.904075 
L 111.48775 69.852332 
L 112.78975 67.817836 
L 114.09175 63.748845 
L 115.39375 66.800588 
L 116.69575 71.886827 
L 117.99775 70.869579 
L 119.29975 66.800588 
L 120.60175 65.783341 
L 121.90375 66.800588 
L 123.20575 71.886827 
L 124.50775 73.921322 
L 125.80975 72.904075 
L 127.11175 70.869579 
L 128.41375 75.955818 
L 129.71575 80.024809 
L 131.01775 76.973066 
L 132.31975 76.973066 
L 133.62175 69.852332 
L 134.92375 71.886827 
L 137.52775 69.852332 
L 138.82975 75.955818 
L 140.13175 76.973066 
L 141.43375 68.835084 
L 142.73575 66.800588 
L 144.03775 74.93857 
L 145.33975 72.904075 
L 146.64175 72.904075 
L 147.94375 70.869579 
L 149.24575 67.817836 
L 150.54775 63.748845 
L 151.84975 67.817836 
L 153.15175 70.869579 
L 154.45375 69.852332 
L 155.75575 66.800588 
L 157.05775 67.817836 
L 159.66175 80.024809 
L 160.96375 80.024809 
L 162.26575 81.042056 
L 163.56775 77.990313 
L 164.86975 73.921322 
L 166.17175 77.990313 
L 167.47375 73.921322 
L 168.77575 71.886827 
L 170.07775 68.835084 
L 171.37975 72.904075 
L 172.68175 66.800588 
L 173.98375 75.955818 
L 175.28575 75.955818 
L 176.58775 66.800588 
L 177.88975 68.835084 
L 179.19175 72.904075 
L 180.49375 63.748845 
L 181.79575 66.800588 
L 183.09775 79.007561 
L 184.39975 67.817836 
L 185.70175 69.852332 
L 187.00375 72.904075 
L 188.30575 68.835084 
L 189.60775 67.817836 
L 190.90975 67.817836 
L 192.21175 69.852332 
L 193.51375 70.869579 
L 194.81575 65.783341 
L 196.11775 70.869579 
L 197.41975 70.869579 
L 198.72175 74.93857 
L 200.02375 69.852332 
L 201.32575 79.007561 
L 202.62775 76.973066 
L 203.92975 69.852332 
L 205.23175 74.93857 
L 206.53375 79.007561 
L 207.83575 85.111047 
L 209.13775 86.128295 
L 210.43975 92.231781 
L 211.74175 100.369763 
L 213.04375 94.266277 
L 214.34575 92.231781 
L 215.64775 91.214533 
L 216.94975 80.024809 
L 219.55375 84.093799 
L 220.85575 71.886827 
L 222.15775 72.904075 
L 223.45975 67.817836 
L 224.76175 72.904075 
L 226.06375 73.921322 
L 227.36575 64.766093 
L 228.66775 67.817836 
L 229.96975 64.766093 
L 231.27175 62.731598 
L 232.57375 63.748845 
L 233.87575 65.783341 
L 235.17775 66.800588 
L 236.47975 72.904075 
L 237.78175 75.955818 
L 239.08375 64.766093 
L 240.38575 59.679855 
L 241.68775 69.852332 
L 242.98975 63.748845 
L 244.29175 64.766093 
L 245.59375 64.766093 
L 246.89575 65.783341 
L 249.49975 69.852332 
L 250.80175 70.869579 
L 252.10375 68.835084 
L 253.40575 69.852332 
L 254.70775 72.904075 
L 256.00975 74.93857 
L 257.31175 69.852332 
L 258.61375 67.817836 
L 261.21775 82.059304 
L 262.51975 68.835084 
L 263.82175 69.852332 
L 265.12375 79.007561 
L 266.42575 81.042056 
L 267.72775 87.145543 
L 269.02975 84.093799 
L 270.33175 86.128295 
L 271.63375 82.059304 
L 272.93575 90.197286 
L 274.23775 82.059304 
L 275.53975 84.093799 
L 276.84175 82.059304 
L 278.14375 91.214533 
L 279.44575 89.180038 
L 280.74775 79.007561 
L 282.04975 77.990313 
L 283.35175 79.007561 
L 284.65375 83.076552 
L 285.95575 85.111047 
L 287.25775 89.180038 
L 288.55975 88.16279 
L 289.86175 89.180038 
L 291.16375 83.076552 
L 292.46575 77.990313 
L 293.76775 83.076552 
L 295.06975 91.214533 
L 296.37175 72.904075 
L 297.67375 73.921322 
L 298.97575 76.973066 
L 300.27775 71.886827 
L 301.57975 67.817836 
L 302.88175 68.835084 
L 304.18375 72.904075 
L 305.48575 67.817836 
L 306.78775 73.921322 
L 308.08975 69.852332 
L 309.39175 82.059304 
L 310.69375 83.076552 
L 311.99575 86.128295 
L 313.29775 83.076552 
L 314.59975 91.214533 
L 315.90175 91.214533 
L 317.20375 90.197286 
L 318.50575 87.145543 
L 319.80775 81.042056 
L 321.10975 85.111047 
L 322.41175 91.214533 
L 323.71375 85.111047 
L 325.01575 83.076552 
L 326.31775 77.990313 
L 327.61975 85.111047 
L 328.92175 82.059304 
L 330.22375 88.16279 
L 331.52575 76.973066 
L 332.82775 77.990313 
L 334.12975 81.042056 
L 335.43175 85.111047 
L 336.73375 81.042056 
L 338.03575 72.904075 
L 339.33775 75.955818 
L 340.63975 71.886827 
L 341.94175 72.904075 
L 343.24375 80.024809 
L 344.54575 76.973066 
L 345.84775 67.817836 
L 347.14975 65.783341 
L 349.75375 63.748845 
L 352.35775 69.852332 
L 353.65975 70.869579 
L 354.96175 80.024809 
L 356.26375 83.076552 
L 357.56575 85.111047 
L 358.86775 73.921322 
L 360.16975 68.835084 
L 361.47175 70.869579 
L 362.77375 66.800588 
L 364.07575 67.817836 
L 365.37775 72.904075 
L 366.67975 71.886827 
L 367.98175 63.748845 
L 369.28375 64.766093 
L 370.58575 69.852332 
L 371.88775 76.973066 
L 373.18975 69.852332 
L 374.49175 74.93857 
L 375.79375 82.059304 
L 377.09575 83.076552 
L 378.39775 83.076552 
L 379.69975 80.024809 
L 381.00175 84.093799 
L 382.30375 80.024809 
L 383.60575 83.076552 
L 384.90775 83.076552 
L 386.20975 84.093799 
L 387.51175 90.197286 
L 388.81375 91.214533 
L 390.11575 90.197286 
L 391.41775 88.16279 
L 392.71975 76.973066 
L 394.02175 73.921322 
L 395.32375 84.093799 
L 396.62575 83.076552 
L 397.92775 81.042056 
L 399.22975 82.059304 
L 400.53175 86.128295 
L 401.83375 87.145543 
L 403.13575 93.249029 
L 404.43775 88.16279 
L 405.73975 88.16279 
L 407.04175 83.076552 
L 408.34375 83.076552 
L 409.64575 82.059304 
L 410.94775 86.128295 
L 412.24975 77.990313 
L 413.55175 75.955818 
L 414.85375 66.800588 
L 416.15575 68.835084 
L 417.45775 73.921322 
L 418.75975 75.955818 
L 420.06175 65.783341 
L 421.36375 64.766093 
L 422.66575 72.904075 
L 423.96775 74.93857 
L 425.26975 75.955818 
L 426.57175 73.921322 
L 427.87375 67.817836 
L 429.17575 65.783341 
L 430.47775 71.886827 
L 431.77975 66.800588 
L 433.08175 73.921322 
L 434.38375 71.886827 
L 435.68575 70.869579 
L 436.98775 87.145543 
L 438.28975 83.076552 
L 439.59175 85.111047 
L 440.89375 72.904075 
L 442.19575 69.852332 
L 443.49775 71.886827 
L 444.79975 79.007561 
L 446.10175 77.990313 
L 447.40375 85.111047 
L 448.70575 91.214533 
L 450.00775 80.024809 
L 451.30975 74.93857 
L 452.61175 80.024809 
L 453.91375 70.869579 
L 455.21575 75.955818 
L 456.51775 71.886827 
L 457.81975 84.093799 
L 459.12175 70.869579 
L 460.42375 69.852332 
L 461.72575 74.93857 
L 463.02775 70.869579 
L 464.32975 62.731598 
L 465.63175 73.921322 
L 466.93375 72.904075 
L 468.23575 62.731598 
L 469.53775 73.921322 
L 470.83975 81.042056 
L 472.14175 74.93857 
L 473.44375 82.059304 
L 474.74575 62.731598 
L 476.04775 70.869579 
L 477.34975 71.886827 
L 478.65175 77.990313 
L 479.95375 69.852332 
L 481.25575 72.904075 
L 483.85975 68.835084 
L 485.16175 83.076552 
L 486.46375 80.024809 
L 487.76575 74.93857 
L 489.06775 61.71435 
L 490.36975 66.800588 
L 491.67175 64.766093 
L 492.97375 70.869579 
L 494.27575 66.800588 
L 495.57775 59.679855 
L 496.87975 65.783341 
L 498.18175 72.904075 
L 499.48375 65.783341 
L 500.78575 72.904075 
L 502.08775 67.817836 
L 503.38975 69.852332 
L 503.594375 69.852332 
L 503.594375 69.852332 
" clip-path="url(#p01827c70dd)" style="fill: none; stroke: #4a6e9e; stroke-width: 4; stroke-linecap: square"/>
   </g>
   <g id="line2d_12">
    <path d="M 82.84375 182.766827 
L 84.14575 187.853066 
L 85.44775 198.025543 
L 86.74975 198.025543 
L 88.05175 207.180772 
L 89.35375 210.232515 
L 90.65575 215.318754 
L 91.95775 216.336001 
L 93.25975 220.404992 
L 94.56175 221.42224 
L 95.86375 218.370497 
L 97.16575 219.387744 
L 98.46775 222.439488 
L 99.76975 226.508478 
L 101.07175 224.473983 
L 102.37375 223.456735 
L 104.97775 231.594717 
L 106.27975 233.629212 
L 107.58175 238.715451 
L 110.18575 242.784442 
L 111.48775 247.87068 
L 112.78975 246.853432 
L 114.09175 248.887928 
L 115.39375 253.974166 
L 116.69575 254.991414 
L 117.99775 253.974166 
L 119.29975 249.905176 
L 120.60175 254.991414 
L 121.90375 256.008662 
L 124.50775 253.974166 
L 125.80975 256.008662 
L 127.11175 257.02591 
L 128.41375 256.008662 
L 129.71575 252.956919 
L 131.01775 258.043157 
L 132.31975 260.077653 
L 133.62175 264.146643 
L 134.92375 264.146643 
L 136.22575 265.163891 
L 137.52775 265.163891 
L 138.82975 271.267377 
L 141.43375 273.301873 
L 142.73575 273.301873 
L 144.03775 274.319121 
L 145.33975 274.319121 
L 146.64175 276.353616 
L 147.94375 274.319121 
L 149.24575 277.370864 
L 150.54775 277.370864 
L 151.84975 279.405359 
L 153.15175 284.491598 
L 155.75575 290.595084 
L 157.05775 294.664075 
L 158.35975 295.681322 
L 160.96375 299.750313 
L 162.26575 302.802056 
L 163.56775 307.888295 
L 164.86975 309.92279 
L 166.17175 309.92279 
L 167.47375 307.888295 
L 168.77575 304.836552 
L 170.07775 308.905543 
L 171.37975 308.905543 
L 172.68175 311.957286 
L 175.28575 311.957286 
L 176.58775 315.009029 
L 177.88975 317.043524 
L 180.49375 317.043524 
L 181.79575 313.991781 
L 183.09775 311.957286 
L 184.39975 313.991781 
L 185.70175 312.974533 
L 188.30575 319.07802 
L 189.60775 320.095267 
L 190.90975 316.026277 
L 192.21175 315.009029 
L 193.51375 315.009029 
L 194.81575 316.026277 
L 196.11775 316.026277 
L 197.41975 313.991781 
L 200.02375 316.026277 
L 201.32575 316.026277 
L 202.62775 315.009029 
L 203.92975 315.009029 
L 205.23175 313.991781 
L 206.53375 315.009029 
L 207.83575 313.991781 
L 209.13775 315.009029 
L 210.43975 313.991781 
L 211.74175 313.991781 
L 213.04375 311.957286 
L 214.34575 313.991781 
L 216.94975 313.991781 
L 218.25175 312.974533 
L 219.55375 315.009029 
L 220.85575 319.07802 
L 222.15775 321.112515 
L 223.45975 324.164258 
L 224.76175 324.164258 
L 226.06375 328.233249 
L 227.36575 328.233249 
L 228.66775 329.250497 
L 229.96975 329.250497 
L 231.27175 328.233249 
L 232.57375 330.267744 
L 233.87575 330.267744 
L 235.17775 331.284992 
L 236.47975 329.250497 
L 239.08375 329.250497 
L 240.38575 328.233249 
L 241.68775 328.233249 
L 242.98975 329.250497 
L 245.59375 329.250497 
L 246.89575 326.198754 
L 248.19775 330.267744 
L 249.49975 329.250497 
L 250.80175 330.267744 
L 252.10375 330.267744 
L 253.40575 331.284992 
L 254.70775 331.284992 
L 256.00975 329.250497 
L 257.31175 330.267744 
L 258.61375 330.267744 
L 259.91575 331.284992 
L 262.51975 329.250497 
L 265.12375 329.250497 
L 266.42575 330.267744 
L 267.72775 332.30224 
L 269.02975 331.284992 
L 270.33175 331.284992 
L 271.63375 329.250497 
L 272.93575 328.233249 
L 274.23775 329.250497 
L 275.53975 329.250497 
L 276.84175 328.233249 
L 278.14375 330.267744 
L 279.44575 329.250497 
L 280.74775 331.284992 
L 282.04975 330.267744 
L 284.65375 330.267744 
L 285.95575 331.284992 
L 287.25775 330.267744 
L 288.55975 328.233249 
L 289.86175 328.233249 
L 292.46575 330.267744 
L 293.76775 329.250497 
L 296.37175 329.250497 
L 297.67375 328.233249 
L 298.97575 326.198754 
L 300.27775 326.198754 
L 301.57975 324.164258 
L 302.88175 323.14701 
L 304.18375 324.164258 
L 305.48575 323.14701 
L 308.08975 327.216001 
L 310.69375 327.216001 
L 311.99575 331.284992 
L 313.29775 334.336735 
L 314.59975 334.336735 
L 315.90175 336.371231 
L 318.50575 336.371231 
L 321.10975 338.405726 
L 322.41175 338.405726 
L 323.71375 339.422974 
L 326.31775 339.422974 
L 327.61975 338.405726 
L 330.22375 340.440221 
L 331.52575 343.491965 
L 332.82775 341.457469 
L 336.73375 341.457469 
L 338.03575 342.474717 
L 339.33775 340.440221 
L 340.63975 340.440221 
L 344.54575 343.491965 
L 345.84775 343.491965 
L 347.14975 342.474717 
L 348.45175 342.474717 
L 349.75375 343.491965 
L 351.05575 342.474717 
L 353.65975 342.474717 
L 354.96175 343.491965 
L 362.77375 343.491965 
L 364.07575 341.457469 
L 367.98175 341.457469 
L 369.28375 342.474717 
L 371.88775 342.474717 
L 373.18975 343.491965 
L 374.49175 342.474717 
L 375.79375 342.474717 
L 377.09575 343.491965 
L 381.00175 343.491965 
L 382.30375 341.457469 
L 383.60575 341.457469 
L 384.90775 342.474717 
L 386.20975 341.457469 
L 387.51175 342.474717 
L 390.11575 342.474717 
L 391.41775 341.457469 
L 396.62575 341.457469 
L 399.22975 343.491965 
L 400.53175 342.474717 
L 403.13575 344.509212 
L 409.64575 344.509212 
L 410.94775 343.491965 
L 413.55175 343.491965 
L 416.15575 345.52646 
L 417.45775 343.491965 
L 422.66575 347.560955 
L 423.96775 347.560955 
L 425.26975 346.543708 
L 435.68575 346.543708 
L 436.98775 347.560955 
L 444.79975 347.560955 
L 446.10175 348.578203 
L 503.594375 348.578203 
L 503.594375 348.578203 
" clip-path="url(#p01827c70dd)" style="fill: none; stroke: #c74187; stroke-width: 4; stroke-linecap: square"/>
   </g>
   <g id="patch_3">
    <path d="M 82.84375 348.578203 
L 82.84375 15.938203 
" style="fill: none; stroke: #000000; stroke-width: 0.8; stroke-linejoin: miter; stroke-linecap: square"/>
   </g>
   <g id="patch_4">
    <path d="M 82.84375 348.578203 
L 473.44375 348.578203 
" style="fill: none; stroke: #000000; stroke-width: 0.8; stroke-linejoin: miter; stroke-linecap: square"/>
   </g>
   <g id="legend_1">
    <g id="line2d_13">
     <path d="M 97.125 165.814453 
L 107.125 165.814453 
L 117.125 165.814453 
" style="fill: none; stroke: #4a6e9e; stroke-width: 4; stroke-linecap: square"/>
    </g>
    <g id="text_13">
     <!-- With higher-order contagion -->
     <g transform="translate(133.125 172.814453) scale(0.2 -0.2)">
      <defs>
       <path id="DejaVuSerif-57" d="M 4878 0 
L 4366 0 
L 3297 3794 
L 2228 0 
L 1716 0 
L 494 4331 
L 31 4331 
L 31 4666 
L 1734 4666 
L 1734 4331 
L 1153 4331 
L 2125 884 
L 3188 4666 
L 3694 4666 
L 4775 844 
L 5753 4331 
L 5216 4331 
L 5216 4666 
L 6559 4666 
L 6559 4331 
L 6100 4331 
L 4878 0 
z
" transform="scale(0.015625)"/>
       <path id="DejaVuSerif-68" d="M 263 0 
L 263 331 
L 781 331 
L 781 4531 
L 231 4531 
L 231 4863 
L 1356 4863 
L 1356 2731 
Q 1516 3069 1770 3241 
Q 2025 3413 2363 3413 
Q 2913 3413 3172 3097 
Q 3431 2781 3431 2113 
L 3431 331 
L 3944 331 
L 3944 0 
L 2356 0 
L 2356 331 
L 2853 331 
L 2853 1931 
Q 2853 2541 2704 2764 
Q 2556 2988 2175 2988 
Q 1775 2988 1565 2697 
Q 1356 2406 1356 1850 
L 1356 331 
L 1856 331 
L 1856 0 
L 263 0 
z
" transform="scale(0.015625)"/>
       <path id="DejaVuSerif-67" d="M 3359 2988 
L 3359 72 
Q 3359 -644 2965 -1033 
Q 2572 -1422 1844 -1422 
Q 1516 -1422 1216 -1362 
Q 916 -1303 641 -1184 
L 641 -488 
L 941 -488 
Q 997 -813 1206 -963 
Q 1416 -1113 1806 -1113 
Q 2313 -1113 2548 -827 
Q 2784 -541 2784 72 
L 2784 519 
Q 2616 206 2355 57 
Q 2094 -91 1709 -91 
Q 1097 -91 708 395 
Q 319 881 319 1663 
Q 319 2444 706 2928 
Q 1094 3413 1709 3413 
Q 2094 3413 2355 3264 
Q 2616 3116 2784 2803 
L 2784 3322 
L 3909 3322 
L 3909 2988 
L 3359 2988 
z
M 2784 1825 
Q 2784 2422 2554 2737 
Q 2325 3053 1888 3053 
Q 1444 3053 1217 2703 
Q 991 2353 991 1663 
Q 991 975 1217 622 
Q 1444 269 1888 269 
Q 2325 269 2554 583 
Q 2784 897 2784 1497 
L 2784 1825 
z
" transform="scale(0.015625)"/>
       <path id="DejaVuSerif-2d" d="M 281 1959 
L 1881 1959 
L 1881 1472 
L 281 1472 
L 281 1959 
z
" transform="scale(0.015625)"/>
      </defs>
      <use xlink:href="#DejaVuSerif-57"/>
      <use xlink:href="#DejaVuSerif-69" x="101.033203"/>
      <use xlink:href="#DejaVuSerif-74" x="133.015625"/>
      <use xlink:href="#DejaVuSerif-68" x="173.201172"/>
      <use xlink:href="#DejaVuSerif-20" x="237.605469"/>
      <use xlink:href="#DejaVuSerif-68" x="269.392578"/>
      <use xlink:href="#DejaVuSerif-69" x="333.796875"/>
      <use xlink:href="#DejaVuSerif-67" x="365.779297"/>
      <use xlink:href="#DejaVuSerif-68" x="429.792969"/>
      <use xlink:href="#DejaVuSerif-65" x="494.197266"/>
      <use xlink:href="#DejaVuSerif-72" x="553.376953"/>
      <use xlink:href="#DejaVuSerif-2d" x="601.179688"/>
      <use xlink:href="#DejaVuSerif-6f" x="634.96875"/>
      <use xlink:href="#DejaVuSerif-72" x="695.173828"/>
      <use xlink:href="#DejaVuSerif-64" x="742.976562"/>
      <use xlink:href="#DejaVuSerif-65" x="806.990234"/>
      <use xlink:href="#DejaVuSerif-72" x="866.169922"/>
      <use xlink:href="#DejaVuSerif-20" x="913.972656"/>
      <use xlink:href="#DejaVuSerif-63" x="945.759766"/>
      <use xlink:href="#DejaVuSerif-6f" x="1001.765625"/>
      <use xlink:href="#DejaVuSerif-6e" x="1061.970703"/>
      <use xlink:href="#DejaVuSerif-74" x="1126.375"/>
      <use xlink:href="#DejaVuSerif-61" x="1166.560547"/>
      <use xlink:href="#DejaVuSerif-67" x="1226.179688"/>
      <use xlink:href="#DejaVuSerif-69" x="1290.193359"/>
      <use xlink:href="#DejaVuSerif-6f" x="1322.175781"/>
      <use xlink:href="#DejaVuSerif-6e" x="1382.380859"/>
     </g>
    </g>
    <g id="line2d_14">
     <path d="M 97.125 195.455078 
L 107.125 195.455078 
L 117.125 195.455078 
" style="fill: none; stroke: #c74187; stroke-width: 4; stroke-linecap: square"/>
    </g>
    <g id="text_14">
     <!-- Without higher-order contagion -->
     <g transform="translate(133.125 202.455078) scale(0.2 -0.2)">
      <defs>
       <path id="DejaVuSerif-75" d="M 2266 3322 
L 3341 3322 
L 3341 331 
L 3884 331 
L 3884 0 
L 2766 0 
L 2766 588 
Q 2606 256 2353 82 
Q 2100 -91 1766 -91 
Q 1213 -91 952 223 
Q 691 538 691 1209 
L 691 2988 
L 172 2988 
L 172 3322 
L 1269 3322 
L 1269 1388 
Q 1269 781 1417 556 
Q 1566 331 1947 331 
Q 2347 331 2556 625 
Q 2766 919 2766 1478 
L 2766 2988 
L 2266 2988 
L 2266 3322 
z
" transform="scale(0.015625)"/>
      </defs>
      <use xlink:href="#DejaVuSerif-57"/>
      <use xlink:href="#DejaVuSerif-69" x="101.033203"/>
      <use xlink:href="#DejaVuSerif-74" x="133.015625"/>
      <use xlink:href="#DejaVuSerif-68" x="173.201172"/>
      <use xlink:href="#DejaVuSerif-6f" x="237.605469"/>
      <use xlink:href="#DejaVuSerif-75" x="297.810547"/>
      <use xlink:href="#DejaVuSerif-74" x="362.214844"/>
      <use xlink:href="#DejaVuSerif-20" x="402.400391"/>
      <use xlink:href="#DejaVuSerif-68" x="434.1875"/>
      <use xlink:href="#DejaVuSerif-69" x="498.591797"/>
      <use xlink:href="#DejaVuSerif-67" x="530.574219"/>
      <use xlink:href="#DejaVuSerif-68" x="594.587891"/>
      <use xlink:href="#DejaVuSerif-65" x="658.992188"/>
      <use xlink:href="#DejaVuSerif-72" x="718.171875"/>
      <use xlink:href="#DejaVuSerif-2d" x="765.974609"/>
      <use xlink:href="#DejaVuSerif-6f" x="799.763672"/>
      <use xlink:href="#DejaVuSerif-72" x="859.96875"/>
      <use xlink:href="#DejaVuSerif-64" x="907.771484"/>
      <use xlink:href="#DejaVuSerif-65" x="971.785156"/>
      <use xlink:href="#DejaVuSerif-72" x="1030.964844"/>
      <use xlink:href="#DejaVuSerif-20" x="1078.767578"/>
      <use xlink:href="#DejaVuSerif-63" x="1110.554688"/>
      <use xlink:href="#DejaVuSerif-6f" x="1166.560547"/>
      <use xlink:href="#DejaVuSerif-6e" x="1226.765625"/>
      <use xlink:href="#DejaVuSerif-74" x="1291.169922"/>
      <use xlink:href="#DejaVuSerif-61" x="1331.355469"/>
      <use xlink:href="#DejaVuSerif-67" x="1390.974609"/>
      <use xlink:href="#DejaVuSerif-69" x="1454.988281"/>
      <use xlink:href="#DejaVuSerif-6f" x="1486.970703"/>
      <use xlink:href="#DejaVuSerif-6e" x="1547.175781"/>
     </g>
    </g>
   </g>
  </g>
 </g>
 <defs>
  <clipPath id="p01827c70dd">
   <rect x="82.84375" y="15.938203" width="390.6" height="332.64"/>
  </clipPath>
 </defs>
</svg>
